# MagicaVoxel @ Ephtracy

# group
o 

# material
mtllib banner.mtl
usemtl palette

# normals
vn -1 0 0
vn 1 0 0
vn 0 0 1
vn 0 0 -1
vn 0 -1 0
vn 0 1 0

# texcoords
vt 0.185547 0.5
vt 0.833984 0.5
vt 0.978516 0.5

# verts
v -1.3 3.9 0.2
v -1.3 3.9 0.1
v -1.3 4 0.2
v -1.3 4 0.1
v -1.2 0 0.2
v -1.2 0 0.1
v -1.2 3.8 0.2
v -1.2 3.8 0.1
v -1.2 3.9 0.3
v -1.2 3.9 0.2
v -1.2 3.9 0.1
v -1.2 3.9 -2.98023e-08
v -1.2 4 0.3
v -1.2 4 0.2
v -1.2 4 0.1
v -1.2 4 -2.98023e-08
v -1.1 3.8 0.3
v -1.1 3.8 0.2
v -1.1 3.8 0.1
v -1.1 3.8 -2.98023e-08
v -1.1 3.9 0.3
v -1.1 3.9 0.2
v -1.1 3.9 0.1
v -1.1 3.9 -2.98023e-08
v -0.0999999 0.8 0.2
v -0.0999999 0.8 0.1
v -0.0999999 0.9 0.2
v -0.0999999 0.9 0.1
v 0 0.7 0.2
v 0 0.7 0.1
v 0 0.8 0.2
v 0 0.8 0.1
v 0.1 0.6 0.2
v 0.1 0.6 0.1
v 0.1 0.7 0.2
v 0.1 0.7 0.1
v 0.2 0.5 0.2
v 0.2 0.5 0.1
v 0.2 0.6 0.2
v 0.2 0.6 0.1
v 0.3 0.4 0.2
v 0.3 0.4 0.1
v 0.3 0.5 0.2
v 0.3 0.5 0.1
v 0.4 0.3 0.2
v 0.4 0.3 0.1
v 0.4 0.4 0.2
v 0.4 0.4 0.1
v 0.5 0.2 0.2
v 0.5 0.2 0.1
v 0.5 0.3 0.2
v 0.5 0.3 0.1
v 0.6 0.1 0.2
v 0.6 0.1 0.1
v 0.6 0.2 0.2
v 0.6 0.2 0.1
v 0.7 0 0.2
v 0.7 0 0.1
v 0.7 0.1 0.2
v 0.7 0.1 0.1
v -1 0 0.2
v -1 0 0.1
v -1 0.1 0.2
v -1 0.1 0.1
v -0.9 0.1 0.2
v -0.9 0.1 0.1
v -0.9 0.2 0.2
v -0.9 0.2 0.1
v -0.8 0.2 0.2
v -0.8 0.2 0.1
v -0.8 0.3 0.2
v -0.8 0.3 0.1
v -0.7 0.3 0.2
v -0.7 0.3 0.1
v -0.7 0.4 0.2
v -0.7 0.4 0.1
v -0.6 0.4 0.2
v -0.6 0.4 0.1
v -0.6 0.5 0.2
v -0.6 0.5 0.1
v -0.5 0.5 0.2
v -0.5 0.5 0.1
v -0.5 0.6 0.2
v -0.5 0.6 0.1
v -0.4 0.6 0.2
v -0.4 0.6 0.1
v -0.4 0.7 0.2
v -0.4 0.7 0.1
v -0.3 0.7 0.2
v -0.3 0.7 0.1
v -0.3 0.8 0.2
v -0.3 0.8 0.1
v -0.2 0.8 0.2
v -0.2 0.8 0.1
v -0.2 0.9 0.2
v -0.2 0.9 0.1
v 0.8 3.8 0.3
v 0.8 3.8 0.2
v 0.8 3.8 0.1
v 0.8 3.8 -2.98023e-08
v 0.8 3.9 0.3
v 0.8 3.9 0.2
v 0.8 3.9 0.1
v 0.8 3.9 -2.98023e-08
v 0.9 0 0.2
v 0.9 0 0.1
v 0.9 3.8 0.2
v 0.9 3.8 0.1
v 0.9 3.9 0.3
v 0.9 3.9 0.2
v 0.9 3.9 0.1
v 0.9 3.9 -2.98023e-08
v 0.9 4 0.3
v 0.9 4 0.2
v 0.9 4 0.1
v 0.9 4 -2.98023e-08
v 1 3.9 0.2
v 1 3.9 0.1
v 1 4 0.2
v 1 4 0.1
v -1.2 3.9 0.3
v -1.2 4 0.3
v -1.1 3.8 0.3
v -1.1 3.9 0.3
v 0.8 3.8 0.3
v 0.8 3.9 0.3
v 0.9 3.9 0.3
v 0.9 4 0.3
v -1.3 3.9 0.2
v -1.3 4 0.2
v -1.2 0 0.2
v -1.2 3.8 0.2
v -1.2 3.9 0.2
v -1.2 4 0.2
v -1.1 0.1 0.2
v -1.1 3.8 0.2
v -1.1 3.9 0.2
v -1 0 0.2
v -1 0.1 0.2
v -1 0.2 0.2
v -0.9 0.1 0.2
v -0.9 0.2 0.2
v -0.9 0.3 0.2
v -0.8 0.2 0.2
v -0.8 0.3 0.2
v -0.8 0.4 0.2
v -0.8 2.4 0.2
v -0.8 3.3 0.2
v -0.7 0.3 0.2
v -0.7 0.4 0.2
v -0.7 0.5 0.2
v -0.7 2.3 0.2
v -0.7 2.4 0.2
v -0.7 3.3 0.2
v -0.7 3.4 0.2
v -0.6 0.4 0.2
v -0.6 0.5 0.2
v -0.6 0.6 0.2
v -0.6 2.2 0.2
v -0.6 2.3 0.2
v -0.6 2.4 0.2
v -0.6 3.3 0.2
v -0.6 3.4 0.2
v -0.6 3.5 0.2
v -0.5 0.5 0.2
v -0.5 0.6 0.2
v -0.5 0.7 0.2
v -0.5 2.1 0.2
v -0.5 2.2 0.2
v -0.5 2.3 0.2
v -0.5 2.4 0.2
v -0.5 3.2 0.2
v -0.5 3.3 0.2
v -0.5 3.4 0.2
v -0.5 3.5 0.2
v -0.5 3.6 0.2
v -0.4 0.6 0.2
v -0.4 0.7 0.2
v -0.4 0.8 0.2
v -0.4 2 0.2
v -0.4 2.1 0.2
v -0.4 2.2 0.2
v -0.4 2.3 0.2
v -0.4 2.4 0.2
v -0.4 3.2 0.2
v -0.4 3.3 0.2
v -0.4 3.4 0.2
v -0.3 0.7 0.2
v -0.3 0.8 0.2
v -0.3 0.9 0.2
v -0.3 1.9 0.2
v -0.3 2 0.2
v -0.3 2.1 0.2
v -0.3 2.3 0.2
v -0.2 0.8 0.2
v -0.2 0.9 0.2
v -0.2 1 0.2
v -0.0999999 0.8 0.2
v -0.0999999 0.9 0.2
v -0.0999999 1 0.2
v -0.0999999 1.9 0.2
v -0.0999999 2 0.2
v -0.0999999 2.1 0.2
v -0.0999999 2.3 0.2
v 0 0.7 0.2
v 0 0.8 0.2
v 0 0.9 0.2
v 0 2 0.2
v 0 2.1 0.2
v 0 2.2 0.2
v 0 2.3 0.2
v 0 2.4 0.2
v 0 3.2 0.2
v 0 3.3 0.2
v 0 3.4 0.2
v 0.1 0.6 0.2
v 0.1 0.7 0.2
v 0.1 0.8 0.2
v 0.1 2.1 0.2
v 0.1 2.2 0.2
v 0.1 2.3 0.2
v 0.1 2.4 0.2
v 0.1 3.2 0.2
v 0.1 3.3 0.2
v 0.1 3.4 0.2
v 0.1 3.5 0.2
v 0.1 3.6 0.2
v 0.2 0.5 0.2
v 0.2 0.6 0.2
v 0.2 0.7 0.2
v 0.2 2.2 0.2
v 0.2 2.3 0.2
v 0.2 2.4 0.2
v 0.2 3.3 0.2
v 0.2 3.4 0.2
v 0.2 3.5 0.2
v 0.3 0.4 0.2
v 0.3 0.5 0.2
v 0.3 0.6 0.2
v 0.3 2.3 0.2
v 0.3 2.4 0.2
v 0.3 3.3 0.2
v 0.3 3.4 0.2
v 0.4 0.3 0.2
v 0.4 0.4 0.2
v 0.4 0.5 0.2
v 0.4 2.4 0.2
v 0.4 3.3 0.2
v 0.5 0.2 0.2
v 0.5 0.3 0.2
v 0.5 0.4 0.2
v 0.6 0.1 0.2
v 0.6 0.2 0.2
v 0.6 0.3 0.2
v 0.7 0 0.2
v 0.7 0.1 0.2
v 0.7 0.2 0.2
v 0.8 0.1 0.2
v 0.8 3.8 0.2
v 0.8 3.9 0.2
v 0.9 0 0.2
v 0.9 3.8 0.2
v 0.9 3.9 0.2
v 0.9 4 0.2
v 1 3.9 0.2
v 1 4 0.2
v -1.3 3.9 0.1
v -1.3 4 0.1
v -1.2 0 0.1
v -1.2 3.8 0.1
v -1.2 3.9 0.1
v -1.2 4 0.1
v -1.1 0.1 0.1
v -1.1 3.8 0.1
v -1.1 3.9 0.1
v -1 0 0.1
v -1 0.1 0.1
v -1 0.2 0.1
v -0.9 0.1 0.1
v -0.9 0.2 0.1
v -0.9 0.3 0.1
v -0.8 0.2 0.1
v -0.8 0.3 0.1
v -0.8 0.4 0.1
v -0.8 2.4 0.1
v -0.8 3.3 0.1
v -0.7 0.3 0.1
v -0.7 0.4 0.1
v -0.7 0.5 0.1
v -0.7 2.3 0.1
v -0.7 2.4 0.1
v -0.7 3.3 0.1
v -0.7 3.4 0.1
v -0.6 0.4 0.1
v -0.6 0.5 0.1
v -0.6 0.6 0.1
v -0.6 2.2 0.1
v -0.6 2.3 0.1
v -0.6 2.4 0.1
v -0.6 3.3 0.1
v -0.6 3.4 0.1
v -0.6 3.5 0.1
v -0.5 0.5 0.1
v -0.5 0.6 0.1
v -0.5 0.7 0.1
v -0.5 2.1 0.1
v -0.5 2.2 0.1
v -0.5 2.3 0.1
v -0.5 2.4 0.1
v -0.5 3.2 0.1
v -0.5 3.3 0.1
v -0.5 3.4 0.1
v -0.5 3.5 0.1
v -0.5 3.6 0.1
v -0.4 0.6 0.1
v -0.4 0.7 0.1
v -0.4 0.8 0.1
v -0.4 2 0.1
v -0.4 2.1 0.1
v -0.4 2.2 0.1
v -0.4 2.3 0.1
v -0.4 2.4 0.1
v -0.4 3.2 0.1
v -0.4 3.3 0.1
v -0.4 3.4 0.1
v -0.3 0.7 0.1
v -0.3 0.8 0.1
v -0.3 0.9 0.1
v -0.3 1.9 0.1
v -0.3 2 0.1
v -0.3 2.1 0.1
v -0.3 2.3 0.1
v -0.2 0.8 0.1
v -0.2 0.9 0.1
v -0.2 1 0.1
v -0.0999999 0.8 0.1
v -0.0999999 0.9 0.1
v -0.0999999 1 0.1
v -0.0999999 1.9 0.1
v -0.0999999 2 0.1
v -0.0999999 2.1 0.1
v -0.0999999 2.3 0.1
v 0 0.7 0.1
v 0 0.8 0.1
v 0 0.9 0.1
v 0 2 0.1
v 0 2.1 0.1
v 0 2.2 0.1
v 0 2.3 0.1
v 0 2.4 0.1
v 0 3.2 0.1
v 0 3.3 0.1
v 0 3.4 0.1
v 0.1 0.6 0.1
v 0.1 0.7 0.1
v 0.1 0.8 0.1
v 0.1 2.1 0.1
v 0.1 2.2 0.1
v 0.1 2.3 0.1
v 0.1 2.4 0.1
v 0.1 3.2 0.1
v 0.1 3.3 0.1
v 0.1 3.4 0.1
v 0.1 3.5 0.1
v 0.1 3.6 0.1
v 0.2 0.5 0.1
v 0.2 0.6 0.1
v 0.2 0.7 0.1
v 0.2 2.2 0.1
v 0.2 2.3 0.1
v 0.2 2.4 0.1
v 0.2 3.3 0.1
v 0.2 3.4 0.1
v 0.2 3.5 0.1
v 0.3 0.4 0.1
v 0.3 0.5 0.1
v 0.3 0.6 0.1
v 0.3 2.3 0.1
v 0.3 2.4 0.1
v 0.3 3.3 0.1
v 0.3 3.4 0.1
v 0.4 0.3 0.1
v 0.4 0.4 0.1
v 0.4 0.5 0.1
v 0.4 2.4 0.1
v 0.4 3.3 0.1
v 0.5 0.2 0.1
v 0.5 0.3 0.1
v 0.5 0.4 0.1
v 0.6 0.1 0.1
v 0.6 0.2 0.1
v 0.6 0.3 0.1
v 0.7 0 0.1
v 0.7 0.1 0.1
v 0.7 0.2 0.1
v 0.8 0.1 0.1
v 0.8 3.8 0.1
v 0.8 3.9 0.1
v 0.9 0 0.1
v 0.9 3.8 0.1
v 0.9 3.9 0.1
v 0.9 4 0.1
v 1 3.9 0.1
v 1 4 0.1
v -1.2 3.9 -2.98023e-08
v -1.2 4 -2.98023e-08
v -1.1 3.8 -2.98023e-08
v -1.1 3.9 -2.98023e-08
v 0.8 3.8 -2.98023e-08
v 0.8 3.9 -2.98023e-08
v 0.9 3.9 -2.98023e-08
v 0.9 4 -2.98023e-08
v -1.2 0 0.2
v -1 0 0.2
v 0.7 0 0.2
v 0.9 0 0.2
v -1.2 0 0.1
v -1 0 0.1
v 0.7 0 0.1
v 0.9 0 0.1
v -1 0.1 0.2
v -0.9 0.1 0.2
v 0.6 0.1 0.2
v 0.7 0.1 0.2
v -1 0.1 0.1
v -0.9 0.1 0.1
v 0.6 0.1 0.1
v 0.7 0.1 0.1
v -0.9 0.2 0.2
v -0.8 0.2 0.2
v 0.5 0.2 0.2
v 0.6 0.2 0.2
v -0.9 0.2 0.1
v -0.8 0.2 0.1
v 0.5 0.2 0.1
v 0.6 0.2 0.1
v -0.8 0.3 0.2
v -0.7 0.3 0.2
v 0.4 0.3 0.2
v 0.5 0.3 0.2
v -0.8 0.3 0.1
v -0.7 0.3 0.1
v 0.4 0.3 0.1
v 0.5 0.3 0.1
v -0.7 0.4 0.2
v -0.6 0.4 0.2
v 0.3 0.4 0.2
v 0.4 0.4 0.2
v -0.7 0.4 0.1
v -0.6 0.4 0.1
v 0.3 0.4 0.1
v 0.4 0.4 0.1
v -0.6 0.5 0.2
v -0.5 0.5 0.2
v 0.2 0.5 0.2
v 0.3 0.5 0.2
v -0.6 0.5 0.1
v -0.5 0.5 0.1
v 0.2 0.5 0.1
v 0.3 0.5 0.1
v -0.5 0.6 0.2
v -0.4 0.6 0.2
v 0.1 0.6 0.2
v 0.2 0.6 0.2
v -0.5 0.6 0.1
v -0.4 0.6 0.1
v 0.1 0.6 0.1
v 0.2 0.6 0.1
v -0.4 0.7 0.2
v -0.3 0.7 0.2
v 0 0.7 0.2
v 0.1 0.7 0.2
v -0.4 0.7 0.1
v -0.3 0.7 0.1
v 0 0.7 0.1
v 0.1 0.7 0.1
v -0.3 0.8 0.2
v -0.2 0.8 0.2
v -0.0999999 0.8 0.2
v 0 0.8 0.2
v -0.3 0.8 0.1
v -0.2 0.8 0.1
v -0.0999999 0.8 0.1
v 0 0.8 0.1
v -0.2 0.9 0.2
v -0.0999999 0.9 0.2
v -0.2 0.9 0.1
v -0.0999999 0.9 0.1
v -1.1 3.8 0.3
v 0.8 3.8 0.3
v -1.1 3.8 0.2
v 0.8 3.8 0.2
v -1.1 3.8 0.1
v 0.8 3.8 0.1
v -1.1 3.8 -2.98023e-08
v 0.8 3.8 -2.98023e-08
v -1.2 3.9 0.3
v -1.1 3.9 0.3
v 0.8 3.9 0.3
v 0.9 3.9 0.3
v -1.3 3.9 0.2
v -1.2 3.9 0.2
v -1.1 3.9 0.2
v 0.8 3.9 0.2
v 0.9 3.9 0.2
v 1 3.9 0.2
v -1.3 3.9 0.1
v -1.2 3.9 0.1
v -1.1 3.9 0.1
v 0.8 3.9 0.1
v 0.9 3.9 0.1
v 1 3.9 0.1
v -1.2 3.9 -2.98023e-08
v -1.1 3.9 -2.98023e-08
v 0.8 3.9 -2.98023e-08
v 0.9 3.9 -2.98023e-08
v -1.2 4 0.3
v 0.9 4 0.3
v -1.3 4 0.2
v -1.2 4 0.2
v 0.9 4 0.2
v 1 4 0.2
v -1.3 4 0.1
v -1.2 4 0.1
v 0.9 4 0.1
v 1 4 0.1
v -1.2 4 -2.98023e-08
v 0.9 4 -2.98023e-08

# faces
f 3/3/1 2/3/1 1/3/1
f 4/3/1 2/3/1 3/3/1
f 7/1/1 6/1/1 5/1/1
f 8/1/1 6/1/1 7/1/1
f 10/3/1 8/3/1 7/3/1
f 11/3/1 8/3/1 10/3/1
f 13/3/1 10/3/1 9/3/1
f 14/3/1 10/3/1 13/3/1
f 15/3/1 12/3/1 11/3/1
f 16/3/1 12/3/1 15/3/1
f 21/3/1 18/3/1 17/3/1
f 22/3/1 18/3/1 21/3/1
f 23/3/1 20/3/1 19/3/1
f 24/3/1 20/3/1 23/3/1
f 27/1/1 26/1/1 25/1/1
f 28/1/1 26/1/1 27/1/1
f 31/1/1 30/1/1 29/1/1
f 32/1/1 30/1/1 31/1/1
f 35/1/1 34/1/1 33/1/1
f 36/1/1 34/1/1 35/1/1
f 39/1/1 38/1/1 37/1/1
f 40/1/1 38/1/1 39/1/1
f 43/1/1 42/1/1 41/1/1
f 44/1/1 42/1/1 43/1/1
f 47/1/1 46/1/1 45/1/1
f 48/1/1 46/1/1 47/1/1
f 51/1/1 50/1/1 49/1/1
f 52/1/1 50/1/1 51/1/1
f 55/1/1 54/1/1 53/1/1
f 56/1/1 54/1/1 55/1/1
f 59/1/1 58/1/1 57/1/1
f 60/1/1 58/1/1 59/1/1
f 61/1/2 62/1/2 63/1/2
f 63/1/2 62/1/2 64/1/2
f 65/1/2 66/1/2 67/1/2
f 67/1/2 66/1/2 68/1/2
f 69/1/2 70/1/2 71/1/2
f 71/1/2 70/1/2 72/1/2
f 73/1/2 74/1/2 75/1/2
f 75/1/2 74/1/2 76/1/2
f 77/1/2 78/1/2 79/1/2
f 79/1/2 78/1/2 80/1/2
f 81/1/2 82/1/2 83/1/2
f 83/1/2 82/1/2 84/1/2
f 85/1/2 86/1/2 87/1/2
f 87/1/2 86/1/2 88/1/2
f 89/1/2 90/1/2 91/1/2
f 91/1/2 90/1/2 92/1/2
f 93/1/2 94/1/2 95/1/2
f 95/1/2 94/1/2 96/1/2
f 97/3/2 98/3/2 101/3/2
f 101/3/2 98/3/2 102/3/2
f 99/3/2 100/3/2 103/3/2
f 103/3/2 100/3/2 104/3/2
f 105/1/2 106/1/2 107/1/2
f 107/1/2 106/1/2 108/1/2
f 107/3/2 108/3/2 110/3/2
f 110/3/2 108/3/2 111/3/2
f 109/3/2 110/3/2 113/3/2
f 113/3/2 110/3/2 114/3/2
f 111/3/2 112/3/2 115/3/2
f 115/3/2 112/3/2 116/3/2
f 117/3/2 118/3/2 119/3/2
f 119/3/2 118/3/2 120/3/2
f 124/3/3 122/3/3 121/3/3
f 125/3/3 124/3/3 123/3/3
f 126/3/3 122/3/3 124/3/3
f 126/3/3 124/3/3 125/3/3
f 127/3/3 122/3/3 126/3/3
f 128/3/3 122/3/3 127/3/3
f 133/3/3 130/3/3 129/3/3
f 134/3/3 130/3/3 133/3/3
f 135/1/3 132/1/3 131/1/3
f 136/3/3 133/3/3 132/3/3
f 136/1/3 132/1/3 135/1/3
f 137/3/3 133/3/3 136/3/3
f 138/1/3 135/1/3 131/1/3
f 139/2/3 136/2/3 135/2/3
f 139/1/3 135/1/3 138/1/3
f 140/2/3 136/2/3 139/2/3
f 141/1/3 140/1/3 139/1/3
f 142/2/3 136/2/3 140/2/3
f 142/1/3 140/1/3 141/1/3
f 143/2/3 136/2/3 142/2/3
f 144/1/3 143/1/3 142/1/3
f 145/2/3 136/2/3 143/2/3
f 145/1/3 143/1/3 144/1/3
f 146/2/3 136/2/3 145/2/3
f 147/2/3 136/2/3 146/2/3
f 148/2/3 136/2/3 147/2/3
f 149/1/3 146/1/3 145/1/3
f 150/2/3 147/2/3 146/2/3
f 150/1/3 146/1/3 149/1/3
f 151/2/3 147/2/3 150/2/3
f 152/2/3 147/2/3 151/2/3
f 153/1/3 148/1/3 147/1/3
f 153/2/3 147/2/3 152/2/3
f 154/2/3 136/2/3 148/2/3
f 154/1/3 148/1/3 153/1/3
f 155/2/3 136/2/3 154/2/3
f 156/1/3 151/1/3 150/1/3
f 157/2/3 152/2/3 151/2/3
f 157/1/3 151/1/3 156/1/3
f 158/2/3 152/2/3 157/2/3
f 159/2/3 152/2/3 158/2/3
f 160/1/3 153/1/3 152/1/3
f 160/2/3 152/2/3 159/2/3
f 161/2/3 154/2/3 153/2/3
f 161/1/3 153/1/3 160/1/3
f 162/1/3 155/1/3 154/1/3
f 162/2/3 154/2/3 161/2/3
f 163/2/3 136/2/3 155/2/3
f 163/1/3 155/1/3 162/1/3
f 164/2/3 136/2/3 163/2/3
f 165/1/3 158/1/3 157/1/3
f 166/2/3 159/2/3 158/2/3
f 166/1/3 158/1/3 165/1/3
f 167/2/3 159/2/3 166/2/3
f 168/2/3 159/2/3 167/2/3
f 169/1/3 160/1/3 159/1/3
f 169/2/3 159/2/3 168/2/3
f 170/2/3 162/2/3 161/2/3
f 170/1/3 160/1/3 169/1/3
f 170/2/3 161/2/3 160/2/3
f 170/2/3 163/2/3 162/2/3
f 171/2/3 163/2/3 170/2/3
f 172/2/3 163/2/3 171/2/3
f 173/2/3 163/2/3 172/2/3
f 174/1/3 164/1/3 163/1/3
f 174/2/3 163/2/3 173/2/3
f 175/2/3 136/2/3 164/2/3
f 175/1/3 164/1/3 174/1/3
f 176/2/3 136/2/3 175/2/3
f 177/1/3 167/1/3 166/1/3
f 178/2/3 168/2/3 167/2/3
f 178/1/3 167/1/3 177/1/3
f 179/2/3 168/2/3 178/2/3
f 180/2/3 168/2/3 179/2/3
f 181/1/3 169/1/3 168/1/3
f 181/2/3 168/2/3 180/2/3
f 182/2/3 170/2/3 169/2/3
f 182/1/3 169/1/3 181/1/3
f 182/2/3 171/2/3 170/2/3
f 183/2/3 171/2/3 182/2/3
f 184/1/3 172/1/3 171/1/3
f 184/2/3 171/2/3 183/2/3
f 185/2/3 173/2/3 172/2/3
f 185/1/3 172/1/3 184/1/3
f 186/1/3 174/1/3 173/1/3
f 186/2/3 173/2/3 185/2/3
f 187/2/3 175/2/3 174/2/3
f 187/1/3 174/1/3 186/1/3
f 188/1/3 179/1/3 178/1/3
f 189/2/3 180/2/3 179/2/3
f 189/1/3 179/1/3 188/1/3
f 190/2/3 180/2/3 189/2/3
f 191/2/3 180/2/3 190/2/3
f 192/1/3 181/1/3 180/1/3
f 192/2/3 180/2/3 191/2/3
f 193/2/3 183/2/3 182/2/3
f 193/1/3 181/1/3 192/1/3
f 193/2/3 182/2/3 181/2/3
f 194/1/3 185/1/3 184/1/3
f 194/2/3 183/2/3 193/2/3
f 194/1/3 184/1/3 183/1/3
f 194/1/3 186/1/3 185/1/3
f 195/1/3 190/1/3 189/1/3
f 196/2/3 191/2/3 190/2/3
f 196/1/3 190/1/3 195/1/3
f 197/2/3 191/2/3 196/2/3
f 199/1/3 197/1/3 196/1/3
f 200/2/3 191/2/3 197/2/3
f 200/1/3 197/1/3 199/1/3
f 201/1/3 192/1/3 191/1/3
f 201/2/3 191/2/3 200/2/3
f 202/2/3 193/2/3 192/2/3
f 202/1/3 192/1/3 201/1/3
f 203/1/3 194/1/3 193/1/3
f 203/2/3 193/2/3 202/2/3
f 204/1/3 186/1/3 194/1/3
f 204/1/3 194/1/3 203/1/3
f 206/1/3 199/1/3 198/1/3
f 207/2/3 201/2/3 200/2/3
f 207/2/3 200/2/3 199/2/3
f 207/1/3 199/1/3 206/1/3
f 207/2/3 202/2/3 201/2/3
f 208/1/3 203/1/3 202/1/3
f 208/2/3 202/2/3 207/2/3
f 209/2/3 204/2/3 203/2/3
f 209/1/3 203/1/3 208/1/3
f 210/2/3 204/2/3 209/2/3
f 211/1/3 186/1/3 204/1/3
f 211/2/3 204/2/3 210/2/3
f 212/1/3 186/1/3 211/1/3
f 213/1/3 186/1/3 212/1/3
f 214/2/3 187/2/3 186/2/3
f 214/1/3 186/1/3 213/1/3
f 215/2/3 175/2/3 187/2/3
f 215/2/3 187/2/3 214/2/3
f 217/1/3 206/1/3 205/1/3
f 218/2/3 207/2/3 206/2/3
f 218/2/3 208/2/3 207/2/3
f 218/1/3 206/1/3 217/1/3
f 218/2/3 209/2/3 208/2/3
f 219/1/3 210/1/3 209/1/3
f 219/2/3 209/2/3 218/2/3
f 220/2/3 211/2/3 210/2/3
f 220/1/3 210/1/3 219/1/3
f 220/2/3 212/2/3 211/2/3
f 221/2/3 212/2/3 220/2/3
f 222/1/3 213/1/3 212/1/3
f 222/2/3 212/2/3 221/2/3
f 223/2/3 214/2/3 213/2/3
f 223/1/3 213/1/3 222/1/3
f 224/1/3 215/1/3 214/1/3
f 224/2/3 214/2/3 223/2/3
f 225/2/3 175/2/3 215/2/3
f 225/1/3 215/1/3 224/1/3
f 226/1/3 176/1/3 175/1/3
f 226/2/3 175/2/3 225/2/3
f 227/2/3 136/2/3 176/2/3
f 227/1/3 176/1/3 226/1/3
f 229/1/3 217/1/3 216/1/3
f 230/2/3 218/2/3 217/2/3
f 230/2/3 219/2/3 218/2/3
f 230/1/3 217/1/3 229/1/3
f 230/2/3 220/2/3 219/2/3
f 231/1/3 221/1/3 220/1/3
f 231/2/3 220/2/3 230/2/3
f 232/2/3 224/2/3 223/2/3
f 232/1/3 221/1/3 231/1/3
f 232/2/3 225/2/3 224/2/3
f 232/2/3 222/2/3 221/2/3
f 232/2/3 223/2/3 222/2/3
f 233/2/3 225/2/3 232/2/3
f 234/2/3 225/2/3 233/2/3
f 235/1/3 226/1/3 225/1/3
f 235/2/3 225/2/3 234/2/3
f 236/2/3 227/2/3 226/2/3
f 236/1/3 226/1/3 235/1/3
f 238/1/3 229/1/3 228/1/3
f 239/2/3 231/2/3 230/2/3
f 239/2/3 230/2/3 229/2/3
f 239/1/3 229/1/3 238/1/3
f 239/2/3 232/2/3 231/2/3
f 240/1/3 233/1/3 232/1/3
f 240/2/3 232/2/3 239/2/3
f 241/2/3 234/2/3 233/2/3
f 241/1/3 233/1/3 240/1/3
f 242/1/3 235/1/3 234/1/3
f 242/2/3 234/2/3 241/2/3
f 243/2/3 236/2/3 235/2/3
f 243/1/3 235/1/3 242/1/3
f 245/1/3 238/1/3 237/1/3
f 246/2/3 240/2/3 239/2/3
f 246/2/3 241/2/3 240/2/3
f 246/1/3 238/1/3 245/1/3
f 246/2/3 239/2/3 238/2/3
f 247/1/3 242/1/3 241/1/3
f 247/2/3 241/2/3 246/2/3
f 248/2/3 243/2/3 242/2/3
f 248/1/3 242/1/3 247/1/3
f 250/1/3 245/1/3 244/1/3
f 251/2/3 246/2/3 245/2/3
f 251/2/3 247/2/3 246/2/3
f 251/1/3 245/1/3 250/1/3
f 251/2/3 248/2/3 247/2/3
f 253/1/3 250/1/3 249/1/3
f 254/2/3 251/2/3 250/2/3
f 254/1/3 250/1/3 253/1/3
f 256/1/3 253/1/3 252/1/3
f 257/2/3 254/2/3 253/2/3
f 257/1/3 253/1/3 256/1/3
f 258/1/3 256/1/3 255/1/3
f 258/2/3 257/2/3 256/2/3
f 259/2/3 243/2/3 248/2/3
f 259/2/3 257/2/3 258/2/3
f 259/2/3 236/2/3 243/2/3
f 259/2/3 136/2/3 227/2/3
f 259/2/3 254/2/3 257/2/3
f 259/2/3 227/2/3 236/2/3
f 259/2/3 251/2/3 254/2/3
f 259/2/3 248/2/3 251/2/3
f 261/1/3 258/1/3 255/1/3
f 261/1/3 259/1/3 258/1/3
f 262/3/3 260/3/3 259/3/3
f 262/1/3 259/1/3 261/1/3
f 263/3/3 260/3/3 262/3/3
f 265/3/3 264/3/3 263/3/3
f 266/3/3 264/3/3 265/3/3
f 267/3/4 268/3/4 271/3/4
f 271/3/4 268/3/4 272/3/4
f 269/1/4 270/1/4 273/1/4
f 270/3/4 271/3/4 274/3/4
f 273/1/4 270/1/4 274/1/4
f 274/3/4 271/3/4 275/3/4
f 269/1/4 273/1/4 276/1/4
f 273/2/4 274/2/4 277/2/4
f 276/1/4 273/1/4 277/1/4
f 277/2/4 274/2/4 278/2/4
f 277/1/4 278/1/4 279/1/4
f 278/2/4 274/2/4 280/2/4
f 279/1/4 278/1/4 280/1/4
f 280/2/4 274/2/4 281/2/4
f 280/1/4 281/1/4 282/1/4
f 281/2/4 274/2/4 283/2/4
f 282/1/4 281/1/4 283/1/4
f 283/2/4 274/2/4 284/2/4
f 284/2/4 274/2/4 285/2/4
f 285/2/4 274/2/4 286/2/4
f 283/1/4 284/1/4 287/1/4
f 284/2/4 285/2/4 288/2/4
f 287/1/4 284/1/4 288/1/4
f 288/2/4 285/2/4 289/2/4
f 289/2/4 285/2/4 290/2/4
f 285/1/4 286/1/4 291/1/4
f 290/2/4 285/2/4 291/2/4
f 286/2/4 274/2/4 292/2/4
f 291/1/4 286/1/4 292/1/4
f 292/2/4 274/2/4 293/2/4
f 288/1/4 289/1/4 294/1/4
f 289/2/4 290/2/4 295/2/4
f 294/1/4 289/1/4 295/1/4
f 295/2/4 290/2/4 296/2/4
f 296/2/4 290/2/4 297/2/4
f 290/1/4 291/1/4 298/1/4
f 297/2/4 290/2/4 298/2/4
f 291/2/4 292/2/4 299/2/4
f 298/1/4 291/1/4 299/1/4
f 292/1/4 293/1/4 300/1/4
f 299/2/4 292/2/4 300/2/4
f 293/2/4 274/2/4 301/2/4
f 300/1/4 293/1/4 301/1/4
f 301/2/4 274/2/4 302/2/4
f 295/1/4 296/1/4 303/1/4
f 296/2/4 297/2/4 304/2/4
f 303/1/4 296/1/4 304/1/4
f 304/2/4 297/2/4 305/2/4
f 305/2/4 297/2/4 306/2/4
f 297/1/4 298/1/4 307/1/4
f 306/2/4 297/2/4 307/2/4
f 299/2/4 300/2/4 308/2/4
f 307/1/4 298/1/4 308/1/4
f 298/2/4 299/2/4 308/2/4
f 300/2/4 301/2/4 308/2/4
f 308/2/4 301/2/4 309/2/4
f 309/2/4 301/2/4 310/2/4
f 310/2/4 301/2/4 311/2/4
f 301/1/4 302/1/4 312/1/4
f 311/2/4 301/2/4 312/2/4
f 302/2/4 274/2/4 313/2/4
f 312/1/4 302/1/4 313/1/4
f 313/2/4 274/2/4 314/2/4
f 304/1/4 305/1/4 315/1/4
f 305/2/4 306/2/4 316/2/4
f 315/1/4 305/1/4 316/1/4
f 316/2/4 306/2/4 317/2/4
f 317/2/4 306/2/4 318/2/4
f 306/1/4 307/1/4 319/1/4
f 318/2/4 306/2/4 319/2/4
f 307/2/4 308/2/4 320/2/4
f 319/1/4 307/1/4 320/1/4
f 308/2/4 309/2/4 320/2/4
f 320/2/4 309/2/4 321/2/4
f 309/1/4 310/1/4 322/1/4
f 321/2/4 309/2/4 322/2/4
f 310/2/4 311/2/4 323/2/4
f 322/1/4 310/1/4 323/1/4
f 311/1/4 312/1/4 324/1/4
f 323/2/4 311/2/4 324/2/4
f 312/2/4 313/2/4 325/2/4
f 324/1/4 312/1/4 325/1/4
f 316/1/4 317/1/4 326/1/4
f 317/2/4 318/2/4 327/2/4
f 326/1/4 317/1/4 327/1/4
f 327/2/4 318/2/4 328/2/4
f 328/2/4 318/2/4 329/2/4
f 318/1/4 319/1/4 330/1/4
f 329/2/4 318/2/4 330/2/4
f 320/2/4 321/2/4 331/2/4
f 330/1/4 319/1/4 331/1/4
f 319/2/4 320/2/4 331/2/4
f 322/1/4 323/1/4 332/1/4
f 331/2/4 321/2/4 332/2/4
f 321/1/4 322/1/4 332/1/4
f 323/1/4 324/1/4 332/1/4
f 327/1/4 328/1/4 333/1/4
f 328/2/4 329/2/4 334/2/4
f 333/1/4 328/1/4 334/1/4
f 334/2/4 329/2/4 335/2/4
f 334/1/4 335/1/4 337/1/4
f 335/2/4 329/2/4 338/2/4
f 337/1/4 335/1/4 338/1/4
f 329/1/4 330/1/4 339/1/4
f 338/2/4 329/2/4 339/2/4
f 330/2/4 331/2/4 340/2/4
f 339/1/4 330/1/4 340/1/4
f 331/1/4 332/1/4 341/1/4
f 340/2/4 331/2/4 341/2/4
f 332/1/4 324/1/4 342/1/4
f 341/1/4 332/1/4 342/1/4
f 336/1/4 337/1/4 344/1/4
f 338/2/4 339/2/4 345/2/4
f 337/2/4 338/2/4 345/2/4
f 344/1/4 337/1/4 345/1/4
f 339/2/4 340/2/4 345/2/4
f 340/1/4 341/1/4 346/1/4
f 345/2/4 340/2/4 346/2/4
f 341/2/4 342/2/4 347/2/4
f 346/1/4 341/1/4 347/1/4
f 347/2/4 342/2/4 348/2/4
f 342/1/4 324/1/4 349/1/4
f 348/2/4 342/2/4 349/2/4
f 349/1/4 324/1/4 350/1/4
f 350/1/4 324/1/4 351/1/4
f 324/2/4 325/2/4 352/2/4
f 351/1/4 324/1/4 352/1/4
f 325/2/4 313/2/4 353/2/4
f 352/2/4 325/2/4 353/2/4
f 343/1/4 344/1/4 355/1/4
f 344/2/4 345/2/4 356/2/4
f 345/2/4 346/2/4 356/2/4
f 355/1/4 344/1/4 356/1/4
f 346/2/4 347/2/4 356/2/4
f 347/1/4 348/1/4 357/1/4
f 356/2/4 347/2/4 357/2/4
f 348/2/4 349/2/4 358/2/4
f 357/1/4 348/1/4 358/1/4
f 349/2/4 350/2/4 358/2/4
f 358/2/4 350/2/4 359/2/4
f 350/1/4 351/1/4 360/1/4
f 359/2/4 350/2/4 360/2/4
f 351/2/4 352/2/4 361/2/4
f 360/1/4 351/1/4 361/1/4
f 352/1/4 353/1/4 362/1/4
f 361/2/4 352/2/4 362/2/4
f 353/2/4 313/2/4 363/2/4
f 362/1/4 353/1/4 363/1/4
f 313/1/4 314/1/4 364/1/4
f 363/2/4 313/2/4 364/2/4
f 314/2/4 274/2/4 365/2/4
f 364/1/4 314/1/4 365/1/4
f 354/1/4 355/1/4 367/1/4
f 355/2/4 356/2/4 368/2/4
f 356/2/4 357/2/4 368/2/4
f 367/1/4 355/1/4 368/1/4
f 357/2/4 358/2/4 368/2/4
f 358/1/4 359/1/4 369/1/4
f 368/2/4 358/2/4 369/2/4
f 361/2/4 362/2/4 370/2/4
f 369/1/4 359/1/4 370/1/4
f 362/2/4 363/2/4 370/2/4
f 359/2/4 360/2/4 370/2/4
f 360/2/4 361/2/4 370/2/4
f 370/2/4 363/2/4 371/2/4
f 371/2/4 363/2/4 372/2/4
f 363/1/4 364/1/4 373/1/4
f 372/2/4 363/2/4 373/2/4
f 364/2/4 365/2/4 374/2/4
f 373/1/4 364/1/4 374/1/4
f 366/1/4 367/1/4 376/1/4
f 368/2/4 369/2/4 377/2/4
f 367/2/4 368/2/4 377/2/4
f 376/1/4 367/1/4 377/1/4
f 369/2/4 370/2/4 377/2/4
f 370/1/4 371/1/4 378/1/4
f 377/2/4 370/2/4 378/2/4
f 371/2/4 372/2/4 379/2/4
f 378/1/4 371/1/4 379/1/4
f 372/1/4 373/1/4 380/1/4
f 379/2/4 372/2/4 380/2/4
f 373/2/4 374/2/4 381/2/4
f 380/1/4 373/1/4 381/1/4
f 375/1/4 376/1/4 383/1/4
f 377/2/4 378/2/4 384/2/4
f 378/2/4 379/2/4 384/2/4
f 383/1/4 376/1/4 384/1/4
f 376/2/4 377/2/4 384/2/4
f 379/1/4 380/1/4 385/1/4
f 384/2/4 379/2/4 385/2/4
f 380/2/4 381/2/4 386/2/4
f 385/1/4 380/1/4 386/1/4
f 382/1/4 383/1/4 388/1/4
f 383/2/4 384/2/4 389/2/4
f 384/2/4 385/2/4 389/2/4
f 388/1/4 383/1/4 389/1/4
f 385/2/4 386/2/4 389/2/4
f 387/1/4 388/1/4 391/1/4
f 388/2/4 389/2/4 392/2/4
f 391/1/4 388/1/4 392/1/4
f 390/1/4 391/1/4 394/1/4
f 391/2/4 392/2/4 395/2/4
f 394/1/4 391/1/4 395/1/4
f 393/1/4 394/1/4 396/1/4
f 394/2/4 395/2/4 396/2/4
f 386/2/4 381/2/4 397/2/4
f 396/2/4 395/2/4 397/2/4
f 381/2/4 374/2/4 397/2/4
f 365/2/4 274/2/4 397/2/4
f 395/2/4 392/2/4 397/2/4
f 374/2/4 365/2/4 397/2/4
f 392/2/4 389/2/4 397/2/4
f 389/2/4 386/2/4 397/2/4
f 393/1/4 396/1/4 399/1/4
f 396/1/4 397/1/4 399/1/4
f 397/3/4 398/3/4 400/3/4
f 399/1/4 397/1/4 400/1/4
f 400/3/4 398/3/4 401/3/4
f 401/3/4 402/3/4 403/3/4
f 403/3/4 402/3/4 404/3/4
f 405/3/4 406/3/4 408/3/4
f 407/3/4 408/3/4 409/3/4
f 408/3/4 406/3/4 410/3/4
f 409/3/4 408/3/4 410/3/4
f 410/3/4 406/3/4 411/3/4
f 411/3/4 406/3/4 412/3/4
f 417/1/5 414/1/5 413/1/5
f 418/1/5 414/1/5 417/1/5
f 419/1/5 416/1/5 415/1/5
f 420/1/5 416/1/5 419/1/5
f 425/1/5 422/1/5 421/1/5
f 426/1/5 422/1/5 425/1/5
f 427/1/5 424/1/5 423/1/5
f 428/1/5 424/1/5 427/1/5
f 433/1/5 430/1/5 429/1/5
f 434/1/5 430/1/5 433/1/5
f 435/1/5 432/1/5 431/1/5
f 436/1/5 432/1/5 435/1/5
f 441/1/5 438/1/5 437/1/5
f 442/1/5 438/1/5 441/1/5
f 443/1/5 440/1/5 439/1/5
f 444/1/5 440/1/5 443/1/5
f 449/1/5 446/1/5 445/1/5
f 450/1/5 446/1/5 449/1/5
f 451/1/5 448/1/5 447/1/5
f 452/1/5 448/1/5 451/1/5
f 457/1/5 454/1/5 453/1/5
f 458/1/5 454/1/5 457/1/5
f 459/1/5 456/1/5 455/1/5
f 460/1/5 456/1/5 459/1/5
f 465/1/5 462/1/5 461/1/5
f 466/1/5 462/1/5 465/1/5
f 467/1/5 464/1/5 463/1/5
f 468/1/5 464/1/5 467/1/5
f 473/1/5 470/1/5 469/1/5
f 474/1/5 470/1/5 473/1/5
f 475/1/5 472/1/5 471/1/5
f 476/1/5 472/1/5 475/1/5
f 481/1/5 478/1/5 477/1/5
f 482/1/5 478/1/5 481/1/5
f 483/1/5 480/1/5 479/1/5
f 484/1/5 480/1/5 483/1/5
f 487/1/5 486/1/5 485/1/5
f 488/1/5 486/1/5 487/1/5
f 491/3/5 490/3/5 489/3/5
f 492/3/5 490/3/5 491/3/5
f 495/3/5 494/3/5 493/3/5
f 496/3/5 494/3/5 495/3/5
f 502/3/5 498/3/5 497/3/5
f 503/3/5 498/3/5 502/3/5
f 504/3/5 500/3/5 499/3/5
f 505/3/5 500/3/5 504/3/5
f 507/3/5 502/3/5 501/3/5
f 508/3/5 502/3/5 507/3/5
f 511/3/5 506/3/5 505/3/5
f 512/3/5 506/3/5 511/3/5
f 513/3/5 509/3/5 508/3/5
f 514/3/5 509/3/5 513/3/5
f 515/3/5 511/3/5 510/3/5
f 516/3/5 511/3/5 515/3/5
f 517/3/6 518/3/6 520/3/6
f 520/3/6 518/3/6 521/3/6
f 519/3/6 520/3/6 523/3/6
f 521/3/6 522/3/6 523/3/6
f 520/3/6 521/3/6 523/3/6
f 523/3/6 522/3/6 524/3/6
f 524/3/6 522/3/6 525/3/6
f 525/3/6 522/3/6 526/3/6
f 524/3/6 525/3/6 527/3/6
f 527/3/6 525/3/6 528/3/6
