# MagicaVoxel @ Ephtracy

# group
o 

# material
mtllib beetle.mtl
usemtl palette

# normals
vn -1 0 0
vn 1 0 0
vn 0 0 1
vn 0 0 -1
vn 0 -1 0
vn 0 1 0

# texcoords
vt 0.373047 0.5
vt 0.955078 0.5
vt 0.958984 0.5

# verts
v -2 0 -1.9
v -2 0 -2
v -2 4 -1.9
v -2 4 -2
v -1.4 1.8 -1.8
v -1.4 1.8 -1.9
v -1.4 1.9 -1.8
v -1.4 1.9 -1.9
v -1.4 2 -1.8
v -1.4 2 -1.9
v -1.4 2.1 -1.8
v -1.4 2.1 -1.9
v -1.3 1.9 -1.8
v -1.3 1.9 -1.9
v -1.3 2 -1.8
v -1.3 2 -1.9
v -1.2 3 -1.8
v -1.2 3 -1.9
v -1.2 3.1 -1.8
v -1.2 3.1 -1.9
v -1.1 0.5 -1.8
v -1.1 0.5 -1.9
v -1.1 0.6 -1.8
v -1.1 0.6 -1.9
v -1.1 2.8 -1.8
v -1.1 2.8 -1.9
v -1.1 3 -1.8
v -1.1 3 -1.9
v -1.1 3.1 -1.8
v -1.1 3.1 -1.9
v -1.1 3.2 -1.8
v -1.1 3.2 -1.9
v -1 0.4 -1.8
v -1 0.4 -1.9
v -1 0.5 -1.8
v -1 0.5 -1.9
v -1 0.6 -1.8
v -1 0.6 -1.9
v -1 0.9 -1.8
v -1 0.9 -1.9
v -1 2.5 -1.8
v -1 2.5 -1.9
v -1 2.8 -1.8
v -1 2.8 -1.9
v -0.9 0.9 -1.8
v -0.9 0.9 -1.9
v -0.9 1 -1.8
v -0.9 1 -1.9
v -0.9 2.4 -1.8
v -0.9 2.4 -1.9
v -0.9 2.5 -1.8
v -0.9 2.5 -1.9
v -0.7 1.1 -1.8
v -0.7 1.1 -1.9
v -0.7 1.9 -1.8
v -0.7 1.9 -1.9
v -0.7 2 -1.8
v -0.7 2 -1.9
v -0.7 2.4 -1.8
v -0.7 2.4 -1.9
v -0.7 2.9 -1.7
v -0.7 2.9 -1.8
v -0.7 2.9 -1.9
v -0.7 3.1 -1.7
v -0.7 3.1 -1.8
v -0.7 3.1 -1.9
v -0.6 1 -1.8
v -0.6 1 -1.9
v -0.6 1.1 -1.8
v -0.6 1.1 -1.9
v -0.6 2.4 -1.8
v -0.6 2.4 -1.9
v -0.6 2.5 -1.8
v -0.6 2.5 -1.9
v -0.6 2.7 -1.8
v -0.6 2.7 -1.9
v -0.6 2.9 -1.8
v -0.6 2.9 -1.9
v -0.6 3.1 -1.8
v -0.6 3.1 -1.9
v -0.6 3.2 -1.8
v -0.6 3.2 -1.9
v -0.5 2.5 -1.8
v -0.5 2.5 -1.9
v -0.5 2.6 -1.8
v -0.5 2.6 -1.9
v -0.5 3.5 -1.8
v -0.5 3.5 -1.9
v -0.5 3.6 -1.8
v -0.5 3.6 -1.9
v -0.4 0.9 -1.8
v -0.4 0.9 -1.9
v -0.4 1 -1.8
v -0.4 1 -1.9
v -0.4 3.4 -1.8
v -0.4 3.4 -1.9
v -0.4 3.5 -1.8
v -0.4 3.5 -1.9
v -0.3 3.3 -1.8
v -0.3 3.3 -1.9
v -0.3 3.4 -1.8
v -0.3 3.4 -1.9
v -0.2 3.2 -1.8
v -0.2 3.2 -1.9
v -0.2 3.3 -1.8
v -0.2 3.3 -1.9
v -0.0999999 3.5 -1.8
v -0.0999999 3.5 -1.9
v -0.0999999 3.7 -1.8
v -0.0999999 3.7 -1.9
v 0.1 0.9 -1.8
v 0.1 0.9 -1.9
v 0.1 2.6 -1.8
v 0.1 2.6 -1.9
v 0.3 3.5 -1.8
v 0.3 3.5 -1.9
v 0.3 3.6 -1.8
v 0.3 3.6 -1.9
v 0.4 2.3 -1.7
v 0.4 2.3 -1.8
v 0.4 2.4 -1.7
v 0.4 2.4 -1.8
v 0.6 2.1 -1.7
v 0.6 2.1 -1.8
v 0.6 2.3 -1.7
v 0.6 2.3 -1.8
v 0.6 2.9 -1.7
v 0.6 2.9 -1.8
v 0.6 3.1 -1.7
v 0.6 3.1 -1.8
v 0.7 0.9 -1.8
v 0.7 0.9 -1.9
v 0.7 1 -1.8
v 0.7 1 -1.9
v 0.8 1.1 -1.9
v 0.8 1.1 -2
v 0.8 1.2 -1.9
v 0.8 1.2 -2
v 0.8 2.5 -1.8
v 0.8 2.5 -1.9
v 0.8 2.6 -1.8
v 0.8 2.6 -1.9
v 1 0.4 -1.8
v 1 0.4 -1.9
v 1 0.9 -1.8
v 1 0.9 -1.9
v 1 2.6 -1.8
v 1 2.6 -1.9
v 1 2.7 -1.8
v 1 2.7 -1.9
v 1.1 2.7 -1.8
v 1.1 2.7 -1.9
v 1.1 3.1 -1.8
v 1.1 3.1 -1.9
v 1.4 1.8 -1.8
v 1.4 1.8 -1.9
v 1.4 1.9 -1.8
v 1.4 1.9 -1.9
v 1.4 2 -1.8
v 1.4 2 -1.9
v 1.4 2.1 -1.8
v 1.4 2.1 -1.9
v -1.3 1.8 -1.8
v -1.3 1.8 -1.9
v -1.3 1.9 -1.8
v -1.3 1.9 -1.9
v -1.3 2 -1.8
v -1.3 2 -1.9
v -1.3 2.1 -1.8
v -1.3 2.1 -1.9
v -1 2.8 -1.8
v -1 2.8 -1.9
v -1 3.2 -1.8
v -1 3.2 -1.9
v -0.9 0.4 -1.8
v -0.9 0.4 -1.9
v -0.9 0.9 -1.8
v -0.9 0.9 -1.9
v -0.9 2.5 -1.8
v -0.9 2.5 -1.9
v -0.9 2.8 -1.8
v -0.9 2.8 -1.9
v -0.7 2.4 -1.8
v -0.7 2.4 -1.9
v -0.7 2.5 -1.8
v -0.7 2.5 -1.9
v -0.6 0.9 -1.8
v -0.6 0.9 -1.9
v -0.6 1 -1.8
v -0.6 1 -1.9
v -0.6 2.9 -1.7
v -0.6 2.9 -1.8
v -0.6 3.1 -1.7
v -0.6 3.1 -1.8
v -0.4 3.5 -1.8
v -0.4 3.5 -1.9
v -0.4 3.6 -1.8
v -0.4 3.6 -1.9
v 2.38419e-07 0.9 -1.8
v 2.38419e-07 0.9 -1.9
v 2.38419e-07 2.6 -1.8
v 2.38419e-07 2.6 -1.9
v 2.38419e-07 3.5 -1.8
v 2.38419e-07 3.5 -1.9
v 2.38419e-07 3.7 -1.8
v 2.38419e-07 3.7 -1.9
v 0.1 3.2 -1.8
v 0.1 3.2 -1.9
v 0.1 3.3 -1.8
v 0.1 3.3 -1.9
v 0.2 3.3 -1.8
v 0.2 3.3 -1.9
v 0.2 3.4 -1.8
v 0.2 3.4 -1.9
v 0.3 3.4 -1.8
v 0.3 3.4 -1.9
v 0.3 3.5 -1.8
v 0.3 3.5 -1.9
v 0.4 3.5 -1.8
v 0.4 3.5 -1.9
v 0.4 3.6 -1.8
v 0.4 3.6 -1.9
v 0.6 0.9 -1.8
v 0.6 0.9 -1.9
v 0.6 1 -1.8
v 0.6 1 -1.9
v 0.6 2.3 -1.7
v 0.6 2.3 -1.8
v 0.6 2.4 -1.7
v 0.6 2.4 -1.8
v 0.6 2.5 -1.8
v 0.6 2.5 -1.9
v 0.6 2.6 -1.8
v 0.6 2.6 -1.9
v 0.6 2.7 -1.8
v 0.6 2.7 -1.9
v 0.6 2.9 -1.8
v 0.6 2.9 -1.9
v 0.6 3.1 -1.8
v 0.6 3.1 -1.9
v 0.6 3.2 -1.8
v 0.6 3.2 -1.9
v 0.7 1 -1.8
v 0.7 1 -1.9
v 0.7 1.1 -1.9
v 0.7 1.1 -2
v 0.7 1.2 -1.8
v 0.7 1.2 -1.9
v 0.7 1.2 -2
v 0.7 2.1 -1.7
v 0.7 2.1 -1.8
v 0.7 2.3 -1.7
v 0.7 2.3 -1.8
v 0.7 2.9 -1.7
v 0.7 2.9 -1.8
v 0.7 2.9 -1.9
v 0.7 3.1 -1.7
v 0.7 3.1 -1.8
v 0.7 3.1 -1.9
v 0.8 1.2 -1.8
v 0.8 1.2 -1.9
v 0.8 1.9 -1.8
v 0.8 1.9 -1.9
v 0.8 2 -1.8
v 0.8 2 -1.9
v 0.8 2.5 -1.8
v 0.8 2.5 -1.9
v 1 0.9 -1.8
v 1 0.9 -1.9
v 1 1 -1.8
v 1 1 -1.9
v 1 2.5 -1.8
v 1 2.5 -1.9
v 1 2.6 -1.8
v 1 2.6 -1.9
v 1.1 0.4 -1.8
v 1.1 0.4 -1.9
v 1.1 0.5 -1.8
v 1.1 0.5 -1.9
v 1.1 0.6 -1.8
v 1.1 0.6 -1.9
v 1.1 0.9 -1.8
v 1.1 0.9 -1.9
v 1.1 2.6 -1.8
v 1.1 2.6 -1.9
v 1.1 2.7 -1.8
v 1.1 2.7 -1.9
v 1.2 0.5 -1.8
v 1.2 0.5 -1.9
v 1.2 0.6 -1.8
v 1.2 0.6 -1.9
v 1.2 2.7 -1.8
v 1.2 2.7 -1.9
v 1.2 2.9 -1.8
v 1.2 2.9 -1.9
v 1.2 3 -1.8
v 1.2 3 -1.9
v 1.2 3.1 -1.8
v 1.2 3.1 -1.9
v 1.3 2.9 -1.8
v 1.3 2.9 -1.9
v 1.3 3 -1.8
v 1.3 3 -1.9
v 1.4 1.9 -1.8
v 1.4 1.9 -1.9
v 1.4 2 -1.8
v 1.4 2 -1.9
v 1.5 1.8 -1.8
v 1.5 1.8 -1.9
v 1.5 1.9 -1.8
v 1.5 1.9 -1.9
v 1.5 2 -1.8
v 1.5 2 -1.9
v 1.5 2.1 -1.8
v 1.5 2.1 -1.9
v 2 0 -1.9
v 2 0 -2
v 2 4 -1.9
v 2 4 -2
v -0.7 2.9 -1.7
v -0.7 3.1 -1.7
v -0.6 2.9 -1.7
v -0.6 3.1 -1.7
v 0.4 2.3 -1.7
v 0.4 2.4 -1.7
v 0.6 2.1 -1.7
v 0.6 2.3 -1.7
v 0.6 2.4 -1.7
v 0.6 2.9 -1.7
v 0.6 3.1 -1.7
v 0.7 2.1 -1.7
v 0.7 2.3 -1.7
v 0.7 2.9 -1.7
v 0.7 3.1 -1.7
v -1.4 1.8 -1.8
v -1.4 1.9 -1.8
v -1.4 2 -1.8
v -1.4 2.1 -1.8
v -1.3 1.8 -1.8
v -1.3 1.9 -1.8
v -1.3 2 -1.8
v -1.3 2.1 -1.8
v -1.2 3 -1.8
v -1.2 3.1 -1.8
v -1.1 0.5 -1.8
v -1.1 0.6 -1.8
v -1.1 2.8 -1.8
v -1.1 3 -1.8
v -1.1 3.1 -1.8
v -1.1 3.2 -1.8
v -1 0.4 -1.8
v -1 0.5 -1.8
v -1 0.6 -1.8
v -1 0.9 -1.8
v -1 2.5 -1.8
v -1 2.8 -1.8
v -1 3.2 -1.8
v -0.9 0.4 -1.8
v -0.9 0.9 -1.8
v -0.9 1 -1.8
v -0.9 2.4 -1.8
v -0.9 2.5 -1.8
v -0.9 2.8 -1.8
v -0.7 1.1 -1.8
v -0.7 1.9 -1.8
v -0.7 2 -1.8
v -0.7 2.4 -1.8
v -0.7 2.5 -1.8
v -0.6 0.9 -1.8
v -0.6 1 -1.8
v -0.6 1.1 -1.8
v -0.6 2.4 -1.8
v -0.6 2.5 -1.8
v -0.6 2.7 -1.8
v -0.6 2.9 -1.8
v -0.6 3.1 -1.8
v -0.6 3.2 -1.8
v -0.5 2.5 -1.8
v -0.5 2.6 -1.8
v -0.5 3.5 -1.8
v -0.5 3.6 -1.8
v -0.4 0.9 -1.8
v -0.4 1 -1.8
v -0.4 3.4 -1.8
v -0.4 3.5 -1.8
v -0.4 3.6 -1.8
v -0.3 3.3 -1.8
v -0.3 3.4 -1.8
v -0.2 3.2 -1.8
v -0.2 3.3 -1.8
v -0.0999999 3.5 -1.8
v -0.0999999 3.7 -1.8
v 2.38419e-07 0.9 -1.8
v 2.38419e-07 2.6 -1.8
v 2.38419e-07 3.5 -1.8
v 2.38419e-07 3.7 -1.8
v 0.1 0.9 -1.8
v 0.1 2.6 -1.8
v 0.1 3.2 -1.8
v 0.1 3.3 -1.8
v 0.2 3.3 -1.8
v 0.2 3.4 -1.8
v 0.3 3.4 -1.8
v 0.3 3.5 -1.8
v 0.3 3.6 -1.8
v 0.4 2.3 -1.8
v 0.4 2.4 -1.8
v 0.4 3.5 -1.8
v 0.4 3.6 -1.8
v 0.6 0.9 -1.8
v 0.6 1 -1.8
v 0.6 2.1 -1.8
v 0.6 2.3 -1.8
v 0.6 2.4 -1.8
v 0.6 2.5 -1.8
v 0.6 2.6 -1.8
v 0.6 2.7 -1.8
v 0.6 2.9 -1.8
v 0.6 3.1 -1.8
v 0.6 3.2 -1.8
v 0.7 0.9 -1.8
v 0.7 1 -1.8
v 0.7 1.2 -1.8
v 0.7 2.1 -1.8
v 0.7 2.3 -1.8
v 0.8 1.2 -1.8
v 0.8 1.9 -1.8
v 0.8 2 -1.8
v 0.8 2.5 -1.8
v 0.8 2.6 -1.8
v 1 0.4 -1.8
v 1 0.9 -1.8
v 1 1 -1.8
v 1 2.5 -1.8
v 1 2.6 -1.8
v 1 2.7 -1.8
v 1.1 0.4 -1.8
v 1.1 0.5 -1.8
v 1.1 0.6 -1.8
v 1.1 0.9 -1.8
v 1.1 2.6 -1.8
v 1.1 2.7 -1.8
v 1.1 3.1 -1.8
v 1.2 0.5 -1.8
v 1.2 0.6 -1.8
v 1.2 2.7 -1.8
v 1.2 2.9 -1.8
v 1.2 3 -1.8
v 1.2 3.1 -1.8
v 1.3 2.9 -1.8
v 1.3 3 -1.8
v 1.4 1.8 -1.8
v 1.4 1.9 -1.8
v 1.4 2 -1.8
v 1.4 2.1 -1.8
v 1.5 1.8 -1.8
v 1.5 1.9 -1.8
v 1.5 2 -1.8
v 1.5 2.1 -1.8
v -2 0 -1.9
v -2 4 -1.9
v -1.4 1.8 -1.9
v -1.4 1.9 -1.9
v -1.4 2 -1.9
v -1.4 2.1 -1.9
v -1.3 1.8 -1.9
v -1.3 1.9 -1.9
v -1.3 2 -1.9
v -1.3 2.1 -1.9
v -1.2 3 -1.9
v -1.2 3.1 -1.9
v -1.1 0.5 -1.9
v -1.1 0.6 -1.9
v -1.1 2.8 -1.9
v -1.1 3 -1.9
v -1.1 3.1 -1.9
v -1.1 3.2 -1.9
v -1 0.4 -1.9
v -1 0.5 -1.9
v -1 0.6 -1.9
v -1 0.9 -1.9
v -1 2.5 -1.9
v -1 2.8 -1.9
v -1 3.2 -1.9
v -0.9 0.4 -1.9
v -0.9 0.9 -1.9
v -0.9 1 -1.9
v -0.9 2.4 -1.9
v -0.9 2.5 -1.9
v -0.9 2.8 -1.9
v -0.7 1.1 -1.9
v -0.7 1.9 -1.9
v -0.7 2 -1.9
v -0.7 2.4 -1.9
v -0.7 2.5 -1.9
v -0.7 2.9 -1.9
v -0.7 3.1 -1.9
v -0.6 0.9 -1.9
v -0.6 1 -1.9
v -0.6 1.1 -1.9
v -0.6 2.4 -1.9
v -0.6 2.5 -1.9
v -0.6 2.7 -1.9
v -0.6 2.9 -1.9
v -0.6 3.1 -1.9
v -0.6 3.2 -1.9
v -0.5 2.5 -1.9
v -0.5 2.6 -1.9
v -0.5 3.5 -1.9
v -0.5 3.6 -1.9
v -0.4 0.9 -1.9
v -0.4 1 -1.9
v -0.4 3.4 -1.9
v -0.4 3.5 -1.9
v -0.4 3.6 -1.9
v -0.3 3.3 -1.9
v -0.3 3.4 -1.9
v -0.2 3.2 -1.9
v -0.2 3.3 -1.9
v -0.0999999 3.5 -1.9
v -0.0999999 3.7 -1.9
v 2.38419e-07 0.9 -1.9
v 2.38419e-07 2.6 -1.9
v 2.38419e-07 3.5 -1.9
v 2.38419e-07 3.7 -1.9
v 0.1 0.9 -1.9
v 0.1 2.6 -1.9
v 0.1 3.2 -1.9
v 0.1 3.3 -1.9
v 0.2 3.3 -1.9
v 0.2 3.4 -1.9
v 0.3 3.4 -1.9
v 0.3 3.5 -1.9
v 0.3 3.6 -1.9
v 0.4 3.5 -1.9
v 0.4 3.6 -1.9
v 0.6 0.9 -1.9
v 0.6 1 -1.9
v 0.6 2.5 -1.9
v 0.6 2.6 -1.9
v 0.6 2.7 -1.9
v 0.6 2.9 -1.9
v 0.6 3.1 -1.9
v 0.6 3.2 -1.9
v 0.7 0.9 -1.9
v 0.7 1 -1.9
v 0.7 1.1 -1.9
v 0.7 2.9 -1.9
v 0.7 3.1 -1.9
v 0.8 1.1 -1.9
v 0.8 1.2 -1.9
v 0.8 1.9 -1.9
v 0.8 2 -1.9
v 0.8 2.5 -1.9
v 0.8 2.6 -1.9
v 1 0.4 -1.9
v 1 0.9 -1.9
v 1 1 -1.9
v 1 2.5 -1.9
v 1 2.6 -1.9
v 1 2.7 -1.9
v 1.1 0.4 -1.9
v 1.1 0.5 -1.9
v 1.1 0.6 -1.9
v 1.1 0.9 -1.9
v 1.1 2.6 -1.9
v 1.1 2.7 -1.9
v 1.1 3.1 -1.9
v 1.2 0.5 -1.9
v 1.2 0.6 -1.9
v 1.2 2.7 -1.9
v 1.2 2.9 -1.9
v 1.2 3 -1.9
v 1.2 3.1 -1.9
v 1.3 2.9 -1.9
v 1.3 3 -1.9
v 1.4 1.8 -1.9
v 1.4 1.9 -1.9
v 1.4 2 -1.9
v 1.4 2.1 -1.9
v 1.5 1.8 -1.9
v 1.5 1.9 -1.9
v 1.5 2 -1.9
v 1.5 2.1 -1.9
v 2 0 -1.9
v 2 4 -1.9
v -2 0 -2
v -2 4 -2
v 0.7 1.1 -2
v 0.7 1.2 -2
v 0.8 1.1 -2
v 0.8 1.2 -2
v 2 0 -2
v 2 4 -2
v -2 0 -1.9
v 2 0 -1.9
v -2 0 -2
v 2 0 -2
v -1 0.4 -1.8
v -0.9 0.4 -1.8
v 1 0.4 -1.8
v 1.1 0.4 -1.8
v -1 0.4 -1.9
v -0.9 0.4 -1.9
v 1 0.4 -1.9
v 1.1 0.4 -1.9
v -1.1 0.5 -1.8
v -1 0.5 -1.8
v 1.1 0.5 -1.8
v 1.2 0.5 -1.8
v -1.1 0.5 -1.9
v -1 0.5 -1.9
v 1.1 0.5 -1.9
v 1.2 0.5 -1.9
v -0.9 0.9 -1.8
v -0.6 0.9 -1.8
v -0.4 0.9 -1.8
v 2.38419e-07 0.9 -1.8
v 0.1 0.9 -1.8
v 0.6 0.9 -1.8
v 0.7 0.9 -1.8
v 1 0.9 -1.8
v -0.9 0.9 -1.9
v -0.6 0.9 -1.9
v -0.4 0.9 -1.9
v 2.38419e-07 0.9 -1.9
v 0.1 0.9 -1.9
v 0.6 0.9 -1.9
v 0.7 0.9 -1.9
v 1 0.9 -1.9
v -0.6 1 -1.8
v -0.4 1 -1.8
v 0.6 1 -1.8
v 0.7 1 -1.8
v -0.6 1 -1.9
v -0.4 1 -1.9
v 0.6 1 -1.9
v 0.7 1 -1.9
v -0.7 1.1 -1.8
v -0.6 1.1 -1.8
v -0.7 1.1 -1.9
v -0.6 1.1 -1.9
v 0.7 1.2 -1.8
v 0.8 1.2 -1.8
v 0.7 1.2 -1.9
v 0.8 1.2 -1.9
v 0.7 1.2 -2
v 0.8 1.2 -2
v -1.4 1.8 -1.8
v -1.3 1.8 -1.8
v 1.4 1.8 -1.8
v 1.5 1.8 -1.8
v -1.4 1.8 -1.9
v -1.3 1.8 -1.9
v 1.4 1.8 -1.9
v 1.5 1.8 -1.9
v -1.3 1.9 -1.8
v -0.7 1.9 -1.8
v 0.8 1.9 -1.8
v 1.4 1.9 -1.8
v -1.3 1.9 -1.9
v -0.7 1.9 -1.9
v 0.8 1.9 -1.9
v 1.4 1.9 -1.9
v -1.4 2 -1.8
v -1.3 2 -1.8
v 1.4 2 -1.8
v 1.5 2 -1.8
v -1.4 2 -1.9
v -1.3 2 -1.9
v 1.4 2 -1.9
v 1.5 2 -1.9
v 0.6 2.1 -1.7
v 0.7 2.1 -1.7
v 0.6 2.1 -1.8
v 0.7 2.1 -1.8
v 0.4 2.3 -1.7
v 0.6 2.3 -1.7
v 0.4 2.3 -1.8
v 0.6 2.3 -1.8
v -0.9 2.4 -1.8
v -0.7 2.4 -1.8
v -0.9 2.4 -1.9
v -0.7 2.4 -1.9
v -1 2.5 -1.8
v -0.9 2.5 -1.8
v 0.8 2.5 -1.8
v 1 2.5 -1.8
v -1 2.5 -1.9
v -0.9 2.5 -1.9
v 0.8 2.5 -1.9
v 1 2.5 -1.9
v 1 2.6 -1.8
v 1.1 2.6 -1.8
v 1 2.6 -1.9
v 1.1 2.6 -1.9
v -0.6 2.7 -1.8
v 0.6 2.7 -1.8
v 1.1 2.7 -1.8
v 1.2 2.7 -1.8
v -0.6 2.7 -1.9
v 0.6 2.7 -1.9
v 1.1 2.7 -1.9
v 1.2 2.7 -1.9
v -1.1 2.8 -1.8
v -1 2.8 -1.8
v -1.1 2.8 -1.9
v -1 2.8 -1.9
v -0.7 2.9 -1.7
v -0.6 2.9 -1.7
v 0.6 2.9 -1.7
v 0.7 2.9 -1.7
v -0.7 2.9 -1.8
v -0.6 2.9 -1.8
v 0.6 2.9 -1.8
v 0.7 2.9 -1.8
v 1.2 2.9 -1.8
v 1.3 2.9 -1.8
v -0.7 2.9 -1.9
v -0.6 2.9 -1.9
v 0.6 2.9 -1.9
v 0.7 2.9 -1.9
v 1.2 2.9 -1.9
v 1.3 2.9 -1.9
v -1.2 3 -1.8
v -1.1 3 -1.8
v -1.2 3 -1.9
v -1.1 3 -1.9
v -0.3 3.3 -1.8
v -0.2 3.3 -1.8
v 0.1 3.3 -1.8
v 0.2 3.3 -1.8
v -0.3 3.3 -1.9
v -0.2 3.3 -1.9
v 0.1 3.3 -1.9
v 0.2 3.3 -1.9
v -0.4 3.4 -1.8
v -0.3 3.4 -1.8
v 0.2 3.4 -1.8
v 0.3 3.4 -1.8
v -0.4 3.4 -1.9
v -0.3 3.4 -1.9
v 0.2 3.4 -1.9
v 0.3 3.4 -1.9
v -0.5 3.5 -1.8
v -0.4 3.5 -1.8
v 0.3 3.5 -1.8
v 0.4 3.5 -1.8
v -0.5 3.5 -1.9
v -0.4 3.5 -1.9
v 0.3 3.5 -1.9
v 0.4 3.5 -1.9
v -1.1 0.6 -1.8
v -1 0.6 -1.8
v 1.1 0.6 -1.8
v 1.2 0.6 -1.8
v -1.1 0.6 -1.9
v -1 0.6 -1.9
v 1.1 0.6 -1.9
v 1.2 0.6 -1.9
v -1 0.9 -1.8
v -0.9 0.9 -1.8
v 1 0.9 -1.8
v 1.1 0.9 -1.8
v -1 0.9 -1.9
v -0.9 0.9 -1.9
v 1 0.9 -1.9
v 1.1 0.9 -1.9
v -0.9 1 -1.8
v -0.6 1 -1.8
v 0.7 1 -1.8
v 1 1 -1.8
v -0.9 1 -1.9
v -0.6 1 -1.9
v 0.7 1 -1.9
v 1 1 -1.9
v 0.7 1.1 -1.9
v 0.8 1.1 -1.9
v 0.7 1.1 -2
v 0.8 1.1 -2
v -1.4 1.9 -1.8
v -1.3 1.9 -1.8
v 1.4 1.9 -1.8
v 1.5 1.9 -1.8
v -1.4 1.9 -1.9
v -1.3 1.9 -1.9
v 1.4 1.9 -1.9
v 1.5 1.9 -1.9
v -1.3 2 -1.8
v -0.7 2 -1.8
v 0.8 2 -1.8
v 1.4 2 -1.8
v -1.3 2 -1.9
v -0.7 2 -1.9
v 0.8 2 -1.9
v 1.4 2 -1.9
v -1.4 2.1 -1.8
v -1.3 2.1 -1.8
v 1.4 2.1 -1.8
v 1.5 2.1 -1.8
v -1.4 2.1 -1.9
v -1.3 2.1 -1.9
v 1.4 2.1 -1.9
v 1.5 2.1 -1.9
v 0.6 2.3 -1.7
v 0.7 2.3 -1.7
v 0.6 2.3 -1.8
v 0.7 2.3 -1.8
v 0.4 2.4 -1.7
v 0.6 2.4 -1.7
v -0.7 2.4 -1.8
v -0.6 2.4 -1.8
v 0.4 2.4 -1.8
v 0.6 2.4 -1.8
v -0.7 2.4 -1.9
v -0.6 2.4 -1.9
v -0.9 2.5 -1.8
v -0.7 2.5 -1.8
v -0.6 2.5 -1.8
v -0.5 2.5 -1.8
v 0.6 2.5 -1.8
v 0.8 2.5 -1.8
v -0.9 2.5 -1.9
v -0.7 2.5 -1.9
v -0.6 2.5 -1.9
v -0.5 2.5 -1.9
v 0.6 2.5 -1.9
v 0.8 2.5 -1.9
v -0.5 2.6 -1.8
v 2.38419e-07 2.6 -1.8
v 0.1 2.6 -1.8
v 0.6 2.6 -1.8
v 0.8 2.6 -1.8
v 1 2.6 -1.8
v -0.5 2.6 -1.9
v 2.38419e-07 2.6 -1.9
v 0.1 2.6 -1.9
v 0.6 2.6 -1.9
v 0.8 2.6 -1.9
v 1 2.6 -1.9
v 1 2.7 -1.8
v 1.1 2.7 -1.8
v 1 2.7 -1.9
v 1.1 2.7 -1.9
v -1 2.8 -1.8
v -0.9 2.8 -1.8
v -1 2.8 -1.9
v -0.9 2.8 -1.9
v 1.2 3 -1.8
v 1.3 3 -1.8
v 1.2 3 -1.9
v 1.3 3 -1.9
v -0.7 3.1 -1.7
v -0.6 3.1 -1.7
v 0.6 3.1 -1.7
v 0.7 3.1 -1.7
v -1.2 3.1 -1.8
v -1.1 3.1 -1.8
v -0.7 3.1 -1.8
v -0.6 3.1 -1.8
v 0.6 3.1 -1.8
v 0.7 3.1 -1.8
v 1.1 3.1 -1.8
v 1.2 3.1 -1.8
v -1.2 3.1 -1.9
v -1.1 3.1 -1.9
v -0.7 3.1 -1.9
v -0.6 3.1 -1.9
v 0.6 3.1 -1.9
v 0.7 3.1 -1.9
v 1.1 3.1 -1.9
v 1.2 3.1 -1.9
v -1.1 3.2 -1.8
v -1 3.2 -1.8
v -0.6 3.2 -1.8
v -0.2 3.2 -1.8
v 0.1 3.2 -1.8
v 0.6 3.2 -1.8
v -1.1 3.2 -1.9
v -1 3.2 -1.9
v -0.6 3.2 -1.9
v -0.2 3.2 -1.9
v 0.1 3.2 -1.9
v 0.6 3.2 -1.9
v -0.4 3.5 -1.8
v -0.0999999 3.5 -1.8
v 2.38419e-07 3.5 -1.8
v 0.3 3.5 -1.8
v -0.4 3.5 -1.9
v -0.0999999 3.5 -1.9
v 2.38419e-07 3.5 -1.9
v 0.3 3.5 -1.9
v -0.5 3.6 -1.8
v -0.4 3.6 -1.8
v 0.3 3.6 -1.8
v 0.4 3.6 -1.8
v -0.5 3.6 -1.9
v -0.4 3.6 -1.9
v 0.3 3.6 -1.9
v 0.4 3.6 -1.9
v -0.0999999 3.7 -1.8
v 2.38419e-07 3.7 -1.8
v -0.0999999 3.7 -1.9
v 2.38419e-07 3.7 -1.9
v -2 4 -1.9
v 2 4 -1.9
v -2 4 -2
v 2 4 -2

# faces
f 3/1/1 2/1/1 1/1/1
f 4/1/1 2/1/1 3/1/1
f 7/2/1 6/2/1 5/2/1
f 8/2/1 6/2/1 7/2/1
f 11/2/1 10/2/1 9/2/1
f 12/2/1 10/2/1 11/2/1
f 15/2/1 14/2/1 13/2/1
f 16/2/1 14/2/1 15/2/1
f 19/2/1 18/2/1 17/2/1
f 20/2/1 18/2/1 19/2/1
f 23/2/1 22/2/1 21/2/1
f 24/2/1 22/2/1 23/2/1
f 27/2/1 26/2/1 25/2/1
f 28/2/1 26/2/1 27/2/1
f 31/2/1 30/2/1 29/2/1
f 32/2/1 30/2/1 31/2/1
f 35/2/1 34/2/1 33/2/1
f 36/2/1 34/2/1 35/2/1
f 39/2/1 38/2/1 37/2/1
f 40/2/1 38/2/1 39/2/1
f 43/2/1 42/2/1 41/2/1
f 44/2/1 42/2/1 43/2/1
f 47/2/1 46/2/1 45/2/1
f 48/2/1 46/2/1 47/2/1
f 51/2/1 50/2/1 49/2/1
f 52/2/1 50/2/1 51/2/1
f 55/2/1 54/2/1 53/2/1
f 56/2/1 54/2/1 55/2/1
f 59/2/1 58/2/1 57/2/1
f 60/2/1 58/2/1 59/2/1
f 64/3/1 62/3/1 61/3/1
f 65/2/1 63/2/1 62/2/1
f 65/3/1 62/3/1 64/3/1
f 66/2/1 63/2/1 65/2/1
f 69/2/1 68/2/1 67/2/1
f 70/2/1 68/2/1 69/2/1
f 73/2/1 72/2/1 71/2/1
f 74/2/1 72/2/1 73/2/1
f 77/2/1 76/2/1 75/2/1
f 78/2/1 76/2/1 77/2/1
f 81/2/1 80/2/1 79/2/1
f 82/2/1 80/2/1 81/2/1
f 85/2/1 84/2/1 83/2/1
f 86/2/1 84/2/1 85/2/1
f 89/2/1 88/2/1 87/2/1
f 90/2/1 88/2/1 89/2/1
f 93/2/1 92/2/1 91/2/1
f 94/2/1 92/2/1 93/2/1
f 97/2/1 96/2/1 95/2/1
f 98/2/1 96/2/1 97/2/1
f 101/2/1 100/2/1 99/2/1
f 102/2/1 100/2/1 101/2/1
f 105/2/1 104/2/1 103/2/1
f 106/2/1 104/2/1 105/2/1
f 109/2/1 108/2/1 107/2/1
f 110/2/1 108/2/1 109/2/1
f 113/2/1 112/2/1 111/2/1
f 114/2/1 112/2/1 113/2/1
f 117/2/1 116/2/1 115/2/1
f 118/2/1 116/2/1 117/2/1
f 121/3/1 120/3/1 119/3/1
f 122/3/1 120/3/1 121/3/1
f 125/3/1 124/3/1 123/3/1
f 126/3/1 124/3/1 125/3/1
f 129/3/1 128/3/1 127/3/1
f 130/3/1 128/3/1 129/3/1
f 133/2/1 132/2/1 131/2/1
f 134/2/1 132/2/1 133/2/1
f 137/1/1 136/1/1 135/1/1
f 138/1/1 136/1/1 137/1/1
f 141/2/1 140/2/1 139/2/1
f 142/2/1 140/2/1 141/2/1
f 145/2/1 144/2/1 143/2/1
f 146/2/1 144/2/1 145/2/1
f 149/2/1 148/2/1 147/2/1
f 150/2/1 148/2/1 149/2/1
f 153/2/1 152/2/1 151/2/1
f 154/2/1 152/2/1 153/2/1
f 157/2/1 156/2/1 155/2/1
f 158/2/1 156/2/1 157/2/1
f 161/2/1 160/2/1 159/2/1
f 162/2/1 160/2/1 161/2/1
f 163/2/2 164/2/2 165/2/2
f 165/2/2 164/2/2 166/2/2
f 167/2/2 168/2/2 169/2/2
f 169/2/2 168/2/2 170/2/2
f 171/2/2 172/2/2 173/2/2
f 173/2/2 172/2/2 174/2/2
f 175/2/2 176/2/2 177/2/2
f 177/2/2 176/2/2 178/2/2
f 179/2/2 180/2/2 181/2/2
f 181/2/2 180/2/2 182/2/2
f 183/2/2 184/2/2 185/2/2
f 185/2/2 184/2/2 186/2/2
f 187/2/2 188/2/2 189/2/2
f 189/2/2 188/2/2 190/2/2
f 191/3/2 192/3/2 193/3/2
f 193/3/2 192/3/2 194/3/2
f 195/2/2 196/2/2 197/2/2
f 197/2/2 196/2/2 198/2/2
f 199/2/2 200/2/2 201/2/2
f 201/2/2 200/2/2 202/2/2
f 203/2/2 204/2/2 205/2/2
f 205/2/2 204/2/2 206/2/2
f 207/2/2 208/2/2 209/2/2
f 209/2/2 208/2/2 210/2/2
f 211/2/2 212/2/2 213/2/2
f 213/2/2 212/2/2 214/2/2
f 215/2/2 216/2/2 217/2/2
f 217/2/2 216/2/2 218/2/2
f 219/2/2 220/2/2 221/2/2
f 221/2/2 220/2/2 222/2/2
f 223/2/2 224/2/2 225/2/2
f 225/2/2 224/2/2 226/2/2
f 227/3/2 228/3/2 229/3/2
f 229/3/2 228/3/2 230/3/2
f 231/2/2 232/2/2 233/2/2
f 233/2/2 232/2/2 234/2/2
f 235/2/2 236/2/2 237/2/2
f 237/2/2 236/2/2 238/2/2
f 239/2/2 240/2/2 241/2/2
f 241/2/2 240/2/2 242/2/2
f 243/2/2 244/2/2 245/2/2
f 243/2/2 245/2/2 247/2/2
f 245/1/2 246/1/2 248/1/2
f 247/2/2 245/2/2 248/2/2
f 248/1/2 246/1/2 249/1/2
f 250/3/2 251/3/2 252/3/2
f 252/3/2 251/3/2 253/3/2
f 254/3/2 255/3/2 257/3/2
f 255/2/2 256/2/2 258/2/2
f 257/3/2 255/3/2 258/3/2
f 258/2/2 256/2/2 259/2/2
f 260/2/2 261/2/2 262/2/2
f 262/2/2 261/2/2 263/2/2
f 264/2/2 265/2/2 266/2/2
f 266/2/2 265/2/2 267/2/2
f 268/2/2 269/2/2 270/2/2
f 270/2/2 269/2/2 271/2/2
f 272/2/2 273/2/2 274/2/2
f 274/2/2 273/2/2 275/2/2
f 276/2/2 277/2/2 278/2/2
f 278/2/2 277/2/2 279/2/2
f 280/2/2 281/2/2 282/2/2
f 282/2/2 281/2/2 283/2/2
f 284/2/2 285/2/2 286/2/2
f 286/2/2 285/2/2 287/2/2
f 288/2/2 289/2/2 290/2/2
f 290/2/2 289/2/2 291/2/2
f 292/2/2 293/2/2 294/2/2
f 294/2/2 293/2/2 295/2/2
f 296/2/2 297/2/2 298/2/2
f 298/2/2 297/2/2 299/2/2
f 300/2/2 301/2/2 302/2/2
f 302/2/2 301/2/2 303/2/2
f 304/2/2 305/2/2 306/2/2
f 306/2/2 305/2/2 307/2/2
f 308/2/2 309/2/2 310/2/2
f 310/2/2 309/2/2 311/2/2
f 312/2/2 313/2/2 314/2/2
f 314/2/2 313/2/2 315/2/2
f 316/1/2 317/1/2 318/1/2
f 318/1/2 317/1/2 319/1/2
f 322/3/3 321/3/3 320/3/3
f 323/3/3 321/3/3 322/3/3
f 327/3/3 325/3/3 324/3/3
f 328/3/3 325/3/3 327/3/3
f 331/3/3 327/3/3 326/3/3
f 332/3/3 327/3/3 331/3/3
f 333/3/3 330/3/3 329/3/3
f 334/3/3 330/3/3 333/3/3
f 339/2/3 336/2/3 335/2/3
f 340/2/3 336/2/3 339/2/3
f 341/2/3 338/2/3 337/2/3
f 342/2/3 338/2/3 341/2/3
f 348/2/3 344/2/3 343/2/3
f 349/2/3 344/2/3 348/2/3
f 352/2/3 346/2/3 345/2/3
f 353/2/3 346/2/3 352/2/3
f 356/2/3 350/2/3 349/2/3
f 356/2/3 348/2/3 347/2/3
f 356/2/3 349/2/3 348/2/3
f 357/2/3 350/2/3 356/2/3
f 358/2/3 354/2/3 353/2/3
f 358/2/3 353/2/3 352/2/3
f 358/2/3 352/2/3 351/2/3
f 359/2/3 354/2/3 358/2/3
f 362/2/3 356/2/3 355/2/3
f 363/2/3 356/2/3 362/2/3
f 365/2/3 341/2/3 340/2/3
f 366/2/3 341/2/3 365/2/3
f 367/2/3 362/2/3 361/2/3
f 368/2/3 362/2/3 367/2/3
f 369/2/3 360/2/3 359/2/3
f 370/2/3 360/2/3 369/2/3
f 371/2/3 366/2/3 365/2/3
f 371/2/3 365/2/3 364/2/3
f 371/2/3 367/2/3 366/2/3
f 372/2/3 367/2/3 371/2/3
f 378/2/3 373/2/3 372/2/3
f 378/2/3 372/2/3 371/2/3
f 378/2/3 371/2/3 370/2/3
f 383/2/3 379/2/3 378/2/3
f 383/2/3 378/2/3 370/2/3
f 385/2/3 381/2/3 380/2/3
f 386/2/3 381/2/3 385/2/3
f 388/2/3 385/2/3 384/2/3
f 389/2/3 377/2/3 376/2/3
f 389/2/3 376/2/3 375/2/3
f 389/2/3 375/2/3 374/2/3
f 390/2/3 388/2/3 387/2/3
f 391/2/3 385/2/3 388/2/3
f 391/2/3 390/2/3 389/2/3
f 391/2/3 388/2/3 390/2/3
f 393/2/3 383/2/3 382/2/3
f 394/2/3 379/2/3 383/2/3
f 394/2/3 383/2/3 393/2/3
f 395/2/3 392/2/3 391/2/3
f 395/2/3 391/2/3 389/2/3
f 396/2/3 392/2/3 395/2/3
f 399/2/3 389/2/3 374/2/3
f 399/2/3 395/2/3 389/2/3
f 400/2/3 395/2/3 399/2/3
f 401/2/3 395/2/3 400/2/3
f 402/2/3 395/2/3 401/2/3
f 403/2/3 395/2/3 402/2/3
f 404/2/3 395/2/3 403/2/3
f 406/2/3 398/2/3 397/2/3
f 407/2/3 398/2/3 406/2/3
f 408/2/3 405/2/3 404/2/3
f 409/2/3 405/2/3 408/2/3
f 410/2/3 406/2/3 397/2/3
f 411/2/3 406/2/3 410/2/3
f 412/2/3 406/2/3 411/2/3
f 413/2/3 406/2/3 412/2/3
f 414/2/3 398/2/3 407/2/3
f 415/2/3 398/2/3 414/2/3
f 416/2/3 398/2/3 415/2/3
f 417/2/3 399/2/3 374/2/3
f 418/2/3 399/2/3 417/2/3
f 419/2/3 399/2/3 418/2/3
f 420/2/3 399/2/3 419/2/3
f 422/2/3 412/2/3 411/2/3
f 423/2/3 412/2/3 422/2/3
f 424/2/3 412/2/3 423/2/3
f 425/2/3 415/2/3 414/2/3
f 425/2/3 414/2/3 413/2/3
f 426/2/3 424/2/3 423/2/3
f 426/2/3 425/2/3 424/2/3
f 427/2/3 425/2/3 426/2/3
f 428/2/3 425/2/3 427/2/3
f 429/2/3 415/2/3 425/2/3
f 429/2/3 425/2/3 428/2/3
f 432/2/3 422/2/3 421/2/3
f 433/2/3 422/2/3 432/2/3
f 434/2/3 430/2/3 429/2/3
f 435/2/3 430/2/3 434/2/3
f 437/2/3 432/2/3 431/2/3
f 438/2/3 432/2/3 437/2/3
f 439/2/3 432/2/3 438/2/3
f 440/2/3 432/2/3 439/2/3
f 441/2/3 436/2/3 435/2/3
f 442/2/3 436/2/3 441/2/3
f 444/2/3 439/2/3 438/2/3
f 445/2/3 439/2/3 444/2/3
f 446/2/3 443/2/3 442/2/3
f 447/2/3 443/2/3 446/2/3
f 448/2/3 443/2/3 447/2/3
f 449/2/3 443/2/3 448/2/3
f 450/2/3 448/2/3 447/2/3
f 451/2/3 448/2/3 450/2/3
f 453/2/3 428/2/3 427/2/3
f 454/2/3 428/2/3 453/2/3
f 456/2/3 453/2/3 452/2/3
f 457/2/3 453/2/3 456/2/3
f 458/2/3 455/2/3 454/2/3
f 459/2/3 455/2/3 458/2/3
f 462/1/3 461/1/3 460/1/3
f 463/1/3 461/1/3 462/1/3
f 464/1/3 461/1/3 463/1/3
f 465/1/3 461/1/3 464/1/3
f 466/1/3 462/1/3 460/1/3
f 467/1/3 464/1/3 463/1/3
f 468/1/3 464/1/3 467/1/3
f 469/1/3 461/1/3 465/1/3
f 470/1/3 469/1/3 468/1/3
f 470/1/3 461/1/3 469/1/3
f 471/1/3 461/1/3 470/1/3
f 472/1/3 466/1/3 460/1/3
f 472/1/3 467/1/3 466/1/3
f 473/1/3 467/1/3 472/1/3
f 474/1/3 470/1/3 468/1/3
f 475/1/3 470/1/3 474/1/3
f 476/1/3 461/1/3 471/1/3
f 477/1/3 461/1/3 476/1/3
f 478/1/3 472/1/3 460/1/3
f 479/1/3 472/1/3 478/1/3
f 480/1/3 467/1/3 473/1/3
f 481/1/3 467/1/3 480/1/3
f 482/1/3 474/1/3 468/1/3
f 483/1/3 474/1/3 482/1/3
f 484/1/3 461/1/3 477/1/3
f 485/1/3 478/1/3 460/1/3
f 486/1/3 467/1/3 481/1/3
f 487/1/3 467/1/3 486/1/3
f 488/1/3 482/1/3 468/1/3
f 489/1/3 482/1/3 488/1/3
f 490/1/3 484/1/3 483/1/3
f 491/1/3 467/1/3 487/1/3
f 492/1/3 467/1/3 491/1/3
f 493/1/3 488/1/3 468/1/3
f 494/1/3 488/1/3 493/1/3
f 495/1/3 490/1/3 489/1/3
f 496/1/3 484/1/3 490/1/3
f 496/1/3 490/1/3 495/1/3
f 497/1/3 484/1/3 496/1/3
f 498/1/3 486/1/3 485/1/3
f 499/1/3 491/1/3 487/1/3
f 500/1/3 491/1/3 499/1/3
f 501/1/3 495/1/3 494/1/3
f 501/1/3 496/1/3 495/1/3
f 502/1/3 496/1/3 501/1/3
f 503/1/3 496/1/3 502/1/3
f 504/1/3 496/1/3 503/1/3
f 505/1/3 484/1/3 497/1/3
f 506/1/3 461/1/3 484/1/3
f 506/1/3 484/1/3 505/1/3
f 507/1/3 503/1/3 502/1/3
f 508/1/3 503/1/3 507/1/3
f 509/1/3 461/1/3 506/1/3
f 510/1/3 461/1/3 509/1/3
f 511/1/3 499/1/3 498/1/3
f 511/1/3 498/1/3 485/1/3
f 512/1/3 499/1/3 511/1/3
f 513/1/3 509/1/3 506/1/3
f 514/1/3 509/1/3 513/1/3
f 515/1/3 461/1/3 510/1/3
f 516/1/3 513/1/3 506/1/3
f 517/1/3 513/1/3 516/1/3
f 518/1/3 516/1/3 506/1/3
f 519/1/3 516/1/3 518/1/3
f 520/1/3 515/1/3 514/1/3
f 521/1/3 461/1/3 515/1/3
f 521/1/3 515/1/3 520/1/3
f 522/1/3 511/1/3 485/1/3
f 523/1/3 503/1/3 508/1/3
f 525/1/3 461/1/3 521/1/3
f 526/1/3 522/1/3 485/1/3
f 526/1/3 523/1/3 522/1/3
f 527/1/3 503/1/3 523/1/3
f 527/1/3 523/1/3 526/1/3
f 530/1/3 529/1/3 528/1/3
f 532/1/3 531/1/3 530/1/3
f 533/1/3 525/1/3 524/1/3
f 534/1/3 525/1/3 533/1/3
f 535/1/3 533/1/3 532/1/3
f 536/1/3 525/1/3 534/1/3
f 537/1/3 526/1/3 485/1/3
f 540/1/3 503/1/3 527/1/3
f 541/1/3 503/1/3 540/1/3
f 544/1/3 532/1/3 530/1/3
f 544/1/3 536/1/3 535/1/3
f 544/1/3 530/1/3 528/1/3
f 544/1/3 535/1/3 532/1/3
f 545/1/3 538/1/3 537/1/3
f 545/1/3 537/1/3 485/1/3
f 546/1/3 538/1/3 545/1/3
f 548/1/3 542/1/3 541/1/3
f 548/1/3 541/1/3 540/1/3
f 548/1/3 540/1/3 539/1/3
f 549/1/3 544/1/3 543/1/3
f 550/1/3 547/1/3 546/1/3
f 554/1/3 549/1/3 548/1/3
f 554/1/3 548/1/3 539/1/3
f 555/1/3 549/1/3 554/1/3
f 556/1/3 485/1/3 460/1/3
f 556/1/3 545/1/3 485/1/3
f 557/1/3 545/1/3 556/1/3
f 558/1/3 552/1/3 551/1/3
f 558/1/3 551/1/3 550/1/3
f 558/1/3 550/1/3 546/1/3
f 559/1/3 554/1/3 553/1/3
f 560/1/3 549/1/3 555/1/3
f 561/1/3 549/1/3 560/1/3
f 562/1/3 556/1/3 460/1/3
f 565/1/3 558/1/3 557/1/3
f 566/1/3 560/1/3 559/1/3
f 567/1/3 549/1/3 561/1/3
f 568/1/3 544/1/3 549/1/3
f 568/1/3 549/1/3 567/1/3
f 569/1/3 563/1/3 562/1/3
f 570/1/3 565/1/3 564/1/3
f 571/1/3 567/1/3 566/1/3
f 574/1/3 544/1/3 568/1/3
f 575/1/3 572/1/3 571/1/3
f 576/1/3 574/1/3 573/1/3
f 577/1/3 570/1/3 569/1/3
f 577/1/3 552/1/3 558/1/3
f 577/1/3 558/1/3 565/1/3
f 577/1/3 565/1/3 570/1/3
f 578/1/3 552/1/3 577/1/3
f 579/1/3 566/1/3 559/1/3
f 579/1/3 559/1/3 553/1/3
f 579/1/3 576/1/3 575/1/3
f 579/1/3 575/1/3 571/1/3
f 579/1/3 571/1/3 566/1/3
f 580/1/3 576/1/3 579/1/3
f 581/1/3 577/1/3 569/1/3
f 582/1/3 579/1/3 578/1/3
f 583/1/3 579/1/3 582/1/3
f 584/1/3 576/1/3 580/1/3
f 585/1/3 583/1/3 582/1/3
f 585/1/3 584/1/3 583/1/3
f 585/1/3 581/1/3 569/1/3
f 585/1/3 569/1/3 562/1/3
f 585/1/3 582/1/3 581/1/3
f 585/1/3 562/1/3 460/1/3
f 586/1/3 576/1/3 584/1/3
f 586/1/3 584/1/3 585/1/3
f 586/1/3 461/1/3 525/1/3
f 586/1/3 544/1/3 574/1/3
f 586/1/3 525/1/3 536/1/3
f 586/1/3 536/1/3 544/1/3
f 586/1/3 574/1/3 576/1/3
f 587/1/4 588/1/4 589/1/4
f 589/1/4 588/1/4 590/1/4
f 587/1/4 589/1/4 591/1/4
f 590/1/4 588/1/4 592/1/4
f 587/1/4 591/1/4 593/1/4
f 591/1/4 592/1/4 593/1/4
f 592/1/4 588/1/4 594/1/4
f 593/1/4 592/1/4 594/1/4
f 597/1/5 596/1/5 595/1/5
f 598/1/5 596/1/5 597/1/5
f 603/2/5 600/2/5 599/2/5
f 604/2/5 600/2/5 603/2/5
f 605/2/5 602/2/5 601/2/5
f 606/2/5 602/2/5 605/2/5
f 611/2/5 608/2/5 607/2/5
f 612/2/5 608/2/5 611/2/5
f 613/2/5 610/2/5 609/2/5
f 614/2/5 610/2/5 613/2/5
f 623/2/5 616/2/5 615/2/5
f 624/2/5 616/2/5 623/2/5
f 625/2/5 618/2/5 617/2/5
f 626/2/5 618/2/5 625/2/5
f 627/2/5 620/2/5 619/2/5
f 628/2/5 620/2/5 627/2/5
f 629/2/5 622/2/5 621/2/5
f 630/2/5 622/2/5 629/2/5
f 635/2/5 632/2/5 631/2/5
f 636/2/5 632/2/5 635/2/5
f 637/2/5 634/2/5 633/2/5
f 638/2/5 634/2/5 637/2/5
f 641/2/5 640/2/5 639/2/5
f 642/2/5 640/2/5 641/2/5
f 645/2/5 644/2/5 643/2/5
f 646/2/5 644/2/5 645/2/5
f 647/1/5 646/1/5 645/1/5
f 648/1/5 646/1/5 647/1/5
f 653/2/5 650/2/5 649/2/5
f 654/2/5 650/2/5 653/2/5
f 655/2/5 652/2/5 651/2/5
f 656/2/5 652/2/5 655/2/5
f 661/2/5 658/2/5 657/2/5
f 662/2/5 658/2/5 661/2/5
f 663/2/5 660/2/5 659/2/5
f 664/2/5 660/2/5 663/2/5
f 669/2/5 666/2/5 665/2/5
f 670/2/5 666/2/5 669/2/5
f 671/2/5 668/2/5 667/2/5
f 672/2/5 668/2/5 671/2/5
f 675/3/5 674/3/5 673/3/5
f 676/3/5 674/3/5 675/3/5
f 679/3/5 678/3/5 677/3/5
f 680/3/5 678/3/5 679/3/5
f 683/2/5 682/2/5 681/2/5
f 684/2/5 682/2/5 683/2/5
f 689/2/5 686/2/5 685/2/5
f 690/2/5 686/2/5 689/2/5
f 691/2/5 688/2/5 687/2/5
f 692/2/5 688/2/5 691/2/5
f 695/2/5 694/2/5 693/2/5
f 696/2/5 694/2/5 695/2/5
f 701/2/5 698/2/5 697/2/5
f 702/2/5 698/2/5 701/2/5
f 703/2/5 700/2/5 699/2/5
f 704/2/5 700/2/5 703/2/5
f 707/2/5 706/2/5 705/2/5
f 708/2/5 706/2/5 707/2/5
f 713/3/5 710/3/5 709/3/5
f 714/3/5 710/3/5 713/3/5
f 715/3/5 712/3/5 711/3/5
f 716/3/5 712/3/5 715/3/5
f 719/2/5 714/2/5 713/2/5
f 720/2/5 714/2/5 719/2/5
f 721/2/5 716/2/5 715/2/5
f 722/2/5 716/2/5 721/2/5
f 723/2/5 718/2/5 717/2/5
f 724/2/5 718/2/5 723/2/5
f 727/2/5 726/2/5 725/2/5
f 728/2/5 726/2/5 727/2/5
f 733/2/5 730/2/5 729/2/5
f 734/2/5 730/2/5 733/2/5
f 735/2/5 732/2/5 731/2/5
f 736/2/5 732/2/5 735/2/5
f 741/2/5 738/2/5 737/2/5
f 742/2/5 738/2/5 741/2/5
f 743/2/5 740/2/5 739/2/5
f 744/2/5 740/2/5 743/2/5
f 749/2/5 746/2/5 745/2/5
f 750/2/5 746/2/5 749/2/5
f 751/2/5 748/2/5 747/2/5
f 752/2/5 748/2/5 751/2/5
f 753/2/6 754/2/6 757/2/6
f 757/2/6 754/2/6 758/2/6
f 755/2/6 756/2/6 759/2/6
f 759/2/6 756/2/6 760/2/6
f 761/2/6 762/2/6 765/2/6
f 765/2/6 762/2/6 766/2/6
f 763/2/6 764/2/6 767/2/6
f 767/2/6 764/2/6 768/2/6
f 769/2/6 770/2/6 773/2/6
f 773/2/6 770/2/6 774/2/6
f 771/2/6 772/2/6 775/2/6
f 775/2/6 772/2/6 776/2/6
f 777/1/6 778/1/6 779/1/6
f 779/1/6 778/1/6 780/1/6
f 781/2/6 782/2/6 785/2/6
f 785/2/6 782/2/6 786/2/6
f 783/2/6 784/2/6 787/2/6
f 787/2/6 784/2/6 788/2/6
f 789/2/6 790/2/6 793/2/6
f 793/2/6 790/2/6 794/2/6
f 791/2/6 792/2/6 795/2/6
f 795/2/6 792/2/6 796/2/6
f 797/2/6 798/2/6 801/2/6
f 801/2/6 798/2/6 802/2/6
f 799/2/6 800/2/6 803/2/6
f 803/2/6 800/2/6 804/2/6
f 805/3/6 806/3/6 807/3/6
f 807/3/6 806/3/6 808/3/6
f 809/3/6 810/3/6 813/3/6
f 813/3/6 810/3/6 814/3/6
f 811/2/6 812/2/6 815/2/6
f 815/2/6 812/2/6 816/2/6
f 817/2/6 818/2/6 823/2/6
f 823/2/6 818/2/6 824/2/6
f 819/2/6 820/2/6 825/2/6
f 825/2/6 820/2/6 826/2/6
f 821/2/6 822/2/6 827/2/6
f 827/2/6 822/2/6 828/2/6
f 829/2/6 830/2/6 835/2/6
f 835/2/6 830/2/6 836/2/6
f 831/2/6 832/2/6 837/2/6
f 837/2/6 832/2/6 838/2/6
f 833/2/6 834/2/6 839/2/6
f 839/2/6 834/2/6 840/2/6
f 841/2/6 842/2/6 843/2/6
f 843/2/6 842/2/6 844/2/6
f 845/2/6 846/2/6 847/2/6
f 847/2/6 846/2/6 848/2/6
f 849/2/6 850/2/6 851/2/6
f 851/2/6 850/2/6 852/2/6
f 853/3/6 854/3/6 859/3/6
f 859/3/6 854/3/6 860/3/6
f 855/3/6 856/3/6 861/3/6
f 861/3/6 856/3/6 862/3/6
f 857/2/6 858/2/6 865/2/6
f 865/2/6 858/2/6 866/2/6
f 859/2/6 860/2/6 867/2/6
f 867/2/6 860/2/6 868/2/6
f 861/2/6 862/2/6 869/2/6
f 869/2/6 862/2/6 870/2/6
f 863/2/6 864/2/6 871/2/6
f 871/2/6 864/2/6 872/2/6
f 873/2/6 874/2/6 879/2/6
f 879/2/6 874/2/6 880/2/6
f 875/2/6 876/2/6 881/2/6
f 881/2/6 876/2/6 882/2/6
f 877/2/6 878/2/6 883/2/6
f 883/2/6 878/2/6 884/2/6
f 885/2/6 886/2/6 889/2/6
f 889/2/6 886/2/6 890/2/6
f 887/2/6 888/2/6 891/2/6
f 891/2/6 888/2/6 892/2/6
f 893/2/6 894/2/6 897/2/6
f 897/2/6 894/2/6 898/2/6
f 895/2/6 896/2/6 899/2/6
f 899/2/6 896/2/6 900/2/6
f 901/2/6 902/2/6 903/2/6
f 903/2/6 902/2/6 904/2/6
f 905/1/6 906/1/6 907/1/6
f 907/1/6 906/1/6 908/1/6
