# MagicaVoxel @ Ephtracy

# group
o 

# material
mtllib god-osiris.mtl
usemtl palette

# normals
vn -1 0 0
vn 1 0 0
vn 0 0 1
vn 0 0 -1
vn 0 -1 0
vn 0 1 0

# texcoords
vt 0.369141 0.5
vt 0.373047 0.5
vt 0.552734 0.5
vt 0.806641 0.5
vt 0.958984 0.5
vt 0.962891 0.5
vt 0.994141 0.5

# verts
v -2 0 -1.9
v -2 0 -2
v -2 4 -1.9
v -2 4 -2
v -1.7 3.1 -1.8
v -1.7 3.1 -1.9
v -1.7 3.2 -1.8
v -1.7 3.2 -1.9
v -1.6 0.1 -1.8
v -1.6 0.1 -1.9
v -1.6 0.2 -1.8
v -1.6 0.2 -1.9
v -1.6 3.2 -1.8
v -1.6 3.2 -1.9
v -1.6 3.5 -1.8
v -1.6 3.5 -1.9
v -1.5 3.5 -1.8
v -1.5 3.5 -1.9
v -1.5 3.6 -1.8
v -1.5 3.6 -1.9
v -1.4 0.2 -1.8
v -1.4 0.2 -1.9
v -1.4 1.7 -1.8
v -1.4 1.7 -1.9
v -1.4 1.8 -1.8
v -1.4 1.8 -1.9
v -1.4 3.4 -1.8
v -1.4 3.4 -1.9
v -1.4 3.6 -1.8
v -1.4 3.6 -1.9
v -1.4 3.7 -1.8
v -1.4 3.7 -1.9
v -1.3 3.7 -1.8
v -1.3 3.7 -1.9
v -1.3 3.8 -1.8
v -1.3 3.8 -1.9
v -1.2 0.3 -1.8
v -1.2 0.3 -1.9
v -1.2 0.4 -1.8
v -1.2 0.4 -1.9
v -1.2 1.9 -1.8
v -1.2 1.9 -1.9
v -1.2 3 -1.8
v -1.2 3 -1.9
v -1.1 3 -1.8
v -1.1 3 -1.9
v -1.1 3.1 -1.8
v -1.1 3.1 -1.9
v -0.9 3.2 -1.8
v -0.9 3.2 -1.9
v -0.9 3.3 -1.7
v -0.9 3.3 -1.8
v -0.9 3.4 -1.7
v -0.9 3.4 -1.9
v -0.8 1.1 -1.8
v -0.8 1.1 -1.9
v -0.8 1.7 -1.8
v -0.8 1.7 -1.9
v -0.8 2.5 -1.8
v -0.8 2.5 -1.9
v -0.8 2.7 -1.8
v -0.8 2.7 -1.9
v -0.7 0.1 -1.8
v -0.7 0.1 -1.9
v -0.7 0.2 -1.8
v -0.7 0.2 -1.9
v -0.7 1.7 -1.8
v -0.7 1.7 -1.9
v -0.7 1.9 -1.8
v -0.7 1.9 -1.9
v -0.7 2.4 -1.8
v -0.7 2.4 -1.9
v -0.7 2.5 -1.8
v -0.7 2.5 -1.9
v -0.7 3.4 -1.8
v -0.7 3.4 -1.9
v -0.7 3.5 -1.8
v -0.7 3.5 -1.9
v -0.6 0.2 -1.8
v -0.6 0.2 -1.9
v -0.6 1.1 -1.8
v -0.6 1.1 -1.9
v -0.6 1.9 -1.8
v -0.6 1.9 -1.9
v -0.6 2 -1.8
v -0.6 2 -1.9
v -0.6 2.4 -1.8
v -0.6 2.4 -1.9
v -0.5 3.1 -1.8
v -0.5 3.1 -1.9
v -0.5 3.2 -1.8
v -0.5 3.2 -1.9
v -0.3 3.3 -1.6
v -0.3 3.3 -1.7
v -0.3 3.4 -1.6
v -0.3 3.4 -1.7
v -0.3 3.5 -1.8
v -0.3 3.5 -1.9
v -0.3 3.8 -1.8
v -0.3 3.8 -1.9
v -0.0999999 0.1 -1.8
v -0.0999999 0.1 -1.9
v -0.0999999 0.2 -1.8
v -0.0999999 0.2 -1.9
v 2.38419e-07 0.2 -1.8
v 2.38419e-07 0.2 -1.9
v 2.38419e-07 1.1 -1.8
v 2.38419e-07 1.1 -1.9
v 2.38419e-07 3.5 -1.8
v 2.38419e-07 3.5 -1.9
v 2.38419e-07 3.8 -1.8
v 2.38419e-07 3.8 -1.9
v 0.1 3.5 -1.7
v 0.1 3.5 -1.8
v 0.1 3.7 -1.7
v 0.1 3.7 -1.8
v 0.5 1 -1.8
v 0.5 1 -1.9
v 0.5 1.1 -1.8
v 0.5 1.1 -1.9
v 0.5 1.3 -1.8
v 0.5 1.3 -1.9
v 0.6 1.3 -1.8
v 0.6 1.3 -1.9
v 0.6 1.4 -1.8
v 0.6 1.4 -1.9
v 0.6 1.5 -1.8
v 0.6 1.5 -1.9
v 0.6 1.7 -1.8
v 0.6 1.7 -1.9
v 0.6 2.7 -1.8
v 0.6 2.7 -1.9
v 0.7 1.1 -1.8
v 0.7 1.1 -1.9
v 0.7 1.3 -1.8
v 0.7 1.3 -1.9
v 0.7 1.6 -1.8
v 0.7 1.6 -1.9
v 0.7 1.7 -1.8
v 0.7 1.7 -1.9
v 0.9 1.5 -1.8
v 0.9 1.5 -1.9
v 0.9 1.6 -1.8
v 0.9 1.6 -1.9
v 1.2 1 -1.8
v 1.2 1 -1.9
v 1.2 1.1 -1.8
v 1.2 1.1 -1.9
v 1.2 1.3 -1.8
v 1.2 1.3 -1.9
v 1.3 1.3 -1.8
v 1.3 1.3 -1.9
v 1.3 1.4 -1.8
v 1.3 1.4 -1.9
v 1.4 1.1 -1.8
v 1.4 1.1 -1.9
v 1.4 1.3 -1.8
v 1.4 1.3 -1.9
v -1.6 3.1 -1.8
v -1.6 3.1 -1.9
v -1.6 3.2 -1.8
v -1.6 3.2 -1.9
v -1.5 3.2 -1.8
v -1.5 3.2 -1.9
v -1.5 3.4 -1.8
v -1.5 3.4 -1.9
v -1.3 0.1 -1.8
v -1.3 0.1 -1.9
v -1.3 0.2 -1.8
v -1.3 0.2 -1.9
v -1.3 0.3 -1.8
v -1.3 0.3 -1.9
v -1.3 1.6 -1.8
v -1.3 1.6 -1.9
v -1.3 1.9 -1.8
v -1.3 1.9 -1.9
v -1.3 3.7 -1.8
v -1.3 3.7 -1.9
v -1.2 0.2 -1.8
v -1.2 0.2 -1.9
v -1.2 0.3 -1.8
v -1.2 0.3 -1.9
v -1.2 3.7 -1.8
v -1.2 3.7 -1.9
v -1.2 3.8 -1.8
v -1.2 3.8 -1.9
v -1.1 0.3 -1.8
v -1.1 0.3 -1.9
v -1.1 0.4 -1.8
v -1.1 0.4 -1.9
v -1.1 1.6 -1.8
v -1.1 1.6 -1.9
v -1.1 1.7 -1.8
v -1.1 1.7 -1.9
v -1 1.7 -1.8
v -1 1.7 -1.9
v -1 2.4 -1.8
v -1 2.4 -1.9
v -0.9 2.4 -1.8
v -0.9 2.4 -1.9
v -0.9 2.7 -1.8
v -0.9 2.7 -1.9
v -0.3 0.1 -1.8
v -0.3 0.1 -1.9
v -0.3 1.1 -1.8
v -0.3 1.1 -1.9
v -0.2 3.7 -1.8
v -0.2 3.7 -1.9
v -0.2 3.8 -1.8
v -0.2 3.8 -1.9
v -0.0999999 3.3 -1.6
v -0.0999999 3.3 -1.7
v -0.0999999 3.4 -1.6
v -0.0999999 3.4 -1.7
v -0.0999999 3.5 -1.8
v -0.0999999 3.5 -1.9
v -0.0999999 3.7 -1.8
v -0.0999999 3.7 -1.9
v 0.1 3.7 -1.8
v 0.1 3.7 -1.9
v 0.1 3.8 -1.8
v 0.1 3.8 -1.9
v 0.2 1.9 -1.8
v 0.2 1.9 -1.9
v 0.2 2 -1.8
v 0.2 2 -1.9
v 0.2 2.3 -1.8
v 0.2 2.3 -1.9
v 0.2 3.3 -1.7
v 0.2 3.3 -1.8
v 0.2 3.4 -1.7
v 0.2 3.4 -1.8
v 0.2 3.5 -1.7
v 0.2 3.5 -1.8
v 0.2 3.5 -1.9
v 0.2 3.7 -1.7
v 0.2 3.7 -1.9
v 0.3 0.1 -1.8
v 0.3 0.1 -1.9
v 0.3 1.1 -1.8
v 0.3 1.1 -1.9
v 0.3 1.6 -1.8
v 0.3 1.6 -1.9
v 0.3 1.9 -1.8
v 0.3 1.9 -1.9
v 0.3 2.3 -1.8
v 0.3 2.3 -1.9
v 0.3 2.4 -1.8
v 0.3 2.4 -1.9
v 0.3 3.4 -1.8
v 0.3 3.4 -1.9
v 0.3 3.5 -1.8
v 0.3 3.5 -1.9
v 0.4 1.1 -1.8
v 0.4 1.1 -1.9
v 0.4 1.6 -1.8
v 0.4 1.6 -1.9
v 0.4 2.4 -1.8
v 0.4 2.4 -1.9
v 0.4 2.7 -1.8
v 0.4 2.7 -1.9
v 0.4 3.3 -1.8
v 0.4 3.3 -1.9
v 0.4 3.4 -1.8
v 0.4 3.4 -1.9
v 0.5 3.1 -1.8
v 0.5 3.1 -1.9
v 0.5 3.3 -1.8
v 0.5 3.3 -1.9
v 0.6 1.1 -1.8
v 0.6 1.1 -1.9
v 0.6 1.3 -1.8
v 0.6 1.3 -1.9
v 0.7 1.3 -1.8
v 0.7 1.3 -1.9
v 0.7 1.4 -1.8
v 0.7 1.4 -1.9
v 0.7 3 -1.8
v 0.7 3 -1.9
v 0.7 3.1 -1.8
v 0.7 3.1 -1.9
v 0.8 1 -1.8
v 0.8 1 -1.9
v 0.8 1.1 -1.8
v 0.8 1.1 -1.9
v 0.8 1.3 -1.8
v 0.8 1.3 -1.9
v 0.8 1.9 -1.8
v 0.8 1.9 -1.9
v 0.8 3 -1.8
v 0.8 3 -1.9
v 0.9 1.8 -1.8
v 0.9 1.8 -1.9
v 0.9 1.9 -1.8
v 0.9 1.9 -1.9
v 1 1.5 -1.8
v 1 1.5 -1.9
v 1 1.7 -1.8
v 1 1.7 -1.9
v 1 1.8 -1.8
v 1 1.8 -1.9
v 1.3 1.1 -1.8
v 1.3 1.1 -1.9
v 1.3 1.3 -1.8
v 1.3 1.3 -1.9
v 1.4 1.3 -1.8
v 1.4 1.3 -1.9
v 1.4 1.4 -1.8
v 1.4 1.4 -1.9
v 1.4 1.5 -1.8
v 1.4 1.5 -1.9
v 1.5 1 -1.8
v 1.5 1 -1.9
v 1.5 1.1 -1.8
v 1.5 1.1 -1.9
v 1.5 1.3 -1.8
v 1.5 1.3 -1.9
v 2 0 -1.9
v 2 0 -2
v 2 4 -1.9
v 2 4 -2
v -0.3 3.3 -1.6
v -0.3 3.4 -1.6
v -0.0999999 3.3 -1.6
v -0.0999999 3.4 -1.6
v -0.9 3.3 -1.7
v -0.9 3.4 -1.7
v -0.3 3.3 -1.7
v -0.3 3.4 -1.7
v -0.0999999 3.3 -1.7
v -0.0999999 3.4 -1.7
v 0.1 3.5 -1.7
v 0.1 3.7 -1.7
v 0.2 3.3 -1.7
v 0.2 3.4 -1.7
v 0.2 3.5 -1.7
v 0.2 3.7 -1.7
v -1.7 3.1 -1.8
v -1.7 3.2 -1.8
v -1.6 0.1 -1.8
v -1.6 0.2 -1.8
v -1.6 3.1 -1.8
v -1.6 3.2 -1.8
v -1.6 3.5 -1.8
v -1.5 3.2 -1.8
v -1.5 3.4 -1.8
v -1.5 3.5 -1.8
v -1.5 3.6 -1.8
v -1.4 0.2 -1.8
v -1.4 1.7 -1.8
v -1.4 1.8 -1.8
v -1.4 3.4 -1.8
v -1.4 3.6 -1.8
v -1.4 3.7 -1.8
v -1.3 0.1 -1.8
v -1.3 0.2 -1.8
v -1.3 0.3 -1.8
v -1.3 1.6 -1.8
v -1.3 1.7 -1.8
v -1.3 1.8 -1.8
v -1.3 1.9 -1.8
v -1.3 3.7 -1.8
v -1.3 3.8 -1.8
v -1.2 0.2 -1.8
v -1.2 0.3 -1.8
v -1.2 0.4 -1.8
v -1.2 1.9 -1.8
v -1.2 3 -1.8
v -1.2 3.7 -1.8
v -1.2 3.8 -1.8
v -1.1 0.3 -1.8
v -1.1 0.4 -1.8
v -1.1 1.6 -1.8
v -1.1 1.7 -1.8
v -1.1 3 -1.8
v -1.1 3.1 -1.8
v -1 1.7 -1.8
v -1 2.4 -1.8
v -0.9 2.4 -1.8
v -0.9 2.7 -1.8
v -0.9 3.2 -1.8
v -0.9 3.3 -1.8
v -0.8 1.1 -1.8
v -0.8 1.7 -1.8
v -0.8 2.5 -1.8
v -0.8 2.7 -1.8
v -0.7 0.1 -1.8
v -0.7 0.2 -1.8
v -0.7 1.7 -1.8
v -0.7 1.9 -1.8
v -0.7 2.4 -1.8
v -0.7 2.5 -1.8
v -0.7 3.4 -1.8
v -0.7 3.5 -1.8
v -0.6 0.2 -1.8
v -0.6 1.1 -1.8
v -0.6 1.9 -1.8
v -0.6 2 -1.8
v -0.6 2.4 -1.8
v -0.5 3.1 -1.8
v -0.5 3.2 -1.8
v -0.3 0.1 -1.8
v -0.3 1.1 -1.8
v -0.3 3.5 -1.8
v -0.3 3.8 -1.8
v -0.2 3.7 -1.8
v -0.2 3.8 -1.8
v -0.0999999 0.1 -1.8
v -0.0999999 0.2 -1.8
v -0.0999999 3.5 -1.8
v -0.0999999 3.7 -1.8
v 2.38419e-07 0.2 -1.8
v 2.38419e-07 1.1 -1.8
v 2.38419e-07 3.5 -1.8
v 2.38419e-07 3.8 -1.8
v 0.1 3.1 -1.8
v 0.1 3.2 -1.8
v 0.1 3.3 -1.8
v 0.1 3.5 -1.8
v 0.1 3.7 -1.8
v 0.1 3.8 -1.8
v 0.2 1.9 -1.8
v 0.2 2 -1.8
v 0.2 2.3 -1.8
v 0.2 3.3 -1.8
v 0.2 3.4 -1.8
v 0.2 3.5 -1.8
v 0.3 0.1 -1.8
v 0.3 1.1 -1.8
v 0.3 1.6 -1.8
v 0.3 1.9 -1.8
v 0.3 2.3 -1.8
v 0.3 2.4 -1.8
v 0.3 2.8 -1.8
v 0.3 3.1 -1.8
v 0.3 3.4 -1.8
v 0.3 3.5 -1.8
v 0.4 1.1 -1.8
v 0.4 1.6 -1.8
v 0.4 2.4 -1.8
v 0.4 2.7 -1.8
v 0.4 3.3 -1.8
v 0.4 3.4 -1.8
v 0.5 1 -1.8
v 0.5 1.1 -1.8
v 0.5 1.3 -1.8
v 0.5 2.8 -1.8
v 0.5 3.1 -1.8
v 0.5 3.3 -1.8
v 0.6 1.1 -1.8
v 0.6 1.3 -1.8
v 0.6 1.4 -1.8
v 0.6 1.5 -1.8
v 0.6 1.7 -1.8
v 0.6 2.7 -1.8
v 0.7 1.1 -1.8
v 0.7 1.3 -1.8
v 0.7 1.4 -1.8
v 0.7 1.6 -1.8
v 0.7 1.7 -1.8
v 0.7 3 -1.8
v 0.7 3.1 -1.8
v 0.8 1 -1.8
v 0.8 1.1 -1.8
v 0.8 1.3 -1.8
v 0.8 1.9 -1.8
v 0.8 3 -1.8
v 0.9 1.5 -1.8
v 0.9 1.6 -1.8
v 0.9 1.7 -1.8
v 0.9 1.8 -1.8
v 0.9 1.9 -1.8
v 1 1.5 -1.8
v 1 1.7 -1.8
v 1 1.8 -1.8
v 1.2 1 -1.8
v 1.2 1.1 -1.8
v 1.2 1.3 -1.8
v 1.3 1.1 -1.8
v 1.3 1.3 -1.8
v 1.3 1.4 -1.8
v 1.4 1.1 -1.8
v 1.4 1.3 -1.8
v 1.4 1.4 -1.8
v 1.4 1.5 -1.8
v 1.5 1 -1.8
v 1.5 1.1 -1.8
v 1.5 1.3 -1.8
v -2 0 -1.9
v -2 4 -1.9
v -1.7 3.1 -1.9
v -1.7 3.2 -1.9
v -1.6 0.1 -1.9
v -1.6 0.2 -1.9
v -1.6 3.1 -1.9
v -1.6 3.2 -1.9
v -1.6 3.5 -1.9
v -1.5 3.2 -1.9
v -1.5 3.4 -1.9
v -1.5 3.5 -1.9
v -1.5 3.6 -1.9
v -1.4 0.2 -1.9
v -1.4 1.7 -1.9
v -1.4 1.8 -1.9
v -1.4 3.4 -1.9
v -1.4 3.6 -1.9
v -1.4 3.7 -1.9
v -1.3 0.1 -1.9
v -1.3 0.2 -1.9
v -1.3 0.3 -1.9
v -1.3 1.6 -1.9
v -1.3 1.9 -1.9
v -1.3 3.7 -1.9
v -1.3 3.8 -1.9
v -1.2 0.2 -1.9
v -1.2 0.3 -1.9
v -1.2 0.4 -1.9
v -1.2 1.9 -1.9
v -1.2 3 -1.9
v -1.2 3.7 -1.9
v -1.2 3.8 -1.9
v -1.1 0.3 -1.9
v -1.1 0.4 -1.9
v -1.1 1.6 -1.9
v -1.1 1.7 -1.9
v -1.1 3 -1.9
v -1.1 3.1 -1.9
v -1 1.7 -1.9
v -1 2.4 -1.9
v -0.9 2.4 -1.9
v -0.9 2.7 -1.9
v -0.9 3.2 -1.9
v -0.9 3.4 -1.9
v -0.8 1.1 -1.9
v -0.8 1.7 -1.9
v -0.8 2.5 -1.9
v -0.8 2.7 -1.9
v -0.7 0.1 -1.9
v -0.7 0.2 -1.9
v -0.7 1.7 -1.9
v -0.7 1.9 -1.9
v -0.7 2.4 -1.9
v -0.7 2.5 -1.9
v -0.7 3.4 -1.9
v -0.7 3.5 -1.9
v -0.6 0.2 -1.9
v -0.6 1.1 -1.9
v -0.6 1.9 -1.9
v -0.6 2 -1.9
v -0.6 2.4 -1.9
v -0.5 3.1 -1.9
v -0.5 3.2 -1.9
v -0.3 0.1 -1.9
v -0.3 1.1 -1.9
v -0.3 3.5 -1.9
v -0.3 3.8 -1.9
v -0.2 3.7 -1.9
v -0.2 3.8 -1.9
v -0.0999999 0.1 -1.9
v -0.0999999 0.2 -1.9
v -0.0999999 3.5 -1.9
v -0.0999999 3.7 -1.9
v 2.38419e-07 0.2 -1.9
v 2.38419e-07 1.1 -1.9
v 2.38419e-07 3.5 -1.9
v 2.38419e-07 3.8 -1.9
v 0.1 3.7 -1.9
v 0.1 3.8 -1.9
v 0.2 1.9 -1.9
v 0.2 2 -1.9
v 0.2 2.3 -1.9
v 0.2 3.5 -1.9
v 0.2 3.7 -1.9
v 0.3 0.1 -1.9
v 0.3 1.1 -1.9
v 0.3 1.6 -1.9
v 0.3 1.9 -1.9
v 0.3 2.3 -1.9
v 0.3 2.4 -1.9
v 0.3 3.4 -1.9
v 0.3 3.5 -1.9
v 0.4 1.1 -1.9
v 0.4 1.6 -1.9
v 0.4 2.4 -1.9
v 0.4 2.7 -1.9
v 0.4 3.3 -1.9
v 0.4 3.4 -1.9
v 0.5 1 -1.9
v 0.5 1.1 -1.9
v 0.5 1.3 -1.9
v 0.5 3.1 -1.9
v 0.5 3.3 -1.9
v 0.6 1.1 -1.9
v 0.6 1.3 -1.9
v 0.6 1.4 -1.9
v 0.6 1.5 -1.9
v 0.6 1.7 -1.9
v 0.6 2.7 -1.9
v 0.7 1.1 -1.9
v 0.7 1.3 -1.9
v 0.7 1.4 -1.9
v 0.7 1.6 -1.9
v 0.7 1.7 -1.9
v 0.7 3 -1.9
v 0.7 3.1 -1.9
v 0.8 1 -1.9
v 0.8 1.1 -1.9
v 0.8 1.3 -1.9
v 0.8 1.9 -1.9
v 0.8 3 -1.9
v 0.9 1.5 -1.9
v 0.9 1.6 -1.9
v 0.9 1.8 -1.9
v 0.9 1.9 -1.9
v 1 1.5 -1.9
v 1 1.7 -1.9
v 1 1.8 -1.9
v 1.2 1 -1.9
v 1.2 1.1 -1.9
v 1.2 1.3 -1.9
v 1.3 1.1 -1.9
v 1.3 1.3 -1.9
v 1.3 1.4 -1.9
v 1.4 1.1 -1.9
v 1.4 1.3 -1.9
v 1.4 1.4 -1.9
v 1.4 1.5 -1.9
v 1.5 1 -1.9
v 1.5 1.1 -1.9
v 1.5 1.3 -1.9
v 2 0 -1.9
v 2 4 -1.9
v -2 0 -2
v -2 4 -2
v 2 0 -2
v 2 4 -2
v -2 0 -1.9
v 2 0 -1.9
v -2 0 -2
v 2 0 -2
v -1.6 0.1 -1.8
v -1.3 0.1 -1.8
v -0.7 0.1 -1.8
v -0.3 0.1 -1.8
v -0.0999999 0.1 -1.8
v 0.3 0.1 -1.8
v -1.6 0.1 -1.9
v -1.3 0.1 -1.9
v -0.7 0.1 -1.9
v -0.3 0.1 -1.9
v -0.0999999 0.1 -1.9
v 0.3 0.1 -1.9
v -1.3 0.2 -1.8
v -1.2 0.2 -1.8
v -1.3 0.2 -1.9
v -1.2 0.2 -1.9
v -1.2 0.3 -1.8
v -1.1 0.3 -1.8
v -1.2 0.3 -1.9
v -1.1 0.3 -1.9
v 0.5 1 -1.8
v 0.8 1 -1.8
v 1.2 1 -1.8
v 1.5 1 -1.8
v 0.5 1 -1.9
v 0.8 1 -1.9
v 1.2 1 -1.9
v 1.5 1 -1.9
v -0.8 1.1 -1.8
v -0.6 1.1 -1.8
v -0.3 1.1 -1.8
v 2.38419e-07 1.1 -1.8
v 0.3 1.1 -1.8
v 0.4 1.1 -1.8
v -0.8 1.1 -1.9
v -0.6 1.1 -1.9
v -0.3 1.1 -1.9
v 2.38419e-07 1.1 -1.9
v 0.3 1.1 -1.9
v 0.4 1.1 -1.9
v 0.6 1.3 -1.8
v 0.7 1.3 -1.8
v 1.3 1.3 -1.8
v 1.4 1.3 -1.8
v 0.6 1.3 -1.9
v 0.7 1.3 -1.9
v 1.3 1.3 -1.9
v 1.4 1.3 -1.9
v 0.7 1.4 -1.8
v 1.3 1.4 -1.8
v 0.7 1.4 -1.9
v 1.3 1.4 -1.9
v -1.3 1.6 -1.8
v -1.1 1.6 -1.8
v 0.7 1.6 -1.8
v 0.9 1.6 -1.8
v -1.3 1.6 -1.9
v -1.1 1.6 -1.9
v 0.7 1.6 -1.9
v 0.9 1.6 -1.9
v -1.1 1.7 -1.8
v -1 1.7 -1.8
v 0.6 1.7 -1.8
v 0.7 1.7 -1.8
v -1.1 1.7 -1.9
v -1 1.7 -1.9
v 0.6 1.7 -1.9
v 0.7 1.7 -1.9
v 0.2 2.3 -1.8
v 0.3 2.3 -1.8
v 0.2 2.3 -1.9
v 0.3 2.3 -1.9
v -1 2.4 -1.8
v -0.9 2.4 -1.8
v -0.7 2.4 -1.8
v -0.6 2.4 -1.8
v 0.3 2.4 -1.8
v 0.4 2.4 -1.8
v -1 2.4 -1.9
v -0.9 2.4 -1.9
v -0.7 2.4 -1.9
v -0.6 2.4 -1.9
v 0.3 2.4 -1.9
v 0.4 2.4 -1.9
v -0.8 2.5 -1.8
v -0.7 2.5 -1.8
v -0.8 2.5 -1.9
v -0.7 2.5 -1.9
v -0.9 2.7 -1.8
v -0.8 2.7 -1.8
v 0.4 2.7 -1.8
v 0.6 2.7 -1.8
v -0.9 2.7 -1.9
v -0.8 2.7 -1.9
v 0.4 2.7 -1.9
v 0.6 2.7 -1.9
v -1.7 3.1 -1.8
v -1.6 3.1 -1.8
v -1.7 3.1 -1.9
v -1.6 3.1 -1.9
v -1.6 3.2 -1.8
v -1.5 3.2 -1.8
v -0.9 3.2 -1.8
v -0.5 3.2 -1.8
v -1.6 3.2 -1.9
v -1.5 3.2 -1.9
v -0.9 3.2 -1.9
v -0.5 3.2 -1.9
v -0.3 3.3 -1.6
v -0.0999999 3.3 -1.6
v -0.9 3.3 -1.7
v -0.3 3.3 -1.7
v -0.0999999 3.3 -1.7
v 0.2 3.3 -1.7
v -0.9 3.3 -1.8
v 0.1 3.3 -1.8
v 0.2 3.3 -1.8
v -1.5 3.4 -1.8
v -1.4 3.4 -1.8
v -1.5 3.4 -1.9
v -1.4 3.4 -1.9
v 0.1 3.5 -1.7
v 0.2 3.5 -1.7
v 0.1 3.5 -1.8
v 0.2 3.5 -1.8
v -1.3 3.7 -1.8
v -1.2 3.7 -1.8
v -1.3 3.7 -1.9
v -1.2 3.7 -1.9
v -1.6 0.2 -1.8
v -1.4 0.2 -1.8
v -0.7 0.2 -1.8
v -0.6 0.2 -1.8
v -0.0999999 0.2 -1.8
v 2.38419e-07 0.2 -1.8
v -1.6 0.2 -1.9
v -1.4 0.2 -1.9
v -0.7 0.2 -1.9
v -0.6 0.2 -1.9
v -0.0999999 0.2 -1.9
v 2.38419e-07 0.2 -1.9
v -1.3 0.3 -1.8
v -1.2 0.3 -1.8
v -1.3 0.3 -1.9
v -1.2 0.3 -1.9
v -1.2 0.4 -1.8
v -1.1 0.4 -1.8
v -1.2 0.4 -1.9
v -1.1 0.4 -1.9
v 0.6 1.1 -1.8
v 0.7 1.1 -1.8
v 1.3 1.1 -1.8
v 1.4 1.1 -1.8
v 0.6 1.1 -1.9
v 0.7 1.1 -1.9
v 1.3 1.1 -1.9
v 1.4 1.1 -1.9
v 0.5 1.3 -1.8
v 0.6 1.3 -1.8
v 0.7 1.3 -1.8
v 0.8 1.3 -1.8
v 1.2 1.3 -1.8
v 1.3 1.3 -1.8
v 1.4 1.3 -1.8
v 1.5 1.3 -1.8
v 0.5 1.3 -1.9
v 0.6 1.3 -1.9
v 0.7 1.3 -1.9
v 0.8 1.3 -1.9
v 1.2 1.3 -1.9
v 1.3 1.3 -1.9
v 1.4 1.3 -1.9
v 1.5 1.3 -1.9
v 0.6 1.5 -1.8
v 0.9 1.5 -1.8
v 1 1.5 -1.8
v 1.4 1.5 -1.8
v 0.6 1.5 -1.9
v 0.9 1.5 -1.9
v 1 1.5 -1.9
v 1.4 1.5 -1.9
v 0.3 1.6 -1.8
v 0.4 1.6 -1.8
v 0.3 1.6 -1.9
v 0.4 1.6 -1.9
v -0.8 1.7 -1.8
v -0.7 1.7 -1.8
v -0.8 1.7 -1.9
v -0.7 1.7 -1.9
v 0.9 1.8 -1.8
v 1 1.8 -1.8
v 0.9 1.8 -1.9
v 1 1.8 -1.9
v -1.3 1.9 -1.8
v -1.2 1.9 -1.8
v -0.7 1.9 -1.8
v -0.6 1.9 -1.8
v 0.2 1.9 -1.8
v 0.3 1.9 -1.8
v 0.8 1.9 -1.8
v 0.9 1.9 -1.8
v -1.3 1.9 -1.9
v -1.2 1.9 -1.9
v -0.7 1.9 -1.9
v -0.6 1.9 -1.9
v 0.2 1.9 -1.9
v 0.3 1.9 -1.9
v 0.8 1.9 -1.9
v 0.9 1.9 -1.9
v -1.2 3 -1.8
v -1.1 3 -1.8
v 0.7 3 -1.8
v 0.8 3 -1.8
v -1.2 3 -1.9
v -1.1 3 -1.9
v 0.7 3 -1.9
v 0.8 3 -1.9
v -1.1 3.1 -1.8
v -0.5 3.1 -1.8
v 0.5 3.1 -1.8
v 0.7 3.1 -1.8
v -1.1 3.1 -1.9
v -0.5 3.1 -1.9
v 0.5 3.1 -1.9
v 0.7 3.1 -1.9
v -1.7 3.2 -1.8
v -1.6 3.2 -1.8
v -1.7 3.2 -1.9
v -1.6 3.2 -1.9
v 0.4 3.3 -1.8
v 0.5 3.3 -1.8
v 0.4 3.3 -1.9
v 0.5 3.3 -1.9
v -0.3 3.4 -1.6
v -0.0999999 3.4 -1.6
v -0.9 3.4 -1.7
v -0.3 3.4 -1.7
v -0.0999999 3.4 -1.7
v 0.2 3.4 -1.7
v -0.7 3.4 -1.8
v 0.2 3.4 -1.8
v 0.3 3.4 -1.8
v 0.4 3.4 -1.8
v -0.9 3.4 -1.9
v -0.7 3.4 -1.9
v 0.3 3.4 -1.9
v 0.4 3.4 -1.9
v -1.6 3.5 -1.8
v -1.5 3.5 -1.8
v -0.7 3.5 -1.8
v -0.3 3.5 -1.8
v -0.0999999 3.5 -1.8
v 2.38419e-07 3.5 -1.8
v 0.2 3.5 -1.8
v 0.3 3.5 -1.8
v -1.6 3.5 -1.9
v -1.5 3.5 -1.9
v -0.7 3.5 -1.9
v -0.3 3.5 -1.9
v -0.0999999 3.5 -1.9
v 2.38419e-07 3.5 -1.9
v 0.2 3.5 -1.9
v 0.3 3.5 -1.9
v -1.5 3.6 -1.8
v -1.4 3.6 -1.8
v -1.5 3.6 -1.9
v -1.4 3.6 -1.9
v 0.1 3.7 -1.7
v 0.2 3.7 -1.7
v -1.4 3.7 -1.8
v -1.3 3.7 -1.8
v -0.2 3.7 -1.8
v -0.0999999 3.7 -1.8
v 0.1 3.7 -1.8
v -1.4 3.7 -1.9
v -1.3 3.7 -1.9
v -0.2 3.7 -1.9
v -0.0999999 3.7 -1.9
v 0.1 3.7 -1.9
v 0.2 3.7 -1.9
v -1.3 3.8 -1.8
v -1.2 3.8 -1.8
v -0.3 3.8 -1.8
v -0.2 3.8 -1.8
v 2.38419e-07 3.8 -1.8
v 0.1 3.8 -1.8
v -1.3 3.8 -1.9
v -1.2 3.8 -1.9
v -0.3 3.8 -1.9
v -0.2 3.8 -1.9
v 2.38419e-07 3.8 -1.9
v 0.1 3.8 -1.9
v -2 4 -1.9
v 2 4 -1.9
v -2 4 -2
v 2 4 -2

# faces
f 3/2/1 2/2/1 1/2/1
f 4/2/1 2/2/1 3/2/1
f 7/7/1 6/7/1 5/7/1
f 8/7/1 6/7/1 7/7/1
f 11/7/1 10/7/1 9/7/1
f 12/7/1 10/7/1 11/7/1
f 15/7/1 14/7/1 13/7/1
f 16/7/1 14/7/1 15/7/1
f 19/7/1 18/7/1 17/7/1
f 20/7/1 18/7/1 19/7/1
f 23/7/1 22/7/1 21/7/1
f 24/7/1 22/7/1 23/7/1
f 25/1/1 24/1/1 23/1/1
f 26/1/1 24/1/1 25/1/1
f 27/7/1 26/7/1 25/7/1
f 28/7/1 26/7/1 27/7/1
f 31/7/1 30/7/1 29/7/1
f 32/7/1 30/7/1 31/7/1
f 35/7/1 34/7/1 33/7/1
f 36/7/1 34/7/1 35/7/1
f 39/7/1 38/7/1 37/7/1
f 40/7/1 38/7/1 39/7/1
f 43/1/1 42/1/1 41/1/1
f 44/1/1 42/1/1 43/1/1
f 47/1/1 46/1/1 45/1/1
f 48/1/1 46/1/1 47/1/1
f 52/7/1 50/7/1 49/7/1
f 53/7/1 52/7/1 51/7/1
f 54/7/1 50/7/1 52/7/1
f 54/7/1 52/7/1 53/7/1
f 57/5/1 56/5/1 55/5/1
f 58/5/1 56/5/1 57/5/1
f 61/1/1 60/1/1 59/1/1
f 62/1/1 60/1/1 61/1/1
f 65/1/1 64/1/1 63/1/1
f 66/1/1 64/1/1 65/1/1
f 69/5/1 68/5/1 67/5/1
f 70/5/1 68/5/1 69/5/1
f 73/1/1 72/1/1 71/1/1
f 74/1/1 72/1/1 73/1/1
f 77/7/1 76/7/1 75/7/1
f 78/7/1 76/7/1 77/7/1
f 81/1/1 80/1/1 79/1/1
f 82/1/1 80/1/1 81/1/1
f 85/5/1 84/5/1 83/5/1
f 86/5/1 84/5/1 85/5/1
f 87/1/1 86/1/1 85/1/1
f 88/1/1 86/1/1 87/1/1
f 91/1/1 90/1/1 89/1/1
f 92/1/1 90/1/1 91/1/1
f 95/6/1 94/6/1 93/6/1
f 96/6/1 94/6/1 95/6/1
f 99/7/1 98/7/1 97/7/1
f 100/7/1 98/7/1 99/7/1
f 103/1/1 102/1/1 101/1/1
f 104/1/1 102/1/1 103/1/1
f 107/1/1 106/1/1 105/1/1
f 108/1/1 106/1/1 107/1/1
f 111/7/1 110/7/1 109/7/1
f 112/7/1 110/7/1 111/7/1
f 115/7/1 114/7/1 113/7/1
f 116/7/1 114/7/1 115/7/1
f 119/3/1 118/3/1 117/3/1
f 120/3/1 118/3/1 119/3/1
f 121/5/1 120/5/1 119/5/1
f 122/5/1 120/5/1 121/5/1
f 125/5/1 124/5/1 123/5/1
f 126/5/1 124/5/1 125/5/1
f 127/7/1 126/7/1 125/7/1
f 128/7/1 126/7/1 127/7/1
f 131/1/1 130/1/1 129/1/1
f 132/1/1 130/1/1 131/1/1
f 135/5/1 134/5/1 133/5/1
f 136/5/1 134/5/1 135/5/1
f 139/1/1 138/1/1 137/1/1
f 140/1/1 138/1/1 139/1/1
f 143/7/1 142/7/1 141/7/1
f 144/7/1 142/7/1 143/7/1
f 147/3/1 146/3/1 145/3/1
f 148/3/1 146/3/1 147/3/1
f 149/5/1 148/5/1 147/5/1
f 150/5/1 148/5/1 149/5/1
f 153/5/1 152/5/1 151/5/1
f 154/5/1 152/5/1 153/5/1
f 157/5/1 156/5/1 155/5/1
f 158/5/1 156/5/1 157/5/1
f 159/7/2 160/7/2 161/7/2
f 161/7/2 160/7/2 162/7/2
f 163/7/2 164/7/2 165/7/2
f 165/7/2 164/7/2 166/7/2
f 167/7/2 168/7/2 169/7/2
f 169/7/2 168/7/2 170/7/2
f 171/7/2 172/7/2 173/7/2
f 173/7/2 172/7/2 174/7/2
f 175/7/2 176/7/2 177/7/2
f 177/7/2 176/7/2 178/7/2
f 179/7/2 180/7/2 181/7/2
f 181/7/2 180/7/2 182/7/2
f 183/7/2 184/7/2 185/7/2
f 185/7/2 184/7/2 186/7/2
f 187/7/2 188/7/2 189/7/2
f 189/7/2 188/7/2 190/7/2
f 191/1/2 192/1/2 193/1/2
f 193/1/2 192/1/2 194/1/2
f 195/1/2 196/1/2 197/1/2
f 197/1/2 196/1/2 198/1/2
f 199/1/2 200/1/2 201/1/2
f 201/1/2 200/1/2 202/1/2
f 203/1/2 204/1/2 205/1/2
f 205/1/2 204/1/2 206/1/2
f 207/7/2 208/7/2 209/7/2
f 209/7/2 208/7/2 210/7/2
f 211/6/2 212/6/2 213/6/2
f 213/6/2 212/6/2 214/6/2
f 215/7/2 216/7/2 217/7/2
f 217/7/2 216/7/2 218/7/2
f 219/7/2 220/7/2 221/7/2
f 221/7/2 220/7/2 222/7/2
f 223/5/2 224/5/2 225/5/2
f 225/5/2 224/5/2 226/5/2
f 225/1/2 226/1/2 227/1/2
f 227/1/2 226/1/2 228/1/2
f 229/7/2 230/7/2 231/7/2
f 231/7/2 230/7/2 232/7/2
f 233/7/2 234/7/2 236/7/2
f 234/7/2 235/7/2 236/7/2
f 236/7/2 235/7/2 237/7/2
f 238/1/2 239/1/2 240/1/2
f 240/1/2 239/1/2 241/1/2
f 242/5/2 243/5/2 244/5/2
f 244/5/2 243/5/2 245/5/2
f 246/1/2 247/1/2 248/1/2
f 248/1/2 247/1/2 249/1/2
f 250/4/2 251/4/2 252/4/2
f 252/4/2 251/4/2 253/4/2
f 254/5/2 255/5/2 256/5/2
f 256/5/2 255/5/2 257/5/2
f 258/1/2 259/1/2 260/1/2
f 260/1/2 259/1/2 261/1/2
f 262/4/2 263/4/2 264/4/2
f 264/4/2 263/4/2 265/4/2
f 266/4/2 267/4/2 268/4/2
f 268/4/2 267/4/2 269/4/2
f 270/5/2 271/5/2 272/5/2
f 272/5/2 271/5/2 273/5/2
f 274/5/2 275/5/2 276/5/2
f 276/5/2 275/5/2 277/5/2
f 278/1/2 279/1/2 280/1/2
f 280/1/2 279/1/2 281/1/2
f 282/3/2 283/3/2 284/3/2
f 284/3/2 283/3/2 285/3/2
f 284/5/2 285/5/2 286/5/2
f 286/5/2 285/5/2 287/5/2
f 288/1/2 289/1/2 290/1/2
f 290/1/2 289/1/2 291/1/2
f 292/1/2 293/1/2 294/1/2
f 294/1/2 293/1/2 295/1/2
f 296/7/2 297/7/2 298/7/2
f 298/7/2 297/7/2 299/7/2
f 298/1/2 299/1/2 300/1/2
f 300/1/2 299/1/2 301/1/2
f 302/5/2 303/5/2 304/5/2
f 304/5/2 303/5/2 305/5/2
f 306/5/2 307/5/2 308/5/2
f 308/5/2 307/5/2 309/5/2
f 308/7/2 309/7/2 310/7/2
f 310/7/2 309/7/2 311/7/2
f 312/3/2 313/3/2 314/3/2
f 314/3/2 313/3/2 315/3/2
f 314/5/2 315/5/2 316/5/2
f 316/5/2 315/5/2 317/5/2
f 318/2/2 319/2/2 320/2/2
f 320/2/2 319/2/2 321/2/2
f 324/6/3 323/6/3 322/6/3
f 325/6/3 323/6/3 324/6/3
f 328/7/3 327/7/3 326/7/3
f 329/7/3 327/7/3 328/7/3
f 334/7/3 331/7/3 330/7/3
f 335/7/3 331/7/3 334/7/3
f 336/7/3 333/7/3 332/7/3
f 337/7/3 333/7/3 336/7/3
f 342/7/3 339/7/3 338/7/3
f 343/7/3 339/7/3 342/7/3
f 345/7/3 344/7/3 343/7/3
f 346/7/3 344/7/3 345/7/3
f 347/7/3 344/7/3 346/7/3
f 349/7/3 341/7/3 340/7/3
f 352/7/3 348/7/3 347/7/3
f 352/7/3 347/7/3 346/7/3
f 353/7/3 348/7/3 352/7/3
f 355/7/3 350/7/3 349/7/3
f 355/7/3 349/7/3 340/7/3
f 356/7/3 350/7/3 355/7/3
f 357/7/3 350/7/3 356/7/3
f 358/7/3 350/7/3 357/7/3
f 359/1/3 351/1/3 350/1/3
f 359/7/3 350/7/3 358/7/3
f 360/7/3 354/7/3 353/7/3
f 360/1/3 351/1/3 359/1/3
f 360/7/3 353/7/3 352/7/3
f 360/7/3 352/7/3 351/7/3
f 361/7/3 354/7/3 360/7/3
f 362/7/3 354/7/3 361/7/3
f 364/7/3 357/7/3 356/7/3
f 365/7/3 357/7/3 364/7/3
f 367/1/3 359/1/3 358/1/3
f 367/1/3 361/1/3 360/1/3
f 367/1/3 360/1/3 359/1/3
f 369/7/3 363/7/3 362/7/3
f 370/7/3 363/7/3 369/7/3
f 371/7/3 366/7/3 365/7/3
f 372/7/3 366/7/3 371/7/3
f 373/1/3 368/1/3 367/1/3
f 373/1/3 367/1/3 358/1/3
f 374/1/3 368/1/3 373/1/3
f 375/1/3 368/1/3 374/1/3
f 377/1/3 376/1/3 375/1/3
f 377/1/3 375/1/3 374/1/3
f 378/1/3 376/1/3 377/1/3
f 379/1/3 376/1/3 378/1/3
f 380/1/3 376/1/3 379/1/3
f 386/1/3 376/1/3 380/1/3
f 389/5/3 384/5/3 383/5/3
f 392/1/3 386/1/3 385/1/3
f 395/1/3 388/1/3 387/1/3
f 396/5/3 390/5/3 389/5/3
f 396/5/3 389/5/3 383/5/3
f 397/5/3 390/5/3 396/5/3
f 399/1/3 392/1/3 391/1/3
f 400/1/3 376/1/3 386/1/3
f 400/1/3 399/1/3 398/1/3
f 400/1/3 392/1/3 399/1/3
f 400/1/3 386/1/3 392/1/3
f 401/7/3 382/7/3 381/7/3
f 402/1/3 395/1/3 387/1/3
f 402/1/3 396/1/3 395/1/3
f 403/5/3 398/5/3 397/5/3
f 403/1/3 396/1/3 402/1/3
f 403/5/3 397/5/3 396/5/3
f 404/7/3 394/7/3 393/7/3
f 406/7/3 405/7/3 404/7/3
f 407/7/3 405/7/3 406/7/3
f 410/7/3 404/7/3 393/7/3
f 410/7/3 406/7/3 404/7/3
f 411/7/3 406/7/3 410/7/3
f 412/1/3 409/1/3 408/1/3
f 413/5/3 398/5/3 403/5/3
f 414/7/3 410/7/3 393/7/3
f 416/1/3 400/1/3 398/1/3
f 416/1/3 401/1/3 400/1/3
f 417/7/3 382/7/3 401/7/3
f 417/1/3 401/1/3 416/1/3
f 418/7/3 382/7/3 417/7/3
f 419/7/3 415/7/3 414/7/3
f 419/7/3 414/7/3 393/7/3
f 420/7/3 415/7/3 419/7/3
f 421/7/3 415/7/3 420/7/3
f 422/5/3 398/5/3 413/5/3
f 423/1/3 416/1/3 398/1/3
f 423/5/3 398/5/3 422/5/3
f 424/1/3 416/1/3 423/1/3
f 425/4/3 418/4/3 417/4/3
f 425/4/3 417/4/3 416/4/3
f 426/7/3 419/7/3 393/7/3
f 427/7/3 419/7/3 426/7/3
f 428/1/3 412/1/3 408/1/3
f 428/1/3 413/1/3 412/1/3
f 429/5/3 422/5/3 413/5/3
f 429/1/3 413/1/3 428/1/3
f 430/5/3 422/5/3 429/5/3
f 431/5/3 422/5/3 430/5/3
f 432/1/3 416/1/3 424/1/3
f 433/1/3 416/1/3 432/1/3
f 434/1/3 416/1/3 433/1/3
f 435/4/3 427/4/3 426/4/3
f 435/1/3 416/1/3 434/1/3
f 435/4/3 426/4/3 425/4/3
f 435/4/3 425/4/3 416/4/3
f 436/4/3 427/4/3 435/4/3
f 437/4/3 427/4/3 436/4/3
f 438/5/3 430/5/3 429/5/3
f 439/5/3 430/5/3 438/5/3
f 440/1/3 434/1/3 433/1/3
f 441/1/3 434/1/3 440/1/3
f 442/4/3 436/4/3 435/4/3
f 442/4/3 435/4/3 434/4/3
f 443/4/3 436/4/3 442/4/3
f 447/1/3 434/1/3 441/1/3
f 447/4/3 442/4/3 434/4/3
f 448/4/3 442/4/3 447/4/3
f 449/4/3 442/4/3 448/4/3
f 450/5/3 446/5/3 445/5/3
f 450/3/3 445/3/3 444/3/3
f 451/5/3 446/5/3 450/5/3
f 455/1/3 448/1/3 447/1/3
f 455/1/3 447/1/3 441/1/3
f 456/3/3 450/3/3 444/3/3
f 457/5/3 452/5/3 451/5/3
f 458/7/3 453/7/3 452/7/3
f 458/5/3 452/5/3 457/5/3
f 460/1/3 455/1/3 454/1/3
f 461/1/3 448/1/3 455/1/3
f 461/1/3 455/1/3 460/1/3
f 462/1/3 448/1/3 461/1/3
f 463/3/3 456/3/3 444/3/3
f 464/5/3 457/5/3 456/5/3
f 464/3/3 456/3/3 463/3/3
f 465/5/3 457/5/3 464/5/3
f 466/1/3 460/1/3 459/1/3
f 466/1/3 461/1/3 460/1/3
f 467/1/3 461/1/3 466/1/3
f 468/7/3 453/7/3 458/7/3
f 469/1/3 466/1/3 459/1/3
f 470/1/3 466/1/3 469/1/3
f 471/1/3 466/1/3 470/1/3
f 472/1/3 466/1/3 471/1/3
f 473/7/3 468/7/3 458/7/3
f 473/7/3 469/7/3 468/7/3
f 473/7/3 470/7/3 469/7/3
f 474/1/3 471/1/3 470/1/3
f 474/7/3 470/7/3 473/7/3
f 475/1/3 471/1/3 474/1/3
f 479/3/3 477/3/3 476/3/3
f 479/5/3 478/5/3 477/5/3
f 480/5/3 478/5/3 479/5/3
f 481/7/3 473/7/3 458/7/3
f 482/3/3 479/3/3 476/3/3
f 483/5/3 481/5/3 480/5/3
f 484/7/3 473/7/3 481/7/3
f 484/5/3 481/5/3 483/5/3
f 485/7/3 473/7/3 484/7/3
f 486/3/3 482/3/3 476/3/3
f 487/5/3 483/5/3 482/5/3
f 487/3/3 482/3/3 486/3/3
f 488/5/3 483/5/3 487/5/3
f 491/2/3 490/2/3 489/2/3
f 492/2/3 490/2/3 491/2/3
f 493/2/3 491/2/3 489/2/3
f 494/2/3 491/2/3 493/2/3
f 495/2/3 491/2/3 494/2/3
f 496/2/3 490/2/3 492/2/3
f 497/2/3 490/2/3 496/2/3
f 498/2/3 495/2/3 494/2/3
f 498/2/3 496/2/3 495/2/3
f 500/2/3 490/2/3 497/2/3
f 501/2/3 490/2/3 500/2/3
f 502/2/3 499/2/3 498/2/3
f 502/2/3 498/2/3 494/2/3
f 503/2/3 499/2/3 502/2/3
f 504/2/3 499/2/3 503/2/3
f 505/2/3 499/2/3 504/2/3
f 506/2/3 490/2/3 501/2/3
f 507/2/3 490/2/3 506/2/3
f 508/2/3 493/2/3 489/2/3
f 513/2/3 490/2/3 507/2/3
f 514/2/3 490/2/3 513/2/3
f 515/2/3 509/2/3 508/2/3
f 516/2/3 511/2/3 510/2/3
f 517/2/3 511/2/3 516/2/3
f 518/2/3 513/2/3 512/2/3
f 519/2/3 513/2/3 518/2/3
f 520/2/3 513/2/3 519/2/3
f 521/2/3 490/2/3 514/2/3
f 522/2/3 516/2/3 515/2/3
f 523/2/3 511/2/3 517/2/3
f 524/2/3 511/2/3 523/2/3
f 526/2/3 520/2/3 519/2/3
f 526/2/3 521/2/3 520/2/3
f 527/2/3 521/2/3 526/2/3
f 528/2/3 525/2/3 524/2/3
f 528/2/3 524/2/3 523/2/3
f 528/2/3 523/2/3 522/2/3
f 530/2/3 529/2/3 528/2/3
f 532/2/3 521/2/3 527/2/3
f 533/2/3 521/2/3 532/2/3
f 534/2/3 531/2/3 530/2/3
f 534/2/3 528/2/3 522/2/3
f 534/2/3 530/2/3 528/2/3
f 535/2/3 531/2/3 534/2/3
f 536/2/3 531/2/3 535/2/3
f 537/2/3 531/2/3 536/2/3
f 538/2/3 515/2/3 508/2/3
f 538/2/3 508/2/3 489/2/3
f 538/2/3 522/2/3 515/2/3
f 538/2/3 534/2/3 522/2/3
f 539/2/3 534/2/3 538/2/3
f 540/2/3 536/2/3 535/2/3
f 541/2/3 536/2/3 540/2/3
f 542/2/3 536/2/3 541/2/3
f 543/2/3 536/2/3 542/2/3
f 544/2/3 521/2/3 533/2/3
f 545/2/3 521/2/3 544/2/3
f 546/2/3 534/2/3 539/2/3
f 547/2/3 534/2/3 546/2/3
f 548/2/3 542/2/3 541/2/3
f 549/2/3 542/2/3 548/2/3
f 550/2/3 542/2/3 549/2/3
f 551/2/3 532/2/3 527/2/3
f 552/2/3 532/2/3 551/2/3
f 553/2/3 538/2/3 489/2/3
f 555/2/3 521/2/3 545/2/3
f 556/2/3 490/2/3 521/2/3
f 556/2/3 521/2/3 555/2/3
f 558/2/3 490/2/3 556/2/3
f 559/2/3 554/2/3 553/2/3
f 559/2/3 553/2/3 489/2/3
f 560/2/3 554/2/3 559/2/3
f 562/2/3 558/2/3 557/2/3
f 563/2/3 554/2/3 560/2/3
f 564/2/3 554/2/3 563/2/3
f 565/2/3 562/2/3 561/2/3
f 566/2/3 490/2/3 558/2/3
f 566/2/3 562/2/3 565/2/3
f 566/2/3 558/2/3 562/2/3
f 568/2/3 490/2/3 566/2/3
f 573/2/3 568/2/3 567/2/3
f 574/2/3 559/2/3 489/2/3
f 577/2/3 571/2/3 570/2/3
f 577/2/3 570/2/3 569/2/3
f 578/2/3 571/2/3 577/2/3
f 581/2/3 573/2/3 572/2/3
f 582/2/3 575/2/3 574/2/3
f 583/2/3 579/2/3 578/2/3
f 583/2/3 577/2/3 576/2/3
f 583/2/3 578/2/3 577/2/3
f 584/2/3 579/2/3 583/2/3
f 587/2/3 581/2/3 580/2/3
f 588/2/3 582/2/3 574/2/3
f 588/2/3 585/2/3 584/2/3
f 588/2/3 583/2/3 582/2/3
f 588/2/3 584/2/3 583/2/3
f 589/2/3 585/2/3 588/2/3
f 590/2/3 585/2/3 589/2/3
f 592/2/3 587/2/3 586/2/3
f 594/2/3 585/2/3 590/2/3
f 595/2/3 585/2/3 594/2/3
f 596/2/3 585/2/3 595/2/3
f 597/2/3 585/2/3 596/2/3
f 598/2/3 585/2/3 597/2/3
f 599/2/3 594/2/3 593/2/3
f 600/2/3 594/2/3 599/2/3
f 602/2/3 597/2/3 596/2/3
f 603/2/3 597/2/3 602/2/3
f 605/2/3 592/2/3 591/2/3
f 606/2/3 588/2/3 574/2/3
f 608/2/3 601/2/3 600/2/3
f 610/2/3 605/2/3 604/2/3
f 611/2/3 602/2/3 596/2/3
f 612/2/3 602/2/3 611/2/3
f 614/2/3 610/2/3 609/2/3
f 617/2/3 614/2/3 613/2/3
f 618/2/3 608/2/3 607/2/3
f 618/2/3 607/2/3 606/2/3
f 618/2/3 606/2/3 574/2/3
f 619/2/3 608/2/3 618/2/3
f 620/2/3 601/2/3 608/2/3
f 620/2/3 608/2/3 619/2/3
f 622/2/3 601/2/3 620/2/3
f 623/2/3 601/2/3 622/2/3
f 624/2/3 622/2/3 621/2/3
f 625/2/3 622/2/3 624/2/3
f 627/2/3 617/2/3 616/2/3
f 627/2/3 616/2/3 615/2/3
f 628/2/3 618/2/3 574/2/3
f 630/2/3 626/2/3 625/2/3
f 630/2/3 627/2/3 626/2/3
f 631/2/3 574/2/3 489/2/3
f 631/2/3 630/2/3 629/2/3
f 631/2/3 629/2/3 628/2/3
f 631/2/3 628/2/3 574/2/3
f 632/2/3 490/2/3 568/2/3
f 632/2/3 630/2/3 631/2/3
f 632/2/3 581/2/3 587/2/3
f 632/2/3 627/2/3 630/2/3
f 632/2/3 568/2/3 573/2/3
f 632/2/3 610/2/3 614/2/3
f 632/2/3 573/2/3 581/2/3
f 632/2/3 587/2/3 592/2/3
f 632/2/3 605/2/3 610/2/3
f 632/2/3 592/2/3 605/2/3
f 632/2/3 617/2/3 627/2/3
f 632/2/3 614/2/3 617/2/3
f 633/2/4 634/2/4 635/2/4
f 635/2/4 634/2/4 636/2/4
f 639/2/5 638/2/5 637/2/5
f 640/2/5 638/2/5 639/2/5
f 647/7/5 642/7/5 641/7/5
f 648/7/5 642/7/5 647/7/5
f 649/1/5 644/1/5 643/1/5
f 650/1/5 644/1/5 649/1/5
f 651/1/5 646/1/5 645/1/5
f 652/1/5 646/1/5 651/1/5
f 655/7/5 654/7/5 653/7/5
f 656/7/5 654/7/5 655/7/5
f 659/7/5 658/7/5 657/7/5
f 660/7/5 658/7/5 659/7/5
f 665/3/5 662/3/5 661/3/5
f 666/3/5 662/3/5 665/3/5
f 667/3/5 664/3/5 663/3/5
f 668/3/5 664/3/5 667/3/5
f 675/5/5 670/5/5 669/5/5
f 676/5/5 670/5/5 675/5/5
f 677/5/5 672/5/5 671/5/5
f 678/5/5 672/5/5 677/5/5
f 679/5/5 674/5/5 673/5/5
f 680/5/5 674/5/5 679/5/5
f 685/5/5 682/5/5 681/5/5
f 686/5/5 682/5/5 685/5/5
f 687/5/5 684/5/5 683/5/5
f 688/5/5 684/5/5 687/5/5
f 691/7/5 690/7/5 689/7/5
f 692/7/5 690/7/5 691/7/5
f 697/1/5 694/1/5 693/1/5
f 698/1/5 694/1/5 697/1/5
f 699/1/5 696/1/5 695/1/5
f 700/1/5 696/1/5 699/1/5
f 705/1/5 702/1/5 701/1/5
f 706/1/5 702/1/5 705/1/5
f 707/1/5 704/1/5 703/1/5
f 708/1/5 704/1/5 707/1/5
f 711/1/5 710/1/5 709/1/5
f 712/1/5 710/1/5 711/1/5
f 719/1/5 714/1/5 713/1/5
f 720/1/5 714/1/5 719/1/5
f 721/1/5 716/1/5 715/1/5
f 722/1/5 716/1/5 721/1/5
f 723/1/5 718/1/5 717/1/5
f 724/1/5 718/1/5 723/1/5
f 727/1/5 726/1/5 725/1/5
f 728/1/5 726/1/5 727/1/5
f 733/1/5 730/1/5 729/1/5
f 734/1/5 730/1/5 733/1/5
f 735/1/5 732/1/5 731/1/5
f 736/1/5 732/1/5 735/1/5
f 739/7/5 738/7/5 737/7/5
f 740/7/5 738/7/5 739/7/5
f 745/7/5 742/7/5 741/7/5
f 746/7/5 742/7/5 745/7/5
f 747/7/5 744/7/5 743/7/5
f 748/7/5 744/7/5 747/7/5
f 752/6/5 750/6/5 749/6/5
f 753/6/5 750/6/5 752/6/5
f 755/7/5 752/7/5 751/7/5
f 755/7/5 754/7/5 753/7/5
f 755/7/5 753/7/5 752/7/5
f 756/7/5 754/7/5 755/7/5
f 757/7/5 754/7/5 756/7/5
f 760/7/5 759/7/5 758/7/5
f 761/7/5 759/7/5 760/7/5
f 764/7/5 763/7/5 762/7/5
f 765/7/5 763/7/5 764/7/5
f 768/7/5 767/7/5 766/7/5
f 769/7/5 767/7/5 768/7/5
f 770/7/6 771/7/6 776/7/6
f 776/7/6 771/7/6 777/7/6
f 772/1/6 773/1/6 778/1/6
f 778/1/6 773/1/6 779/1/6
f 774/1/6 775/1/6 780/1/6
f 780/1/6 775/1/6 781/1/6
f 782/7/6 783/7/6 784/7/6
f 784/7/6 783/7/6 785/7/6
f 786/7/6 787/7/6 788/7/6
f 788/7/6 787/7/6 789/7/6
f 790/3/6 791/3/6 794/3/6
f 794/3/6 791/3/6 795/3/6
f 792/3/6 793/3/6 796/3/6
f 796/3/6 793/3/6 797/3/6
f 798/5/6 799/5/6 806/5/6
f 806/5/6 799/5/6 807/5/6
f 800/5/6 801/5/6 808/5/6
f 808/5/6 801/5/6 809/5/6
f 802/5/6 803/5/6 810/5/6
f 810/5/6 803/5/6 811/5/6
f 804/5/6 805/5/6 812/5/6
f 812/5/6 805/5/6 813/5/6
f 814/7/6 815/7/6 818/7/6
f 818/7/6 815/7/6 819/7/6
f 816/7/6 817/7/6 820/7/6
f 820/7/6 817/7/6 821/7/6
f 822/5/6 823/5/6 824/5/6
f 824/5/6 823/5/6 825/5/6
f 826/5/6 827/5/6 828/5/6
f 828/5/6 827/5/6 829/5/6
f 830/1/6 831/1/6 832/1/6
f 832/1/6 831/1/6 833/1/6
f 834/1/6 835/1/6 842/1/6
f 842/1/6 835/1/6 843/1/6
f 836/5/6 837/5/6 844/5/6
f 844/5/6 837/5/6 845/5/6
f 838/5/6 839/5/6 846/5/6
f 846/5/6 839/5/6 847/5/6
f 840/1/6 841/1/6 848/1/6
f 848/1/6 841/1/6 849/1/6
f 850/1/6 851/1/6 854/1/6
f 854/1/6 851/1/6 855/1/6
f 852/1/6 853/1/6 856/1/6
f 856/1/6 853/1/6 857/1/6
f 858/1/6 859/1/6 862/1/6
f 862/1/6 859/1/6 863/1/6
f 860/1/6 861/1/6 864/1/6
f 864/1/6 861/1/6 865/1/6
f 866/7/6 867/7/6 868/7/6
f 868/7/6 867/7/6 869/7/6
f 870/4/6 871/4/6 872/4/6
f 872/4/6 871/4/6 873/4/6
f 874/6/6 875/6/6 877/6/6
f 877/6/6 875/6/6 878/6/6
f 876/7/6 877/7/6 880/7/6
f 878/7/6 879/7/6 880/7/6
f 877/7/6 878/7/6 880/7/6
f 880/7/6 879/7/6 881/7/6
f 876/7/6 880/7/6 884/7/6
f 884/7/6 880/7/6 885/7/6
f 882/4/6 883/4/6 886/4/6
f 886/4/6 883/4/6 887/4/6
f 888/7/6 889/7/6 896/7/6
f 896/7/6 889/7/6 897/7/6
f 890/7/6 891/7/6 898/7/6
f 898/7/6 891/7/6 899/7/6
f 892/7/6 893/7/6 900/7/6
f 900/7/6 893/7/6 901/7/6
f 894/4/6 895/4/6 902/4/6
f 902/4/6 895/4/6 903/4/6
f 904/7/6 905/7/6 906/7/6
f 906/7/6 905/7/6 907/7/6
f 908/7/6 909/7/6 914/7/6
f 910/7/6 911/7/6 915/7/6
f 915/7/6 911/7/6 916/7/6
f 912/7/6 913/7/6 917/7/6
f 917/7/6 913/7/6 918/7/6
f 914/7/6 909/7/6 919/7/6
f 919/7/6 909/7/6 920/7/6
f 921/7/6 922/7/6 927/7/6
f 927/7/6 922/7/6 928/7/6
f 923/7/6 924/7/6 929/7/6
f 929/7/6 924/7/6 930/7/6
f 925/7/6 926/7/6 931/7/6
f 931/7/6 926/7/6 932/7/6
f 933/2/6 934/2/6 935/2/6
f 935/2/6 934/2/6 936/2/6
