# MagicaVoxel @ Ephtracy

# group
o 

# material
mtllib god-la.mtl
usemtl palette

# normals
vn -1 0 0
vn 1 0 0
vn 0 0 1
vn 0 0 -1
vn 0 -1 0
vn 0 1 0

# texcoords
vt 0.0214844 0.5
vt 0.306641 0.5
vt 0.369141 0.5
vt 0.373047 0.5
vt 0.837891 0.5
vt 0.853516 0.5
vt 0.958984 0.5
vt 0.994141 0.5

# verts
v -2 0 -1.9
v -2 0 -2
v -2 4 -1.9
v -2 4 -2
v -1.6 3.3 -1.8
v -1.6 3.3 -1.9
v -1.6 3.5 -1.8
v -1.6 3.5 -1.9
v -1.5 3.5 -1.8
v -1.5 3.5 -1.9
v -1.5 3.6 -1.8
v -1.5 3.6 -1.9
v -1.4 0.2 -1.8
v -1.4 0.2 -1.9
v -1.4 1.8 -1.8
v -1.4 1.8 -1.9
v -1.4 2.1 -1.8
v -1.4 2.1 -1.9
v -1.4 3.5 -1.8
v -1.4 3.5 -1.9
v -1.4 3.6 -1.8
v -1.4 3.6 -1.9
v -1.4 3.7 -1.8
v -1.4 3.7 -1.9
v -1.3 3.7 -1.8
v -1.3 3.7 -1.9
v -1.3 3.8 -1.8
v -1.3 3.8 -1.9
v -1.1 2 -1.8
v -1.1 2 -1.9
v -1.1 3.1 -1.8
v -1.1 3.1 -1.9
v -1 3.1 -1.8
v -1 3.1 -1.9
v -1 3.2 -1.8
v -1 3.2 -1.9
v -0.9 3.2 -1.8
v -0.9 3.2 -1.9
v -0.9 3.3 -1.8
v -0.9 3.3 -1.9
v -0.8 0.1 -1.8
v -0.8 0.1 -1.9
v -0.8 0.2 -1.8
v -0.8 0.2 -1.9
v -0.8 1 -1.8
v -0.8 1 -1.9
v -0.8 1.6 -1.8
v -0.8 1.6 -1.9
v -0.8 2.2 -1.8
v -0.8 2.2 -1.9
v -0.8 3 -1.8
v -0.8 3 -1.9
v -0.7 0.2 -1.8
v -0.7 0.2 -1.9
v -0.7 1 -1.8
v -0.7 1 -1.9
v -0.7 1.6 -1.8
v -0.7 1.6 -1.9
v -0.7 2 -1.8
v -0.7 2 -1.9
v -0.7 2.1 -1.8
v -0.7 2.1 -1.9
v -0.7 2.2 -1.8
v -0.7 2.2 -1.9
v -0.7 3.2 -1.7
v -0.7 3.2 -1.8
v -0.7 3.3 -1.7
v -0.7 3.3 -1.8
v -0.7 3.5 -1.8
v -0.7 3.5 -1.9
v -0.7 3.6 -1.8
v -0.7 3.6 -1.9
v -0.6 2 -1.8
v -0.6 2 -1.9
v -0.6 2.1 -1.8
v -0.6 2.1 -1.9
v -0.6 3.1 -1.7
v -0.6 3.1 -1.8
v -0.6 3.2 -1.7
v -0.6 3.2 -1.8
v -0.6 3.6 -1.8
v -0.6 3.6 -1.9
v -0.6 3.7 -1.8
v -0.6 3.7 -1.9
v -0.5 3 -1.7
v -0.5 3 -1.8
v -0.5 3.1 -1.7
v -0.5 3.1 -1.8
v -0.4 2.9 -1.7
v -0.4 2.9 -1.8
v -0.4 3 -1.7
v -0.4 3 -1.8
v -0.4 3.5 -1.8
v -0.4 3.5 -1.9
v -0.4 3.6 -1.8
v -0.4 3.6 -1.9
v -0.4 3.7 -1.8
v -0.4 3.7 -1.9
v -0.4 3.8 -1.8
v -0.4 3.8 -1.9
v -0.3 3.3 -1.8
v -0.3 3.3 -1.9
v -0.3 3.5 -1.8
v -0.3 3.5 -1.9
v -0.3 3.8 -1.8
v -0.3 3.8 -1.9
v -0.3 3.9 -1.8
v -0.3 3.9 -1.9
v -0.2 3.6 -1.7
v -0.2 3.6 -1.8
v -0.2 3.7 -1.7
v -0.2 3.7 -1.8
v -0.2 3.9 -1.8
v -0.2 3.9 -1.9
v -0.2 4 -1.8
v -0.2 4 -1.9
v 2.38419e-07 0.1 -1.8
v 2.38419e-07 0.1 -1.9
v 2.38419e-07 0.2 -1.8
v 2.38419e-07 0.2 -1.9
v 0.1 0.2 -1.8
v 0.1 0.2 -1.9
v 0.1 1 -1.8
v 0.1 1 -1.9
v 0.1 3 -1.7
v 0.1 3 -1.8
v 0.1 3.3 -1.7
v 0.1 3.3 -1.8
v 0.7 1.2 -1.8
v 0.7 1.2 -1.9
v 0.7 1.3 -1.8
v 0.7 1.3 -1.9
v 0.8 1.4 -1.8
v 0.8 1.4 -1.9
v 0.8 1.5 -1.8
v 0.8 1.5 -1.9
v 0.8 3.1 -1.8
v 0.8 3.1 -1.9
v 0.9 0.9 -1.8
v 0.9 0.9 -1.9
v 0.9 1.2 -1.8
v 0.9 1.2 -1.9
v 0.9 1.3 -1.8
v 0.9 1.3 -1.9
v 0.9 1.4 -1.8
v 0.9 1.4 -1.9
v 1 1.4 -1.8
v 1 1.4 -1.9
v 1 1.5 -1.8
v 1 1.5 -1.9
v -1.5 3.3 -1.8
v -1.5 3.3 -1.9
v -1.5 3.5 -1.8
v -1.5 3.5 -1.9
v -1.4 3.5 -1.8
v -1.4 3.5 -1.9
v -1.4 3.6 -1.8
v -1.4 3.6 -1.9
v -1.3 0.2 -1.8
v -1.3 0.2 -1.9
v -1.3 1.8 -1.8
v -1.3 1.8 -1.9
v -1.3 2.1 -1.8
v -1.3 2.1 -1.9
v -1.3 3.5 -1.8
v -1.3 3.5 -1.9
v -1.3 3.6 -1.8
v -1.3 3.6 -1.9
v -1.3 3.7 -1.8
v -1.3 3.7 -1.9
v -1.2 2 -1.8
v -1.2 2 -1.9
v -1.2 2.1 -1.8
v -1.2 2.1 -1.9
v -1.2 3.7 -1.8
v -1.2 3.7 -1.9
v -1.2 3.8 -1.8
v -1.2 3.8 -1.9
v -0.9 1.8 -1.8
v -0.9 1.8 -1.9
v -0.9 3 -1.8
v -0.9 3 -1.9
v -0.6 3.5 -1.8
v -0.6 3.5 -1.9
v -0.6 3.6 -1.8
v -0.6 3.6 -1.9
v -0.4 0.1 -1.8
v -0.4 0.1 -1.9
v -0.4 1 -1.8
v -0.4 1 -1.9
v -0.3 3 -1.7
v -0.3 3 -1.8
v -0.3 3.3 -1.7
v -0.3 3.3 -1.8
v -0.0999999 3.6 -1.7
v -0.0999999 3.6 -1.8
v -0.0999999 3.7 -1.7
v -0.0999999 3.7 -1.8
v 0.2 2.9 -1.7
v 0.2 2.9 -1.8
v 0.2 3 -1.7
v 0.2 3 -1.8
v 0.3 3 -1.7
v 0.3 3 -1.8
v 0.3 3.1 -1.7
v 0.3 3.1 -1.8
v 0.3 3.9 -1.8
v 0.3 3.9 -1.9
v 0.3 4 -1.8
v 0.3 4 -1.9
v 0.4 0.1 -1.8
v 0.4 0.1 -1.9
v 0.4 1 -1.8
v 0.4 1 -1.9
v 0.4 2 -1.8
v 0.4 2 -1.9
v 0.4 2.1 -1.8
v 0.4 2.1 -1.9
v 0.4 3.1 -1.7
v 0.4 3.1 -1.8
v 0.4 3.2 -1.7
v 0.4 3.2 -1.8
v 0.4 3.8 -1.8
v 0.4 3.8 -1.9
v 0.4 3.9 -1.8
v 0.4 3.9 -1.9
v 0.5 1.9 -1.8
v 0.5 1.9 -1.9
v 0.5 2 -1.8
v 0.5 2 -1.9
v 0.5 2.1 -1.8
v 0.5 2.1 -1.9
v 0.5 2.2 -1.8
v 0.5 2.2 -1.9
v 0.5 3.2 -1.7
v 0.5 3.2 -1.8
v 0.5 3.3 -1.7
v 0.5 3.3 -1.8
v 0.5 3.7 -1.8
v 0.5 3.7 -1.9
v 0.5 3.8 -1.8
v 0.5 3.8 -1.9
v 0.6 1 -1.8
v 0.6 1 -1.9
v 0.6 1.9 -1.8
v 0.6 1.9 -1.9
v 0.6 2.2 -1.8
v 0.6 2.2 -1.9
v 0.6 3 -1.8
v 0.6 3 -1.9
v 0.6 3.6 -1.8
v 0.6 3.6 -1.9
v 0.6 3.7 -1.8
v 0.6 3.7 -1.9
v 0.7 3 -1.8
v 0.7 3 -1.9
v 0.7 3.1 -1.8
v 0.7 3.1 -1.9
v 0.7 3.2 -1.8
v 0.7 3.2 -1.9
v 0.7 3.3 -1.8
v 0.7 3.3 -1.9
v 0.7 3.6 -1.8
v 0.7 3.6 -1.9
v 0.8 3.1 -1.8
v 0.8 3.1 -1.9
v 0.8 3.2 -1.8
v 0.8 3.2 -1.9
v 0.9 1.4 -1.8
v 0.9 1.4 -1.9
v 0.9 1.5 -1.8
v 0.9 1.5 -1.9
v 0.9 3 -1.8
v 0.9 3 -1.9
v 0.9 3.1 -1.8
v 0.9 3.1 -1.9
v 1 0.9 -1.8
v 1 0.9 -1.9
v 1 1.2 -1.8
v 1 1.2 -1.9
v 1 1.3 -1.8
v 1 1.3 -1.9
v 1 1.4 -1.8
v 1 1.4 -1.9
v 1 1.7 -1.8
v 1 1.7 -1.9
v 1 3 -1.8
v 1 3 -1.9
v 1.1 1.4 -1.8
v 1.1 1.4 -1.9
v 1.1 1.5 -1.8
v 1.1 1.5 -1.9
v 1.1 1.7 -1.8
v 1.1 1.7 -1.9
v 1.2 1.2 -1.8
v 1.2 1.2 -1.9
v 1.2 1.3 -1.8
v 1.2 1.3 -1.9
v 2 0 -1.9
v 2 0 -2
v 2 4 -1.9
v 2 4 -2
v -0.7 3.2 -1.7
v -0.7 3.3 -1.7
v -0.6 3.1 -1.7
v -0.6 3.2 -1.7
v -0.5 3 -1.7
v -0.5 3.1 -1.7
v -0.4 2.9 -1.7
v -0.4 3 -1.7
v -0.3 3 -1.7
v -0.3 3.3 -1.7
v -0.2 3.6 -1.7
v -0.2 3.7 -1.7
v -0.0999999 3.6 -1.7
v -0.0999999 3.7 -1.7
v 0.1 3 -1.7
v 0.1 3.3 -1.7
v 0.2 2.9 -1.7
v 0.2 3 -1.7
v 0.3 3 -1.7
v 0.3 3.1 -1.7
v 0.4 3.1 -1.7
v 0.4 3.2 -1.7
v 0.5 3.2 -1.7
v 0.5 3.3 -1.7
v -1.6 3.3 -1.8
v -1.6 3.5 -1.8
v -1.5 3.3 -1.8
v -1.5 3.5 -1.8
v -1.5 3.6 -1.8
v -1.4 0.2 -1.8
v -1.4 1.8 -1.8
v -1.4 2.1 -1.8
v -1.4 3.5 -1.8
v -1.4 3.6 -1.8
v -1.4 3.7 -1.8
v -1.3 0.2 -1.8
v -1.3 1.8 -1.8
v -1.3 2.1 -1.8
v -1.3 3.5 -1.8
v -1.3 3.6 -1.8
v -1.3 3.7 -1.8
v -1.3 3.8 -1.8
v -1.2 2 -1.8
v -1.2 2.1 -1.8
v -1.2 3.7 -1.8
v -1.2 3.8 -1.8
v -1.1 2 -1.8
v -1.1 3.1 -1.8
v -1 3.1 -1.8
v -1 3.2 -1.8
v -0.9 1.8 -1.8
v -0.9 3 -1.8
v -0.9 3.2 -1.8
v -0.9 3.3 -1.8
v -0.8 0.1 -1.8
v -0.8 0.2 -1.8
v -0.8 1 -1.8
v -0.8 1.6 -1.8
v -0.8 2.2 -1.8
v -0.8 3 -1.8
v -0.7 0.2 -1.8
v -0.7 1 -1.8
v -0.7 1.6 -1.8
v -0.7 2 -1.8
v -0.7 2.1 -1.8
v -0.7 2.2 -1.8
v -0.7 3.2 -1.8
v -0.7 3.3 -1.8
v -0.7 3.5 -1.8
v -0.7 3.6 -1.8
v -0.6 2 -1.8
v -0.6 2.1 -1.8
v -0.6 3.1 -1.8
v -0.6 3.2 -1.8
v -0.6 3.5 -1.8
v -0.6 3.6 -1.8
v -0.6 3.7 -1.8
v -0.5 3 -1.8
v -0.5 3.1 -1.8
v -0.4 0.1 -1.8
v -0.4 1 -1.8
v -0.4 2.9 -1.8
v -0.4 3 -1.8
v -0.4 3.5 -1.8
v -0.4 3.6 -1.8
v -0.4 3.7 -1.8
v -0.4 3.8 -1.8
v -0.3 3 -1.8
v -0.3 3.3 -1.8
v -0.3 3.5 -1.8
v -0.3 3.8 -1.8
v -0.3 3.9 -1.8
v -0.2 3.3 -1.8
v -0.2 3.5 -1.8
v -0.2 3.6 -1.8
v -0.2 3.7 -1.8
v -0.2 3.8 -1.8
v -0.2 3.9 -1.8
v -0.2 4 -1.8
v -0.0999999 3.6 -1.8
v -0.0999999 3.7 -1.8
v 2.38419e-07 0.1 -1.8
v 2.38419e-07 0.2 -1.8
v 0.1 0.2 -1.8
v 0.1 1 -1.8
v 0.1 3 -1.8
v 0.1 3.3 -1.8
v 0.1 3.4 -1.8
v 0.1 3.7 -1.8
v 0.1 3.8 -1.8
v 0.2 2.9 -1.8
v 0.2 3 -1.8
v 0.2 3.3 -1.8
v 0.2 3.4 -1.8
v 0.2 3.7 -1.8
v 0.3 3 -1.8
v 0.3 3.1 -1.8
v 0.3 3.8 -1.8
v 0.3 3.9 -1.8
v 0.3 4 -1.8
v 0.4 0.1 -1.8
v 0.4 1 -1.8
v 0.4 2 -1.8
v 0.4 2.1 -1.8
v 0.4 3.1 -1.8
v 0.4 3.2 -1.8
v 0.4 3.7 -1.8
v 0.4 3.8 -1.8
v 0.4 3.9 -1.8
v 0.5 1.9 -1.8
v 0.5 2 -1.8
v 0.5 2.1 -1.8
v 0.5 2.2 -1.8
v 0.5 3.2 -1.8
v 0.5 3.3 -1.8
v 0.5 3.6 -1.8
v 0.5 3.7 -1.8
v 0.5 3.8 -1.8
v 0.6 1 -1.8
v 0.6 1.9 -1.8
v 0.6 2.2 -1.8
v 0.6 3 -1.8
v 0.6 3.3 -1.8
v 0.6 3.6 -1.8
v 0.6 3.7 -1.8
v 0.7 1.2 -1.8
v 0.7 1.3 -1.8
v 0.7 3 -1.8
v 0.7 3.1 -1.8
v 0.7 3.2 -1.8
v 0.7 3.3 -1.8
v 0.7 3.6 -1.8
v 0.8 1.4 -1.8
v 0.8 1.5 -1.8
v 0.8 3.1 -1.8
v 0.8 3.2 -1.8
v 0.9 0.9 -1.8
v 0.9 1.2 -1.8
v 0.9 1.3 -1.8
v 0.9 1.4 -1.8
v 0.9 1.5 -1.8
v 0.9 3 -1.8
v 0.9 3.1 -1.8
v 1 0.9 -1.8
v 1 1.2 -1.8
v 1 1.3 -1.8
v 1 1.4 -1.8
v 1 1.5 -1.8
v 1 1.7 -1.8
v 1 3 -1.8
v 1.1 1.4 -1.8
v 1.1 1.5 -1.8
v 1.1 1.7 -1.8
v 1.2 1.2 -1.8
v 1.2 1.3 -1.8
v -2 0 -1.9
v -2 4 -1.9
v -1.6 3.3 -1.9
v -1.6 3.5 -1.9
v -1.5 3.3 -1.9
v -1.5 3.5 -1.9
v -1.5 3.6 -1.9
v -1.4 0.2 -1.9
v -1.4 1.8 -1.9
v -1.4 2.1 -1.9
v -1.4 3.5 -1.9
v -1.4 3.6 -1.9
v -1.4 3.7 -1.9
v -1.3 0.2 -1.9
v -1.3 1.8 -1.9
v -1.3 2.1 -1.9
v -1.3 3.5 -1.9
v -1.3 3.6 -1.9
v -1.3 3.7 -1.9
v -1.3 3.8 -1.9
v -1.2 2 -1.9
v -1.2 2.1 -1.9
v -1.2 3.7 -1.9
v -1.2 3.8 -1.9
v -1.1 2 -1.9
v -1.1 3.1 -1.9
v -1 3.1 -1.9
v -1 3.2 -1.9
v -0.9 1.8 -1.9
v -0.9 3 -1.9
v -0.9 3.2 -1.9
v -0.9 3.3 -1.9
v -0.8 0.1 -1.9
v -0.8 0.2 -1.9
v -0.8 1 -1.9
v -0.8 1.6 -1.9
v -0.8 2.2 -1.9
v -0.8 3 -1.9
v -0.7 0.2 -1.9
v -0.7 1 -1.9
v -0.7 1.6 -1.9
v -0.7 2 -1.9
v -0.7 2.1 -1.9
v -0.7 2.2 -1.9
v -0.7 3.5 -1.9
v -0.7 3.6 -1.9
v -0.6 2 -1.9
v -0.6 2.1 -1.9
v -0.6 3.5 -1.9
v -0.6 3.6 -1.9
v -0.6 3.7 -1.9
v -0.4 0.1 -1.9
v -0.4 1 -1.9
v -0.4 3.5 -1.9
v -0.4 3.6 -1.9
v -0.4 3.7 -1.9
v -0.4 3.8 -1.9
v -0.3 3.3 -1.9
v -0.3 3.5 -1.9
v -0.3 3.8 -1.9
v -0.3 3.9 -1.9
v -0.2 3.9 -1.9
v -0.2 4 -1.9
v 2.38419e-07 0.1 -1.9
v 2.38419e-07 0.2 -1.9
v 0.1 0.2 -1.9
v 0.1 1 -1.9
v 0.3 3.9 -1.9
v 0.3 4 -1.9
v 0.4 0.1 -1.9
v 0.4 1 -1.9
v 0.4 2 -1.9
v 0.4 2.1 -1.9
v 0.4 3.8 -1.9
v 0.4 3.9 -1.9
v 0.5 1.9 -1.9
v 0.5 2 -1.9
v 0.5 2.1 -1.9
v 0.5 2.2 -1.9
v 0.5 3.7 -1.9
v 0.5 3.8 -1.9
v 0.6 1 -1.9
v 0.6 1.9 -1.9
v 0.6 2.2 -1.9
v 0.6 3 -1.9
v 0.6 3.6 -1.9
v 0.6 3.7 -1.9
v 0.7 1.2 -1.9
v 0.7 1.3 -1.9
v 0.7 3 -1.9
v 0.7 3.1 -1.9
v 0.7 3.2 -1.9
v 0.7 3.3 -1.9
v 0.7 3.6 -1.9
v 0.8 1.4 -1.9
v 0.8 1.5 -1.9
v 0.8 3.1 -1.9
v 0.8 3.2 -1.9
v 0.9 0.9 -1.9
v 0.9 1.2 -1.9
v 0.9 1.3 -1.9
v 0.9 1.4 -1.9
v 0.9 1.5 -1.9
v 0.9 3 -1.9
v 0.9 3.1 -1.9
v 1 0.9 -1.9
v 1 1.2 -1.9
v 1 1.3 -1.9
v 1 1.4 -1.9
v 1 1.5 -1.9
v 1 1.7 -1.9
v 1 3 -1.9
v 1.1 1.4 -1.9
v 1.1 1.5 -1.9
v 1.1 1.7 -1.9
v 1.2 1.2 -1.9
v 1.2 1.3 -1.9
v 2 0 -1.9
v 2 4 -1.9
v -2 0 -2
v -2 4 -2
v 2 0 -2
v 2 4 -2
v -2 0 -1.9
v 2 0 -1.9
v -2 0 -2
v 2 0 -2
v -0.8 0.1 -1.8
v -0.4 0.1 -1.8
v 2.38419e-07 0.1 -1.8
v 0.4 0.1 -1.8
v -0.8 0.1 -1.9
v -0.4 0.1 -1.9
v 2.38419e-07 0.1 -1.9
v 0.4 0.1 -1.9
v -1.4 0.2 -1.8
v -1.3 0.2 -1.8
v -1.4 0.2 -1.9
v -1.3 0.2 -1.9
v 0.9 0.9 -1.8
v 1 0.9 -1.8
v 0.9 0.9 -1.9
v 1 0.9 -1.9
v -0.8 1 -1.8
v -0.7 1 -1.8
v -0.4 1 -1.8
v 0.1 1 -1.8
v 0.4 1 -1.8
v 0.6 1 -1.8
v -0.8 1 -1.9
v -0.7 1 -1.9
v -0.4 1 -1.9
v 0.1 1 -1.9
v 0.4 1 -1.9
v 0.6 1 -1.9
v 0.7 1.2 -1.8
v 0.9 1.2 -1.8
v 1 1.2 -1.8
v 1.2 1.2 -1.8
v 0.7 1.2 -1.9
v 0.9 1.2 -1.9
v 1 1.2 -1.9
v 1.2 1.2 -1.9
v 0.8 1.4 -1.8
v 0.9 1.4 -1.8
v 1 1.4 -1.8
v 1.1 1.4 -1.8
v 0.8 1.4 -1.9
v 0.9 1.4 -1.9
v 1 1.4 -1.9
v 1.1 1.4 -1.9
v 0.9 1.5 -1.8
v 1 1.5 -1.8
v 0.9 1.5 -1.9
v 1 1.5 -1.9
v -1.3 1.8 -1.8
v -0.9 1.8 -1.8
v -1.3 1.8 -1.9
v -0.9 1.8 -1.9
v -0.7 2.1 -1.8
v -0.6 2.1 -1.8
v 0.4 2.1 -1.8
v 0.5 2.1 -1.8
v -0.7 2.1 -1.9
v -0.6 2.1 -1.9
v 0.4 2.1 -1.9
v 0.5 2.1 -1.9
v -0.8 2.2 -1.8
v -0.7 2.2 -1.8
v 0.5 2.2 -1.8
v 0.6 2.2 -1.8
v -0.8 2.2 -1.9
v -0.7 2.2 -1.9
v 0.5 2.2 -1.9
v 0.6 2.2 -1.9
v -0.4 2.9 -1.7
v 0.2 2.9 -1.7
v -0.4 2.9 -1.8
v 0.2 2.9 -1.8
v -0.5 3 -1.7
v -0.4 3 -1.7
v 0.2 3 -1.7
v 0.3 3 -1.7
v -0.9 3 -1.8
v -0.8 3 -1.8
v -0.5 3 -1.8
v -0.4 3 -1.8
v 0.2 3 -1.8
v 0.3 3 -1.8
v 0.6 3 -1.8
v 0.7 3 -1.8
v -0.9 3 -1.9
v -0.8 3 -1.9
v 0.6 3 -1.9
v 0.7 3 -1.9
v -0.6 3.1 -1.7
v -0.5 3.1 -1.7
v 0.3 3.1 -1.7
v 0.4 3.1 -1.7
v -0.6 3.1 -1.8
v -0.5 3.1 -1.8
v 0.3 3.1 -1.8
v 0.4 3.1 -1.8
v 0.7 3.1 -1.8
v 0.8 3.1 -1.8
v 0.7 3.1 -1.9
v 0.8 3.1 -1.9
v -0.7 3.2 -1.7
v -0.6 3.2 -1.7
v 0.4 3.2 -1.7
v 0.5 3.2 -1.7
v -0.7 3.2 -1.8
v -0.6 3.2 -1.8
v 0.4 3.2 -1.8
v 0.5 3.2 -1.8
v -1.6 3.3 -1.8
v -1.5 3.3 -1.8
v -1.6 3.3 -1.9
v -1.5 3.3 -1.9
v -1.5 3.5 -1.8
v -1.4 3.5 -1.8
v -0.7 3.5 -1.8
v -0.6 3.5 -1.8
v -0.4 3.5 -1.8
v -0.3 3.5 -1.8
v -1.5 3.5 -1.9
v -1.4 3.5 -1.9
v -0.7 3.5 -1.9
v -0.6 3.5 -1.9
v -0.4 3.5 -1.9
v -0.3 3.5 -1.9
v -0.2 3.6 -1.7
v -0.0999999 3.6 -1.7
v -1.4 3.6 -1.8
v -1.3 3.6 -1.8
v -0.6 3.6 -1.8
v -0.4 3.6 -1.8
v -0.2 3.6 -1.8
v -0.0999999 3.6 -1.8
v -1.4 3.6 -1.9
v -1.3 3.6 -1.9
v -0.6 3.6 -1.9
v -0.4 3.6 -1.9
v -1.3 3.7 -1.8
v -1.2 3.7 -1.8
v -1.3 3.7 -1.9
v -1.2 3.7 -1.9
v -0.8 0.2 -1.8
v -0.7 0.2 -1.8
v 2.38419e-07 0.2 -1.8
v 0.1 0.2 -1.8
v -0.8 0.2 -1.9
v -0.7 0.2 -1.9
v 2.38419e-07 0.2 -1.9
v 0.1 0.2 -1.9
v 0.7 1.3 -1.8
v 0.9 1.3 -1.8
v 1 1.3 -1.8
v 1.2 1.3 -1.8
v 0.7 1.3 -1.9
v 0.9 1.3 -1.9
v 1 1.3 -1.9
v 1.2 1.3 -1.9
v 0.9 1.4 -1.8
v 1 1.4 -1.8
v 0.9 1.4 -1.9
v 1 1.4 -1.9
v -0.8 1.6 -1.8
v -0.7 1.6 -1.8
v -0.8 1.6 -1.9
v -0.7 1.6 -1.9
v 1 1.7 -1.8
v 1.1 1.7 -1.8
v 1 1.7 -1.9
v 1.1 1.7 -1.9
v 0.5 1.9 -1.8
v 0.6 1.9 -1.8
v 0.5 1.9 -1.9
v 0.6 1.9 -1.9
v -1.2 2 -1.8
v -1.1 2 -1.8
v -0.7 2 -1.8
v -0.6 2 -1.8
v 0.4 2 -1.8
v 0.5 2 -1.8
v -1.2 2 -1.9
v -1.1 2 -1.9
v -0.7 2 -1.9
v -0.6 2 -1.9
v 0.4 2 -1.9
v 0.5 2 -1.9
v -1.3 2.1 -1.8
v -1.2 2.1 -1.8
v -1.3 2.1 -1.9
v -1.2 2.1 -1.9
v -0.3 3 -1.7
v 0.1 3 -1.7
v -0.3 3 -1.8
v 0.1 3 -1.8
v 0.9 3 -1.8
v 1 3 -1.8
v 0.9 3 -1.9
v 1 3 -1.9
v -1.1 3.1 -1.8
v -1 3.1 -1.8
v 0.8 3.1 -1.8
v 0.9 3.1 -1.8
v -1.1 3.1 -1.9
v -1 3.1 -1.9
v 0.8 3.1 -1.9
v 0.9 3.1 -1.9
v -1 3.2 -1.8
v -0.9 3.2 -1.8
v 0.7 3.2 -1.8
v 0.8 3.2 -1.8
v -1 3.2 -1.9
v -0.9 3.2 -1.9
v 0.7 3.2 -1.9
v 0.8 3.2 -1.9
v -0.7 3.3 -1.7
v -0.3 3.3 -1.7
v 0.1 3.3 -1.7
v 0.5 3.3 -1.7
v -0.9 3.3 -1.8
v -0.7 3.3 -1.8
v -0.3 3.3 -1.8
v 0.1 3.3 -1.8
v 0.2 3.3 -1.8
v 0.5 3.3 -1.8
v -0.9 3.3 -1.9
v -0.3 3.3 -1.9
v -1.6 3.5 -1.8
v -1.5 3.5 -1.8
v -1.4 3.5 -1.8
v -1.3 3.5 -1.8
v -1.6 3.5 -1.9
v -1.5 3.5 -1.9
v -1.4 3.5 -1.9
v -1.3 3.5 -1.9
v -1.5 3.6 -1.8
v -1.4 3.6 -1.8
v -0.7 3.6 -1.8
v -0.6 3.6 -1.8
v 0.6 3.6 -1.8
v 0.7 3.6 -1.8
v -1.5 3.6 -1.9
v -1.4 3.6 -1.9
v -0.7 3.6 -1.9
v -0.6 3.6 -1.9
v 0.6 3.6 -1.9
v 0.7 3.6 -1.9
v -0.2 3.7 -1.7
v -0.0999999 3.7 -1.7
v -1.4 3.7 -1.8
v -1.3 3.7 -1.8
v -0.6 3.7 -1.8
v -0.4 3.7 -1.8
v -0.2 3.7 -1.8
v -0.0999999 3.7 -1.8
v 0.5 3.7 -1.8
v 0.6 3.7 -1.8
v -1.4 3.7 -1.9
v -1.3 3.7 -1.9
v -0.6 3.7 -1.9
v -0.4 3.7 -1.9
v 0.5 3.7 -1.9
v 0.6 3.7 -1.9
v -1.3 3.8 -1.8
v -1.2 3.8 -1.8
v -0.4 3.8 -1.8
v -0.3 3.8 -1.8
v 0.4 3.8 -1.8
v 0.5 3.8 -1.8
v -1.3 3.8 -1.9
v -1.2 3.8 -1.9
v -0.4 3.8 -1.9
v -0.3 3.8 -1.9
v 0.4 3.8 -1.9
v 0.5 3.8 -1.9
v -0.3 3.9 -1.8
v -0.2 3.9 -1.8
v 0.3 3.9 -1.8
v 0.4 3.9 -1.8
v -0.3 3.9 -1.9
v -0.2 3.9 -1.9
v 0.3 3.9 -1.9
v 0.4 3.9 -1.9
v -0.2 4 -1.8
v 0.3 4 -1.8
v -2 4 -1.9
v -0.2 4 -1.9
v 0.3 4 -1.9
v 2 4 -1.9
v -2 4 -2
v 2 4 -2

# faces
f 3/4/1 2/4/1 1/4/1
f 4/4/1 2/4/1 3/4/1
f 7/8/1 6/8/1 5/8/1
f 8/8/1 6/8/1 7/8/1
f 11/8/1 10/8/1 9/8/1
f 12/8/1 10/8/1 11/8/1
f 15/8/1 14/8/1 13/8/1
f 16/8/1 14/8/1 15/8/1
f 17/3/1 16/3/1 15/3/1
f 18/3/1 16/3/1 17/3/1
f 19/8/1 18/8/1 17/8/1
f 20/8/1 18/8/1 19/8/1
f 23/8/1 22/8/1 21/8/1
f 24/8/1 22/8/1 23/8/1
f 27/8/1 26/8/1 25/8/1
f 28/8/1 26/8/1 27/8/1
f 31/3/1 30/3/1 29/3/1
f 32/3/1 30/3/1 31/3/1
f 35/3/1 34/3/1 33/3/1
f 36/3/1 34/3/1 35/3/1
f 39/3/1 38/3/1 37/3/1
f 40/3/1 38/3/1 39/3/1
f 43/3/1 42/3/1 41/3/1
f 44/3/1 42/3/1 43/3/1
f 47/7/1 46/7/1 45/7/1
f 48/7/1 46/7/1 47/7/1
f 51/3/1 50/3/1 49/3/1
f 52/3/1 50/3/1 51/3/1
f 55/3/1 54/3/1 53/3/1
f 56/3/1 54/3/1 55/3/1
f 59/7/1 58/7/1 57/7/1
f 60/7/1 58/7/1 59/7/1
f 63/3/1 62/3/1 61/3/1
f 64/3/1 62/3/1 63/3/1
f 67/1/1 66/1/1 65/1/1
f 68/1/1 66/1/1 67/1/1
f 71/5/1 70/5/1 69/5/1
f 72/5/1 70/5/1 71/5/1
f 75/3/1 74/3/1 73/3/1
f 76/3/1 74/3/1 75/3/1
f 79/1/1 78/1/1 77/1/1
f 80/1/1 78/1/1 79/1/1
f 83/5/1 82/5/1 81/5/1
f 84/5/1 82/5/1 83/5/1
f 87/1/1 86/1/1 85/1/1
f 88/1/1 86/1/1 87/1/1
f 91/1/1 90/1/1 89/1/1
f 92/1/1 90/1/1 91/1/1
f 95/5/1 94/5/1 93/5/1
f 96/5/1 94/5/1 95/5/1
f 99/5/1 98/5/1 97/5/1
f 100/5/1 98/5/1 99/5/1
f 103/5/1 102/5/1 101/5/1
f 104/5/1 102/5/1 103/5/1
f 107/5/1 106/5/1 105/5/1
f 108/5/1 106/5/1 107/5/1
f 111/8/1 110/8/1 109/8/1
f 112/8/1 110/8/1 111/8/1
f 115/5/1 114/5/1 113/5/1
f 116/5/1 114/5/1 115/5/1
f 119/3/1 118/3/1 117/3/1
f 120/3/1 118/3/1 119/3/1
f 123/3/1 122/3/1 121/3/1
f 124/3/1 122/3/1 123/3/1
f 127/1/1 126/1/1 125/1/1
f 128/1/1 126/1/1 127/1/1
f 131/5/1 130/5/1 129/5/1
f 132/5/1 130/5/1 131/5/1
f 135/5/1 134/5/1 133/5/1
f 136/5/1 134/5/1 135/5/1
f 137/3/1 136/3/1 135/3/1
f 138/3/1 136/3/1 137/3/1
f 141/5/1 140/5/1 139/5/1
f 142/5/1 140/5/1 141/5/1
f 145/5/1 144/5/1 143/5/1
f 146/5/1 144/5/1 145/5/1
f 149/5/1 148/5/1 147/5/1
f 150/5/1 148/5/1 149/5/1
f 151/8/2 152/8/2 153/8/2
f 153/8/2 152/8/2 154/8/2
f 155/8/2 156/8/2 157/8/2
f 157/8/2 156/8/2 158/8/2
f 159/8/2 160/8/2 161/8/2
f 161/8/2 160/8/2 162/8/2
f 163/8/2 164/8/2 165/8/2
f 165/8/2 164/8/2 166/8/2
f 167/8/2 168/8/2 169/8/2
f 169/8/2 168/8/2 170/8/2
f 171/3/2 172/3/2 173/3/2
f 173/3/2 172/3/2 174/3/2
f 175/8/2 176/8/2 177/8/2
f 177/8/2 176/8/2 178/8/2
f 179/3/2 180/3/2 181/3/2
f 181/3/2 180/3/2 182/3/2
f 183/5/2 184/5/2 185/5/2
f 185/5/2 184/5/2 186/5/2
f 187/3/2 188/3/2 189/3/2
f 189/3/2 188/3/2 190/3/2
f 191/1/2 192/1/2 193/1/2
f 193/1/2 192/1/2 194/1/2
f 195/8/2 196/8/2 197/8/2
f 197/8/2 196/8/2 198/8/2
f 199/1/2 200/1/2 201/1/2
f 201/1/2 200/1/2 202/1/2
f 203/1/2 204/1/2 205/1/2
f 205/1/2 204/1/2 206/1/2
f 207/5/2 208/5/2 209/5/2
f 209/5/2 208/5/2 210/5/2
f 211/3/2 212/3/2 213/3/2
f 213/3/2 212/3/2 214/3/2
f 215/3/2 216/3/2 217/3/2
f 217/3/2 216/3/2 218/3/2
f 219/1/2 220/1/2 221/1/2
f 221/1/2 220/1/2 222/1/2
f 223/5/2 224/5/2 225/5/2
f 225/5/2 224/5/2 226/5/2
f 227/7/2 228/7/2 229/7/2
f 229/7/2 228/7/2 230/7/2
f 231/3/2 232/3/2 233/3/2
f 233/3/2 232/3/2 234/3/2
f 235/1/2 236/1/2 237/1/2
f 237/1/2 236/1/2 238/1/2
f 239/5/2 240/5/2 241/5/2
f 241/5/2 240/5/2 242/5/2
f 243/7/2 244/7/2 245/7/2
f 245/7/2 244/7/2 246/7/2
f 247/3/2 248/3/2 249/3/2
f 249/3/2 248/3/2 250/3/2
f 251/5/2 252/5/2 253/5/2
f 253/5/2 252/5/2 254/5/2
f 255/3/2 256/3/2 257/3/2
f 257/3/2 256/3/2 258/3/2
f 259/3/2 260/3/2 261/3/2
f 261/3/2 260/3/2 262/3/2
f 261/5/2 262/5/2 263/5/2
f 263/5/2 262/5/2 264/5/2
f 265/3/2 266/3/2 267/3/2
f 267/3/2 266/3/2 268/3/2
f 269/5/2 270/5/2 271/5/2
f 271/5/2 270/5/2 272/5/2
f 273/3/2 274/3/2 275/3/2
f 275/3/2 274/3/2 276/3/2
f 277/5/2 278/5/2 279/5/2
f 279/5/2 278/5/2 280/5/2
f 281/5/2 282/5/2 283/5/2
f 283/5/2 282/5/2 284/5/2
f 285/3/2 286/3/2 287/3/2
f 287/3/2 286/3/2 288/3/2
f 289/5/2 290/5/2 291/5/2
f 291/5/2 290/5/2 292/5/2
f 291/3/2 292/3/2 293/3/2
f 293/3/2 292/3/2 294/3/2
f 295/5/2 296/5/2 297/5/2
f 297/5/2 296/5/2 298/5/2
f 299/4/2 300/4/2 301/4/2
f 301/4/2 300/4/2 302/4/2
f 306/1/3 304/1/3 303/1/3
f 308/1/3 306/1/3 305/1/3
f 310/1/3 308/1/3 307/1/3
f 311/1/3 308/1/3 310/1/3
f 311/1/3 310/1/3 309/1/3
f 312/1/3 304/1/3 306/1/3
f 312/1/3 308/1/3 311/1/3
f 312/1/3 306/1/3 308/1/3
f 315/8/3 314/8/3 313/8/3
f 316/8/3 314/8/3 315/8/3
f 317/1/3 311/1/3 309/1/3
f 319/1/3 317/1/3 309/1/3
f 319/1/3 318/1/3 317/1/3
f 320/1/3 318/1/3 319/1/3
f 321/1/3 318/1/3 320/1/3
f 322/1/3 318/1/3 321/1/3
f 323/1/3 318/1/3 322/1/3
f 324/1/3 318/1/3 323/1/3
f 325/1/3 318/1/3 324/1/3
f 326/1/3 318/1/3 325/1/3
f 329/8/3 328/8/3 327/8/3
f 330/8/3 328/8/3 329/8/3
f 335/8/3 331/8/3 330/8/3
f 336/8/3 331/8/3 335/8/3
f 338/8/3 333/8/3 332/8/3
f 339/3/3 334/3/3 333/3/3
f 339/8/3 333/8/3 338/8/3
f 340/8/3 335/8/3 334/8/3
f 340/3/3 334/3/3 339/3/3
f 341/8/3 335/8/3 340/8/3
f 342/8/3 337/8/3 336/8/3
f 343/8/3 337/8/3 342/8/3
f 345/3/3 340/3/3 339/3/3
f 346/3/3 340/3/3 345/3/3
f 347/8/3 344/8/3 343/8/3
f 348/8/3 344/8/3 347/8/3
f 349/3/3 345/3/3 339/3/3
f 351/3/3 350/3/3 349/3/3
f 353/3/3 349/3/3 339/3/3
f 353/3/3 352/3/3 351/3/3
f 353/3/3 351/3/3 349/3/3
f 354/3/3 352/3/3 353/3/3
f 355/3/3 352/3/3 354/3/3
f 362/3/3 356/3/3 355/3/3
f 362/3/3 355/3/3 354/3/3
f 363/3/3 358/3/3 357/3/3
f 364/7/3 360/7/3 359/7/3
f 365/7/3 360/7/3 364/7/3
f 368/3/3 362/3/3 361/3/3
f 369/3/3 356/3/3 362/3/3
f 369/3/3 362/3/3 368/3/3
f 370/3/3 356/3/3 369/3/3
f 373/7/3 366/7/3 365/7/3
f 373/7/3 365/7/3 364/7/3
f 374/3/3 368/3/3 367/3/3
f 374/3/3 369/3/3 368/3/3
f 375/3/3 369/3/3 374/3/3
f 376/3/3 369/3/3 375/3/3
f 377/5/3 372/5/3 371/5/3
f 378/5/3 372/5/3 377/5/3
f 380/3/3 374/3/3 373/3/3
f 380/3/3 375/3/3 374/3/3
f 381/3/3 375/3/3 380/3/3
f 382/3/3 363/3/3 357/3/3
f 382/3/3 364/3/3 363/3/3
f 383/7/3 373/7/3 364/7/3
f 383/3/3 364/3/3 382/3/3
f 384/3/3 380/3/3 373/3/3
f 385/3/3 380/3/3 384/3/3
f 387/5/3 379/5/3 378/5/3
f 388/5/3 379/5/3 387/5/3
f 392/5/3 389/5/3 388/5/3
f 392/5/3 388/5/3 387/5/3
f 392/5/3 387/5/3 386/5/3
f 393/5/3 389/5/3 392/5/3
f 395/3/3 391/3/3 390/3/3
f 395/5/3 392/5/3 391/5/3
f 396/2/3 393/2/3 392/2/3
f 396/5/3 392/5/3 395/5/3
f 397/2/3 393/2/3 396/2/3
f 398/2/3 393/2/3 397/2/3
f 399/5/3 394/5/3 393/5/3
f 399/2/3 393/2/3 398/2/3
f 400/5/3 394/5/3 399/5/3
f 402/2/3 396/2/3 395/2/3
f 402/2/3 397/2/3 396/2/3
f 403/2/3 399/2/3 398/2/3
f 406/3/3 405/3/3 404/3/3
f 407/7/3 373/7/3 383/7/3
f 408/3/3 395/3/3 390/3/3
f 409/2/3 402/2/3 395/2/3
f 409/3/3 395/3/3 408/3/3
f 409/2/3 403/2/3 402/2/3
f 410/2/3 403/2/3 409/2/3
f 411/2/3 399/2/3 403/2/3
f 411/2/3 403/2/3 410/2/3
f 412/6/3 400/6/3 399/6/3
f 412/2/3 399/2/3 411/2/3
f 413/3/3 384/3/3 373/3/3
f 415/5/3 410/5/3 409/5/3
f 416/2/3 411/2/3 410/2/3
f 416/5/3 410/5/3 415/5/3
f 417/6/3 412/6/3 411/6/3
f 417/2/3 411/2/3 416/2/3
f 418/3/3 414/3/3 413/3/3
f 420/6/3 400/6/3 412/6/3
f 420/6/3 412/6/3 417/6/3
f 420/6/3 416/6/3 415/6/3
f 420/6/3 417/6/3 416/6/3
f 421/5/3 401/5/3 400/5/3
f 421/6/3 400/6/3 420/6/3
f 422/5/3 401/5/3 421/5/3
f 423/3/3 407/3/3 406/3/3
f 423/3/3 406/3/3 404/3/3
f 424/7/3 373/7/3 407/7/3
f 424/3/3 407/3/3 423/3/3
f 425/3/3 419/3/3 418/3/3
f 425/7/3 373/7/3 424/7/3
f 425/3/3 418/3/3 413/3/3
f 425/3/3 413/3/3 373/3/3
f 426/3/3 419/3/3 425/3/3
f 427/3/3 419/3/3 426/3/3
f 429/6/3 420/6/3 415/6/3
f 430/5/3 421/5/3 420/5/3
f 430/6/3 420/6/3 429/6/3
f 431/5/3 421/5/3 430/5/3
f 432/7/3 425/7/3 424/7/3
f 433/7/3 425/7/3 432/7/3
f 434/3/3 428/3/3 427/3/3
f 434/3/3 427/3/3 426/3/3
f 435/3/3 428/3/3 434/3/3
f 436/3/3 428/3/3 435/3/3
f 437/6/3 429/6/3 415/6/3
f 438/6/3 429/6/3 437/6/3
f 439/5/3 430/5/3 429/5/3
f 439/6/3 429/6/3 438/6/3
f 440/5/3 430/5/3 439/5/3
f 441/7/3 432/7/3 424/7/3
f 442/7/3 432/7/3 441/7/3
f 443/3/3 436/3/3 435/3/3
f 443/3/3 437/3/3 436/3/3
f 444/3/3 437/3/3 443/3/3
f 445/6/3 438/6/3 437/6/3
f 445/3/3 437/3/3 444/3/3
f 446/5/3 439/5/3 438/5/3
f 446/6/3 438/6/3 445/6/3
f 447/5/3 439/5/3 446/5/3
f 450/3/3 445/3/3 444/3/3
f 451/3/3 445/3/3 450/3/3
f 452/3/3 445/3/3 451/3/3
f 453/5/3 446/5/3 445/5/3
f 453/3/3 445/3/3 452/3/3
f 454/5/3 446/5/3 453/5/3
f 457/3/3 452/3/3 451/3/3
f 458/3/3 452/3/3 457/3/3
f 460/5/3 449/5/3 448/5/3
f 461/5/3 449/5/3 460/5/3
f 462/5/3 456/5/3 455/5/3
f 463/3/3 457/3/3 456/3/3
f 463/5/3 456/5/3 462/5/3
f 464/3/3 457/3/3 463/3/3
f 465/3/3 457/3/3 464/3/3
f 466/5/3 461/5/3 460/5/3
f 466/5/3 462/5/3 461/5/3
f 466/5/3 460/5/3 459/5/3
f 467/5/3 462/5/3 466/5/3
f 468/5/3 462/5/3 467/5/3
f 469/5/3 462/5/3 468/5/3
f 470/3/3 464/3/3 463/3/3
f 471/3/3 464/3/3 470/3/3
f 472/3/3 464/3/3 471/3/3
f 473/5/3 470/5/3 469/5/3
f 474/3/3 471/3/3 470/3/3
f 474/5/3 470/5/3 473/5/3
f 475/3/3 471/3/3 474/3/3
f 476/5/3 468/5/3 467/5/3
f 477/5/3 468/5/3 476/5/3
f 480/4/3 479/4/3 478/4/3
f 481/4/3 479/4/3 480/4/3
f 482/4/3 480/4/3 478/4/3
f 483/4/3 479/4/3 481/4/3
f 484/4/3 479/4/3 483/4/3
f 485/4/3 482/4/3 478/4/3
f 485/4/3 483/4/3 482/4/3
f 486/4/3 483/4/3 485/4/3
f 487/4/3 483/4/3 486/4/3
f 488/4/3 483/4/3 487/4/3
f 489/4/3 479/4/3 484/4/3
f 490/4/3 479/4/3 489/4/3
f 491/4/3 485/4/3 478/4/3
f 494/4/3 489/4/3 488/4/3
f 495/4/3 489/4/3 494/4/3
f 496/4/3 479/4/3 490/4/3
f 497/4/3 479/4/3 496/4/3
f 499/4/3 495/4/3 494/4/3
f 499/4/3 494/4/3 493/4/3
f 499/4/3 496/4/3 495/4/3
f 500/4/3 496/4/3 499/4/3
f 501/4/3 479/4/3 497/4/3
f 502/4/3 500/4/3 499/4/3
f 502/4/3 501/4/3 500/4/3
f 502/4/3 499/4/3 498/4/3
f 503/4/3 501/4/3 502/4/3
f 504/4/3 501/4/3 503/4/3
f 505/4/3 501/4/3 504/4/3
f 506/4/3 492/4/3 491/4/3
f 508/4/3 501/4/3 505/4/3
f 509/4/3 501/4/3 508/4/3
f 510/4/3 507/4/3 506/4/3
f 510/4/3 491/4/3 478/4/3
f 510/4/3 506/4/3 491/4/3
f 511/4/3 507/4/3 510/4/3
f 512/4/3 507/4/3 511/4/3
f 513/4/3 507/4/3 512/4/3
f 514/4/3 507/4/3 513/4/3
f 515/4/3 507/4/3 514/4/3
f 516/4/3 512/4/3 511/4/3
f 517/4/3 512/4/3 516/4/3
f 518/4/3 514/4/3 513/4/3
f 519/4/3 514/4/3 518/4/3
f 520/4/3 514/4/3 519/4/3
f 521/4/3 514/4/3 520/4/3
f 522/4/3 501/4/3 509/4/3
f 523/4/3 501/4/3 522/4/3
f 524/4/3 520/4/3 519/4/3
f 525/4/3 520/4/3 524/4/3
f 526/4/3 522/4/3 509/4/3
f 527/4/3 501/4/3 523/4/3
f 528/4/3 501/4/3 527/4/3
f 529/4/3 510/4/3 478/4/3
f 531/4/3 526/4/3 509/4/3
f 531/4/3 527/4/3 526/4/3
f 532/4/3 527/4/3 531/4/3
f 533/4/3 501/4/3 528/4/3
f 534/4/3 479/4/3 501/4/3
f 534/4/3 501/4/3 533/4/3
f 535/4/3 531/4/3 509/4/3
f 536/4/3 531/4/3 535/4/3
f 537/4/3 479/4/3 534/4/3
f 538/4/3 479/4/3 537/4/3
f 539/4/3 479/4/3 538/4/3
f 540/4/3 479/4/3 539/4/3
f 541/4/3 530/4/3 529/4/3
f 541/4/3 529/4/3 478/4/3
f 542/4/3 530/4/3 541/4/3
f 543/4/3 530/4/3 542/4/3
f 544/4/3 530/4/3 543/4/3
f 547/4/3 541/4/3 478/4/3
f 552/4/3 546/4/3 545/4/3
f 554/4/3 550/4/3 549/4/3
f 555/4/3 550/4/3 554/4/3
f 558/4/3 552/4/3 551/4/3
f 559/4/3 548/4/3 547/4/3
f 560/4/3 556/4/3 555/4/3
f 560/4/3 554/4/3 553/4/3
f 560/4/3 555/4/3 554/4/3
f 561/4/3 556/4/3 560/4/3
f 564/4/3 558/4/3 557/4/3
f 565/4/3 562/4/3 561/4/3
f 565/4/3 560/4/3 559/4/3
f 565/4/3 561/4/3 560/4/3
f 566/4/3 562/4/3 565/4/3
f 567/4/3 562/4/3 566/4/3
f 571/4/3 564/4/3 563/4/3
f 572/4/3 567/4/3 566/4/3
f 572/4/3 568/4/3 567/4/3
f 573/4/3 568/4/3 572/4/3
f 574/4/3 568/4/3 573/4/3
f 575/4/3 570/4/3 569/4/3
f 575/4/3 571/4/3 570/4/3
f 576/4/3 559/4/3 547/4/3
f 576/4/3 565/4/3 559/4/3
f 577/4/3 565/4/3 576/4/3
f 578/4/3 572/4/3 566/4/3
f 579/4/3 572/4/3 578/4/3
f 582/4/3 575/4/3 574/4/3
f 583/4/3 576/4/3 547/4/3
f 586/4/3 580/4/3 579/4/3
f 587/4/3 580/4/3 586/4/3
f 589/4/3 582/4/3 581/4/3
f 590/4/3 586/4/3 585/4/3
f 592/4/3 589/4/3 588/4/3
f 593/4/3 584/4/3 583/4/3
f 594/4/3 592/4/3 591/4/3
f 594/4/3 591/4/3 590/4/3
f 594/4/3 590/4/3 585/4/3
f 595/4/3 593/4/3 583/4/3
f 595/4/3 594/4/3 593/4/3
f 595/4/3 547/4/3 478/4/3
f 595/4/3 583/4/3 547/4/3
f 596/4/3 592/4/3 594/4/3
f 596/4/3 594/4/3 595/4/3
f 596/4/3 571/4/3 575/4/3
f 596/4/3 546/4/3 552/4/3
f 596/4/3 582/4/3 589/4/3
f 596/4/3 552/4/3 558/4/3
f 596/4/3 558/4/3 564/4/3
f 596/4/3 589/4/3 592/4/3
f 596/4/3 564/4/3 571/4/3
f 596/4/3 575/4/3 582/4/3
f 597/4/4 598/4/4 599/4/4
f 599/4/4 598/4/4 600/4/4
f 603/4/5 602/4/5 601/4/5
f 604/4/5 602/4/5 603/4/5
f 609/3/5 606/3/5 605/3/5
f 610/3/5 606/3/5 609/3/5
f 611/3/5 608/3/5 607/3/5
f 612/3/5 608/3/5 611/3/5
f 615/8/5 614/8/5 613/8/5
f 616/8/5 614/8/5 615/8/5
f 619/5/5 618/5/5 617/5/5
f 620/5/5 618/5/5 619/5/5
f 627/7/5 622/7/5 621/7/5
f 628/7/5 622/7/5 627/7/5
f 629/7/5 624/7/5 623/7/5
f 630/7/5 624/7/5 629/7/5
f 631/7/5 626/7/5 625/7/5
f 632/7/5 626/7/5 631/7/5
f 637/5/5 634/5/5 633/5/5
f 638/5/5 634/5/5 637/5/5
f 639/5/5 636/5/5 635/5/5
f 640/5/5 636/5/5 639/5/5
f 645/5/5 642/5/5 641/5/5
f 646/5/5 642/5/5 645/5/5
f 647/5/5 644/5/5 643/5/5
f 648/5/5 644/5/5 647/5/5
f 651/3/5 650/3/5 649/3/5
f 652/3/5 650/3/5 651/3/5
f 655/3/5 654/3/5 653/3/5
f 656/3/5 654/3/5 655/3/5
f 661/3/5 658/3/5 657/3/5
f 662/3/5 658/3/5 661/3/5
f 663/3/5 660/3/5 659/3/5
f 664/3/5 660/3/5 663/3/5
f 669/3/5 666/3/5 665/3/5
f 670/3/5 666/3/5 669/3/5
f 671/3/5 668/3/5 667/3/5
f 672/3/5 668/3/5 671/3/5
f 675/1/5 674/1/5 673/1/5
f 676/1/5 674/1/5 675/1/5
f 683/1/5 678/1/5 677/1/5
f 684/1/5 678/1/5 683/1/5
f 685/1/5 680/1/5 679/1/5
f 686/1/5 680/1/5 685/1/5
f 689/3/5 682/3/5 681/3/5
f 690/3/5 682/3/5 689/3/5
f 691/3/5 688/3/5 687/3/5
f 692/3/5 688/3/5 691/3/5
f 697/1/5 694/1/5 693/1/5
f 698/1/5 694/1/5 697/1/5
f 699/1/5 696/1/5 695/1/5
f 700/1/5 696/1/5 699/1/5
f 703/3/5 702/3/5 701/3/5
f 704/3/5 702/3/5 703/3/5
f 709/1/5 706/1/5 705/1/5
f 710/1/5 706/1/5 709/1/5
f 711/1/5 708/1/5 707/1/5
f 712/1/5 708/1/5 711/1/5
f 715/8/5 714/8/5 713/8/5
f 716/8/5 714/8/5 715/8/5
f 723/8/5 718/8/5 717/8/5
f 724/8/5 718/8/5 723/8/5
f 725/5/5 720/5/5 719/5/5
f 726/5/5 720/5/5 725/5/5
f 727/5/5 722/5/5 721/5/5
f 728/5/5 722/5/5 727/5/5
f 735/8/5 730/8/5 729/8/5
f 736/8/5 730/8/5 735/8/5
f 737/8/5 732/8/5 731/8/5
f 738/8/5 732/8/5 737/8/5
f 739/5/5 734/5/5 733/5/5
f 740/5/5 734/5/5 739/5/5
f 743/8/5 742/8/5 741/8/5
f 744/8/5 742/8/5 743/8/5
f 745/3/6 746/3/6 749/3/6
f 749/3/6 746/3/6 750/3/6
f 747/3/6 748/3/6 751/3/6
f 751/3/6 748/3/6 752/3/6
f 753/5/6 754/5/6 757/5/6
f 757/5/6 754/5/6 758/5/6
f 755/5/6 756/5/6 759/5/6
f 759/5/6 756/5/6 760/5/6
f 761/5/6 762/5/6 763/5/6
f 763/5/6 762/5/6 764/5/6
f 765/7/6 766/7/6 767/7/6
f 767/7/6 766/7/6 768/7/6
f 769/3/6 770/3/6 771/3/6
f 771/3/6 770/3/6 772/3/6
f 773/7/6 774/7/6 775/7/6
f 775/7/6 774/7/6 776/7/6
f 777/3/6 778/3/6 783/3/6
f 783/3/6 778/3/6 784/3/6
f 779/7/6 780/7/6 785/7/6
f 785/7/6 780/7/6 786/7/6
f 781/7/6 782/7/6 787/7/6
f 787/7/6 782/7/6 788/7/6
f 789/3/6 790/3/6 791/3/6
f 791/3/6 790/3/6 792/3/6
f 793/1/6 794/1/6 795/1/6
f 795/1/6 794/1/6 796/1/6
f 797/3/6 798/3/6 799/3/6
f 799/3/6 798/3/6 800/3/6
f 801/3/6 802/3/6 805/3/6
f 805/3/6 802/3/6 806/3/6
f 803/3/6 804/3/6 807/3/6
f 807/3/6 804/3/6 808/3/6
f 809/3/6 810/3/6 813/3/6
f 813/3/6 810/3/6 814/3/6
f 811/3/6 812/3/6 815/3/6
f 815/3/6 812/3/6 816/3/6
f 817/1/6 818/1/6 822/1/6
f 822/1/6 818/1/6 823/1/6
f 819/1/6 820/1/6 824/1/6
f 824/1/6 820/1/6 825/1/6
f 825/1/6 820/1/6 826/1/6
f 822/3/6 823/3/6 827/3/6
f 821/3/6 822/3/6 827/3/6
f 827/3/6 823/3/6 828/3/6
f 829/8/6 830/8/6 833/8/6
f 833/8/6 830/8/6 834/8/6
f 831/8/6 832/8/6 835/8/6
f 835/8/6 832/8/6 836/8/6
f 837/8/6 838/8/6 843/8/6
f 843/8/6 838/8/6 844/8/6
f 839/5/6 840/5/6 845/5/6
f 845/5/6 840/5/6 846/5/6
f 841/5/6 842/5/6 847/5/6
f 847/5/6 842/5/6 848/5/6
f 849/8/6 850/8/6 855/8/6
f 855/8/6 850/8/6 856/8/6
f 851/8/6 852/8/6 859/8/6
f 859/8/6 852/8/6 860/8/6
f 853/5/6 854/5/6 861/5/6
f 861/5/6 854/5/6 862/5/6
f 857/5/6 858/5/6 863/5/6
f 863/5/6 858/5/6 864/5/6
f 865/8/6 866/8/6 871/8/6
f 871/8/6 866/8/6 872/8/6
f 867/5/6 868/5/6 873/5/6
f 873/5/6 868/5/6 874/5/6
f 869/5/6 870/5/6 875/5/6
f 875/5/6 870/5/6 876/5/6
f 877/5/6 878/5/6 881/5/6
f 881/5/6 878/5/6 882/5/6
f 879/5/6 880/5/6 883/5/6
f 883/5/6 880/5/6 884/5/6
f 885/5/6 886/5/6 888/5/6
f 888/5/6 886/5/6 889/5/6
f 887/4/6 888/4/6 891/4/6
f 889/4/6 890/4/6 891/4/6
f 888/4/6 889/4/6 891/4/6
f 891/4/6 890/4/6 892/4/6
