# MagicaVoxel @ Ephtracy

# group
o 

# material
mtllib la-dragon.mtl
usemtl palette

# normals
vn -1 0 0
vn 1 0 0
vn 0 0 1
vn 0 0 -1
vn 0 -1 0
vn 0 1 0

# texcoords
vt 0.0214844 0.5
vt 0.302734 0.5
vt 0.341797 0.5
vt 0.349609 0.5
vt 0.373047 0.5

# verts
v -2 0 2
v -2 0 -2
v -2 0.2 2
v -2 0.2 -2
v -2 2.3 0.4
v -2 2.3 -0.3
v -2 2.4 0.4
v -2 2.4 -0.3
v -2 2.6 0.4
v -2 2.6 -0.4
v -2 2.7 0.4
v -2 2.7 -0.4
v -2 2.8 0.4
v -2 2.8 -0.4
v -2 3 0.4
v -2 3 -0.4
v -1.9 2.3 -0.3
v -1.9 2.3 -0.4
v -1.9 2.4 0.4
v -1.9 2.4 -0.3
v -1.9 2.6 0.4
v -1.9 2.6 -0.4
v -1.9 2.7 0.4
v -1.9 2.7 -0.4
v -1.9 2.8 0.4
v -1.9 2.8 -0.4
v -1.1 2.2 0.4
v -1.1 2.2 0.0999999
v -1.1 2.2 -0.1
v -1.1 2.2 -0.4
v -1.1 2.3 0.4
v -1.1 2.3 0.0999999
v -1.1 2.3 -0.1
v -1.1 2.3 -0.4
v -1 2.1 0.4
v -1 2.1 -0.4
v -1 2.2 0.4
v -1 2.2 0.0999999
v -1 2.2 -0.1
v -1 2.2 -0.4
v -1 2.3 0.0999999
v -1 2.3 -0.1
v -0.9 0.2 0.6
v -0.9 0.2 -0.5
v -0.9 0.3 0.6
v -0.9 0.3 -0.5
v -0.8 0.3 0.5
v -0.8 0.3 -0.4
v -0.8 0.4 0.5
v -0.8 0.4 -0.4
v -0.8 1.8 0.4
v -0.8 1.8 -0.4
v -0.8 2.1 0.4
v -0.8 2.1 -0.4
v -0.7 0.4 0.3
v -0.7 0.4 -0.3
v -0.7 1.2 0.4
v -0.7 1.2 0.3
v -0.7 1.2 -0.3
v -0.7 1.2 -0.4
v -0.7 1.4 0.5
v -0.7 1.4 0.4
v -0.7 1.5 0.6
v -0.7 1.5 0.5
v -0.7 1.5 -0.4
v -0.7 1.5 -1
v -0.7 1.6 0.9
v -0.7 1.6 0.6
v -0.7 1.6 -1
v -0.7 1.6 -1.3
v -0.7 1.7 1.2
v -0.7 1.7 0.9
v -0.7 1.7 -1.3
v -0.7 1.7 -1.5
v -0.7 1.8 0.4
v -0.7 1.8 -0.4
v -0.7 1.8 -1.5
v -0.7 1.8 -2
v -0.7 2 -1.9
v -0.7 2 -2
v -0.7 2.1 -1.9
v -0.7 2.1 -2
v -0.7 2.2 -1.2
v -0.7 2.2 -2
v -0.7 2.3 -0.8
v -0.7 2.3 -1.2
v -0.7 2.4 1.9
v -0.7 2.4 1.8
v -0.7 2.4 1.2
v -0.7 2.4 -0.4
v -0.7 2.4 -0.8
v -0.7 2.5 2
v -0.7 2.5 1.9
v -0.7 2.5 1.8
v -0.7 2.7 2
v -0.7 2.7 1.9
v -0.7 2.7 0.8
v -0.7 3 0.4
v -0.7 3 -0.4
v -0.7 3.2 0.8
v -0.7 3.2 -0.4
v -0.6 0.4 0.5
v -0.6 0.4 0.4
v -0.6 0.4 0.3
v -0.6 0.4 -0.3
v -0.6 0.4 -0.4
v -0.6 0.4 -0.5
v -0.6 0.5 0.5
v -0.6 0.5 0.4
v -0.6 0.5 -0.4
v -0.6 0.5 -0.5
v -0.6 1.2 0.4
v -0.6 1.2 0.3
v -0.6 1.2 -0.3
v -0.6 1.2 -0.4
v -0.6 2.3 2
v -0.6 2.3 1.9
v -0.6 2.3 1.2
v -0.6 2.4 1.9
v -0.6 2.4 1.8
v -0.6 2.4 1.2
v -0.6 2.5 2
v -0.6 2.5 1.9
v -0.6 2.7 2
v -0.6 2.7 1.9
v -0.6 2.7 0.8
v -0.6 2.8 2
v -0.6 2.8 1.9
v -0.6 2.8 0.8
v -0.6 3.2 0.8
v -0.6 3.2 -0.4
v -0.6 3.3 0.8
v -0.6 3.3 -0.4
v -0.5 1.7 1.3
v -0.5 1.7 1.2
v -0.5 2 1.3
v -0.5 2 1.2
v -0.4 0.4 0.5
v -0.4 0.4 0.4
v -0.4 0.4 -0.4
v -0.4 0.4 -0.5
v -0.4 0.5 0.5
v -0.4 0.5 0.4
v -0.4 0.5 -0.4
v -0.4 0.5 -0.5
v -0.4 1.8 1.7
v -0.4 1.8 1.3
v -0.4 1.9 1.8
v -0.4 1.9 1.7
v -0.4 2 1.3
v -0.4 2 1.2
v -0.4 2.1 1.9
v -0.4 2.1 1.8
v -0.4 2.2 2
v -0.4 2.2 1.9
v -0.4 2.3 2
v -0.4 2.3 1.9
v -0.4 2.3 1.2
v -0.4 2.9 1.9
v -0.4 2.9 1.5
v -0.4 3 1.9
v -0.4 3 1.5
v -0.3 2.8 2
v -0.3 2.8 1.9
v -0.3 2.8 0.8
v -0.3 2.9 1.9
v -0.3 2.9 1.5
v -0.3 3 1.9
v -0.3 3 1.5
v -0.3 3.1 2
v -0.3 3.1 1.9
v -0.3 3.1 0.8
v -0.2 3.1 2
v -0.2 3.1 1.9
v -0.2 3.1 0.8
v -0.2 3.2 2
v -0.2 3.2 1.9
v -0.2 3.2 0.8
v 0.3 0.4 0.3
v 0.3 0.4 -0.3
v 0.3 1.1 0.4
v 0.3 1.1 0.3
v 0.3 1.1 -0.3
v 0.3 1.1 -0.4
v 0.3 1.2 0.4
v 0.3 1.2 -0.4
v 0.4 0.4 0.5
v 0.4 0.4 0.4
v 0.4 0.4 0.3
v 0.4 0.4 -0.3
v 0.4 0.4 -0.4
v 0.4 0.4 -0.5
v 0.4 0.5 0.5
v 0.4 0.5 0.4
v 0.4 0.5 -0.4
v 0.4 0.5 -0.5
v 0.4 1.1 0.4
v 0.4 1.1 0.3
v 0.4 1.1 -0.3
v 0.4 1.1 -0.4
v 0.6 0.4 0.5
v 0.6 0.4 0.4
v 0.6 0.4 -0.4
v 0.6 0.4 -0.5
v 0.6 0.5 0.5
v 0.6 0.5 0.4
v 0.6 0.5 -0.4
v 0.6 0.5 -0.5
v 0.6 2.4 2
v 0.6 2.4 1.9
v 0.6 2.4 1.4
v 0.6 2.6 2
v 0.6 2.6 1.9
v 0.6 2.6 1.4
v -0.5 0.4 0.5
v -0.5 0.4 0.4
v -0.5 0.4 -0.4
v -0.5 0.4 -0.5
v -0.5 0.5 0.5
v -0.5 0.5 0.4
v -0.5 0.5 -0.4
v -0.5 0.5 -0.5
v -0.4 2.4 2
v -0.4 2.4 1.9
v -0.4 2.4 1.4
v -0.4 2.6 2
v -0.4 2.6 1.9
v -0.4 2.6 1.4
v -0.3 0.4 0.5
v -0.3 0.4 0.4
v -0.3 0.4 0.3
v -0.3 0.4 -0.3
v -0.3 0.4 -0.4
v -0.3 0.4 -0.5
v -0.3 0.5 0.5
v -0.3 0.5 0.4
v -0.3 0.5 -0.4
v -0.3 0.5 -0.5
v -0.3 1.1 -0.3
v -0.3 1.1 -0.4
v -0.3 1.2 0.4
v -0.3 1.2 0.3
v -0.2 0.4 0.3
v -0.2 0.4 -0.3
v -0.2 1.1 -0.3
v -0.2 1.1 -0.4
v -0.2 1.2 0.3
v -0.2 1.2 -0.4
v 0.4 3.1 2
v 0.4 3.1 1.9
v 0.4 3.1 0.8
v 0.4 3.2 2
v 0.4 3.2 1.9
v 0.4 3.2 0.8
v 0.5 0.4 0.5
v 0.5 0.4 0.4
v 0.5 0.4 -0.4
v 0.5 0.4 -0.5
v 0.5 0.5 0.5
v 0.5 0.5 0.4
v 0.5 0.5 -0.4
v 0.5 0.5 -0.5
v 0.5 1.7 1.3
v 0.5 1.7 1
v 0.5 1.8 1.7
v 0.5 1.8 1.3
v 0.5 1.9 1.8
v 0.5 1.9 1.7
v 0.5 2 1
v 0.5 2 0.8
v 0.5 2.1 1.9
v 0.5 2.1 1.8
v 0.5 2.2 2
v 0.5 2.2 1.9
v 0.5 2.3 2
v 0.5 2.3 1.9
v 0.5 2.3 0.8
v 0.5 2.8 2
v 0.5 2.8 1.9
v 0.5 2.8 0.8
v 0.5 2.9 1.9
v 0.5 2.9 1.6
v 0.5 3 1.9
v 0.5 3 1.6
v 0.5 3.1 2
v 0.5 3.1 1.9
v 0.5 3.1 0.8
v 0.6 1.7 1
v 0.6 1.7 0.9
v 0.6 1.7 0.7
v 0.6 2 1
v 0.6 2 0.8
v 0.6 2 0.7
v 0.6 2.9 1.9
v 0.6 2.9 1.6
v 0.6 3 1.9
v 0.6 3 1.6
v 0.7 0.4 0.5
v 0.7 0.4 0.4
v 0.7 0.4 0.3
v 0.7 0.4 -0.3
v 0.7 0.4 -0.4
v 0.7 0.4 -0.5
v 0.7 0.5 0.5
v 0.7 0.5 0.4
v 0.7 0.5 -0.4
v 0.7 0.5 -0.5
v 0.7 1.1 -0.3
v 0.7 1.1 -0.4
v 0.7 1.2 0.4
v 0.7 1.2 0.3
v 0.7 1.5 -0.4
v 0.7 1.5 -1
v 0.7 1.6 -1
v 0.7 1.6 -1.3
v 0.7 1.7 -1.3
v 0.7 1.7 -1.5
v 0.7 1.8 -1.5
v 0.7 1.8 -2
v 0.7 2 -1.9
v 0.7 2 -2
v 0.7 2.1 -1.9
v 0.7 2.1 -2
v 0.7 2.2 -1.2
v 0.7 2.2 -2
v 0.7 2.3 2
v 0.7 2.3 1.9
v 0.7 2.3 0.9
v 0.7 2.3 -0.8
v 0.7 2.3 -1.2
v 0.7 2.4 2
v 0.7 2.4 1.9
v 0.7 2.4 0.9
v 0.7 2.4 -0.4
v 0.7 2.4 -0.8
v 0.7 2.7 2
v 0.7 2.7 1.9
v 0.7 2.7 0.8
v 0.7 2.8 2
v 0.7 2.8 1.9
v 0.7 2.8 0.8
v 0.7 3.2 0.8
v 0.7 3.2 -0.4
v 0.7 3.3 0.8
v 0.7 3.3 -0.4
v 0.8 0.4 0.3
v 0.8 0.4 -0.3
v 0.8 1.1 -0.3
v 0.8 1.1 -0.4
v 0.8 1.2 0.4
v 0.8 1.2 0.3
v 0.8 1.4 0.5
v 0.8 1.4 0.4
v 0.8 1.5 0.6
v 0.8 1.5 0.5
v 0.8 1.6 0.9
v 0.8 1.6 0.6
v 0.8 1.7 0.9
v 0.8 1.7 0.7
v 0.8 1.7 0.4
v 0.8 1.7 0.3
v 0.8 1.8 0.3
v 0.8 1.8 -0.4
v 0.8 1.9 0.4
v 0.8 1.9 -0.4
v 0.8 2 0.8
v 0.8 2 0.7
v 0.8 2 0.4
v 0.8 2 -0.4
v 0.8 2.3 0.9
v 0.8 2.3 0.8
v 0.8 2.4 2
v 0.8 2.4 1.9
v 0.8 2.4 0.9
v 0.8 2.7 2
v 0.8 2.7 1.9
v 0.8 2.7 0.8
v 0.8 3.1 0.4
v 0.8 3.1 -0.4
v 0.8 3.2 0.8
v 0.8 3.2 -0.4
v 0.9 0.3 0.5
v 0.9 0.3 -0.4
v 0.9 0.4 0.5
v 0.9 0.4 -0.4
v 0.9 1.7 0.4
v 0.9 1.7 0.3
v 0.9 1.8 0.4
v 0.9 1.8 0.3
v 1 0.2 0.6
v 1 0.2 -0.5
v 1 0.3 0.6
v 1 0.3 -0.5
v 1 1.8 0.4
v 1 1.8 -0.4
v 1 1.9 0.4
v 1 1.9 -0.4
v 1 2 0.4
v 1 2 -0.4
v 1 2.1 0.4
v 1 2.1 -0.4
v 1.1 2.1 0.4
v 1.1 2.1 -0.4
v 1.1 2.2 0.4
v 1.1 2.2 -0.4
v 1.4 2.2 0.4
v 1.4 2.2 -0.4
v 1.4 2.3 0.4
v 1.4 2.3 -0.4
v 1.6 2.3 0.4
v 1.6 2.3 -0.4
v 1.6 2.4 0.4
v 1.6 2.4 -0.4
v 1.9 2.6 0.4
v 1.9 2.6 -0.4
v 1.9 2.7 0.4
v 1.9 2.7 -0.4
v 1.9 2.8 0.4
v 1.9 2.8 -0.4
v 1.9 2.9 0.4
v 1.9 2.9 -0.4
v 2 0 2
v 2 0 -2
v 2 0.2 2
v 2 0.2 -2
v 2 2.4 0.4
v 2 2.4 -0.4
v 2 2.6 0.4
v 2 2.6 -0.4
v 2 2.7 0.4
v 2 2.7 -0.4
v 2 2.8 0.4
v 2 2.8 -0.4
v 2 2.9 0.4
v 2 2.9 -0.4
v 2 3.1 0.4
v 2 3.1 -0.4
v -2 0 2
v -2 0.2 2
v -0.7 2.5 2
v -0.7 2.7 2
v -0.6 2.3 2
v -0.6 2.5 2
v -0.6 2.7 2
v -0.6 2.8 2
v -0.4 2.2 2
v -0.4 2.3 2
v -0.4 2.4 2
v -0.4 2.6 2
v -0.3 2.8 2
v -0.3 3.1 2
v -0.2 3.1 2
v -0.2 3.2 2
v 0.4 3.1 2
v 0.4 3.2 2
v 0.5 2.2 2
v 0.5 2.3 2
v 0.5 2.8 2
v 0.5 3.1 2
v 0.6 2.4 2
v 0.6 2.6 2
v 0.7 2.3 2
v 0.7 2.4 2
v 0.7 2.7 2
v 0.7 2.8 2
v 0.8 2.4 2
v 0.8 2.7 2
v 2 0 2
v 2 0.2 2
v -0.7 2.4 1.9
v -0.7 2.5 1.9
v -0.6 2.4 1.9
v -0.6 2.5 1.9
v -0.4 2.1 1.9
v -0.4 2.2 1.9
v -0.4 2.9 1.9
v -0.4 3 1.9
v -0.3 2.9 1.9
v -0.3 3 1.9
v 0.5 2.1 1.9
v 0.5 2.2 1.9
v 0.5 2.9 1.9
v 0.5 3 1.9
v 0.6 2.9 1.9
v 0.6 3 1.9
v -0.4 1.9 1.8
v -0.4 2.1 1.8
v 0.5 1.9 1.8
v 0.5 2.1 1.8
v -0.4 1.8 1.7
v -0.4 1.9 1.7
v 0.5 1.8 1.7
v 0.5 1.9 1.7
v -0.4 2.4 1.4
v -0.4 2.6 1.4
v 0.6 2.4 1.4
v 0.6 2.6 1.4
v -0.5 1.7 1.3
v -0.5 2 1.3
v -0.4 1.8 1.3
v -0.4 2 1.3
v 0.5 1.7 1.3
v 0.5 1.8 1.3
v -0.7 1.7 1.2
v -0.7 2.4 1.2
v -0.6 2.3 1.2
v -0.6 2.4 1.2
v -0.5 1.7 1.2
v -0.5 2 1.2
v -0.4 2 1.2
v -0.4 2.3 1.2
v 0.5 1.7 1
v 0.5 2 1
v 0.6 1.7 1
v 0.6 2 1
v -0.7 1.6 0.9
v -0.7 1.7 0.9
v 0.6 1.7 0.9
v 0.7 2.3 0.9
v 0.7 2.4 0.9
v 0.8 1.6 0.9
v 0.8 1.7 0.9
v 0.8 2.3 0.9
v 0.8 2.4 0.9
v -0.7 2.7 0.8
v -0.7 3.2 0.8
v -0.6 2.7 0.8
v -0.6 2.8 0.8
v -0.6 3.2 0.8
v -0.6 3.3 0.8
v -0.3 2.8 0.8
v -0.3 3.1 0.8
v -0.2 3.1 0.8
v -0.2 3.2 0.8
v 0.4 3.1 0.8
v 0.4 3.2 0.8
v 0.5 2 0.8
v 0.5 2.3 0.8
v 0.5 2.8 0.8
v 0.5 3.1 0.8
v 0.6 2 0.8
v 0.7 2.7 0.8
v 0.7 2.8 0.8
v 0.7 3.2 0.8
v 0.7 3.3 0.8
v 0.8 2 0.8
v 0.8 2.3 0.8
v 0.8 2.7 0.8
v 0.8 3.2 0.8
v 0.6 1.7 0.7
v 0.6 2 0.7
v 0.8 1.7 0.7
v 0.8 2 0.7
v -0.9 0.2 0.6
v -0.9 0.3 0.6
v -0.7 1.5 0.6
v -0.7 1.6 0.6
v 0.8 1.5 0.6
v 0.8 1.6 0.6
v 1 0.2 0.6
v 1 0.3 0.6
v -0.8 0.3 0.5
v -0.8 0.4 0.5
v -0.7 1.4 0.5
v -0.7 1.5 0.5
v -0.6 0.4 0.5
v -0.6 0.5 0.5
v -0.5 0.4 0.5
v -0.5 0.5 0.5
v -0.4 0.4 0.5
v -0.4 0.5 0.5
v -0.3 0.4 0.5
v -0.3 0.5 0.5
v 0.4 0.4 0.5
v 0.4 0.5 0.5
v 0.5 0.4 0.5
v 0.5 0.5 0.5
v 0.6 0.4 0.5
v 0.6 0.5 0.5
v 0.7 0.4 0.5
v 0.7 0.5 0.5
v 0.8 1.4 0.5
v 0.8 1.5 0.5
v 0.9 0.3 0.5
v 0.9 0.4 0.5
v -2 2.3 0.4
v -2 2.4 0.4
v -2 2.6 0.4
v -2 2.7 0.4
v -2 2.8 0.4
v -2 3 0.4
v -1.9 2.4 0.4
v -1.9 2.6 0.4
v -1.9 2.7 0.4
v -1.9 2.8 0.4
v -1.1 2.2 0.4
v -1.1 2.3 0.4
v -1 2.1 0.4
v -1 2.2 0.4
v -0.8 1.8 0.4
v -0.8 2.1 0.4
v -0.7 1.2 0.4
v -0.7 1.4 0.4
v -0.7 1.8 0.4
v -0.7 3 0.4
v -0.6 0.5 0.4
v -0.6 1.2 0.4
v -0.5 0.4 0.4
v -0.5 0.5 0.4
v -0.4 0.4 0.4
v -0.4 0.5 0.4
v -0.3 0.5 0.4
v -0.3 1.2 0.4
v 0.3 1.1 0.4
v 0.3 1.2 0.4
v 0.4 0.5 0.4
v 0.4 1.1 0.4
v 0.5 0.4 0.4
v 0.5 0.5 0.4
v 0.6 0.4 0.4
v 0.6 0.5 0.4
v 0.7 0.5 0.4
v 0.7 1.2 0.4
v 0.8 1.2 0.4
v 0.8 1.4 0.4
v 0.8 1.7 0.4
v 0.8 1.9 0.4
v 0.8 2 0.4
v 0.8 3.1 0.4
v 0.9 1.7 0.4
v 0.9 1.8 0.4
v 1 1.8 0.4
v 1 1.9 0.4
v 1 2 0.4
v 1 2.1 0.4
v 1.1 2.1 0.4
v 1.1 2.2 0.4
v 1.4 2.2 0.4
v 1.4 2.3 0.4
v 1.6 2.3 0.4
v 1.6 2.4 0.4
v 1.9 2.6 0.4
v 1.9 2.7 0.4
v 1.9 2.8 0.4
v 1.9 2.9 0.4
v 2 2.4 0.4
v 2 2.6 0.4
v 2 2.7 0.4
v 2 2.8 0.4
v 2 2.9 0.4
v 2 3.1 0.4
v -0.7 0.4 0.3
v -0.7 1.2 0.3
v -0.6 0.4 0.3
v -0.6 1.2 0.3
v -0.3 0.4 0.3
v -0.3 1.2 0.3
v -0.2 0.4 0.3
v -0.2 1.2 0.3
v 0.3 0.4 0.3
v 0.3 1.1 0.3
v 0.4 0.4 0.3
v 0.4 1.1 0.3
v 0.7 0.4 0.3
v 0.7 1.2 0.3
v 0.8 0.4 0.3
v 0.8 1.2 0.3
v -1.1 2.2 -0.1
v -1.1 2.3 -0.1
v -1 2.2 -0.1
v -1 2.3 -0.1
v 0.5 2.9 1.6
v 0.5 3 1.6
v 0.6 2.9 1.6
v 0.6 3 1.6
v -0.4 2.9 1.5
v -0.4 3 1.5
v -0.3 2.9 1.5
v -0.3 3 1.5
v 0.8 1.7 0.3
v 0.8 1.8 0.3
v 0.9 1.7 0.3
v 0.9 1.8 0.3
v -1.1 2.2 0.0999999
v -1.1 2.3 0.0999999
v -1 2.2 0.0999999
v -1 2.3 0.0999999
v -2 2.3 -0.3
v -2 2.4 -0.3
v -1.9 2.3 -0.3
v -1.9 2.4 -0.3
v -0.7 0.4 -0.3
v -0.7 1.2 -0.3
v -0.6 0.4 -0.3
v -0.6 1.2 -0.3
v -0.3 0.4 -0.3
v -0.3 1.1 -0.3
v -0.2 0.4 -0.3
v -0.2 1.1 -0.3
v 0.3 0.4 -0.3
v 0.3 1.1 -0.3
v 0.4 0.4 -0.3
v 0.4 1.1 -0.3
v 0.7 0.4 -0.3
v 0.7 1.1 -0.3
v 0.8 0.4 -0.3
v 0.8 1.1 -0.3
v -2 2.6 -0.4
v -2 2.7 -0.4
v -2 2.8 -0.4
v -2 3 -0.4
v -1.9 2.3 -0.4
v -1.9 2.6 -0.4
v -1.9 2.7 -0.4
v -1.9 2.8 -0.4
v -1.1 2.2 -0.4
v -1.1 2.3 -0.4
v -1 2.1 -0.4
v -1 2.2 -0.4
v -0.8 0.3 -0.4
v -0.8 0.4 -0.4
v -0.8 1.8 -0.4
v -0.8 2.1 -0.4
v -0.7 1.2 -0.4
v -0.7 1.5 -0.4
v -0.7 1.8 -0.4
v -0.7 2.4 -0.4
v -0.7 3 -0.4
v -0.7 3.2 -0.4
v -0.6 0.4 -0.4
v -0.6 0.5 -0.4
v -0.6 1.2 -0.4
v -0.6 3.2 -0.4
v -0.6 3.3 -0.4
v -0.5 0.4 -0.4
v -0.5 0.5 -0.4
v -0.4 0.4 -0.4
v -0.4 0.5 -0.4
v -0.3 0.4 -0.4
v -0.3 0.5 -0.4
v -0.3 1.1 -0.4
v -0.2 1.1 -0.4
v -0.2 1.2 -0.4
v 0.3 1.1 -0.4
v 0.3 1.2 -0.4
v 0.4 0.4 -0.4
v 0.4 0.5 -0.4
v 0.4 1.1 -0.4
v 0.5 0.4 -0.4
v 0.5 0.5 -0.4
v 0.6 0.4 -0.4
v 0.6 0.5 -0.4
v 0.7 0.4 -0.4
v 0.7 0.5 -0.4
v 0.7 1.1 -0.4
v 0.7 1.5 -0.4
v 0.7 2.4 -0.4
v 0.7 3.2 -0.4
v 0.7 3.3 -0.4
v 0.8 1.1 -0.4
v 0.8 1.8 -0.4
v 0.8 1.9 -0.4
v 0.8 2 -0.4
v 0.8 3.1 -0.4
v 0.8 3.2 -0.4
v 0.9 0.3 -0.4
v 0.9 0.4 -0.4
v 1 1.8 -0.4
v 1 1.9 -0.4
v 1 2 -0.4
v 1 2.1 -0.4
v 1.1 2.1 -0.4
v 1.1 2.2 -0.4
v 1.4 2.2 -0.4
v 1.4 2.3 -0.4
v 1.6 2.3 -0.4
v 1.6 2.4 -0.4
v 1.9 2.6 -0.4
v 1.9 2.7 -0.4
v 1.9 2.8 -0.4
v 1.9 2.9 -0.4
v 2 2.4 -0.4
v 2 2.6 -0.4
v 2 2.7 -0.4
v 2 2.8 -0.4
v 2 2.9 -0.4
v 2 3.1 -0.4
v -0.9 0.2 -0.5
v -0.9 0.3 -0.5
v -0.6 0.4 -0.5
v -0.6 0.5 -0.5
v -0.5 0.4 -0.5
v -0.5 0.5 -0.5
v -0.4 0.4 -0.5
v -0.4 0.5 -0.5
v -0.3 0.4 -0.5
v -0.3 0.5 -0.5
v 0.4 0.4 -0.5
v 0.4 0.5 -0.5
v 0.5 0.4 -0.5
v 0.5 0.5 -0.5
v 0.6 0.4 -0.5
v 0.6 0.5 -0.5
v 0.7 0.4 -0.5
v 0.7 0.5 -0.5
v 1 0.2 -0.5
v 1 0.3 -0.5
v -0.7 2.3 -0.8
v -0.7 2.4 -0.8
v 0.7 2.3 -0.8
v 0.7 2.4 -0.8
v -0.7 1.5 -1
v -0.7 1.6 -1
v 0.7 1.5 -1
v 0.7 1.6 -1
v -0.7 2.2 -1.2
v -0.7 2.3 -1.2
v 0.7 2.2 -1.2
v 0.7 2.3 -1.2
v -0.7 1.6 -1.3
v -0.7 1.7 -1.3
v 0.7 1.6 -1.3
v 0.7 1.7 -1.3
v -0.7 1.7 -1.5
v -0.7 1.8 -1.5
v 0.7 1.7 -1.5
v 0.7 1.8 -1.5
v -0.7 2 -1.9
v -0.7 2.1 -1.9
v 0.7 2 -1.9
v 0.7 2.1 -1.9
v -2 0 -2
v -2 0.2 -2
v -0.7 1.8 -2
v -0.7 2 -2
v -0.7 2.1 -2
v -0.7 2.2 -2
v 0.7 1.8 -2
v 0.7 2 -2
v 0.7 2.1 -2
v 0.7 2.2 -2
v 2 0 -2
v 2 0.2 -2
v -2 0 2
v 2 0 2
v -2 0 -2
v 2 0 -2
v -0.6 0.4 -0.4
v -0.5 0.4 -0.4
v -0.4 0.4 -0.4
v -0.3 0.4 -0.4
v 0.4 0.4 -0.4
v 0.5 0.4 -0.4
v 0.6 0.4 -0.4
v 0.7 0.4 -0.4
v -0.6 0.4 -0.5
v -0.5 0.4 -0.5
v -0.4 0.4 -0.5
v -0.3 0.4 -0.5
v 0.4 0.4 -0.5
v 0.5 0.4 -0.5
v 0.6 0.4 -0.5
v 0.7 0.4 -0.5
v 0.3 1.1 0.4
v 0.4 1.1 0.4
v 0.3 1.1 0.3
v 0.4 1.1 0.3
v -0.3 1.1 -0.3
v -0.2 1.1 -0.3
v 0.3 1.1 -0.3
v 0.4 1.1 -0.3
v 0.7 1.1 -0.3
v 0.8 1.1 -0.3
v -0.3 1.1 -0.4
v -0.2 1.1 -0.4
v 0.3 1.1 -0.4
v 0.4 1.1 -0.4
v 0.7 1.1 -0.4
v 0.8 1.1 -0.4
v -0.7 1.2 0.4
v -0.6 1.2 0.4
v -0.3 1.2 0.4
v 0.3 1.2 0.4
v 0.7 1.2 0.4
v 0.8 1.2 0.4
v -0.7 1.2 0.3
v -0.6 1.2 0.3
v -0.3 1.2 0.3
v -0.2 1.2 0.3
v 0.7 1.2 0.3
v 0.8 1.2 0.3
v -0.7 1.2 -0.3
v -0.6 1.2 -0.3
v -0.7 1.2 -0.4
v -0.6 1.2 -0.4
v -0.2 1.2 -0.4
v 0.3 1.2 -0.4
v -0.7 1.4 0.5
v 0.8 1.4 0.5
v -0.7 1.4 0.4
v 0.8 1.4 0.4
v -0.7 1.5 0.6
v 0.8 1.5 0.6
v -0.7 1.5 0.5
v 0.8 1.5 0.5
v -0.7 1.5 -0.4
v 0.7 1.5 -0.4
v -0.7 1.5 -1
v 0.7 1.5 -1
v -0.7 1.6 0.9
v 0.8 1.6 0.9
v -0.7 1.6 0.6
v 0.8 1.6 0.6
v -0.7 1.6 -1
v 0.7 1.6 -1
v -0.7 1.6 -1.3
v 0.7 1.6 -1.3
v -0.5 1.7 1.3
v 0.5 1.7 1.3
v -0.7 1.7 1.2
v -0.5 1.7 1.2
v 0.5 1.7 1
v 0.6 1.7 1
v -0.7 1.7 0.9
v 0.6 1.7 0.9
v 0.8 1.7 0.4
v 0.9 1.7 0.4
v 0.8 1.7 0.3
v 0.9 1.7 0.3
v -0.7 1.7 -1.3
v 0.7 1.7 -1.3
v -0.7 1.7 -1.5
v 0.7 1.7 -1.5
v -0.4 1.8 1.7
v 0.5 1.8 1.7
v -0.4 1.8 1.3
v 0.5 1.8 1.3
v -0.8 1.8 0.4
v -0.7 1.8 0.4
v 0.9 1.8 0.4
v 1 1.8 0.4
v 0.8 1.8 0.3
v 0.9 1.8 0.3
v -0.8 1.8 -0.4
v -0.7 1.8 -0.4
v 0.8 1.8 -0.4
v 1 1.8 -0.4
v -0.7 1.8 -1.5
v 0.7 1.8 -1.5
v -0.7 1.8 -2
v 0.7 1.8 -2
v -0.4 1.9 1.8
v 0.5 1.9 1.8
v -0.4 1.9 1.7
v 0.5 1.9 1.7
v 0.6 2 0.8
v 0.8 2 0.8
v 0.6 2 0.7
v 0.8 2 0.7
v 0.8 2 0.4
v 1 2 0.4
v 0.8 2 -0.4
v 1 2 -0.4
v -0.4 2.1 1.9
v 0.5 2.1 1.9
v -0.4 2.1 1.8
v 0.5 2.1 1.8
v -1 2.1 0.4
v -0.8 2.1 0.4
v 1 2.1 0.4
v 1.1 2.1 0.4
v -1 2.1 -0.4
v -0.8 2.1 -0.4
v 1 2.1 -0.4
v 1.1 2.1 -0.4
v -0.7 2.1 -1.9
v 0.7 2.1 -1.9
v -0.7 2.1 -2
v 0.7 2.1 -2
v -0.4 2.2 2
v 0.5 2.2 2
v -0.4 2.2 1.9
v 0.5 2.2 1.9
v -1.1 2.2 0.4
v -1 2.2 0.4
v 1.1 2.2 0.4
v 1.4 2.2 0.4
v -1.1 2.2 0.0999999
v -1 2.2 0.0999999
v -1.1 2.2 -0.1
v -1 2.2 -0.1
v -1.1 2.2 -0.4
v -1 2.2 -0.4
v 1.1 2.2 -0.4
v 1.4 2.2 -0.4
v -0.6 2.3 2
v -0.4 2.3 2
v 0.5 2.3 2
v 0.7 2.3 2
v -0.6 2.3 1.9
v -0.4 2.3 1.9
v 0.5 2.3 1.9
v 0.7 2.3 1.9
v -0.6 2.3 1.2
v -0.4 2.3 1.2
v 0.7 2.3 0.9
v 0.8 2.3 0.9
v 0.5 2.3 0.8
v 0.8 2.3 0.8
v -2 2.3 0.4
v -1.1 2.3 0.4
v 1.4 2.3 0.4
v 1.6 2.3 0.4
v -1.1 2.3 0.0999999
v -1 2.3 0.0999999
v -1.1 2.3 -0.1
v -1 2.3 -0.1
v -2 2.3 -0.3
v -1.9 2.3 -0.3
v -1.9 2.3 -0.4
v -1.1 2.3 -0.4
v 1.4 2.3 -0.4
v 1.6 2.3 -0.4
v 0.7 2.4 2
v 0.8 2.4 2
v -0.7 2.4 1.9
v -0.6 2.4 1.9
v 0.7 2.4 1.9
v 0.8 2.4 1.9
v -0.7 2.4 1.8
v -0.6 2.4 1.8
v -0.7 2.4 1.2
v -0.6 2.4 1.2
v 0.7 2.4 0.9
v 0.8 2.4 0.9
v 1.6 2.4 0.4
v 2 2.4 0.4
v 1.6 2.4 -0.4
v 2 2.4 -0.4
v -0.7 2.5 2
v -0.6 2.5 2
v -0.7 2.5 1.9
v -0.6 2.5 1.9
v -0.4 2.6 2
v 0.6 2.6 2
v -0.4 2.6 1.9
v 0.6 2.6 1.9
v -0.4 2.6 1.4
v 0.6 2.6 1.4
v -2 2.6 0.4
v -1.9 2.6 0.4
v -2 2.6 -0.4
v -1.9 2.6 -0.4
v 1.9 2.7 0.4
v 2 2.7 0.4
v 1.9 2.7 -0.4
v 2 2.7 -0.4
v -2 2.8 0.4
v -1.9 2.8 0.4
v -2 2.8 -0.4
v -1.9 2.8 -0.4
v -0.4 2.9 1.9
v -0.3 2.9 1.9
v 0.5 2.9 1.9
v 0.6 2.9 1.9
v 0.5 2.9 1.6
v 0.6 2.9 1.6
v -0.4 2.9 1.5
v -0.3 2.9 1.5
v 1.9 2.9 0.4
v 2 2.9 0.4
v 1.9 2.9 -0.4
v 2 2.9 -0.4
v -2 0.2 2
v 2 0.2 2
v -0.9 0.2 0.6
v 1 0.2 0.6
v -0.9 0.2 -0.5
v 1 0.2 -0.5
v -2 0.2 -2
v 2 0.2 -2
v -0.9 0.3 0.6
v 1 0.3 0.6
v -0.8 0.3 0.5
v 0.9 0.3 0.5
v -0.8 0.3 -0.4
v 0.9 0.3 -0.4
v -0.9 0.3 -0.5
v 1 0.3 -0.5
v -0.8 0.4 0.5
v -0.6 0.4 0.5
v -0.5 0.4 0.5
v -0.4 0.4 0.5
v -0.3 0.4 0.5
v 0.4 0.4 0.5
v 0.5 0.4 0.5
v 0.6 0.4 0.5
v 0.7 0.4 0.5
v 0.9 0.4 0.5
v -0.6 0.4 0.4
v -0.5 0.4 0.4
v -0.4 0.4 0.4
v -0.3 0.4 0.4
v 0.4 0.4 0.4
v 0.5 0.4 0.4
v 0.6 0.4 0.4
v 0.7 0.4 0.4
v -0.7 0.4 0.3
v -0.6 0.4 0.3
v -0.3 0.4 0.3
v -0.2 0.4 0.3
v 0.3 0.4 0.3
v 0.4 0.4 0.3
v 0.7 0.4 0.3
v 0.8 0.4 0.3
v -0.7 0.4 -0.3
v -0.6 0.4 -0.3
v -0.3 0.4 -0.3
v -0.2 0.4 -0.3
v 0.3 0.4 -0.3
v 0.4 0.4 -0.3
v 0.7 0.4 -0.3
v 0.8 0.4 -0.3
v -0.8 0.4 -0.4
v -0.6 0.4 -0.4
v -0.3 0.4 -0.4
v 0.4 0.4 -0.4
v 0.7 0.4 -0.4
v 0.9 0.4 -0.4
v -0.6 0.5 0.5
v -0.5 0.5 0.5
v -0.4 0.5 0.5
v -0.3 0.5 0.5
v 0.4 0.5 0.5
v 0.5 0.5 0.5
v 0.6 0.5 0.5
v 0.7 0.5 0.5
v -0.6 0.5 0.4
v -0.5 0.5 0.4
v -0.4 0.5 0.4
v -0.3 0.5 0.4
v 0.4 0.5 0.4
v 0.5 0.5 0.4
v 0.6 0.5 0.4
v 0.7 0.5 0.4
v -0.6 0.5 -0.4
v -0.5 0.5 -0.4
v -0.4 0.5 -0.4
v -0.3 0.5 -0.4
v 0.4 0.5 -0.4
v 0.5 0.5 -0.4
v 0.6 0.5 -0.4
v 0.7 0.5 -0.4
v -0.6 0.5 -0.5
v -0.5 0.5 -0.5
v -0.4 0.5 -0.5
v -0.3 0.5 -0.5
v 0.4 0.5 -0.5
v 0.5 0.5 -0.5
v 0.6 0.5 -0.5
v 0.7 0.5 -0.5
v 0.6 1.7 0.9
v 0.8 1.7 0.9
v 0.6 1.7 0.7
v 0.8 1.7 0.7
v 0.8 1.9 0.4
v 1 1.9 0.4
v 0.8 1.9 -0.4
v 1 1.9 -0.4
v -0.5 2 1.3
v -0.4 2 1.3
v -0.5 2 1.2
v -0.4 2 1.2
v 0.5 2 1
v 0.6 2 1
v 0.5 2 0.8
v 0.6 2 0.8
v -0.7 2 -1.9
v 0.7 2 -1.9
v -0.7 2 -2
v 0.7 2 -2
v -0.7 2.2 -1.2
v 0.7 2.2 -1.2
v -0.7 2.2 -2
v 0.7 2.2 -2
v -0.7 2.3 -0.8
v 0.7 2.3 -0.8
v -0.7 2.3 -1.2
v 0.7 2.3 -1.2
v -0.4 2.4 2
v 0.6 2.4 2
v -0.4 2.4 1.9
v 0.6 2.4 1.9
v -0.4 2.4 1.4
v 0.6 2.4 1.4
v -2 2.4 0.4
v -1.9 2.4 0.4
v -2 2.4 -0.3
v -1.9 2.4 -0.3
v -0.7 2.4 -0.4
v 0.7 2.4 -0.4
v -0.7 2.4 -0.8
v 0.7 2.4 -0.8
v 1.9 2.6 0.4
v 2 2.6 0.4
v 1.9 2.6 -0.4
v 2 2.6 -0.4
v -0.7 2.7 2
v -0.6 2.7 2
v 0.7 2.7 2
v 0.8 2.7 2
v -0.7 2.7 1.9
v -0.6 2.7 1.9
v 0.7 2.7 1.9
v 0.8 2.7 1.9
v -0.7 2.7 0.8
v -0.6 2.7 0.8
v 0.7 2.7 0.8
v 0.8 2.7 0.8
v -2 2.7 0.4
v -1.9 2.7 0.4
v -2 2.7 -0.4
v -1.9 2.7 -0.4
v -0.6 2.8 2
v -0.3 2.8 2
v 0.5 2.8 2
v 0.7 2.8 2
v -0.6 2.8 1.9
v -0.3 2.8 1.9
v 0.5 2.8 1.9
v 0.7 2.8 1.9
v -0.6 2.8 0.8
v -0.3 2.8 0.8
v 0.5 2.8 0.8
v 0.7 2.8 0.8
v 1.9 2.8 0.4
v 2 2.8 0.4
v 1.9 2.8 -0.4
v 2 2.8 -0.4
v -0.4 3 1.9
v -0.3 3 1.9
v 0.5 3 1.9
v 0.6 3 1.9
v 0.5 3 1.6
v 0.6 3 1.6
v -0.4 3 1.5
v -0.3 3 1.5
v -2 3 0.4
v -0.7 3 0.4
v -2 3 -0.4
v -0.7 3 -0.4
v -0.3 3.1 2
v -0.2 3.1 2
v 0.4 3.1 2
v 0.5 3.1 2
v -0.3 3.1 1.9
v -0.2 3.1 1.9
v 0.4 3.1 1.9
v 0.5 3.1 1.9
v -0.3 3.1 0.8
v -0.2 3.1 0.8
v 0.4 3.1 0.8
v 0.5 3.1 0.8
v 0.8 3.1 0.4
v 2 3.1 0.4
v 0.8 3.1 -0.4
v 2 3.1 -0.4
v -0.2 3.2 2
v 0.4 3.2 2
v -0.2 3.2 1.9
v 0.4 3.2 1.9
v -0.7 3.2 0.8
v -0.6 3.2 0.8
v -0.2 3.2 0.8
v 0.4 3.2 0.8
v 0.7 3.2 0.8
v 0.8 3.2 0.8
v -0.7 3.2 -0.4
v -0.6 3.2 -0.4
v 0.7 3.2 -0.4
v 0.8 3.2 -0.4
v -0.6 3.3 0.8
v 0.7 3.3 0.8
v -0.6 3.3 -0.4
v 0.7 3.3 -0.4

# faces
f 3/5/1 2/5/1 1/5/1
f 4/5/1 2/5/1 3/5/1
f 7/4/1 6/4/1 5/4/1
f 8/4/1 6/4/1 7/4/1
f 11/4/1 10/4/1 9/4/1
f 12/4/1 10/4/1 11/4/1
f 15/4/1 14/4/1 13/4/1
f 16/4/1 14/4/1 15/4/1
f 20/4/1 18/4/1 17/4/1
f 21/4/1 20/4/1 19/4/1
f 22/4/1 18/4/1 20/4/1
f 22/4/1 20/4/1 21/4/1
f 25/4/1 24/4/1 23/4/1
f 26/4/1 24/4/1 25/4/1
f 31/4/1 28/4/1 27/4/1
f 32/4/1 28/4/1 31/4/1
f 33/4/1 30/4/1 29/4/1
f 34/4/1 30/4/1 33/4/1
f 37/4/1 36/4/1 35/4/1
f 38/4/1 36/4/1 37/4/1
f 39/4/1 36/4/1 38/4/1
f 40/4/1 36/4/1 39/4/1
f 41/4/1 39/4/1 38/4/1
f 42/4/1 39/4/1 41/4/1
f 45/4/1 44/4/1 43/4/1
f 46/4/1 44/4/1 45/4/1
f 49/4/1 48/4/1 47/4/1
f 50/4/1 48/4/1 49/4/1
f 53/4/1 52/4/1 51/4/1
f 54/4/1 52/4/1 53/4/1
f 58/4/1 56/4/1 55/4/1
f 59/4/1 56/4/1 58/4/1
f 62/4/1 58/4/1 57/4/1
f 62/4/1 60/4/1 59/4/1
f 62/4/1 59/4/1 58/4/1
f 64/4/1 62/4/1 61/4/1
f 65/4/1 60/4/1 62/4/1
f 65/4/1 62/4/1 64/4/1
f 68/4/1 64/4/1 63/4/1
f 68/4/1 66/4/1 65/4/1
f 68/4/1 65/4/1 64/4/1
f 69/4/1 66/4/1 68/4/1
f 72/4/1 68/4/1 67/4/1
f 72/4/1 70/4/1 69/4/1
f 72/4/1 69/4/1 68/4/1
f 73/4/1 70/4/1 72/4/1
f 75/4/1 72/4/1 71/4/1
f 75/4/1 74/4/1 73/4/1
f 75/4/1 73/4/1 72/4/1
f 76/4/1 74/4/1 75/4/1
f 77/4/1 74/4/1 76/4/1
f 79/4/1 78/4/1 77/4/1
f 79/4/1 77/4/1 76/4/1
f 80/4/1 78/4/1 79/4/1
f 81/4/1 79/4/1 76/4/1
f 83/4/1 81/4/1 76/4/1
f 83/4/1 82/4/1 81/4/1
f 84/4/1 82/4/1 83/4/1
f 85/4/1 83/4/1 76/4/1
f 86/4/1 83/4/1 85/4/1
f 89/4/1 75/4/1 71/4/1
f 90/4/1 85/4/1 76/4/1
f 91/4/1 85/4/1 90/4/1
f 93/3/1 88/3/1 87/3/1
f 94/4/1 89/4/1 88/4/1
f 94/3/1 88/3/1 93/3/1
f 95/1/1 93/1/1 92/1/1
f 96/4/1 94/4/1 93/4/1
f 96/1/1 93/1/1 95/1/1
f 97/4/1 89/4/1 94/4/1
f 97/4/1 94/4/1 96/4/1
f 97/4/1 75/4/1 89/4/1
f 98/4/1 75/4/1 97/4/1
f 100/4/1 98/4/1 97/4/1
f 100/4/1 99/4/1 98/4/1
f 101/4/1 99/4/1 100/4/1
f 108/1/1 103/1/1 102/1/1
f 109/4/1 104/4/1 103/4/1
f 109/1/1 103/1/1 108/1/1
f 110/1/1 107/1/1 106/1/1
f 110/4/1 106/4/1 105/4/1
f 111/1/1 107/1/1 110/1/1
f 112/4/1 104/4/1 109/4/1
f 113/4/1 104/4/1 112/4/1
f 114/4/1 110/4/1 105/4/1
f 115/4/1 110/4/1 114/4/1
f 119/1/1 117/1/1 116/1/1
f 119/4/1 118/4/1 117/4/1
f 120/4/1 118/4/1 119/4/1
f 121/4/1 118/4/1 120/4/1
f 122/1/1 119/1/1 116/1/1
f 123/1/1 119/1/1 122/1/1
f 127/1/1 125/1/1 124/1/1
f 128/4/1 126/4/1 125/4/1
f 128/1/1 125/1/1 127/1/1
f 129/4/1 126/4/1 128/4/1
f 132/4/1 131/4/1 130/4/1
f 133/4/1 131/4/1 132/4/1
f 136/4/1 135/4/1 134/4/1
f 137/4/1 135/4/1 136/4/1
f 142/1/1 139/1/1 138/1/1
f 143/1/1 139/1/1 142/1/1
f 144/1/1 141/1/1 140/1/1
f 145/1/1 141/1/1 144/1/1
f 149/4/1 147/4/1 146/4/1
f 150/4/1 147/4/1 149/4/1
f 150/4/1 149/4/1 148/4/1
f 153/4/1 150/4/1 148/4/1
f 153/4/1 151/4/1 150/4/1
f 155/4/1 153/4/1 152/4/1
f 156/4/1 155/4/1 154/4/1
f 157/4/1 153/4/1 155/4/1
f 157/4/1 155/4/1 156/4/1
f 158/4/1 151/4/1 153/4/1
f 158/4/1 153/4/1 157/4/1
f 161/2/1 160/2/1 159/2/1
f 162/2/1 160/2/1 161/2/1
f 166/1/1 164/1/1 163/1/1
f 166/4/1 165/4/1 164/4/1
f 167/4/1 165/4/1 166/4/1
f 168/1/1 166/1/1 163/1/1
f 169/4/1 165/4/1 167/4/1
f 170/1/1 168/1/1 163/1/1
f 171/4/1 169/4/1 168/4/1
f 171/1/1 168/1/1 170/1/1
f 172/4/1 165/4/1 169/4/1
f 172/4/1 169/4/1 171/4/1
f 176/1/1 174/1/1 173/1/1
f 177/4/1 175/4/1 174/4/1
f 177/1/1 174/1/1 176/1/1
f 178/4/1 175/4/1 177/4/1
f 182/4/1 180/4/1 179/4/1
f 183/4/1 180/4/1 182/4/1
f 185/4/1 182/4/1 181/4/1
f 185/4/1 184/4/1 183/4/1
f 185/4/1 183/4/1 182/4/1
f 186/4/1 184/4/1 185/4/1
f 193/1/1 188/1/1 187/1/1
f 194/4/1 189/4/1 188/4/1
f 194/1/1 188/1/1 193/1/1
f 195/1/1 192/1/1 191/1/1
f 195/4/1 191/4/1 190/4/1
f 196/1/1 192/1/1 195/1/1
f 197/4/1 189/4/1 194/4/1
f 198/4/1 189/4/1 197/4/1
f 199/4/1 195/4/1 190/4/1
f 200/4/1 195/4/1 199/4/1
f 205/1/1 202/1/1 201/1/1
f 206/1/1 202/1/1 205/1/1
f 207/1/1 204/1/1 203/1/1
f 208/1/1 204/1/1 207/1/1
f 212/1/1 210/1/1 209/1/1
f 213/4/1 211/4/1 210/4/1
f 213/1/1 210/1/1 212/1/1
f 214/4/1 211/4/1 213/4/1
f 215/1/2 216/1/2 219/1/2
f 219/1/2 216/1/2 220/1/2
f 217/1/2 218/1/2 221/1/2
f 221/1/2 218/1/2 222/1/2
f 223/1/2 224/1/2 226/1/2
f 224/4/2 225/4/2 227/4/2
f 226/1/2 224/1/2 227/1/2
f 227/4/2 225/4/2 228/4/2
f 229/1/2 230/1/2 235/1/2
f 230/4/2 231/4/2 236/4/2
f 235/1/2 230/1/2 236/1/2
f 233/1/2 234/1/2 237/1/2
f 232/4/2 233/4/2 237/4/2
f 237/1/2 234/1/2 238/1/2
f 232/4/2 237/4/2 239/4/2
f 239/4/2 237/4/2 240/4/2
f 236/4/2 231/4/2 241/4/2
f 241/4/2 231/4/2 242/4/2
f 243/4/2 244/4/2 245/4/2
f 243/4/2 245/4/2 247/4/2
f 245/4/2 246/4/2 247/4/2
f 247/4/2 246/4/2 248/4/2
f 249/1/2 250/1/2 252/1/2
f 250/4/2 251/4/2 253/4/2
f 252/1/2 250/1/2 253/1/2
f 253/4/2 251/4/2 254/4/2
f 255/1/2 256/1/2 259/1/2
f 259/1/2 256/1/2 260/1/2
f 257/1/2 258/1/2 261/1/2
f 261/1/2 258/1/2 262/1/2
f 263/4/2 264/4/2 266/4/2
f 265/4/2 266/4/2 268/4/2
f 266/4/2 264/4/2 269/4/2
f 267/4/2 268/4/2 269/4/2
f 268/4/2 266/4/2 269/4/2
f 267/4/2 269/4/2 272/4/2
f 269/4/2 270/4/2 272/4/2
f 271/4/2 272/4/2 274/4/2
f 273/4/2 274/4/2 275/4/2
f 274/4/2 272/4/2 276/4/2
f 275/4/2 274/4/2 276/4/2
f 272/4/2 270/4/2 277/4/2
f 276/4/2 272/4/2 277/4/2
f 278/1/2 279/1/2 281/1/2
f 279/4/2 280/4/2 281/4/2
f 281/4/2 280/4/2 282/4/2
f 278/1/2 281/1/2 283/1/2
f 282/4/2 280/4/2 284/4/2
f 278/1/2 283/1/2 285/1/2
f 283/4/2 284/4/2 286/4/2
f 285/1/2 283/1/2 286/1/2
f 284/4/2 280/4/2 287/4/2
f 286/4/2 284/4/2 287/4/2
f 288/4/2 289/4/2 291/4/2
f 289/4/2 290/4/2 291/4/2
f 291/4/2 290/4/2 292/4/2
f 292/4/2 290/4/2 293/4/2
f 294/2/2 295/2/2 296/2/2
f 296/2/2 295/2/2 297/2/2
f 298/1/2 299/1/2 304/1/2
f 299/4/2 300/4/2 305/4/2
f 304/1/2 299/1/2 305/1/2
f 302/1/2 303/1/2 306/1/2
f 301/4/2 302/4/2 306/4/2
f 306/1/2 303/1/2 307/1/2
f 301/4/2 306/4/2 308/4/2
f 308/4/2 306/4/2 309/4/2
f 305/4/2 300/4/2 310/4/2
f 310/4/2 300/4/2 311/4/2
f 312/4/2 313/4/2 314/4/2
f 314/4/2 315/4/2 316/4/2
f 316/4/2 317/4/2 318/4/2
f 318/4/2 319/4/2 320/4/2
f 320/4/2 319/4/2 321/4/2
f 318/4/2 320/4/2 322/4/2
f 314/4/2 316/4/2 324/4/2
f 322/4/2 323/4/2 324/4/2
f 318/4/2 322/4/2 324/4/2
f 316/4/2 318/4/2 324/4/2
f 324/4/2 323/4/2 325/4/2
f 312/4/2 314/4/2 329/4/2
f 314/4/2 324/4/2 329/4/2
f 329/4/2 324/4/2 330/4/2
f 326/1/2 327/1/2 331/1/2
f 327/4/2 328/4/2 332/4/2
f 331/1/2 327/1/2 332/1/2
f 332/4/2 328/4/2 333/4/2
f 312/4/2 329/4/2 334/4/2
f 334/4/2 329/4/2 335/4/2
f 336/1/2 337/1/2 339/1/2
f 337/4/2 338/4/2 340/4/2
f 339/1/2 337/1/2 340/1/2
f 340/4/2 338/4/2 341/4/2
f 342/4/2 343/4/2 344/4/2
f 344/4/2 343/4/2 345/4/2
f 346/4/2 347/4/2 348/4/2
f 346/4/2 348/4/2 351/4/2
f 348/4/2 349/4/2 351/4/2
f 350/4/2 351/4/2 353/4/2
f 352/4/2 353/4/2 355/4/2
f 354/4/2 355/4/2 357/4/2
f 356/4/2 357/4/2 358/4/2
f 358/4/2 357/4/2 359/4/2
f 353/4/2 351/4/2 360/4/2
f 359/4/2 357/4/2 360/4/2
f 355/4/2 353/4/2 360/4/2
f 357/4/2 355/4/2 360/4/2
f 351/4/2 349/4/2 361/4/2
f 360/4/2 351/4/2 361/4/2
f 361/4/2 349/4/2 362/4/2
f 362/4/2 349/4/2 363/4/2
f 359/4/2 360/4/2 364/4/2
f 359/4/2 364/4/2 367/4/2
f 364/4/2 365/4/2 367/4/2
f 367/4/2 365/4/2 368/4/2
f 368/4/2 365/4/2 369/4/2
f 366/4/2 367/4/2 371/4/2
f 367/4/2 368/4/2 371/4/2
f 370/4/2 371/4/2 374/4/2
f 372/1/2 373/1/2 375/1/2
f 373/4/2 374/4/2 376/4/2
f 375/1/2 373/1/2 376/1/2
f 371/4/2 368/4/2 377/4/2
f 376/4/2 374/4/2 377/4/2
f 374/4/2 371/4/2 377/4/2
f 377/4/2 368/4/2 378/4/2
f 377/4/2 378/4/2 380/4/2
f 378/4/2 379/4/2 380/4/2
f 380/4/2 379/4/2 381/4/2
f 382/4/2 383/4/2 384/4/2
f 384/4/2 383/4/2 385/4/2
f 386/4/2 387/4/2 388/4/2
f 388/4/2 387/4/2 389/4/2
f 390/4/2 391/4/2 392/4/2
f 392/4/2 391/4/2 393/4/2
f 394/4/2 395/4/2 396/4/2
f 396/4/2 395/4/2 397/4/2
f 398/4/2 399/4/2 400/4/2
f 400/4/2 399/4/2 401/4/2
f 402/4/2 403/4/2 404/4/2
f 404/4/2 403/4/2 405/4/2
f 406/4/2 407/4/2 408/4/2
f 408/4/2 407/4/2 409/4/2
f 410/4/2 411/4/2 412/4/2
f 412/4/2 411/4/2 413/4/2
f 414/4/2 415/4/2 416/4/2
f 416/4/2 415/4/2 417/4/2
f 418/4/2 419/4/2 420/4/2
f 420/4/2 419/4/2 421/4/2
f 422/5/2 423/5/2 424/5/2
f 424/5/2 423/5/2 425/5/2
f 426/4/2 427/4/2 428/4/2
f 428/4/2 427/4/2 429/4/2
f 430/4/2 431/4/2 432/4/2
f 432/4/2 431/4/2 433/4/2
f 434/4/2 435/4/2 436/4/2
f 436/4/2 435/4/2 437/4/2
f 443/1/3 441/1/3 440/1/3
f 444/1/3 441/1/3 443/1/3
f 447/1/3 443/1/3 442/1/3
f 447/1/3 445/1/3 444/1/3
f 447/1/3 444/1/3 443/1/3
f 448/1/3 445/1/3 447/1/3
f 449/1/3 445/1/3 448/1/3
f 450/1/3 445/1/3 449/1/3
f 452/1/3 451/1/3 450/1/3
f 454/1/3 452/1/3 450/1/3
f 454/1/3 453/1/3 452/1/3
f 455/1/3 453/1/3 454/1/3
f 456/4/3 447/4/3 446/4/3
f 457/1/3 448/1/3 447/1/3
f 457/4/3 447/4/3 456/4/3
f 458/1/3 450/1/3 449/1/3
f 458/1/3 454/1/3 450/1/3
f 459/1/3 454/1/3 458/1/3
f 460/1/3 448/1/3 457/1/3
f 461/1/3 458/1/3 449/1/3
f 462/1/3 460/1/3 457/1/3
f 462/1/3 461/1/3 460/1/3
f 463/1/3 461/1/3 462/1/3
f 464/1/3 458/1/3 461/1/3
f 464/1/3 461/1/3 463/1/3
f 465/1/3 458/1/3 464/1/3
f 466/1/3 464/1/3 463/1/3
f 467/1/3 464/1/3 466/1/3
f 468/5/3 439/5/3 438/5/3
f 469/5/3 439/5/3 468/5/3
f 472/3/3 471/3/3 470/3/3
f 473/3/3 471/3/3 472/3/3
f 478/2/3 477/2/3 476/2/3
f 479/2/3 477/2/3 478/2/3
f 480/4/3 475/4/3 474/4/3
f 481/4/3 475/4/3 480/4/3
f 484/2/3 483/2/3 482/2/3
f 485/2/3 483/2/3 484/2/3
f 488/4/3 487/4/3 486/4/3
f 489/4/3 487/4/3 488/4/3
f 492/4/3 491/4/3 490/4/3
f 493/4/3 491/4/3 492/4/3
f 496/4/3 495/4/3 494/4/3
f 497/4/3 495/4/3 496/4/3
f 500/4/3 499/4/3 498/4/3
f 501/4/3 499/4/3 500/4/3
f 502/4/3 500/4/3 498/4/3
f 503/4/3 500/4/3 502/4/3
f 506/4/3 505/4/3 504/4/3
f 507/4/3 505/4/3 506/4/3
f 508/4/3 506/4/3 504/4/3
f 509/4/3 506/4/3 508/4/3
f 510/4/3 506/4/3 509/4/3
f 511/4/3 506/4/3 510/4/3
f 514/4/3 513/4/3 512/4/3
f 515/4/3 513/4/3 514/4/3
f 518/4/3 517/4/3 516/4/3
f 521/4/3 518/4/3 516/4/3
f 522/4/3 518/4/3 521/4/3
f 523/4/3 520/4/3 519/4/3
f 524/4/3 520/4/3 523/4/3
f 527/4/3 526/4/3 525/4/3
f 528/4/3 526/4/3 527/4/3
f 529/4/3 526/4/3 528/4/3
f 531/4/3 530/4/3 529/4/3
f 531/4/3 529/4/3 528/4/3
f 532/4/3 530/4/3 531/4/3
f 533/4/3 530/4/3 532/4/3
f 534/4/3 530/4/3 533/4/3
f 536/4/3 530/4/3 534/4/3
f 540/4/3 536/4/3 535/4/3
f 541/4/3 538/4/3 537/4/3
f 543/4/3 540/4/3 539/4/3
f 544/4/3 530/4/3 536/4/3
f 544/4/3 536/4/3 540/4/3
f 544/4/3 540/4/3 543/4/3
f 545/4/3 530/4/3 544/4/3
f 546/4/3 538/4/3 541/4/3
f 547/4/3 538/4/3 546/4/3
f 548/4/3 543/4/3 542/4/3
f 548/4/3 544/4/3 543/4/3
f 549/4/3 544/4/3 548/4/3
f 552/4/3 551/4/3 550/4/3
f 553/4/3 551/4/3 552/4/3
f 558/4/3 557/4/3 556/4/3
f 559/4/3 557/4/3 558/4/3
f 560/4/3 555/4/3 554/4/3
f 561/4/3 555/4/3 560/4/3
f 566/4/3 563/4/3 562/4/3
f 568/4/3 566/4/3 562/4/3
f 568/1/3 567/1/3 566/1/3
f 569/1/3 567/1/3 568/1/3
f 570/4/3 568/4/3 562/4/3
f 572/4/3 570/4/3 562/4/3
f 572/1/3 571/1/3 570/1/3
f 573/1/3 571/1/3 572/1/3
f 574/4/3 572/4/3 562/4/3
f 576/4/3 574/4/3 562/4/3
f 576/1/3 575/1/3 574/1/3
f 577/1/3 575/1/3 576/1/3
f 578/4/3 576/4/3 562/4/3
f 580/4/3 578/4/3 562/4/3
f 580/1/3 579/1/3 578/1/3
f 581/1/3 579/1/3 580/1/3
f 582/4/3 565/4/3 564/4/3
f 583/4/3 565/4/3 582/4/3
f 584/4/3 580/4/3 562/4/3
f 585/4/3 580/4/3 584/4/3
f 592/4/3 587/4/3 586/4/3
f 593/4/3 589/4/3 588/4/3
f 594/4/3 589/4/3 593/4/3
f 595/4/3 591/4/3 590/4/3
f 597/4/3 594/4/3 593/4/3
f 597/4/3 595/4/3 594/4/3
f 597/4/3 592/4/3 586/4/3
f 597/4/3 593/4/3 592/4/3
f 599/4/3 597/4/3 596/4/3
f 601/4/3 599/4/3 598/4/3
f 604/4/3 601/4/3 600/4/3
f 605/4/3 591/4/3 595/4/3
f 605/4/3 601/4/3 604/4/3
f 605/4/3 595/4/3 597/4/3
f 605/4/3 597/4/3 599/4/3
f 605/4/3 599/4/3 601/4/3
f 607/4/3 603/4/3 602/4/3
f 609/4/3 607/4/3 606/4/3
f 610/4/3 609/4/3 608/4/3
f 611/4/3 607/4/3 609/4/3
f 611/4/3 609/4/3 610/4/3
f 612/4/3 607/4/3 611/4/3
f 613/4/3 603/4/3 607/4/3
f 613/4/3 607/4/3 612/4/3
f 615/4/3 603/4/3 613/4/3
f 617/4/3 615/4/3 614/4/3
f 619/4/3 617/4/3 616/4/3
f 620/4/3 619/4/3 618/4/3
f 621/4/3 617/4/3 619/4/3
f 621/4/3 619/4/3 620/4/3
f 622/4/3 617/4/3 621/4/3
f 623/4/3 603/4/3 615/4/3
f 623/4/3 617/4/3 622/4/3
f 623/4/3 615/4/3 617/4/3
f 624/4/3 603/4/3 623/4/3
f 625/4/3 603/4/3 624/4/3
f 630/4/3 627/4/3 626/4/3
f 631/4/3 627/4/3 630/4/3
f 632/4/3 627/4/3 631/4/3
f 633/4/3 627/4/3 632/4/3
f 634/4/3 629/4/3 628/4/3
f 635/4/3 629/4/3 634/4/3
f 636/4/3 629/4/3 635/4/3
f 637/4/3 629/4/3 636/4/3
f 638/4/3 629/4/3 637/4/3
f 639/4/3 629/4/3 638/4/3
f 640/4/3 629/4/3 639/4/3
f 641/4/3 629/4/3 640/4/3
f 642/4/3 629/4/3 641/4/3
f 643/4/3 629/4/3 642/4/3
f 644/4/3 629/4/3 643/4/3
f 645/4/3 629/4/3 644/4/3
f 646/4/3 642/4/3 641/4/3
f 647/4/3 642/4/3 646/4/3
f 648/4/3 644/4/3 643/4/3
f 649/4/3 644/4/3 648/4/3
f 650/4/3 629/4/3 645/4/3
f 651/4/3 629/4/3 650/4/3
f 654/4/3 653/4/3 652/4/3
f 655/4/3 653/4/3 654/4/3
f 658/4/3 657/4/3 656/4/3
f 659/4/3 657/4/3 658/4/3
f 662/4/3 661/4/3 660/4/3
f 663/4/3 661/4/3 662/4/3
f 666/4/3 665/4/3 664/4/3
f 667/4/3 665/4/3 666/4/3
f 670/4/3 669/4/3 668/4/3
f 671/4/3 669/4/3 670/4/3
f 672/2/4 673/2/4 674/2/4
f 674/2/4 673/2/4 675/2/4
f 676/2/4 677/2/4 678/2/4
f 678/2/4 677/2/4 679/2/4
f 680/4/4 681/4/4 682/4/4
f 682/4/4 681/4/4 683/4/4
f 684/4/4 685/4/4 686/4/4
f 686/4/4 685/4/4 687/4/4
f 688/4/4 689/4/4 690/4/4
f 690/4/4 689/4/4 691/4/4
f 692/4/4 693/4/4 694/4/4
f 694/4/4 693/4/4 695/4/4
f 696/4/4 697/4/4 698/4/4
f 698/4/4 697/4/4 699/4/4
f 700/4/4 701/4/4 702/4/4
f 702/4/4 701/4/4 703/4/4
f 704/4/4 705/4/4 706/4/4
f 706/4/4 705/4/4 707/4/4
f 708/4/4 709/4/4 713/4/4
f 713/4/4 709/4/4 714/4/4
f 710/4/4 711/4/4 715/4/4
f 713/4/4 714/4/4 717/4/4
f 714/4/4 715/4/4 717/4/4
f 712/4/4 713/4/4 717/4/4
f 716/4/4 717/4/4 719/4/4
f 718/4/4 719/4/4 723/4/4
f 722/4/4 723/4/4 726/4/4
f 717/4/4 715/4/4 727/4/4
f 726/4/4 723/4/4 727/4/4
f 719/4/4 717/4/4 727/4/4
f 723/4/4 719/4/4 727/4/4
f 715/4/4 711/4/4 728/4/4
f 727/4/4 715/4/4 728/4/4
f 720/4/4 721/4/4 730/4/4
f 724/4/4 725/4/4 732/4/4
f 728/4/4 729/4/4 733/4/4
f 727/4/4 728/4/4 733/4/4
f 720/4/4 730/4/4 735/4/4
f 731/4/4 732/4/4 736/4/4
f 720/4/4 735/4/4 737/4/4
f 735/4/4 736/4/4 737/4/4
f 736/4/4 732/4/4 738/4/4
f 737/4/4 736/4/4 738/4/4
f 720/4/4 737/4/4 739/4/4
f 738/4/4 732/4/4 740/4/4
f 740/4/4 732/4/4 741/4/4
f 741/4/4 732/4/4 742/4/4
f 732/4/4 725/4/4 743/4/4
f 742/4/4 732/4/4 743/4/4
f 743/4/4 725/4/4 745/4/4
f 720/4/4 739/4/4 746/4/4
f 744/4/4 745/4/4 748/4/4
f 720/4/4 746/4/4 749/4/4
f 747/4/4 748/4/4 750/4/4
f 720/4/4 749/4/4 751/4/4
f 749/4/4 750/4/4 751/4/4
f 750/4/4 748/4/4 752/4/4
f 751/4/4 750/4/4 752/4/4
f 720/4/4 751/4/4 753/4/4
f 752/4/4 748/4/4 754/4/4
f 748/4/4 745/4/4 755/4/4
f 754/4/4 748/4/4 755/4/4
f 745/4/4 725/4/4 756/4/4
f 755/4/4 745/4/4 756/4/4
f 733/4/4 734/4/4 757/4/4
f 727/4/4 733/4/4 757/4/4
f 757/4/4 734/4/4 758/4/4
f 758/4/4 734/4/4 759/4/4
f 755/4/4 756/4/4 760/4/4
f 757/4/4 758/4/4 760/4/4
f 756/4/4 757/4/4 760/4/4
f 760/4/4 758/4/4 761/4/4
f 761/4/4 758/4/4 762/4/4
f 762/4/4 758/4/4 763/4/4
f 763/4/4 758/4/4 764/4/4
f 764/4/4 758/4/4 765/4/4
f 720/4/4 753/4/4 766/4/4
f 766/4/4 753/4/4 767/4/4
f 761/4/4 762/4/4 768/4/4
f 768/4/4 762/4/4 769/4/4
f 763/4/4 764/4/4 770/4/4
f 770/4/4 764/4/4 771/4/4
f 771/4/4 764/4/4 772/4/4
f 772/4/4 764/4/4 773/4/4
f 773/4/4 764/4/4 774/4/4
f 774/4/4 764/4/4 775/4/4
f 775/4/4 764/4/4 776/4/4
f 776/4/4 764/4/4 777/4/4
f 777/4/4 764/4/4 778/4/4
f 778/4/4 764/4/4 779/4/4
f 779/4/4 764/4/4 780/4/4
f 780/4/4 764/4/4 781/4/4
f 777/4/4 778/4/4 782/4/4
f 782/4/4 778/4/4 783/4/4
f 779/4/4 780/4/4 784/4/4
f 784/4/4 780/4/4 785/4/4
f 781/4/4 764/4/4 786/4/4
f 786/4/4 764/4/4 787/4/4
f 790/1/4 791/1/4 792/1/4
f 792/1/4 791/1/4 793/1/4
f 794/1/4 795/1/4 796/1/4
f 796/1/4 795/1/4 797/1/4
f 798/1/4 799/1/4 800/1/4
f 800/1/4 799/1/4 801/1/4
f 802/1/4 803/1/4 804/1/4
f 804/1/4 803/1/4 805/1/4
f 788/4/4 789/4/4 806/4/4
f 806/4/4 789/4/4 807/4/4
f 808/4/4 809/4/4 810/4/4
f 810/4/4 809/4/4 811/4/4
f 812/4/4 813/4/4 814/4/4
f 814/4/4 813/4/4 815/4/4
f 816/4/4 817/4/4 818/4/4
f 818/4/4 817/4/4 819/4/4
f 820/4/4 821/4/4 822/4/4
f 822/4/4 821/4/4 823/4/4
f 824/4/4 825/4/4 826/4/4
f 826/4/4 825/4/4 827/4/4
f 828/4/4 829/4/4 830/4/4
f 830/4/4 829/4/4 831/4/4
f 834/4/4 835/4/4 838/4/4
f 838/4/4 835/4/4 839/4/4
f 836/4/4 837/4/4 840/4/4
f 840/4/4 837/4/4 841/4/4
f 832/5/4 833/5/4 842/5/4
f 842/5/4 833/5/4 843/5/4
f 846/5/5 845/5/5 844/5/5
f 847/5/5 845/5/5 846/5/5
f 856/1/5 849/1/5 848/1/5
f 857/1/5 849/1/5 856/1/5
f 858/1/5 851/1/5 850/1/5
f 859/1/5 851/1/5 858/1/5
f 860/1/5 853/1/5 852/1/5
f 861/1/5 853/1/5 860/1/5
f 862/1/5 855/1/5 854/1/5
f 863/1/5 855/1/5 862/1/5
f 866/4/5 865/4/5 864/4/5
f 867/4/5 865/4/5 866/4/5
f 874/4/5 869/4/5 868/4/5
f 875/4/5 869/4/5 874/4/5
f 876/4/5 871/4/5 870/4/5
f 877/4/5 871/4/5 876/4/5
f 878/4/5 873/4/5 872/4/5
f 879/4/5 873/4/5 878/4/5
f 886/4/5 881/4/5 880/4/5
f 887/4/5 881/4/5 886/4/5
f 888/4/5 883/4/5 882/4/5
f 889/4/5 883/4/5 888/4/5
f 890/4/5 885/4/5 884/4/5
f 891/4/5 885/4/5 890/4/5
f 894/4/5 893/4/5 892/4/5
f 895/4/5 893/4/5 894/4/5
f 896/4/5 883/4/5 889/4/5
f 897/4/5 883/4/5 896/4/5
f 900/4/5 899/4/5 898/4/5
f 901/4/5 899/4/5 900/4/5
f 904/4/5 903/4/5 902/4/5
f 905/4/5 903/4/5 904/4/5
f 908/4/5 907/4/5 906/4/5
f 909/4/5 907/4/5 908/4/5
f 912/4/5 911/4/5 910/4/5
f 913/4/5 911/4/5 912/4/5
f 916/4/5 915/4/5 914/4/5
f 917/4/5 915/4/5 916/4/5
f 921/4/5 919/4/5 918/4/5
f 922/4/5 919/4/5 921/4/5
f 922/4/5 921/4/5 920/4/5
f 924/4/5 922/4/5 920/4/5
f 924/4/5 923/4/5 922/4/5
f 925/4/5 923/4/5 924/4/5
f 928/4/5 927/4/5 926/4/5
f 929/4/5 927/4/5 928/4/5
f 932/4/5 931/4/5 930/4/5
f 933/4/5 931/4/5 932/4/5
f 936/4/5 935/4/5 934/4/5
f 937/4/5 935/4/5 936/4/5
f 943/4/5 941/4/5 940/4/5
f 944/4/5 939/4/5 938/4/5
f 945/4/5 939/4/5 944/4/5
f 946/4/5 943/4/5 942/4/5
f 947/4/5 941/4/5 943/4/5
f 947/4/5 943/4/5 946/4/5
f 950/4/5 949/4/5 948/4/5
f 951/4/5 949/4/5 950/4/5
f 954/4/5 953/4/5 952/4/5
f 955/4/5 953/4/5 954/4/5
f 958/4/5 957/4/5 956/4/5
f 959/4/5 957/4/5 958/4/5
f 962/4/5 961/4/5 960/4/5
f 963/4/5 961/4/5 962/4/5
f 966/4/5 965/4/5 964/4/5
f 967/4/5 965/4/5 966/4/5
f 972/4/5 969/4/5 968/4/5
f 973/4/5 969/4/5 972/4/5
f 974/4/5 971/4/5 970/4/5
f 975/4/5 971/4/5 974/4/5
f 978/4/5 977/4/5 976/4/5
f 979/4/5 977/4/5 978/4/5
f 982/4/5 981/4/5 980/4/5
f 983/4/5 981/4/5 982/4/5
f 988/4/5 985/4/5 984/4/5
f 989/4/5 985/4/5 988/4/5
f 992/4/5 991/4/5 990/4/5
f 993/4/5 991/4/5 992/4/5
f 994/4/5 987/4/5 986/4/5
f 995/4/5 987/4/5 994/4/5
f 1000/1/5 997/1/5 996/1/5
f 1001/1/5 997/1/5 1000/1/5
f 1002/1/5 999/1/5 998/1/5
f 1003/1/5 999/1/5 1002/1/5
f 1004/4/5 1001/4/5 1000/4/5
f 1005/4/5 1001/4/5 1004/4/5
f 1006/4/5 1003/4/5 1002/4/5
f 1008/4/5 1006/4/5 1002/4/5
f 1008/4/5 1007/4/5 1006/4/5
f 1009/4/5 1007/4/5 1008/4/5
f 1014/4/5 1011/4/5 1010/4/5
f 1016/4/5 1014/4/5 1010/4/5
f 1016/4/5 1015/4/5 1014/4/5
f 1017/4/5 1015/4/5 1016/4/5
f 1018/4/5 1016/4/5 1010/4/5
f 1019/4/5 1016/4/5 1018/4/5
f 1020/4/5 1016/4/5 1019/4/5
f 1021/4/5 1016/4/5 1020/4/5
f 1022/4/5 1013/4/5 1012/4/5
f 1023/4/5 1013/4/5 1022/4/5
f 1028/1/5 1025/1/5 1024/1/5
f 1029/1/5 1025/1/5 1028/1/5
f 1030/3/5 1027/3/5 1026/3/5
f 1031/3/5 1027/3/5 1030/3/5
f 1032/4/5 1031/4/5 1030/4/5
f 1033/4/5 1031/4/5 1032/4/5
f 1034/4/5 1029/4/5 1028/4/5
f 1035/4/5 1029/4/5 1034/4/5
f 1038/4/5 1037/4/5 1036/4/5
f 1039/4/5 1037/4/5 1038/4/5
f 1042/1/5 1041/1/5 1040/1/5
f 1043/1/5 1041/1/5 1042/1/5
f 1046/1/5 1045/1/5 1044/1/5
f 1047/1/5 1045/1/5 1046/1/5
f 1048/4/5 1047/4/5 1046/4/5
f 1049/4/5 1047/4/5 1048/4/5
f 1052/4/5 1051/4/5 1050/4/5
f 1053/4/5 1051/4/5 1052/4/5
f 1056/4/5 1055/4/5 1054/4/5
f 1057/4/5 1055/4/5 1056/4/5
f 1060/4/5 1059/4/5 1058/4/5
f 1061/4/5 1059/4/5 1060/4/5
f 1066/2/5 1065/2/5 1064/2/5
f 1067/2/5 1065/2/5 1066/2/5
f 1068/2/5 1063/2/5 1062/2/5
f 1069/2/5 1063/2/5 1068/2/5
f 1072/4/5 1071/4/5 1070/4/5
f 1073/4/5 1071/4/5 1072/4/5
f 1074/5/6 1075/5/6 1076/5/6
f 1076/5/6 1075/5/6 1077/5/6
f 1074/5/6 1076/5/6 1078/5/6
f 1077/5/6 1075/5/6 1079/5/6
f 1074/5/6 1078/5/6 1080/5/6
f 1078/5/6 1079/5/6 1080/5/6
f 1079/5/6 1075/5/6 1081/5/6
f 1080/5/6 1079/5/6 1081/5/6
f 1082/4/6 1083/4/6 1084/4/6
f 1084/4/6 1083/4/6 1085/4/6
f 1082/4/6 1084/4/6 1086/4/6
f 1085/4/6 1083/4/6 1087/4/6
f 1082/4/6 1086/4/6 1088/4/6
f 1086/4/6 1087/4/6 1088/4/6
f 1087/4/6 1083/4/6 1089/4/6
f 1088/4/6 1087/4/6 1089/4/6
f 1090/4/6 1091/4/6 1100/4/6
f 1092/4/6 1093/4/6 1101/4/6
f 1101/4/6 1093/4/6 1102/4/6
f 1094/4/6 1095/4/6 1103/4/6
f 1103/4/6 1095/4/6 1104/4/6
f 1096/4/6 1097/4/6 1105/4/6
f 1105/4/6 1097/4/6 1106/4/6
f 1098/4/6 1099/4/6 1107/4/6
f 1090/4/6 1100/4/6 1108/4/6
f 1108/4/6 1100/4/6 1109/4/6
f 1103/4/6 1104/4/6 1110/4/6
f 1110/4/6 1104/4/6 1111/4/6
f 1111/4/6 1104/4/6 1112/4/6
f 1112/4/6 1104/4/6 1113/4/6
f 1107/4/6 1099/4/6 1114/4/6
f 1114/4/6 1099/4/6 1115/4/6
f 1090/4/6 1108/4/6 1116/4/6
f 1111/4/6 1112/4/6 1119/4/6
f 1119/4/6 1112/4/6 1120/4/6
f 1115/4/6 1099/4/6 1123/4/6
f 1116/4/6 1117/4/6 1124/4/6
f 1090/4/6 1116/4/6 1124/4/6
f 1124/4/6 1117/4/6 1125/4/6
f 1120/4/6 1121/4/6 1126/4/6
f 1118/4/6 1119/4/6 1126/4/6
f 1119/4/6 1120/4/6 1126/4/6
f 1126/4/6 1121/4/6 1127/4/6
f 1122/4/6 1123/4/6 1128/4/6
f 1123/4/6 1099/4/6 1129/4/6
f 1128/4/6 1123/4/6 1129/4/6
f 1130/1/6 1131/1/6 1138/1/6
f 1138/1/6 1131/1/6 1139/1/6
f 1132/1/6 1133/1/6 1140/1/6
f 1140/1/6 1133/1/6 1141/1/6
f 1134/1/6 1135/1/6 1142/1/6
f 1142/1/6 1135/1/6 1143/1/6
f 1136/1/6 1137/1/6 1144/1/6
f 1144/1/6 1137/1/6 1145/1/6
f 1146/1/6 1147/1/6 1154/1/6
f 1154/1/6 1147/1/6 1155/1/6
f 1148/1/6 1149/1/6 1156/1/6
f 1156/1/6 1149/1/6 1157/1/6
f 1150/1/6 1151/1/6 1158/1/6
f 1158/1/6 1151/1/6 1159/1/6
f 1152/1/6 1153/1/6 1160/1/6
f 1160/1/6 1153/1/6 1161/1/6
f 1162/4/6 1163/4/6 1164/4/6
f 1164/4/6 1163/4/6 1165/4/6
f 1166/4/6 1167/4/6 1168/4/6
f 1168/4/6 1167/4/6 1169/4/6
f 1170/4/6 1171/4/6 1172/4/6
f 1172/4/6 1171/4/6 1173/4/6
f 1174/4/6 1175/4/6 1176/4/6
f 1176/4/6 1175/4/6 1177/4/6
f 1178/4/6 1179/4/6 1180/4/6
f 1180/4/6 1179/4/6 1181/4/6
f 1182/4/6 1183/4/6 1184/4/6
f 1184/4/6 1183/4/6 1185/4/6
f 1186/4/6 1187/4/6 1188/4/6
f 1188/4/6 1187/4/6 1189/4/6
f 1190/1/6 1191/1/6 1192/1/6
f 1192/1/6 1191/1/6 1193/1/6
f 1192/4/6 1193/4/6 1194/4/6
f 1194/4/6 1193/4/6 1195/4/6
f 1196/4/6 1197/4/6 1198/4/6
f 1198/4/6 1197/4/6 1199/4/6
f 1200/4/6 1201/4/6 1202/4/6
f 1202/4/6 1201/4/6 1203/4/6
f 1204/4/6 1205/4/6 1206/4/6
f 1206/4/6 1205/4/6 1207/4/6
f 1208/1/6 1209/1/6 1212/1/6
f 1212/1/6 1209/1/6 1213/1/6
f 1210/1/6 1211/1/6 1214/1/6
f 1214/1/6 1211/1/6 1215/1/6
f 1212/4/6 1213/4/6 1216/4/6
f 1216/4/6 1213/4/6 1217/4/6
f 1214/4/6 1215/4/6 1218/4/6
f 1218/4/6 1215/4/6 1219/4/6
f 1220/4/6 1221/4/6 1222/4/6
f 1222/4/6 1221/4/6 1223/4/6
f 1224/1/6 1225/1/6 1228/1/6
f 1228/1/6 1225/1/6 1229/1/6
f 1226/1/6 1227/1/6 1230/1/6
f 1230/1/6 1227/1/6 1231/1/6
f 1228/4/6 1229/4/6 1232/4/6
f 1232/4/6 1229/4/6 1233/4/6
f 1230/4/6 1231/4/6 1234/4/6
f 1234/4/6 1231/4/6 1235/4/6
f 1236/4/6 1237/4/6 1238/4/6
f 1238/4/6 1237/4/6 1239/4/6
f 1242/2/6 1243/2/6 1244/2/6
f 1244/2/6 1243/2/6 1245/2/6
f 1240/2/6 1241/2/6 1246/2/6
f 1246/2/6 1241/2/6 1247/2/6
f 1248/4/6 1249/4/6 1250/4/6
f 1250/4/6 1249/4/6 1251/4/6
f 1252/1/6 1253/1/6 1256/1/6
f 1256/1/6 1253/1/6 1257/1/6
f 1254/1/6 1255/1/6 1258/1/6
f 1258/1/6 1255/1/6 1259/1/6
f 1256/4/6 1257/4/6 1260/4/6
f 1260/4/6 1257/4/6 1261/4/6
f 1258/4/6 1259/4/6 1262/4/6
f 1262/4/6 1259/4/6 1263/4/6
f 1264/4/6 1265/4/6 1266/4/6
f 1266/4/6 1265/4/6 1267/4/6
f 1268/1/6 1269/1/6 1270/1/6
f 1270/1/6 1269/1/6 1271/1/6
f 1270/4/6 1271/4/6 1274/4/6
f 1274/4/6 1271/4/6 1275/4/6
f 1272/4/6 1273/4/6 1278/4/6
f 1278/4/6 1273/4/6 1279/4/6
f 1276/4/6 1277/4/6 1280/4/6
f 1280/4/6 1277/4/6 1281/4/6
f 1282/4/6 1283/4/6 1284/4/6
f 1284/4/6 1283/4/6 1285/4/6
