# MagicaVoxel @ Ephtracy

# group
o 

# material
mtllib wall-deco.mtl
usemtl palette

# normals
vn -1 0 0
vn 1 0 0
vn 0 0 1
vn 0 0 -1
vn 0 -1 0
vn 0 1 0

# texcoords
vt 0.373047 0.5
vt 0.955078 0.5
vt 0.958984 0.5
vt 0.994141 0.5

# verts
v -2 0 -1.9
v -2 0 -2
v -2 1.1 -1.8
v -2 1.1 -1.9
v -2 2 -1.9
v -2 2 -2
v -2 4 -1.8
v -2 4 -2
v -0.7 3.8 -1.7
v -0.7 3.8 -1.8
v -0.7 4 -1.7
v -0.7 4 -1.8
v -0.5 3.2 -1.8
v -0.5 3.2 -1.9
v -0.5 3.3 -1.8
v -0.5 3.3 -1.9
v -0.4 3.4 -1.8
v -0.4 3.4 -1.9
v -0.4 3.5 -1.8
v -0.4 3.5 -1.9
v -0.0999999 3.1 -1.8
v -0.0999999 3.1 -1.9
v -0.0999999 3.2 -1.8
v -0.0999999 3.2 -1.9
v 0.1 3 -1.8
v 0.1 3 -1.9
v 0.1 3.1 -1.8
v 0.1 3.1 -1.9
v 0.1 3.3 -1.8
v 0.1 3.3 -1.9
v 0.1 3.4 -1.8
v 0.1 3.4 -1.9
v 0.1 3.5 -1.8
v 0.1 3.5 -1.9
v 0.1 3.6 -1.8
v 0.1 3.6 -1.9
v 0.2 2.9 -1.7
v 0.2 2.9 -1.9
v 0.2 3 -1.7
v 0.2 3 -1.8
v 0.2 3 -1.9
v 0.2 3.1 -1.8
v 0.2 3.2 -1.7
v 0.2 3.2 -1.8
v 0.2 3.6 -1.8
v 0.2 3.6 -1.9
v 0.2 3.7 -1.8
v 0.2 3.7 -1.9
v 0.7 3.1 -1.7
v 0.7 3.1 -1.8
v 0.7 3.4 -1.7
v 0.7 3.4 -1.8
v 0.8 2.8 -1.8
v 0.8 2.8 -1.9
v 0.8 2.9 -1.8
v 0.8 2.9 -1.9
v 1.2 2.9 -1.7
v 1.2 2.9 -1.8
v 1.2 3 -1.7
v 1.2 3 -1.8
v 1.4 3.3 -1.8
v 1.4 3.3 -1.9
v 1.4 3.4 -1.8
v 1.4 3.4 -1.9
v 1.5 3 -1.8
v 1.5 3 -1.9
v 1.5 3.1 -1.8
v 1.5 3.1 -1.9
v -1.1 1.1 -1.8
v -1.1 1.1 -1.9
v -1.1 2.2 -1.8
v -1.1 2.2 -1.9
v -0.6 2.2 -1.8
v -0.6 2.2 -1.9
v -0.6 3.8 -1.8
v -0.6 3.8 -1.9
v 2.38419e-07 0 -1.9
v 2.38419e-07 0 -2
v 2.38419e-07 0.3 -1.9
v 2.38419e-07 0.3 -2
v 0.1 0.3 -1.9
v 0.1 0.3 -2
v 0.1 0.7 -1.9
v 0.1 0.7 -2
v 0.5 3 -1.7
v 0.5 3 -1.8
v 0.5 3.2 -1.7
v 0.5 3.2 -1.8
v 0.9 2.9 -1.7
v 0.9 2.9 -1.8
v 0.9 3 -1.7
v 0.9 3 -1.8
v 1 3.1 -1.7
v 1 3.1 -1.8
v 1 3.4 -1.7
v 1 3.4 -1.8
v 1.3 0.7 -1.9
v 1.3 0.7 -2
v 1.3 1.1 -1.9
v 1.3 1.1 -2
v 1.3 2.8 -1.8
v 1.3 2.8 -1.9
v 1.3 2.9 -1.8
v 1.3 2.9 -1.9
v 1.3 3.2 -1.8
v 1.3 3.2 -1.9
v 1.3 3.4 -1.8
v 1.3 3.4 -1.9
v 1.3 3.5 -1.8
v 1.3 3.5 -1.9
v 1.3 3.7 -1.8
v 1.3 3.7 -1.9
v 1.4 1.8 -1.9
v 1.4 1.8 -2
v 1.4 2.4 -1.9
v 1.4 2.4 -2
v 1.4 3 -1.8
v 1.4 3 -1.9
v 1.4 3.1 -1.8
v 1.4 3.1 -1.9
v 1.4 3.4 -1.8
v 1.4 3.4 -1.9
v 1.4 3.5 -1.8
v 1.4 3.5 -1.9
v 1.5 1.1 -1.9
v 1.5 1.1 -2
v 1.5 1.8 -1.9
v 1.5 1.8 -2
v 1.5 2.9 -1.7
v 1.5 2.9 -1.9
v 1.5 3 -1.7
v 1.5 3 -1.8
v 1.5 3 -1.9
v 1.5 3.1 -1.8
v 1.5 3.1 -1.9
v 1.5 3.2 -1.8
v 1.5 3.2 -1.9
v 1.5 3.3 -1.8
v 1.5 3.3 -1.9
v 1.5 3.4 -1.8
v 1.5 3.4 -1.9
v 1.5 3.6 -1.9
v 1.5 3.6 -2
v 1.5 3.8 -1.9
v 1.5 3.8 -2
v 1.6 3 -1.8
v 1.6 3 -1.9
v 1.6 3.1 -1.8
v 1.6 3.1 -1.9
v 1.8 3.4 -1.9
v 1.8 3.4 -2
v 1.8 3.6 -1.9
v 1.8 3.6 -2
v 1.9 3.2 -1.9
v 1.9 3.2 -2
v 1.9 3.4 -1.9
v 1.9 3.4 -2
v 2 2.4 -1.9
v 2 2.4 -2
v 2 3.2 -1.9
v 2 3.2 -2
v 2 3.8 -1.7
v 2 3.8 -2
v 2 4 -1.7
v 2 4 -2
v -0.7 3.8 -1.7
v -0.7 4 -1.7
v 0.2 2.9 -1.7
v 0.2 3 -1.7
v 0.2 3.2 -1.7
v 0.5 3 -1.7
v 0.5 3.2 -1.7
v 0.7 3.1 -1.7
v 0.7 3.4 -1.7
v 0.9 2.9 -1.7
v 0.9 3 -1.7
v 1 3.1 -1.7
v 1 3.4 -1.7
v 1.2 2.9 -1.7
v 1.2 3 -1.7
v 1.5 2.9 -1.7
v 1.5 3 -1.7
v 2 3.8 -1.7
v 2 4 -1.7
v -2 1.1 -1.8
v -2 4 -1.8
v -1.1 1.1 -1.8
v -1.1 2.2 -1.8
v -0.7 3.8 -1.8
v -0.7 4 -1.8
v -0.6 2.2 -1.8
v -0.6 3.8 -1.8
v -0.5 3.2 -1.8
v -0.5 3.3 -1.8
v -0.4 3.4 -1.8
v -0.4 3.5 -1.8
v -0.0999999 3.1 -1.8
v -0.0999999 3.2 -1.8
v 0.1 3 -1.8
v 0.1 3.1 -1.8
v 0.1 3.3 -1.8
v 0.1 3.4 -1.8
v 0.1 3.5 -1.8
v 0.1 3.6 -1.8
v 0.2 3 -1.8
v 0.2 3.1 -1.8
v 0.2 3.2 -1.8
v 0.2 3.5 -1.8
v 0.2 3.6 -1.8
v 0.2 3.7 -1.8
v 0.5 3 -1.8
v 0.5 3.2 -1.8
v 0.5 3.5 -1.8
v 0.5 3.6 -1.8
v 0.7 3.1 -1.8
v 0.7 3.4 -1.8
v 0.8 2.8 -1.8
v 0.8 2.9 -1.8
v 0.9 2.9 -1.8
v 0.9 3 -1.8
v 1 3.1 -1.8
v 1 3.4 -1.8
v 1.2 2.9 -1.8
v 1.2 3 -1.8
v 1.3 2.8 -1.8
v 1.3 2.9 -1.8
v 1.3 3.2 -1.8
v 1.3 3.4 -1.8
v 1.3 3.5 -1.8
v 1.3 3.7 -1.8
v 1.4 3 -1.8
v 1.4 3.1 -1.8
v 1.4 3.2 -1.8
v 1.4 3.3 -1.8
v 1.4 3.4 -1.8
v 1.4 3.5 -1.8
v 1.5 3 -1.8
v 1.5 3.1 -1.8
v 1.5 3.2 -1.8
v 1.5 3.3 -1.8
v 1.5 3.4 -1.8
v 1.6 3 -1.8
v 1.6 3.1 -1.8
v -2 0 -1.9
v -2 1.1 -1.9
v -1.1 1.1 -1.9
v -1.1 2.2 -1.9
v -0.6 2.2 -1.9
v -0.6 3.8 -1.9
v -0.5 3.2 -1.9
v -0.5 3.3 -1.9
v -0.4 3.4 -1.9
v -0.4 3.5 -1.9
v -0.0999999 3.1 -1.9
v -0.0999999 3.2 -1.9
v 2.38419e-07 0 -1.9
v 2.38419e-07 0.3 -1.9
v 0.1 0.3 -1.9
v 0.1 0.7 -1.9
v 0.1 3 -1.9
v 0.1 3.1 -1.9
v 0.1 3.3 -1.9
v 0.1 3.4 -1.9
v 0.1 3.5 -1.9
v 0.1 3.6 -1.9
v 0.2 2.9 -1.9
v 0.2 3 -1.9
v 0.2 3.6 -1.9
v 0.2 3.7 -1.9
v 0.8 2.8 -1.9
v 0.8 2.9 -1.9
v 1.3 0.7 -1.9
v 1.3 1.1 -1.9
v 1.3 2.8 -1.9
v 1.3 2.9 -1.9
v 1.3 3.2 -1.9
v 1.3 3.4 -1.9
v 1.3 3.5 -1.9
v 1.3 3.7 -1.9
v 1.4 1.8 -1.9
v 1.4 2.4 -1.9
v 1.4 3 -1.9
v 1.4 3.1 -1.9
v 1.4 3.2 -1.9
v 1.4 3.3 -1.9
v 1.4 3.4 -1.9
v 1.4 3.5 -1.9
v 1.5 1.1 -1.9
v 1.5 1.8 -1.9
v 1.5 2.9 -1.9
v 1.5 3 -1.9
v 1.5 3.1 -1.9
v 1.5 3.2 -1.9
v 1.5 3.3 -1.9
v 1.5 3.4 -1.9
v 1.5 3.6 -1.9
v 1.5 3.8 -1.9
v 1.6 3 -1.9
v 1.6 3.1 -1.9
v 1.8 3.4 -1.9
v 1.8 3.6 -1.9
v 1.9 3.2 -1.9
v 1.9 3.4 -1.9
v 2 2.4 -1.9
v 2 3.2 -1.9
v -2 0 -2
v -2 2 -2
v -2 4 -2
v -1.7 2 -2
v -1.7 2.5 -2
v -0.9 2.5 -2
v -0.9 3.8 -2
v -0.8 3.8 -2
v -0.8 4 -2
v 2.38419e-07 0 -2
v 2.38419e-07 0.3 -2
v 0.1 0.3 -2
v 0.1 0.7 -2
v 1.3 0.7 -2
v 1.3 1.1 -2
v 1.4 1.8 -2
v 1.4 2.4 -2
v 1.5 1.1 -2
v 1.5 1.8 -2
v 1.5 3.6 -2
v 1.5 3.8 -2
v 1.5 4 -2
v 1.8 3.4 -2
v 1.8 3.6 -2
v 1.9 3.2 -2
v 1.9 3.4 -2
v 2 2.4 -2
v 2 3.2 -2
v 2 3.8 -2
v 2 4 -2
v -2 0 -1.9
v 2.38419e-07 0 -1.9
v -2 0 -2
v 2.38419e-07 0 -2
v 2.38419e-07 0.3 -1.9
v 0.1 0.3 -1.9
v 2.38419e-07 0.3 -2
v 0.1 0.3 -2
v 0.1 0.7 -1.9
v 1.3 0.7 -1.9
v 0.1 0.7 -2
v 1.3 0.7 -2
v -2 1.1 -1.8
v -1.1 1.1 -1.8
v -2 1.1 -1.9
v -1.1 1.1 -1.9
v 1.3 1.1 -1.9
v 1.5 1.1 -1.9
v 1.3 1.1 -2
v 1.5 1.1 -2
v -1.1 2.2 -1.8
v -0.6 2.2 -1.8
v -1.1 2.2 -1.9
v -0.6 2.2 -1.9
v 1.4 2.4 -1.9
v 2 2.4 -1.9
v 1.4 2.4 -2
v 2 2.4 -2
v 0.8 2.8 -1.8
v 1.3 2.8 -1.8
v 0.8 2.8 -1.9
v 1.3 2.8 -1.9
v 0.2 2.9 -1.7
v 0.9 2.9 -1.7
v 1.2 2.9 -1.7
v 1.5 2.9 -1.7
v 0.8 2.9 -1.8
v 0.9 2.9 -1.8
v 1.2 2.9 -1.8
v 1.3 2.9 -1.8
v 0.2 2.9 -1.9
v 0.8 2.9 -1.9
v 1.3 2.9 -1.9
v 1.5 2.9 -1.9
v 0.1 3 -1.8
v 0.2 3 -1.8
v 1.5 3 -1.8
v 1.6 3 -1.8
v 0.1 3 -1.9
v 0.2 3 -1.9
v 1.5 3 -1.9
v 1.6 3 -1.9
v 0.7 3.1 -1.7
v 1 3.1 -1.7
v -0.0999999 3.1 -1.8
v 0.1 3.1 -1.8
v 0.7 3.1 -1.8
v 1 3.1 -1.8
v 1.4 3.1 -1.8
v 1.5 3.1 -1.8
v -0.0999999 3.1 -1.9
v 0.1 3.1 -1.9
v 1.4 3.1 -1.9
v 1.5 3.1 -1.9
v -0.5 3.2 -1.8
v -0.0999999 3.2 -1.8
v -0.5 3.2 -1.9
v -0.0999999 3.2 -1.9
v 1.4 3.3 -1.8
v 1.5 3.3 -1.8
v 1.4 3.3 -1.9
v 1.5 3.3 -1.9
v -0.4 3.4 -1.8
v 0.1 3.4 -1.8
v 1.3 3.4 -1.8
v 1.4 3.4 -1.8
v -0.4 3.4 -1.9
v 0.1 3.4 -1.9
v 1.3 3.4 -1.9
v 1.4 3.4 -1.9
v -0.7 3.8 -1.7
v 2 3.8 -1.7
v -0.7 3.8 -1.8
v -0.6 3.8 -1.8
v -0.6 3.8 -1.9
v 1.5 3.8 -1.9
v 1.5 3.8 -2
v 2 3.8 -2
v 1.4 1.8 -1.9
v 1.5 1.8 -1.9
v 1.4 1.8 -2
v 1.5 1.8 -2
v 0.5 3 -1.7
v 0.9 3 -1.7
v 1.2 3 -1.7
v 1.5 3 -1.7
v 0.5 3 -1.8
v 0.9 3 -1.8
v 1.2 3 -1.8
v 1.4 3 -1.8
v 1.5 3 -1.8
v 1.4 3 -1.9
v 1.5 3 -1.9
v 1.5 3.1 -1.8
v 1.6 3.1 -1.8
v 1.5 3.1 -1.9
v 1.6 3.1 -1.9
v 0.2 3.2 -1.7
v 0.5 3.2 -1.7
v 0.2 3.2 -1.8
v 0.5 3.2 -1.8
v 1.3 3.2 -1.8
v 1.4 3.2 -1.8
v 1.5 3.2 -1.8
v 1.3 3.2 -1.9
v 1.4 3.2 -1.9
v 1.5 3.2 -1.9
v 1.9 3.2 -1.9
v 2 3.2 -1.9
v 1.9 3.2 -2
v 2 3.2 -2
v -0.5 3.3 -1.8
v 0.1 3.3 -1.8
v -0.5 3.3 -1.9
v 0.1 3.3 -1.9
v 0.7 3.4 -1.7
v 1 3.4 -1.7
v 0.7 3.4 -1.8
v 1 3.4 -1.8
v 1.4 3.4 -1.8
v 1.5 3.4 -1.8
v 1.4 3.4 -1.9
v 1.5 3.4 -1.9
v 1.8 3.4 -1.9
v 1.9 3.4 -1.9
v 1.8 3.4 -2
v 1.9 3.4 -2
v -0.4 3.5 -1.8
v 0.1 3.5 -1.8
v 1.3 3.5 -1.8
v 1.4 3.5 -1.8
v -0.4 3.5 -1.9
v 0.1 3.5 -1.9
v 1.3 3.5 -1.9
v 1.4 3.5 -1.9
v 0.1 3.6 -1.8
v 0.2 3.6 -1.8
v 0.1 3.6 -1.9
v 0.2 3.6 -1.9
v 1.5 3.6 -1.9
v 1.8 3.6 -1.9
v 1.5 3.6 -2
v 1.8 3.6 -2
v 0.2 3.7 -1.8
v 1.3 3.7 -1.8
v 0.2 3.7 -1.9
v 1.3 3.7 -1.9
v -0.7 4 -1.7
v 2 4 -1.7
v -2 4 -1.8
v -0.7 4 -1.8
v -0.8 4 -1.9
v 1.5 4 -1.9
v -2 4 -2
v -0.8 4 -2
v 1.5 4 -2
v 2 4 -2

# faces
f 4/1/1 2/1/1 1/1/1
f 5/1/1 2/1/1 4/1/1
f 5/4/1 4/4/1 3/4/1
f 6/1/1 2/1/1 5/1/1
f 7/4/1 5/4/1 3/4/1
f 7/4/1 6/4/1 5/4/1
f 8/4/1 6/4/1 7/4/1
f 11/4/1 10/4/1 9/4/1
f 12/4/1 10/4/1 11/4/1
f 15/2/1 14/2/1 13/2/1
f 16/2/1 14/2/1 15/2/1
f 19/2/1 18/2/1 17/2/1
f 20/2/1 18/2/1 19/2/1
f 23/2/1 22/2/1 21/2/1
f 24/2/1 22/2/1 23/2/1
f 27/2/1 26/2/1 25/2/1
f 28/2/1 26/2/1 27/2/1
f 31/3/1 30/3/1 29/3/1
f 32/3/1 30/3/1 31/3/1
f 35/2/1 34/2/1 33/2/1
f 36/2/1 34/2/1 35/2/1
f 39/2/1 38/2/1 37/2/1
f 40/2/1 38/2/1 39/2/1
f 41/2/1 38/2/1 40/2/1
f 42/3/1 40/3/1 39/3/1
f 43/3/1 42/3/1 39/3/1
f 44/3/1 42/3/1 43/3/1
f 47/2/1 46/2/1 45/2/1
f 48/2/1 46/2/1 47/2/1
f 51/4/1 50/4/1 49/4/1
f 52/4/1 50/4/1 51/4/1
f 55/2/1 54/2/1 53/2/1
f 56/2/1 54/2/1 55/2/1
f 59/2/1 58/2/1 57/2/1
f 60/2/1 58/2/1 59/2/1
f 63/2/1 62/2/1 61/2/1
f 64/2/1 62/2/1 63/2/1
f 67/2/1 66/2/1 65/2/1
f 68/2/1 66/2/1 67/2/1
f 69/4/2 70/4/2 71/4/2
f 71/4/2 70/4/2 72/4/2
f 73/4/2 74/4/2 75/4/2
f 75/4/2 74/4/2 76/4/2
f 77/1/2 78/1/2 79/1/2
f 79/1/2 78/1/2 80/1/2
f 81/1/2 82/1/2 83/1/2
f 83/1/2 82/1/2 84/1/2
f 85/3/2 86/3/2 87/3/2
f 87/3/2 86/3/2 88/3/2
f 89/2/2 90/2/2 91/2/2
f 91/2/2 90/2/2 92/2/2
f 93/4/2 94/4/2 95/4/2
f 95/4/2 94/4/2 96/4/2
f 97/1/2 98/1/2 99/1/2
f 99/1/2 98/1/2 100/1/2
f 101/2/2 102/2/2 103/2/2
f 103/2/2 102/2/2 104/2/2
f 105/3/2 106/3/2 107/3/2
f 107/3/2 106/3/2 108/3/2
f 109/2/2 110/2/2 111/2/2
f 111/2/2 110/2/2 112/2/2
f 113/1/2 114/1/2 115/1/2
f 115/1/2 114/1/2 116/1/2
f 117/3/2 118/3/2 119/3/2
f 119/3/2 118/3/2 120/3/2
f 121/2/2 122/2/2 123/2/2
f 123/2/2 122/2/2 124/2/2
f 125/1/2 126/1/2 127/1/2
f 127/1/2 126/1/2 128/1/2
f 129/2/2 130/2/2 131/2/2
f 131/2/2 130/2/2 132/2/2
f 132/2/2 130/2/2 133/2/2
f 134/2/2 135/2/2 136/2/2
f 136/2/2 135/2/2 137/2/2
f 138/2/2 139/2/2 140/2/2
f 140/2/2 139/2/2 141/2/2
f 142/1/2 143/1/2 144/1/2
f 144/1/2 143/1/2 145/1/2
f 146/2/2 147/2/2 148/2/2
f 148/2/2 147/2/2 149/2/2
f 150/1/2 151/1/2 152/1/2
f 152/1/2 151/1/2 153/1/2
f 154/1/2 155/1/2 156/1/2
f 156/1/2 155/1/2 157/1/2
f 158/1/2 159/1/2 160/1/2
f 160/1/2 159/1/2 161/1/2
f 162/4/2 163/4/2 164/4/2
f 164/4/2 163/4/2 165/4/2
f 171/2/3 169/2/3 168/2/3
f 171/3/3 170/3/3 169/3/3
f 172/3/3 170/3/3 171/3/3
f 175/2/3 171/2/3 168/2/3
f 176/2/3 171/2/3 175/2/3
f 177/4/3 174/4/3 173/4/3
f 178/4/3 174/4/3 177/4/3
f 181/2/3 180/2/3 179/2/3
f 182/2/3 180/2/3 181/2/3
f 183/4/3 167/4/3 166/4/3
f 184/4/3 167/4/3 183/4/3
f 187/4/3 186/4/3 185/4/3
f 188/4/3 186/4/3 187/4/3
f 189/4/3 186/4/3 188/4/3
f 190/4/3 186/4/3 189/4/3
f 191/4/3 189/4/3 188/4/3
f 192/4/3 189/4/3 191/4/3
f 198/2/3 194/2/3 193/2/3
f 200/2/3 198/2/3 197/2/3
f 201/2/3 194/2/3 198/2/3
f 201/2/3 198/2/3 200/2/3
f 202/2/3 196/2/3 195/2/3
f 203/2/3 196/2/3 202/2/3
f 205/2/3 200/2/3 199/2/3
f 206/3/3 201/3/3 200/3/3
f 206/2/3 200/2/3 205/2/3
f 206/3/3 202/3/3 201/3/3
f 206/3/3 203/3/3 202/3/3
f 207/3/3 203/3/3 206/3/3
f 208/2/3 204/2/3 203/2/3
f 208/3/3 203/3/3 207/3/3
f 209/2/3 204/2/3 208/2/3
f 212/3/3 209/3/3 208/3/3
f 212/3/3 208/3/3 207/3/3
f 213/3/3 209/3/3 212/3/3
f 214/2/3 210/2/3 209/2/3
f 214/3/3 209/3/3 213/3/3
f 215/3/3 213/3/3 212/3/3
f 215/3/3 212/3/3 211/3/3
f 216/3/3 213/3/3 215/3/3
f 219/2/3 218/2/3 217/2/3
f 220/3/3 215/3/3 211/3/3
f 221/3/3 215/3/3 220/3/3
f 222/3/3 213/3/3 216/3/3
f 223/2/3 219/2/3 217/2/3
f 223/2/3 220/2/3 219/2/3
f 224/3/3 222/3/3 221/3/3
f 224/2/3 220/2/3 223/2/3
f 224/3/3 221/3/3 220/3/3
f 225/2/3 223/2/3 217/2/3
f 226/2/3 223/2/3 225/2/3
f 227/3/3 222/3/3 224/3/3
f 228/3/3 213/3/3 222/3/3
f 228/3/3 222/3/3 227/3/3
f 229/2/3 214/2/3 213/2/3
f 229/3/3 213/3/3 228/3/3
f 230/2/3 210/2/3 214/2/3
f 230/2/3 214/2/3 229/2/3
f 231/3/3 227/3/3 224/3/3
f 232/3/3 227/3/3 231/3/3
f 233/3/3 227/3/3 232/3/3
f 235/2/3 229/2/3 228/2/3
f 236/2/3 229/2/3 235/2/3
f 238/2/3 233/2/3 232/2/3
f 239/2/3 233/2/3 238/2/3
f 240/2/3 235/2/3 234/2/3
f 241/2/3 235/2/3 240/2/3
f 242/2/3 238/2/3 237/2/3
f 243/2/3 238/2/3 242/2/3
f 246/1/3 245/1/3 244/1/3
f 248/1/3 247/1/3 246/1/3
f 250/1/3 249/1/3 248/1/3
f 251/1/3 249/1/3 250/1/3
f 252/1/3 249/1/3 251/1/3
f 253/1/3 249/1/3 252/1/3
f 254/1/3 250/1/3 248/1/3
f 255/1/3 250/1/3 254/1/3
f 256/1/3 246/1/3 244/1/3
f 256/1/3 248/1/3 246/1/3
f 256/1/3 254/1/3 248/1/3
f 257/1/3 254/1/3 256/1/3
f 258/1/3 254/1/3 257/1/3
f 259/1/3 254/1/3 258/1/3
f 260/1/3 254/1/3 259/1/3
f 261/1/3 254/1/3 260/1/3
f 262/1/3 252/1/3 251/1/3
f 263/1/3 252/1/3 262/1/3
f 264/1/3 249/1/3 253/1/3
f 265/1/3 249/1/3 264/1/3
f 266/1/3 260/1/3 259/1/3
f 267/1/3 260/1/3 266/1/3
f 268/1/3 249/1/3 265/1/3
f 269/1/3 249/1/3 268/1/3
f 270/1/3 266/1/3 259/1/3
f 271/1/3 266/1/3 270/1/3
f 272/1/3 270/1/3 259/1/3
f 273/1/3 270/1/3 272/1/3
f 274/1/3 270/1/3 273/1/3
f 279/1/3 249/1/3 269/1/3
f 280/1/3 275/1/3 274/1/3
f 280/1/3 274/1/3 273/1/3
f 281/1/3 275/1/3 280/1/3
f 284/1/3 277/1/3 276/1/3
f 285/1/3 277/1/3 284/1/3
f 286/1/3 277/1/3 285/1/3
f 287/1/3 279/1/3 278/1/3
f 288/1/3 280/1/3 273/1/3
f 289/1/3 280/1/3 288/1/3
f 290/1/3 275/1/3 281/1/3
f 291/1/3 283/1/3 282/1/3
f 292/1/3 283/1/3 291/1/3
f 293/1/3 285/1/3 284/1/3
f 294/1/3 285/1/3 293/1/3
f 295/1/3 287/1/3 286/1/3
f 296/1/3 279/1/3 287/1/3
f 296/1/3 287/1/3 295/1/3
f 297/1/3 249/1/3 279/1/3
f 297/1/3 279/1/3 296/1/3
f 298/1/3 291/1/3 290/1/3
f 299/1/3 294/1/3 293/1/3
f 299/1/3 296/1/3 295/1/3
f 299/1/3 295/1/3 294/1/3
f 299/1/3 293/1/3 292/1/3
f 300/1/3 296/1/3 299/1/3
f 300/1/3 299/1/3 298/1/3
f 301/1/3 296/1/3 300/1/3
f 302/1/3 300/1/3 298/1/3
f 303/1/3 300/1/3 302/1/3
f 304/1/3 290/1/3 281/1/3
f 304/1/3 298/1/3 290/1/3
f 304/1/3 302/1/3 298/1/3
f 305/1/3 302/1/3 304/1/3
f 306/1/4 307/1/4 309/1/4
f 307/4/4 308/4/4 309/4/4
f 309/4/4 308/4/4 310/4/4
f 309/1/4 310/1/4 311/1/4
f 310/4/4 308/4/4 311/4/4
f 311/4/4 308/4/4 312/4/4
f 311/1/4 312/1/4 313/1/4
f 312/4/4 308/4/4 313/4/4
f 313/4/4 308/4/4 314/4/4
f 306/1/4 309/1/4 315/1/4
f 309/1/4 311/1/4 315/1/4
f 313/1/4 314/1/4 315/1/4
f 311/1/4 313/1/4 315/1/4
f 315/1/4 314/1/4 316/1/4
f 316/1/4 314/1/4 317/1/4
f 317/1/4 314/1/4 318/1/4
f 318/1/4 314/1/4 319/1/4
f 319/1/4 314/1/4 320/1/4
f 320/1/4 314/1/4 321/1/4
f 321/1/4 314/1/4 322/1/4
f 320/1/4 321/1/4 323/1/4
f 323/1/4 321/1/4 324/1/4
f 322/1/4 314/1/4 325/1/4
f 325/1/4 314/1/4 326/1/4
f 326/1/4 314/1/4 327/1/4
f 322/1/4 325/1/4 328/1/4
f 328/1/4 325/1/4 329/1/4
f 322/1/4 328/1/4 330/1/4
f 330/1/4 328/1/4 331/1/4
f 322/1/4 330/1/4 332/1/4
f 332/1/4 330/1/4 333/1/4
f 326/4/4 327/4/4 334/4/4
f 334/4/4 327/4/4 335/4/4
f 338/1/5 337/1/5 336/1/5
f 339/1/5 337/1/5 338/1/5
f 342/1/5 341/1/5 340/1/5
f 343/1/5 341/1/5 342/1/5
f 346/1/5 345/1/5 344/1/5
f 347/1/5 345/1/5 346/1/5
f 350/4/5 349/4/5 348/4/5
f 351/4/5 349/4/5 350/4/5
f 354/1/5 353/1/5 352/1/5
f 355/1/5 353/1/5 354/1/5
f 358/4/5 357/4/5 356/4/5
f 359/4/5 357/4/5 358/4/5
f 362/1/5 361/1/5 360/1/5
f 363/1/5 361/1/5 362/1/5
f 366/2/5 365/2/5 364/2/5
f 367/2/5 365/2/5 366/2/5
f 372/2/5 369/2/5 368/2/5
f 373/2/5 369/2/5 372/2/5
f 374/2/5 371/2/5 370/2/5
f 375/2/5 371/2/5 374/2/5
f 376/2/5 372/2/5 368/2/5
f 377/2/5 372/2/5 376/2/5
f 378/2/5 371/2/5 375/2/5
f 379/2/5 371/2/5 378/2/5
f 384/2/5 381/2/5 380/2/5
f 385/2/5 381/2/5 384/2/5
f 386/2/5 383/2/5 382/2/5
f 387/2/5 383/2/5 386/2/5
f 392/4/5 389/4/5 388/4/5
f 393/4/5 389/4/5 392/4/5
f 396/2/5 391/2/5 390/2/5
f 397/2/5 391/2/5 396/2/5
f 398/2/5 395/2/5 394/2/5
f 399/2/5 395/2/5 398/2/5
f 402/2/5 401/2/5 400/2/5
f 403/2/5 401/2/5 402/2/5
f 406/2/5 405/2/5 404/2/5
f 407/2/5 405/2/5 406/2/5
f 412/2/5 409/2/5 408/2/5
f 413/2/5 409/2/5 412/2/5
f 414/2/5 411/2/5 410/2/5
f 415/2/5 411/2/5 414/2/5
f 418/4/5 417/4/5 416/4/5
f 419/4/5 417/4/5 418/4/5
f 420/4/5 417/4/5 419/4/5
f 421/4/5 417/4/5 420/4/5
f 422/4/5 417/4/5 421/4/5
f 423/4/5 417/4/5 422/4/5
f 424/1/6 425/1/6 426/1/6
f 426/1/6 425/1/6 427/1/6
f 428/2/6 429/2/6 432/2/6
f 432/2/6 429/2/6 433/2/6
f 430/2/6 431/2/6 434/2/6
f 434/2/6 431/2/6 435/2/6
f 435/2/6 431/2/6 436/2/6
f 435/2/6 436/2/6 437/2/6
f 437/2/6 436/2/6 438/2/6
f 439/2/6 440/2/6 441/2/6
f 441/2/6 440/2/6 442/2/6
f 443/3/6 444/3/6 445/3/6
f 445/3/6 444/3/6 446/3/6
f 447/3/6 448/3/6 450/3/6
f 448/2/6 449/2/6 451/2/6
f 450/3/6 448/3/6 451/3/6
f 451/2/6 449/2/6 452/2/6
f 453/1/6 454/1/6 455/1/6
f 455/1/6 454/1/6 456/1/6
f 457/2/6 458/2/6 459/2/6
f 459/2/6 458/2/6 460/2/6
f 461/4/6 462/4/6 463/4/6
f 463/4/6 462/4/6 464/4/6
f 465/2/6 466/2/6 467/2/6
f 467/2/6 466/2/6 468/2/6
f 469/1/6 470/1/6 471/1/6
f 471/1/6 470/1/6 472/1/6
f 473/2/6 474/2/6 477/2/6
f 477/2/6 474/2/6 478/2/6
f 475/2/6 476/2/6 479/2/6
f 479/2/6 476/2/6 480/2/6
f 481/2/6 482/2/6 483/2/6
f 483/2/6 482/2/6 484/2/6
f 485/1/6 486/1/6 487/1/6
f 487/1/6 486/1/6 488/1/6
f 489/2/6 490/2/6 491/2/6
f 491/2/6 490/2/6 492/2/6
f 493/4/6 494/4/6 496/4/6
f 495/4/6 496/4/6 497/4/6
f 496/4/6 494/4/6 498/4/6
f 497/4/6 496/4/6 498/4/6
f 495/4/6 497/4/6 499/4/6
f 497/1/6 498/1/6 500/1/6
f 499/4/6 497/4/6 500/4/6
f 498/4/6 494/4/6 501/4/6
f 500/1/6 498/1/6 501/1/6
f 501/4/6 494/4/6 502/4/6
