# MagicaVoxel @ Ephtracy

# group
o 

# material
mtllib Tower-1-3.mtl
usemtl palette

# normals
vn -1 0 0
vn 1 0 0
vn 0 0 1
vn 0 0 -1
vn 0 -1 0
vn 0 1 0

# texcoords
vt 0.970703 0.5
vt 0.974609 0.5
vt 0.978516 0.5
vt 0.986328 0.5

# verts
v -1.1 3.2 -0.6
v -1.1 3.2 -0.8
v -1.1 3.2 -1.3
v -1.1 3.2 -1.5
v -1.1 3.5 -1
v -1.1 3.5 -1.1
v -1.1 3.6 -0.9
v -1.1 3.6 -1
v -1.1 3.6 -1.1
v -1.1 3.6 -1.2
v -1.1 3.7 -0.9
v -1.1 3.7 -1
v -1.1 3.7 -1.1
v -1.1 3.7 -1.2
v -1.1 3.8 -1
v -1.1 3.8 -1.1
v -1.1 4.2 -0.6
v -1.1 4.2 -0.8
v -1.1 4.2 -1.3
v -1.1 4.2 -1.5
v -1 2.9 -0.6
v -1 2.9 -0.8
v -1 2.9 -1.3
v -1 2.9 -1.5
v -1 3.2 -0.6
v -1 3.2 -0.8
v -1 3.2 -1.3
v -1 3.2 -1.5
v -1 3.5 -1
v -1 3.5 -1.1
v -1 3.6 -0.9
v -1 3.6 -1
v -1 3.6 -1.1
v -1 3.6 -1.2
v -1 3.7 -0.9
v -1 3.7 -1
v -1 3.7 -1.1
v -1 3.7 -1.2
v -1 3.8 -1
v -1 3.8 -1.1
v -1 4.1 -0.8
v -1 4.1 -1.3
v -1 4.2 -0.6
v -1 4.2 -0.8
v -1 4.2 -1.3
v -1 4.2 -1.5
v -1 4.3 -0.6
v -1 4.3 -0.8
v -1 4.3 -1.3
v -1 4.3 -1.5
v -0.9 2.6 -0.6
v -0.9 2.6 -0.8
v -0.9 2.6 -1.3
v -0.9 2.6 -1.5
v -0.9 2.9 -0.6
v -0.9 2.9 -0.8
v -0.9 2.9 -1.3
v -0.9 2.9 -1.5
v -0.9 3.2 -0.8
v -0.9 3.2 -1.3
v -0.9 4.1 -0.8
v -0.9 4.1 -1.3
v -0.9 4.2 -0.8
v -0.9 4.2 -1
v -0.9 4.2 -1.1
v -0.9 4.2 -1.3
v -0.9 4.3 -0.6
v -0.9 4.3 -0.8
v -0.9 4.3 -1
v -0.9 4.3 -1.1
v -0.9 4.3 -1.3
v -0.9 4.3 -1.5
v -0.9 4.4 -0.6
v -0.9 4.4 -0.8
v -0.9 4.4 -1.3
v -0.9 4.4 -1.5
v -0.8 2.3 -0.6
v -0.8 2.3 -0.8
v -0.8 2.3 -1
v -0.8 2.3 -1.1
v -0.8 2.3 -1.3
v -0.8 2.3 -1.5
v -0.8 2.4 -0.9
v -0.8 2.4 -1
v -0.8 2.4 -1.1
v -0.8 2.4 -1.2
v -0.8 2.5 -0.9
v -0.8 2.5 -1
v -0.8 2.5 -1.1
v -0.8 2.5 -1.2
v -0.8 2.6 -0.6
v -0.8 2.6 -0.8
v -0.8 2.6 -1
v -0.8 2.6 -1.1
v -0.8 2.6 -1.3
v -0.8 2.6 -1.5
v -0.8 2.9 -0.8
v -0.8 2.9 -1.3
v -0.8 4.2 -0.8
v -0.8 4.2 -1
v -0.8 4.2 -1.1
v -0.8 4.2 -1.3
v -0.8 4.3 -0.8
v -0.8 4.3 -0.9
v -0.8 4.3 -1
v -0.8 4.3 -1.1
v -0.8 4.3 -1.2
v -0.8 4.3 -1.3
v -0.8 4.4 -0.6
v -0.8 4.4 -0.8
v -0.8 4.4 -0.9
v -0.8 4.4 -1.2
v -0.8 4.4 -1.3
v -0.8 4.4 -1.5
v -0.8 4.5 -0.6
v -0.8 4.5 -0.8
v -0.8 4.5 -1.3
v -0.8 4.5 -1.5
v -0.7 2 -0.6
v -0.7 2 -0.8
v -0.7 2 -1.3
v -0.7 2 -1.5
v -0.7 2.3 -0.6
v -0.7 2.3 -0.8
v -0.7 2.3 -1
v -0.7 2.3 -1.1
v -0.7 2.3 -1.3
v -0.7 2.3 -1.5
v -0.7 2.4 -0.9
v -0.7 2.4 -1
v -0.7 2.4 -1.1
v -0.7 2.4 -1.2
v -0.7 2.5 -0.9
v -0.7 2.5 -1
v -0.7 2.5 -1.1
v -0.7 2.5 -1.2
v -0.7 2.6 -0.8
v -0.7 2.6 -1
v -0.7 2.6 -1.1
v -0.7 2.6 -1.3
v -0.7 4.3 -0.8
v -0.7 4.3 -0.9
v -0.7 4.3 -1.2
v -0.7 4.3 -1.3
v -0.7 4.4 -0.8
v -0.7 4.4 -0.9
v -0.7 4.4 -1
v -0.7 4.4 -1.1
v -0.7 4.4 -1.2
v -0.7 4.4 -1.3
v -0.7 4.5 -0.6
v -0.7 4.5 -0.8
v -0.7 4.5 -1
v -0.7 4.5 -1.1
v -0.7 4.5 -1.3
v -0.7 4.5 -1.5
v -0.7 4.6 -0.6
v -0.7 4.6 -0.8
v -0.7 4.6 -1.3
v -0.7 4.6 -1.5
v -0.6 1.7 -0.6
v -0.6 1.7 -0.8
v -0.6 1.7 -1.3
v -0.6 1.7 -1.5
v -0.6 2 -0.6
v -0.6 2 -0.8
v -0.6 2 -1.3
v -0.6 2 -1.5
v -0.6 2.3 -0.8
v -0.6 2.3 -1.3
v -0.6 4.4 -0.8
v -0.6 4.4 -1
v -0.6 4.4 -1.1
v -0.6 4.4 -1.3
v -0.6 4.5 -0.8
v -0.6 4.5 -1
v -0.6 4.5 -1.1
v -0.6 4.5 -1.3
v -0.6 4.6 -0.6
v -0.6 4.6 -0.8
v -0.6 4.6 -1.3
v -0.6 4.6 -1.5
v -0.6 4.7 -0.6
v -0.6 4.7 -0.8
v -0.6 4.7 -1.3
v -0.6 4.7 -1.5
v -0.5 1.4 -0.6
v -0.5 1.4 -0.8
v -0.5 1.4 -1.3
v -0.5 1.4 -1.5
v -0.5 1.7 -0.6
v -0.5 1.7 -0.8
v -0.5 1.7 -1.3
v -0.5 1.7 -1.5
v -0.5 2 -0.8
v -0.5 2 -1.3
v -0.5 4.5 -0.8
v -0.5 4.5 -1.3
v -0.5 4.6 -0.8
v -0.5 4.6 -1.3
v -0.4 1.3 -0.6
v -0.4 1.3 -0.8
v -0.4 1.3 -1.3
v -0.4 1.3 -1.5
v -0.4 1.4 -0.6
v -0.4 1.4 -0.8
v -0.4 1.4 -1.3
v -0.4 1.4 -1.5
v -0.4 1.5 -0.8
v -0.4 1.5 -1.3
v -0.4 1.7 -0.8
v -0.4 1.7 -1.3
v -0.3 1.4 -0.8
v -0.3 1.4 -1.3
v -0.3 1.5 -0.8
v -0.3 1.5 -1.3
v -0.2 4.6 -1
v -0.2 4.6 -1.1
v -0.2 4.7 -1
v -0.2 4.7 -1.1
v -0.1 4.6 -0.9
v -0.1 4.6 -1
v -0.1 4.6 -1.1
v -0.1 4.6 -1.2
v -0.1 4.7 -0.9
v -0.1 4.7 -1
v -0.1 4.7 -1.1
v -0.1 4.7 -1.2
v 0.3 1.5 -0.6
v 0.3 1.5 -0.8
v 0.3 1.5 -1.3
v 0.3 1.7 -0.6
v 0.3 1.7 -0.8
v 0.3 1.7 -1.3
v 0.4 1.7 -0.6
v 0.4 1.7 -0.8
v 0.4 1.7 -1.3
v 0.4 2 -0.6
v 0.4 2 -0.8
v 0.4 2 -1.3
v 0.5 2 -0.6
v 0.5 2 -0.8
v 0.5 2 -1.3
v 0.5 2.3 -0.6
v 0.5 2.3 -0.8
v 0.5 2.3 -1.3
v 0.5 4.4 -0.6
v 0.5 4.4 -0.8
v 0.5 4.4 -1.3
v 0.5 4.5 -0.6
v 0.5 4.5 -0.8
v 0.5 4.5 -1.3
v 0.6 2.3 -0.6
v 0.6 2.3 -0.8
v 0.6 2.3 -1.3
v 0.6 2.6 -0.6
v 0.6 2.6 -0.8
v 0.6 2.6 -1.3
v 0.6 4.3 -0.6
v 0.6 4.3 -0.8
v 0.6 4.3 -1.3
v 0.6 4.4 -0.6
v 0.6 4.4 -0.8
v 0.6 4.4 -1.3
v 0.7 2.6 -0.6
v 0.7 2.6 -0.8
v 0.7 2.6 -1.3
v 0.7 2.9 -0.6
v 0.7 2.9 -0.8
v 0.7 2.9 -1.3
v 0.7 4.2 -0.6
v 0.7 4.2 -0.8
v 0.7 4.2 -1.3
v 0.7 4.3 -0.6
v 0.7 4.3 -0.8
v 0.7 4.3 -1.3
v 0.8 2.9 -0.6
v 0.8 2.9 -0.8
v 0.8 2.9 -1.3
v 0.8 3.2 -0.6
v 0.8 3.2 -0.8
v 0.8 3.2 -1.3
v 0.8 4.1 -0.6
v 0.8 4.1 -0.8
v 0.8 4.1 -1.3
v 0.8 4.2 -0.6
v 0.8 4.2 -0.8
v 0.8 4.2 -1.3
v 0.9 3.2 -0.6
v 0.9 3.2 -0.8
v 0.9 3.2 -1.3
v 0.9 4.1 -0.6
v 0.9 4.1 -0.8
v 0.9 4.1 -1.3
v 1.1 1.3 0.8
v 1.1 1.3 0
v 1.1 1.4 0.9
v 1.1 1.4 0.8
v 1.1 1.4 0
v 1.1 1.4 -0.1
v 1.1 1.5 0.7
v 1.1 1.5 0.1
v 1.1 1.7 1
v 1.1 1.7 0.9
v 1.1 1.7 0.8
v 1.1 1.7 0.7
v 1.1 1.7 0.1
v 1.1 1.7 0
v 1.1 1.7 -0.1
v 1.1 1.7 -0.2
v 1.1 2 1.1
v 1.1 2 1
v 1.1 2 0.9
v 1.1 2 0.8
v 1.1 2 0
v 1.1 2 -0.1
v 1.1 2 -0.2
v 1.1 2 -0.3
v 1.1 2.3 1.2
v 1.1 2.3 1.1
v 1.1 2.3 1
v 1.1 2.3 0.9
v 1.1 2.3 -0.1
v 1.1 2.3 -0.2
v 1.1 2.3 -0.3
v 1.1 2.3 -0.4
v 1.1 2.6 1.3
v 1.1 2.6 1.2
v 1.1 2.6 1.1
v 1.1 2.6 1
v 1.1 2.6 -0.2
v 1.1 2.6 -0.3
v 1.1 2.6 -0.4
v 1.1 2.6 -0.5
v 1.1 2.9 1.4
v 1.1 2.9 1.3
v 1.1 2.9 1.2
v 1.1 2.9 1.1
v 1.1 2.9 -0.3
v 1.1 2.9 -0.4
v 1.1 2.9 -0.5
v 1.1 2.9 -0.6
v 1.1 3.2 1.5
v 1.1 3.2 1.4
v 1.1 3.2 1.3
v 1.1 3.2 1.2
v 1.1 3.2 -0.4
v 1.1 3.2 -0.5
v 1.1 3.2 -0.6
v 1.1 4.1 1.3
v 1.1 4.1 1.2
v 1.1 4.1 -0.4
v 1.1 4.1 -0.5
v 1.1 4.2 1.5
v 1.1 4.2 1.4
v 1.1 4.2 1.2
v 1.1 4.2 1.1
v 1.1 4.2 -0.3
v 1.1 4.2 -0.4
v 1.1 4.2 -0.6
v 1.1 4.3 1.4
v 1.1 4.3 1.3
v 1.1 4.3 1.1
v 1.1 4.3 1
v 1.1 4.3 -0.2
v 1.1 4.3 -0.3
v 1.1 4.3 -0.5
v 1.1 4.3 -0.6
v 1.1 4.4 1.3
v 1.1 4.4 1.2
v 1.1 4.4 1
v 1.1 4.4 0.9
v 1.1 4.4 -0.1
v 1.1 4.4 -0.2
v 1.1 4.4 -0.4
v 1.1 4.4 -0.5
v 1.1 4.5 1.2
v 1.1 4.5 1.1
v 1.1 4.5 0.9
v 1.1 4.5 -0.1
v 1.1 4.5 -0.3
v 1.1 4.5 -0.4
v 1.1 4.6 1.1
v 1.1 4.6 1
v 1.1 4.6 -0.2
v 1.1 4.6 -0.3
v 1.1 4.7 1
v 1.1 4.7 -0.2
v -0.9 3.2 -0.6
v -0.9 3.2 -0.8
v -0.9 3.2 -1.3
v -0.9 4.1 -0.6
v -0.9 4.1 -0.8
v -0.9 4.1 -1.3
v -0.8 2.9 -0.6
v -0.8 2.9 -0.8
v -0.8 2.9 -1.3
v -0.8 3.2 -0.6
v -0.8 3.2 -0.8
v -0.8 3.2 -1.3
v -0.8 4.1 -0.6
v -0.8 4.1 -0.8
v -0.8 4.1 -1.3
v -0.8 4.2 -0.6
v -0.8 4.2 -0.8
v -0.8 4.2 -1.3
v -0.7 2.6 -0.6
v -0.7 2.6 -0.8
v -0.7 2.6 -1.3
v -0.7 2.9 -0.6
v -0.7 2.9 -0.8
v -0.7 2.9 -1.3
v -0.7 4.2 -0.6
v -0.7 4.2 -0.8
v -0.7 4.2 -1.3
v -0.7 4.3 -0.6
v -0.7 4.3 -0.8
v -0.7 4.3 -1.3
v -0.6 2.3 -0.6
v -0.6 2.3 -0.8
v -0.6 2.3 -1.3
v -0.6 2.6 -0.6
v -0.6 2.6 -0.8
v -0.6 2.6 -1.3
v -0.6 4.3 -0.6
v -0.6 4.3 -0.8
v -0.6 4.3 -1.3
v -0.6 4.4 -0.6
v -0.6 4.4 -0.8
v -0.6 4.4 -1.3
v -0.5 2 -0.6
v -0.5 2 -0.8
v -0.5 2 -1.3
v -0.5 2.3 -0.6
v -0.5 2.3 -0.8
v -0.5 2.3 -1.3
v -0.5 4.4 -0.6
v -0.5 4.4 -0.8
v -0.5 4.4 -1.3
v -0.5 4.5 -0.6
v -0.5 4.5 -0.8
v -0.5 4.5 -1.3
v -0.4 1.7 -0.6
v -0.4 1.7 -0.8
v -0.4 1.7 -1.3
v -0.4 2 -0.6
v -0.4 2 -0.8
v -0.4 2 -1.3
v -0.3 1.5 -0.6
v -0.3 1.5 -0.8
v -0.3 1.5 -1.3
v -0.3 1.7 -0.6
v -0.3 1.7 -0.8
v -0.3 1.7 -1.3
v 0.1 4.6 -0.9
v 0.1 4.6 -1
v 0.1 4.6 -1.1
v 0.1 4.6 -1.2
v 0.1 4.7 -0.9
v 0.1 4.7 -1
v 0.1 4.7 -1.1
v 0.1 4.7 -1.2
v 0.2 4.6 -1
v 0.2 4.6 -1.1
v 0.2 4.7 -1
v 0.2 4.7 -1.1
v 0.3 1.4 -0.8
v 0.3 1.4 -1.3
v 0.3 1.5 -0.8
v 0.3 1.5 -1.3
v 0.4 1.3 -0.6
v 0.4 1.3 -0.8
v 0.4 1.3 -1.3
v 0.4 1.3 -1.5
v 0.4 1.4 -0.6
v 0.4 1.4 -0.8
v 0.4 1.4 -1.3
v 0.4 1.4 -1.5
v 0.4 1.5 -0.8
v 0.4 1.5 -1.3
v 0.4 1.7 -0.8
v 0.4 1.7 -1.3
v 0.5 1.4 -0.6
v 0.5 1.4 -0.8
v 0.5 1.4 -1.3
v 0.5 1.4 -1.5
v 0.5 1.7 -0.6
v 0.5 1.7 -0.8
v 0.5 1.7 -1.3
v 0.5 1.7 -1.5
v 0.5 2 -0.8
v 0.5 2 -1.3
v 0.5 4.5 -0.8
v 0.5 4.5 -1.3
v 0.5 4.6 -0.8
v 0.5 4.6 -1.3
v 0.6 1.7 -0.6
v 0.6 1.7 -0.8
v 0.6 1.7 -1.3
v 0.6 1.7 -1.5
v 0.6 2 -0.6
v 0.6 2 -0.8
v 0.6 2 -1.3
v 0.6 2 -1.5
v 0.6 2.3 -0.8
v 0.6 2.3 -1.3
v 0.6 4.4 -0.8
v 0.6 4.4 -1
v 0.6 4.4 -1.1
v 0.6 4.4 -1.3
v 0.6 4.5 -0.8
v 0.6 4.5 -1
v 0.6 4.5 -1.1
v 0.6 4.5 -1.3
v 0.6 4.6 -0.6
v 0.6 4.6 -0.8
v 0.6 4.6 -1.3
v 0.6 4.6 -1.5
v 0.6 4.7 -0.6
v 0.6 4.7 -0.8
v 0.6 4.7 -1.3
v 0.6 4.7 -1.5
v 0.7 2 -0.6
v 0.7 2 -0.8
v 0.7 2 -1.3
v 0.7 2 -1.5
v 0.7 2.3 -0.6
v 0.7 2.3 -0.8
v 0.7 2.3 -1
v 0.7 2.3 -1.1
v 0.7 2.3 -1.3
v 0.7 2.3 -1.5
v 0.7 2.4 -0.9
v 0.7 2.4 -1
v 0.7 2.4 -1.1
v 0.7 2.4 -1.2
v 0.7 2.5 -0.9
v 0.7 2.5 -1
v 0.7 2.5 -1.1
v 0.7 2.5 -1.2
v 0.7 2.6 -0.8
v 0.7 2.6 -1
v 0.7 2.6 -1.1
v 0.7 2.6 -1.3
v 0.7 4.3 -0.8
v 0.7 4.3 -0.9
v 0.7 4.3 -1.2
v 0.7 4.3 -1.3
v 0.7 4.4 -0.8
v 0.7 4.4 -0.9
v 0.7 4.4 -1
v 0.7 4.4 -1.1
v 0.7 4.4 -1.2
v 0.7 4.4 -1.3
v 0.7 4.5 -0.6
v 0.7 4.5 -0.8
v 0.7 4.5 -1
v 0.7 4.5 -1.1
v 0.7 4.5 -1.3
v 0.7 4.5 -1.5
v 0.7 4.6 -0.6
v 0.7 4.6 -0.8
v 0.7 4.6 -1.3
v 0.7 4.6 -1.5
v 0.8 2.3 -0.6
v 0.8 2.3 -0.8
v 0.8 2.3 -1
v 0.8 2.3 -1.1
v 0.8 2.3 -1.3
v 0.8 2.3 -1.5
v 0.8 2.4 -0.9
v 0.8 2.4 -1
v 0.8 2.4 -1.1
v 0.8 2.4 -1.2
v 0.8 2.5 -0.9
v 0.8 2.5 -1
v 0.8 2.5 -1.1
v 0.8 2.5 -1.2
v 0.8 2.6 -0.6
v 0.8 2.6 -0.8
v 0.8 2.6 -1
v 0.8 2.6 -1.1
v 0.8 2.6 -1.3
v 0.8 2.6 -1.5
v 0.8 2.9 -0.8
v 0.8 2.9 -1.3
v 0.8 4.2 -0.8
v 0.8 4.2 -1
v 0.8 4.2 -1.1
v 0.8 4.2 -1.3
v 0.8 4.3 -0.8
v 0.8 4.3 -0.9
v 0.8 4.3 -1
v 0.8 4.3 -1.1
v 0.8 4.3 -1.2
v 0.8 4.3 -1.3
v 0.8 4.4 -0.6
v 0.8 4.4 -0.8
v 0.8 4.4 -0.9
v 0.8 4.4 -1.2
v 0.8 4.4 -1.3
v 0.8 4.4 -1.5
v 0.8 4.5 -0.6
v 0.8 4.5 -0.8
v 0.8 4.5 -1.3
v 0.8 4.5 -1.5
v 0.9 2.6 -0.6
v 0.9 2.6 -0.8
v 0.9 2.6 -1.3
v 0.9 2.6 -1.5
v 0.9 2.9 -0.6
v 0.9 2.9 -0.8
v 0.9 2.9 -1.3
v 0.9 2.9 -1.5
v 0.9 3.2 -0.8
v 0.9 3.2 -1.3
v 0.9 4.1 -0.8
v 0.9 4.1 -1.3
v 0.9 4.2 -0.8
v 0.9 4.2 -1
v 0.9 4.2 -1.1
v 0.9 4.2 -1.3
v 0.9 4.3 -0.6
v 0.9 4.3 -0.8
v 0.9 4.3 -1
v 0.9 4.3 -1.1
v 0.9 4.3 -1.3
v 0.9 4.3 -1.5
v 0.9 4.4 -0.6
v 0.9 4.4 -0.8
v 0.9 4.4 -1.3
v 0.9 4.4 -1.5
v 1 2.9 -0.6
v 1 2.9 -0.8
v 1 2.9 -1.3
v 1 2.9 -1.5
v 1 3.2 -0.6
v 1 3.2 -0.8
v 1 3.2 -1.3
v 1 3.2 -1.5
v 1 3.5 -1
v 1 3.5 -1.1
v 1 3.6 -0.9
v 1 3.6 -1
v 1 3.6 -1.1
v 1 3.6 -1.2
v 1 3.7 -0.9
v 1 3.7 -1
v 1 3.7 -1.1
v 1 3.7 -1.2
v 1 3.8 -1
v 1 3.8 -1.1
v 1 4.1 -0.8
v 1 4.1 -1.3
v 1 4.2 -0.6
v 1 4.2 -0.8
v 1 4.2 -1.3
v 1 4.2 -1.5
v 1 4.3 -0.6
v 1 4.3 -0.8
v 1 4.3 -1.3
v 1 4.3 -1.5
v 1.1 3.2 -0.7
v 1.1 3.2 -0.8
v 1.1 3.2 -1.3
v 1.1 3.2 -1.5
v 1.1 3.3 -0.7
v 1.1 3.3 -0.8
v 1.1 3.5 -1
v 1.1 3.5 -1.1
v 1.1 3.6 -0.7
v 1.1 3.6 -0.8
v 1.1 3.6 -0.9
v 1.1 3.6 -1
v 1.1 3.6 -1.1
v 1.1 3.6 -1.2
v 1.1 3.7 -0.9
v 1.1 3.7 -1
v 1.1 3.7 -1.1
v 1.1 3.7 -1.2
v 1.1 3.8 -0.7
v 1.1 3.8 -0.8
v 1.1 3.8 -1
v 1.1 3.8 -1.1
v 1.1 4.1 -0.7
v 1.1 4.1 -0.8
v 1.1 4.2 -0.7
v 1.1 4.2 -0.8
v 1.1 4.2 -1.3
v 1.1 4.2 -1.5
v 1.2 3.3 -0.7
v 1.2 3.3 -0.8
v 1.2 3.6 -0.7
v 1.2 3.6 -0.8
v 1.2 3.8 -0.7
v 1.2 3.8 -0.8
v 1.2 4.1 -0.7
v 1.2 4.1 -0.8
v 1.3 1.3 0.8
v 1.3 1.3 0
v 1.3 1.4 0.9
v 1.3 1.4 0.8
v 1.3 1.4 0
v 1.3 1.4 -0.1
v 1.3 1.5 0.7
v 1.3 1.5 0.1
v 1.3 1.7 1
v 1.3 1.7 0.9
v 1.3 1.7 0.8
v 1.3 1.7 0.7
v 1.3 1.7 0.1
v 1.3 1.7 0
v 1.3 1.7 -0.1
v 1.3 1.7 -0.2
v 1.3 2 1.1
v 1.3 2 1
v 1.3 2 0.9
v 1.3 2 0.8
v 1.3 2 0
v 1.3 2 -0.1
v 1.3 2 -0.2
v 1.3 2 -0.3
v 1.3 2.3 1.2
v 1.3 2.3 1.1
v 1.3 2.3 1
v 1.3 2.3 0.9
v 1.3 2.3 -0.1
v 1.3 2.3 -0.2
v 1.3 2.3 -0.3
v 1.3 2.3 -0.4
v 1.3 2.6 1.3
v 1.3 2.6 1.2
v 1.3 2.6 1.1
v 1.3 2.6 1
v 1.3 2.6 -0.2
v 1.3 2.6 -0.3
v 1.3 2.6 -0.4
v 1.3 2.6 -0.5
v 1.3 2.9 1.4
v 1.3 2.9 1.3
v 1.3 2.9 1.2
v 1.3 2.9 1.1
v 1.3 2.9 0.6
v 1.3 2.9 0.2
v 1.3 2.9 -0.3
v 1.3 2.9 -0.4
v 1.3 2.9 -0.5
v 1.3 2.9 -0.6
v 1.3 3.1 0.7
v 1.3 3.1 0.6
v 1.3 3.1 0.2
v 1.3 3.1 0.1
v 1.3 3.2 1.5
v 1.3 3.2 1.4
v 1.3 3.2 1.3
v 1.3 3.2 1.2
v 1.3 3.2 0.8
v 1.3 3.2 0.7
v 1.3 3.2 0.1
v 1.3 3.2 0
v 1.3 3.2 -0.4
v 1.3 3.2 -0.5
v 1.3 3.2 -0.6
v 1.3 3.2 -0.7
v 1.3 3.3 0.6
v 1.3 3.3 0.5
v 1.3 3.3 0.3
v 1.3 3.3 0.2
v 1.3 3.4 0.9
v 1.3 3.4 0.8
v 1.3 3.4 0.7
v 1.3 3.4 0.6
v 1.3 3.4 0.2
v 1.3 3.4 0.1
v 1.3 3.4 0
v 1.3 3.4 -0.1
v 1.3 3.6 0.7
v 1.3 3.6 0.5
v 1.3 3.6 0.3
v 1.3 3.6 0.1
v 1.3 3.7 0.9
v 1.3 3.7 0.8
v 1.3 3.7 0
v 1.3 3.7 -0.1
v 1.3 3.9 0.8
v 1.3 3.9 0.6
v 1.3 3.9 0.2
v 1.3 3.9 0
v 1.3 4 0.6
v 1.3 4 0.2
v 1.3 4.1 1.3
v 1.3 4.1 1.2
v 1.3 4.1 -0.4
v 1.3 4.1 -0.5
v 1.3 4.2 1.5
v 1.3 4.2 1.4
v 1.3 4.2 1.2
v 1.3 4.2 1.1
v 1.3 4.2 -0.3
v 1.3 4.2 -0.4
v 1.3 4.2 -0.6
v 1.3 4.2 -0.7
v 1.3 4.3 1.4
v 1.3 4.3 1.3
v 1.3 4.3 1.1
v 1.3 4.3 1
v 1.3 4.3 -0.2
v 1.3 4.3 -0.3
v 1.3 4.3 -0.5
v 1.3 4.3 -0.6
v 1.3 4.4 1.3
v 1.3 4.4 1.2
v 1.3 4.4 1
v 1.3 4.4 0.9
v 1.3 4.4 -0.1
v 1.3 4.4 -0.2
v 1.3 4.4 -0.4
v 1.3 4.4 -0.5
v 1.3 4.5 1.2
v 1.3 4.5 1.1
v 1.3 4.5 0.9
v 1.3 4.5 -0.1
v 1.3 4.5 -0.3
v 1.3 4.5 -0.4
v 1.3 4.6 1.1
v 1.3 4.6 1
v 1.3 4.6 -0.2
v 1.3 4.6 -0.3
v 1.3 4.7 1
v 1.3 4.7 -0.2
v 1.4 2.9 0.6
v 1.4 2.9 0.2
v 1.4 3.1 0.7
v 1.4 3.1 0.6
v 1.4 3.1 0.2
v 1.4 3.1 0.1
v 1.4 3.2 0.8
v 1.4 3.2 0.7
v 1.4 3.2 0.1
v 1.4 3.2 0
v 1.4 3.3 0.6
v 1.4 3.3 0.5
v 1.4 3.3 0.3
v 1.4 3.3 0.2
v 1.4 3.4 0.9
v 1.4 3.4 0.8
v 1.4 3.4 0.7
v 1.4 3.4 0.6
v 1.4 3.4 0.2
v 1.4 3.4 0.1
v 1.4 3.4 0
v 1.4 3.4 -0.1
v 1.4 3.6 0.7
v 1.4 3.6 0.5
v 1.4 3.6 0.3
v 1.4 3.6 0.1
v 1.4 3.7 0.9
v 1.4 3.7 0.8
v 1.4 3.7 0
v 1.4 3.7 -0.1
v 1.4 3.9 0.8
v 1.4 3.9 0.6
v 1.4 3.9 0.2
v 1.4 3.9 0
v 1.4 4 0.6
v 1.4 4 0.2
v 1.1 3.2 1.5
v 1.1 4.2 1.5
v 1.3 3.2 1.5
v 1.3 4.2 1.5
v 1.1 2.9 1.4
v 1.1 3.2 1.4
v 1.1 4.2 1.4
v 1.1 4.3 1.4
v 1.3 2.9 1.4
v 1.3 3.2 1.4
v 1.3 4.2 1.4
v 1.3 4.3 1.4
v 1.1 2.6 1.3
v 1.1 2.9 1.3
v 1.1 4.3 1.3
v 1.1 4.4 1.3
v 1.3 2.6 1.3
v 1.3 2.9 1.3
v 1.3 4.3 1.3
v 1.3 4.4 1.3
v 1.1 2.3 1.2
v 1.1 2.6 1.2
v 1.1 4.4 1.2
v 1.1 4.5 1.2
v 1.3 2.3 1.2
v 1.3 2.6 1.2
v 1.3 4.4 1.2
v 1.3 4.5 1.2
v 1.1 2 1.1
v 1.1 2.3 1.1
v 1.1 4.5 1.1
v 1.1 4.6 1.1
v 1.3 2 1.1
v 1.3 2.3 1.1
v 1.3 4.5 1.1
v 1.3 4.6 1.1
v 1.1 1.7 1
v 1.1 2 1
v 1.1 4.6 1
v 1.1 4.7 1
v 1.3 1.7 1
v 1.3 2 1
v 1.3 4.6 1
v 1.3 4.7 1
v 1.1 1.4 0.9
v 1.1 1.7 0.9
v 1.3 1.4 0.9
v 1.3 1.7 0.9
v 1.3 3.4 0.9
v 1.3 3.7 0.9
v 1.4 3.4 0.9
v 1.4 3.7 0.9
v 1.1 1.3 0.8
v 1.1 1.4 0.8
v 1.3 1.3 0.8
v 1.3 1.4 0.8
v 1.3 3.2 0.8
v 1.3 3.4 0.8
v 1.3 3.7 0.8
v 1.3 3.9 0.8
v 1.4 3.2 0.8
v 1.4 3.4 0.8
v 1.4 3.7 0.8
v 1.4 3.9 0.8
v 1.3 3.1 0.7
v 1.3 3.2 0.7
v 1.4 3.1 0.7
v 1.4 3.2 0.7
v 1.3 2.9 0.6
v 1.3 3.1 0.6
v 1.3 3.9 0.6
v 1.3 4 0.6
v 1.4 2.9 0.6
v 1.4 3.1 0.6
v 1.4 3.9 0.6
v 1.4 4 0.6
v 1.3 3.3 0.5
v 1.3 3.6 0.5
v 1.4 3.3 0.5
v 1.4 3.6 0.5
v 1.3 3.3 0.2
v 1.3 3.4 0.2
v 1.4 3.3 0.2
v 1.4 3.4 0.2
v 1.3 3.4 0.1
v 1.3 3.6 0.1
v 1.4 3.4 0.1
v 1.4 3.6 0.1
v -1.1 3.2 -0.6
v -1.1 4.2 -0.6
v -1 2.9 -0.6
v -1 3.2 -0.6
v -1 4.2 -0.6
v -1 4.3 -0.6
v -0.9 2.6 -0.6
v -0.9 2.9 -0.6
v -0.9 3.2 -0.6
v -0.9 4.1 -0.6
v -0.9 4.3 -0.6
v -0.9 4.4 -0.6
v -0.8 2.3 -0.6
v -0.8 2.6 -0.6
v -0.8 2.9 -0.6
v -0.8 3.2 -0.6
v -0.8 4.1 -0.6
v -0.8 4.2 -0.6
v -0.8 4.4 -0.6
v -0.8 4.5 -0.6
v -0.7 2 -0.6
v -0.7 2.3 -0.6
v -0.7 2.6 -0.6
v -0.7 2.9 -0.6
v -0.7 4.2 -0.6
v -0.7 4.3 -0.6
v -0.7 4.5 -0.6
v -0.7 4.6 -0.6
v -0.6 1.7 -0.6
v -0.6 2 -0.6
v -0.6 2.3 -0.6
v -0.6 2.6 -0.6
v -0.6 4.3 -0.6
v -0.6 4.4 -0.6
v -0.6 4.6 -0.6
v -0.6 4.7 -0.6
v -0.5 1.4 -0.6
v -0.5 1.7 -0.6
v -0.5 2 -0.6
v -0.5 2.3 -0.6
v -0.5 4.4 -0.6
v -0.5 4.5 -0.6
v -0.4 1.3 -0.6
v -0.4 1.4 -0.6
v -0.4 1.7 -0.6
v -0.4 2 -0.6
v -0.3 1.5 -0.6
v -0.3 1.7 -0.6
v 0.3 1.5 -0.6
v 0.3 1.7 -0.6
v 0.4 1.3 -0.6
v 0.4 1.4 -0.6
v 0.4 1.7 -0.6
v 0.4 2 -0.6
v 0.5 1.4 -0.6
v 0.5 1.7 -0.6
v 0.5 2 -0.6
v 0.5 2.3 -0.6
v 0.5 4.4 -0.6
v 0.5 4.5 -0.6
v 0.6 1.7 -0.6
v 0.6 2 -0.6
v 0.6 2.3 -0.6
v 0.6 2.6 -0.6
v 0.6 4.3 -0.6
v 0.6 4.4 -0.6
v 0.6 4.6 -0.6
v 0.6 4.7 -0.6
v 0.7 2 -0.6
v 0.7 2.3 -0.6
v 0.7 2.6 -0.6
v 0.7 2.9 -0.6
v 0.7 4.2 -0.6
v 0.7 4.3 -0.6
v 0.7 4.5 -0.6
v 0.7 4.6 -0.6
v 0.8 2.3 -0.6
v 0.8 2.6 -0.6
v 0.8 2.9 -0.6
v 0.8 3.2 -0.6
v 0.8 4.1 -0.6
v 0.8 4.2 -0.6
v 0.8 4.4 -0.6
v 0.8 4.5 -0.6
v 0.9 2.6 -0.6
v 0.9 2.9 -0.6
v 0.9 3.2 -0.6
v 0.9 4.1 -0.6
v 0.9 4.3 -0.6
v 0.9 4.4 -0.6
v 1 2.9 -0.6
v 1 3.2 -0.6
v 1 4.2 -0.6
v 1 4.3 -0.6
v 1.1 3.2 -0.6
v 1.1 4.2 -0.6
v -1.1 3.6 -0.9
v -1.1 3.7 -0.9
v -1 3.6 -0.9
v -1 3.7 -0.9
v -0.8 2.4 -0.9
v -0.8 2.5 -0.9
v -0.8 4.3 -0.9
v -0.8 4.4 -0.9
v -0.7 2.4 -0.9
v -0.7 2.5 -0.9
v -0.7 4.3 -0.9
v -0.7 4.4 -0.9
v -0.1 4.6 -0.9
v -0.1 4.7 -0.9
v 0.1 4.6 -0.9
v 0.1 4.7 -0.9
v 0.7 2.4 -0.9
v 0.7 2.5 -0.9
v 0.7 4.3 -0.9
v 0.7 4.4 -0.9
v 0.8 2.4 -0.9
v 0.8 2.5 -0.9
v 0.8 4.3 -0.9
v 0.8 4.4 -0.9
v 1 3.6 -0.9
v 1 3.7 -0.9
v 1.1 3.6 -0.9
v 1.1 3.7 -0.9
v -1.1 3.5 -1
v -1.1 3.6 -1
v -1.1 3.7 -1
v -1.1 3.8 -1
v -1 3.5 -1
v -1 3.6 -1
v -1 3.7 -1
v -1 3.8 -1
v -0.9 4.2 -1
v -0.9 4.3 -1
v -0.8 2.3 -1
v -0.8 2.4 -1
v -0.8 2.5 -1
v -0.8 2.6 -1
v -0.8 4.2 -1
v -0.8 4.3 -1
v -0.7 2.3 -1
v -0.7 2.4 -1
v -0.7 2.5 -1
v -0.7 2.6 -1
v -0.7 4.4 -1
v -0.7 4.5 -1
v -0.6 4.4 -1
v -0.6 4.5 -1
v -0.2 4.6 -1
v -0.2 4.7 -1
v -0.1 4.6 -1
v -0.1 4.7 -1
v 0.1 4.6 -1
v 0.1 4.7 -1
v 0.2 4.6 -1
v 0.2 4.7 -1
v 0.6 4.4 -1
v 0.6 4.5 -1
v 0.7 2.3 -1
v 0.7 2.4 -1
v 0.7 2.5 -1
v 0.7 2.6 -1
v 0.7 4.4 -1
v 0.7 4.5 -1
v 0.8 2.3 -1
v 0.8 2.4 -1
v 0.8 2.5 -1
v 0.8 2.6 -1
v 0.8 4.2 -1
v 0.8 4.3 -1
v 0.9 4.2 -1
v 0.9 4.3 -1
v 1 3.5 -1
v 1 3.6 -1
v 1 3.7 -1
v 1 3.8 -1
v 1.1 3.5 -1
v 1.1 3.6 -1
v 1.1 3.7 -1
v 1.1 3.8 -1
v -1.1 3.2 -1.3
v -1.1 4.2 -1.3
v -1 2.9 -1.3
v -1 3.2 -1.3
v -1 4.1 -1.3
v -1 4.2 -1.3
v -1 4.3 -1.3
v -0.9 2.6 -1.3
v -0.9 2.9 -1.3
v -0.9 3.2 -1.3
v -0.9 4.1 -1.3
v -0.9 4.2 -1.3
v -0.9 4.3 -1.3
v -0.9 4.4 -1.3
v -0.8 2.3 -1.3
v -0.8 2.6 -1.3
v -0.8 2.9 -1.3
v -0.8 3.2 -1.3
v -0.8 4.1 -1.3
v -0.8 4.2 -1.3
v -0.8 4.3 -1.3
v -0.8 4.4 -1.3
v -0.8 4.5 -1.3
v -0.7 2 -1.3
v -0.7 2.3 -1.3
v -0.7 2.6 -1.3
v -0.7 2.9 -1.3
v -0.7 4.2 -1.3
v -0.7 4.3 -1.3
v -0.7 4.4 -1.3
v -0.7 4.5 -1.3
v -0.7 4.6 -1.3
v -0.6 1.7 -1.3
v -0.6 2 -1.3
v -0.6 2.3 -1.3
v -0.6 2.6 -1.3
v -0.6 4.3 -1.3
v -0.6 4.4 -1.3
v -0.6 4.5 -1.3
v -0.6 4.6 -1.3
v -0.6 4.7 -1.3
v -0.5 1.4 -1.3
v -0.5 1.7 -1.3
v -0.5 2 -1.3
v -0.5 2.3 -1.3
v -0.5 4.4 -1.3
v -0.5 4.5 -1.3
v -0.5 4.6 -1.3
v -0.4 1.3 -1.3
v -0.4 1.4 -1.3
v -0.4 1.5 -1.3
v -0.4 1.7 -1.3
v -0.4 2 -1.3
v -0.3 1.4 -1.3
v -0.3 1.5 -1.3
v -0.3 1.7 -1.3
v 0.3 1.4 -1.3
v 0.3 1.5 -1.3
v 0.3 1.7 -1.3
v 0.4 1.3 -1.3
v 0.4 1.4 -1.3
v 0.4 1.5 -1.3
v 0.4 1.7 -1.3
v 0.4 2 -1.3
v 0.5 1.4 -1.3
v 0.5 1.7 -1.3
v 0.5 2 -1.3
v 0.5 2.3 -1.3
v 0.5 4.4 -1.3
v 0.5 4.5 -1.3
v 0.5 4.6 -1.3
v 0.6 1.7 -1.3
v 0.6 2 -1.3
v 0.6 2.3 -1.3
v 0.6 2.6 -1.3
v 0.6 4.3 -1.3
v 0.6 4.4 -1.3
v 0.6 4.5 -1.3
v 0.6 4.6 -1.3
v 0.6 4.7 -1.3
v 0.7 2 -1.3
v 0.7 2.3 -1.3
v 0.7 2.6 -1.3
v 0.7 2.9 -1.3
v 0.7 4.2 -1.3
v 0.7 4.3 -1.3
v 0.7 4.4 -1.3
v 0.7 4.5 -1.3
v 0.7 4.6 -1.3
v 0.8 2.3 -1.3
v 0.8 2.6 -1.3
v 0.8 2.9 -1.3
v 0.8 3.2 -1.3
v 0.8 4.1 -1.3
v 0.8 4.2 -1.3
v 0.8 4.3 -1.3
v 0.8 4.4 -1.3
v 0.8 4.5 -1.3
v 0.9 2.6 -1.3
v 0.9 2.9 -1.3
v 0.9 3.2 -1.3
v 0.9 4.1 -1.3
v 0.9 4.2 -1.3
v 0.9 4.3 -1.3
v 0.9 4.4 -1.3
v 1 2.9 -1.3
v 1 3.2 -1.3
v 1 4.1 -1.3
v 1 4.2 -1.3
v 1 4.3 -1.3
v 1.1 3.2 -1.3
v 1.1 4.2 -1.3
v 1.3 3.4 0.7
v 1.3 3.6 0.7
v 1.4 3.4 0.7
v 1.4 3.6 0.7
v 1.3 3.3 0.6
v 1.3 3.4 0.6
v 1.4 3.3 0.6
v 1.4 3.4 0.6
v 1.3 3.3 0.3
v 1.3 3.6 0.3
v 1.4 3.3 0.3
v 1.4 3.6 0.3
v 1.3 2.9 0.2
v 1.3 3.1 0.2
v 1.3 3.9 0.2
v 1.3 4 0.2
v 1.4 2.9 0.2
v 1.4 3.1 0.2
v 1.4 3.9 0.2
v 1.4 4 0.2
v 1.3 3.1 0.1
v 1.3 3.2 0.1
v 1.4 3.1 0.1
v 1.4 3.2 0.1
v 1.1 1.3 0
v 1.1 1.4 0
v 1.3 1.3 0
v 1.3 1.4 0
v 1.3 3.2 0
v 1.3 3.4 0
v 1.3 3.7 0
v 1.3 3.9 0
v 1.4 3.2 0
v 1.4 3.4 0
v 1.4 3.7 0
v 1.4 3.9 0
v 1.1 1.4 -0.1
v 1.1 1.7 -0.1
v 1.3 1.4 -0.1
v 1.3 1.7 -0.1
v 1.3 3.4 -0.1
v 1.3 3.7 -0.1
v 1.4 3.4 -0.1
v 1.4 3.7 -0.1
v 1.1 1.7 -0.2
v 1.1 2 -0.2
v 1.1 4.6 -0.2
v 1.1 4.7 -0.2
v 1.3 1.7 -0.2
v 1.3 2 -0.2
v 1.3 4.6 -0.2
v 1.3 4.7 -0.2
v 1.1 2 -0.3
v 1.1 2.3 -0.3
v 1.1 4.5 -0.3
v 1.1 4.6 -0.3
v 1.3 2 -0.3
v 1.3 2.3 -0.3
v 1.3 4.5 -0.3
v 1.3 4.6 -0.3
v 1.1 2.3 -0.4
v 1.1 2.6 -0.4
v 1.1 4.4 -0.4
v 1.1 4.5 -0.4
v 1.3 2.3 -0.4
v 1.3 2.6 -0.4
v 1.3 4.4 -0.4
v 1.3 4.5 -0.4
v 1.1 2.6 -0.5
v 1.1 2.9 -0.5
v 1.1 4.3 -0.5
v 1.1 4.4 -0.5
v 1.3 2.6 -0.5
v 1.3 2.9 -0.5
v 1.3 4.3 -0.5
v 1.3 4.4 -0.5
v 1.1 2.9 -0.6
v 1.1 3.2 -0.6
v 1.1 4.2 -0.6
v 1.1 4.3 -0.6
v 1.3 2.9 -0.6
v 1.3 3.2 -0.6
v 1.3 4.2 -0.6
v 1.3 4.3 -0.6
v 1.1 3.2 -0.7
v 1.1 3.3 -0.7
v 1.1 3.6 -0.7
v 1.1 3.8 -0.7
v 1.1 4.1 -0.7
v 1.1 4.2 -0.7
v 1.2 3.3 -0.7
v 1.2 3.6 -0.7
v 1.2 3.8 -0.7
v 1.2 4.1 -0.7
v 1.3 3.2 -0.7
v 1.3 4.2 -0.7
v -1.1 3.2 -0.8
v -1.1 4.2 -0.8
v -1 2.9 -0.8
v -1 3.2 -0.8
v -1 4.1 -0.8
v -1 4.2 -0.8
v -1 4.3 -0.8
v -0.9 2.6 -0.8
v -0.9 2.9 -0.8
v -0.9 3.2 -0.8
v -0.9 4.1 -0.8
v -0.9 4.2 -0.8
v -0.9 4.3 -0.8
v -0.9 4.4 -0.8
v -0.8 2.3 -0.8
v -0.8 2.6 -0.8
v -0.8 2.9 -0.8
v -0.8 4.2 -0.8
v -0.8 4.3 -0.8
v -0.8 4.4 -0.8
v -0.8 4.5 -0.8
v -0.7 2 -0.8
v -0.7 2.3 -0.8
v -0.7 2.6 -0.8
v -0.7 4.3 -0.8
v -0.7 4.4 -0.8
v -0.7 4.5 -0.8
v -0.7 4.6 -0.8
v -0.6 1.7 -0.8
v -0.6 2 -0.8
v -0.6 2.3 -0.8
v -0.6 4.4 -0.8
v -0.6 4.5 -0.8
v -0.6 4.6 -0.8
v -0.6 4.7 -0.8
v -0.5 1.4 -0.8
v -0.5 1.7 -0.8
v -0.5 2 -0.8
v -0.5 4.5 -0.8
v -0.5 4.6 -0.8
v -0.4 1.3 -0.8
v -0.4 1.4 -0.8
v -0.4 1.5 -0.8
v -0.4 1.7 -0.8
v -0.3 1.4 -0.8
v -0.3 1.5 -0.8
v 0.3 1.4 -0.8
v 0.3 1.5 -0.8
v 0.4 1.3 -0.8
v 0.4 1.4 -0.8
v 0.4 1.5 -0.8
v 0.4 1.7 -0.8
v 0.5 1.4 -0.8
v 0.5 1.7 -0.8
v 0.5 2 -0.8
v 0.5 4.5 -0.8
v 0.5 4.6 -0.8
v 0.6 1.7 -0.8
v 0.6 2 -0.8
v 0.6 2.3 -0.8
v 0.6 4.4 -0.8
v 0.6 4.5 -0.8
v 0.6 4.6 -0.8
v 0.6 4.7 -0.8
v 0.7 2 -0.8
v 0.7 2.3 -0.8
v 0.7 2.6 -0.8
v 0.7 4.3 -0.8
v 0.7 4.4 -0.8
v 0.7 4.5 -0.8
v 0.7 4.6 -0.8
v 0.8 2.3 -0.8
v 0.8 2.6 -0.8
v 0.8 2.9 -0.8
v 0.8 4.2 -0.8
v 0.8 4.3 -0.8
v 0.8 4.4 -0.8
v 0.8 4.5 -0.8
v 0.9 2.6 -0.8
v 0.9 2.9 -0.8
v 0.9 3.2 -0.8
v 0.9 4.1 -0.8
v 0.9 4.2 -0.8
v 0.9 4.3 -0.8
v 0.9 4.4 -0.8
v 1 2.9 -0.8
v 1 3.2 -0.8
v 1 4.1 -0.8
v 1 4.2 -0.8
v 1 4.3 -0.8
v 1.1 3.2 -0.8
v 1.1 3.3 -0.8
v 1.1 3.6 -0.8
v 1.1 3.8 -0.8
v 1.1 4.1 -0.8
v 1.1 4.2 -0.8
v 1.2 3.3 -0.8
v 1.2 3.6 -0.8
v 1.2 3.8 -0.8
v 1.2 4.1 -0.8
v -1.1 3.5 -1.1
v -1.1 3.6 -1.1
v -1.1 3.7 -1.1
v -1.1 3.8 -1.1
v -1 3.5 -1.1
v -1 3.6 -1.1
v -1 3.7 -1.1
v -1 3.8 -1.1
v -0.9 4.2 -1.1
v -0.9 4.3 -1.1
v -0.8 2.3 -1.1
v -0.8 2.4 -1.1
v -0.8 2.5 -1.1
v -0.8 2.6 -1.1
v -0.8 4.2 -1.1
v -0.8 4.3 -1.1
v -0.7 2.3 -1.1
v -0.7 2.4 -1.1
v -0.7 2.5 -1.1
v -0.7 2.6 -1.1
v -0.7 4.4 -1.1
v -0.7 4.5 -1.1
v -0.6 4.4 -1.1
v -0.6 4.5 -1.1
v -0.2 4.6 -1.1
v -0.2 4.7 -1.1
v -0.1 4.6 -1.1
v -0.1 4.7 -1.1
v 0.1 4.6 -1.1
v 0.1 4.7 -1.1
v 0.2 4.6 -1.1
v 0.2 4.7 -1.1
v 0.6 4.4 -1.1
v 0.6 4.5 -1.1
v 0.7 2.3 -1.1
v 0.7 2.4 -1.1
v 0.7 2.5 -1.1
v 0.7 2.6 -1.1
v 0.7 4.4 -1.1
v 0.7 4.5 -1.1
v 0.8 2.3 -1.1
v 0.8 2.4 -1.1
v 0.8 2.5 -1.1
v 0.8 2.6 -1.1
v 0.8 4.2 -1.1
v 0.8 4.3 -1.1
v 0.9 4.2 -1.1
v 0.9 4.3 -1.1
v 1 3.5 -1.1
v 1 3.6 -1.1
v 1 3.7 -1.1
v 1 3.8 -1.1
v 1.1 3.5 -1.1
v 1.1 3.6 -1.1
v 1.1 3.7 -1.1
v 1.1 3.8 -1.1
v -1.1 3.6 -1.2
v -1.1 3.7 -1.2
v -1 3.6 -1.2
v -1 3.7 -1.2
v -0.8 2.4 -1.2
v -0.8 2.5 -1.2
v -0.8 4.3 -1.2
v -0.8 4.4 -1.2
v -0.7 2.4 -1.2
v -0.7 2.5 -1.2
v -0.7 4.3 -1.2
v -0.7 4.4 -1.2
v -0.1 4.6 -1.2
v -0.1 4.7 -1.2
v 0.1 4.6 -1.2
v 0.1 4.7 -1.2
v 0.7 2.4 -1.2
v 0.7 2.5 -1.2
v 0.7 4.3 -1.2
v 0.7 4.4 -1.2
v 0.8 2.4 -1.2
v 0.8 2.5 -1.2
v 0.8 4.3 -1.2
v 0.8 4.4 -1.2
v 1 3.6 -1.2
v 1 3.7 -1.2
v 1.1 3.6 -1.2
v 1.1 3.7 -1.2
v -1.1 3.2 -1.5
v -1.1 4.2 -1.5
v -1 2.9 -1.5
v -1 3.2 -1.5
v -1 4.2 -1.5
v -1 4.3 -1.5
v -0.9 2.6 -1.5
v -0.9 2.9 -1.5
v -0.9 3.2 -1.5
v -0.9 4.1 -1.5
v -0.9 4.3 -1.5
v -0.9 4.4 -1.5
v -0.8 2.3 -1.5
v -0.8 2.6 -1.5
v -0.8 2.9 -1.5
v -0.8 3.2 -1.5
v -0.8 4.1 -1.5
v -0.8 4.2 -1.5
v -0.8 4.4 -1.5
v -0.8 4.5 -1.5
v -0.7 2 -1.5
v -0.7 2.3 -1.5
v -0.7 2.6 -1.5
v -0.7 2.9 -1.5
v -0.7 4.2 -1.5
v -0.7 4.3 -1.5
v -0.7 4.5 -1.5
v -0.7 4.6 -1.5
v -0.6 1.7 -1.5
v -0.6 2 -1.5
v -0.6 2.3 -1.5
v -0.6 2.6 -1.5
v -0.6 4.3 -1.5
v -0.6 4.4 -1.5
v -0.6 4.6 -1.5
v -0.6 4.7 -1.5
v -0.5 1.4 -1.5
v -0.5 1.7 -1.5
v -0.5 2 -1.5
v -0.5 2.3 -1.5
v -0.5 4.4 -1.5
v -0.5 4.5 -1.5
v -0.4 1.3 -1.5
v -0.4 1.4 -1.5
v -0.4 1.7 -1.5
v -0.4 2 -1.5
v -0.3 1.5 -1.5
v -0.3 1.7 -1.5
v 0.3 1.5 -1.5
v 0.3 1.7 -1.5
v 0.4 1.3 -1.5
v 0.4 1.4 -1.5
v 0.4 1.7 -1.5
v 0.4 2 -1.5
v 0.5 1.4 -1.5
v 0.5 1.7 -1.5
v 0.5 2 -1.5
v 0.5 2.3 -1.5
v 0.5 4.4 -1.5
v 0.5 4.5 -1.5
v 0.6 1.7 -1.5
v 0.6 2 -1.5
v 0.6 2.3 -1.5
v 0.6 2.6 -1.5
v 0.6 4.3 -1.5
v 0.6 4.4 -1.5
v 0.6 4.6 -1.5
v 0.6 4.7 -1.5
v 0.7 2 -1.5
v 0.7 2.3 -1.5
v 0.7 2.6 -1.5
v 0.7 2.9 -1.5
v 0.7 4.2 -1.5
v 0.7 4.3 -1.5
v 0.7 4.5 -1.5
v 0.7 4.6 -1.5
v 0.8 2.3 -1.5
v 0.8 2.6 -1.5
v 0.8 2.9 -1.5
v 0.8 3.2 -1.5
v 0.8 4.1 -1.5
v 0.8 4.2 -1.5
v 0.8 4.4 -1.5
v 0.8 4.5 -1.5
v 0.9 2.6 -1.5
v 0.9 2.9 -1.5
v 0.9 3.2 -1.5
v 0.9 4.1 -1.5
v 0.9 4.3 -1.5
v 0.9 4.4 -1.5
v 1 2.9 -1.5
v 1 3.2 -1.5
v 1 4.2 -1.5
v 1 4.3 -1.5
v 1.1 3.2 -1.5
v 1.1 4.2 -1.5
v 1.1 1.3 0.8
v 1.3 1.3 0.8
v 1.1 1.3 0
v 1.3 1.3 0
v -0.4 1.3 -0.6
v 0.4 1.3 -0.6
v -0.4 1.3 -0.8
v 0.4 1.3 -0.8
v -0.4 1.3 -1.3
v 0.4 1.3 -1.3
v -0.4 1.3 -1.5
v 0.4 1.3 -1.5
v 1.1 1.4 0.9
v 1.3 1.4 0.9
v 1.1 1.4 0.8
v 1.3 1.4 0.8
v 1.1 1.4 0
v 1.3 1.4 0
v 1.1 1.4 -0.1
v 1.3 1.4 -0.1
v -0.5 1.4 -0.6
v -0.4 1.4 -0.6
v 0.4 1.4 -0.6
v 0.5 1.4 -0.6
v -0.5 1.4 -0.8
v -0.4 1.4 -0.8
v -0.3 1.4 -0.8
v 0.3 1.4 -0.8
v 0.4 1.4 -0.8
v 0.5 1.4 -0.8
v -0.5 1.4 -1.3
v -0.4 1.4 -1.3
v -0.3 1.4 -1.3
v 0.3 1.4 -1.3
v 0.4 1.4 -1.3
v 0.5 1.4 -1.3
v -0.5 1.4 -1.5
v -0.4 1.4 -1.5
v 0.4 1.4 -1.5
v 0.5 1.4 -1.5
v -0.4 1.5 -0.8
v -0.3 1.5 -0.8
v 0.3 1.5 -0.8
v 0.4 1.5 -0.8
v -0.4 1.5 -1.3
v -0.3 1.5 -1.3
v 0.3 1.5 -1.3
v 0.4 1.5 -1.3
v 1.1 1.7 1
v 1.3 1.7 1
v 1.1 1.7 0.9
v 1.3 1.7 0.9
v 1.1 1.7 -0.1
v 1.3 1.7 -0.1
v 1.1 1.7 -0.2
v 1.3 1.7 -0.2
v -0.6 1.7 -0.6
v -0.5 1.7 -0.6
v 0.5 1.7 -0.6
v 0.6 1.7 -0.6
v -0.6 1.7 -0.8
v -0.5 1.7 -0.8
v -0.4 1.7 -0.8
v 0.4 1.7 -0.8
v 0.5 1.7 -0.8
v 0.6 1.7 -0.8
v -0.6 1.7 -1.3
v -0.5 1.7 -1.3
v -0.4 1.7 -1.3
v 0.4 1.7 -1.3
v 0.5 1.7 -1.3
v 0.6 1.7 -1.3
v -0.6 1.7 -1.5
v -0.5 1.7 -1.5
v 0.5 1.7 -1.5
v 0.6 1.7 -1.5
v 1.1 2 1.1
v 1.3 2 1.1
v 1.1 2 1
v 1.3 2 1
v 1.1 2 -0.2
v 1.3 2 -0.2
v 1.1 2 -0.3
v 1.3 2 -0.3
v -0.7 2 -0.6
v -0.6 2 -0.6
v 0.6 2 -0.6
v 0.7 2 -0.6
v -0.7 2 -0.8
v -0.6 2 -0.8
v -0.5 2 -0.8
v 0.5 2 -0.8
v 0.6 2 -0.8
v 0.7 2 -0.8
v -0.7 2 -1.3
v -0.6 2 -1.3
v -0.5 2 -1.3
v 0.5 2 -1.3
v 0.6 2 -1.3
v 0.7 2 -1.3
v -0.7 2 -1.5
v -0.6 2 -1.5
v 0.6 2 -1.5
v 0.7 2 -1.5
v 1.1 2.3 1.2
v 1.3 2.3 1.2
v 1.1 2.3 1.1
v 1.3 2.3 1.1
v 1.1 2.3 -0.3
v 1.3 2.3 -0.3
v 1.1 2.3 -0.4
v 1.3 2.3 -0.4
v -0.8 2.3 -0.6
v -0.7 2.3 -0.6
v 0.7 2.3 -0.6
v 0.8 2.3 -0.6
v -0.8 2.3 -0.8
v -0.7 2.3 -0.8
v -0.6 2.3 -0.8
v 0.6 2.3 -0.8
v 0.7 2.3 -0.8
v 0.8 2.3 -0.8
v -0.8 2.3 -1
v -0.7 2.3 -1
v 0.7 2.3 -1
v 0.8 2.3 -1
v -0.8 2.3 -1.1
v -0.7 2.3 -1.1
v 0.7 2.3 -1.1
v 0.8 2.3 -1.1
v -0.8 2.3 -1.3
v -0.7 2.3 -1.3
v -0.6 2.3 -1.3
v 0.6 2.3 -1.3
v 0.7 2.3 -1.3
v 0.8 2.3 -1.3
v -0.8 2.3 -1.5
v -0.7 2.3 -1.5
v 0.7 2.3 -1.5
v 0.8 2.3 -1.5
v -0.8 2.4 -0.9
v -0.7 2.4 -0.9
v 0.7 2.4 -0.9
v 0.8 2.4 -0.9
v -0.8 2.4 -1
v -0.7 2.4 -1
v 0.7 2.4 -1
v 0.8 2.4 -1
v -0.8 2.4 -1.1
v -0.7 2.4 -1.1
v 0.7 2.4 -1.1
v 0.8 2.4 -1.1
v -0.8 2.4 -1.2
v -0.7 2.4 -1.2
v 0.7 2.4 -1.2
v 0.8 2.4 -1.2
v 1.1 2.6 1.3
v 1.3 2.6 1.3
v 1.1 2.6 1.2
v 1.3 2.6 1.2
v 1.1 2.6 -0.4
v 1.3 2.6 -0.4
v 1.1 2.6 -0.5
v 1.3 2.6 -0.5
v -0.9 2.6 -0.6
v -0.8 2.6 -0.6
v 0.8 2.6 -0.6
v 0.9 2.6 -0.6
v -0.9 2.6 -0.8
v -0.8 2.6 -0.8
v -0.7 2.6 -0.8
v 0.7 2.6 -0.8
v 0.8 2.6 -0.8
v 0.9 2.6 -0.8
v -0.8 2.6 -1
v -0.7 2.6 -1
v 0.7 2.6 -1
v 0.8 2.6 -1
v -0.8 2.6 -1.1
v -0.7 2.6 -1.1
v 0.7 2.6 -1.1
v 0.8 2.6 -1.1
v -0.9 2.6 -1.3
v -0.8 2.6 -1.3
v -0.7 2.6 -1.3
v 0.7 2.6 -1.3
v 0.8 2.6 -1.3
v 0.9 2.6 -1.3
v -0.9 2.6 -1.5
v -0.8 2.6 -1.5
v 0.8 2.6 -1.5
v 0.9 2.6 -1.5
v 1.1 2.9 1.4
v 1.3 2.9 1.4
v 1.1 2.9 1.3
v 1.3 2.9 1.3
v 1.3 2.9 0.6
v 1.4 2.9 0.6
v 1.3 2.9 0.2
v 1.4 2.9 0.2
v 1.1 2.9 -0.5
v 1.3 2.9 -0.5
v -1 2.9 -0.6
v -0.9 2.9 -0.6
v 0.9 2.9 -0.6
v 1 2.9 -0.6
v 1.1 2.9 -0.6
v 1.3 2.9 -0.6
v -1 2.9 -0.8
v -0.9 2.9 -0.8
v -0.8 2.9 -0.8
v 0.8 2.9 -0.8
v 0.9 2.9 -0.8
v 1 2.9 -0.8
v -1 2.9 -1.3
v -0.9 2.9 -1.3
v -0.8 2.9 -1.3
v 0.8 2.9 -1.3
v 0.9 2.9 -1.3
v 1 2.9 -1.3
v -1 2.9 -1.5
v -0.9 2.9 -1.5
v 0.9 2.9 -1.5
v 1 2.9 -1.5
v 1.3 3.1 0.7
v 1.4 3.1 0.7
v 1.3 3.1 0.6
v 1.4 3.1 0.6
v 1.3 3.1 0.2
v 1.4 3.1 0.2
v 1.3 3.1 0.1
v 1.4 3.1 0.1
v 1.1 3.2 1.5
v 1.3 3.2 1.5
v 1.1 3.2 1.4
v 1.3 3.2 1.4
v 1.3 3.2 0.8
v 1.4 3.2 0.8
v 1.3 3.2 0.7
v 1.4 3.2 0.7
v 1.3 3.2 0.1
v 1.4 3.2 0.1
v 1.3 3.2 0
v 1.4 3.2 0
v -1.1 3.2 -0.6
v -1 3.2 -0.6
v 1 3.2 -0.6
v 1.1 3.2 -0.6
v 1.3 3.2 -0.6
v 1.1 3.2 -0.7
v 1.3 3.2 -0.7
v -1.1 3.2 -0.8
v -1 3.2 -0.8
v -0.9 3.2 -0.8
v 0.9 3.2 -0.8
v 1 3.2 -0.8
v 1.1 3.2 -0.8
v -1.1 3.2 -1.3
v -1 3.2 -1.3
v -0.9 3.2 -1.3
v 0.9 3.2 -1.3
v 1 3.2 -1.3
v 1.1 3.2 -1.3
v -1.1 3.2 -1.5
v -1 3.2 -1.5
v 1 3.2 -1.5
v 1.1 3.2 -1.5
v 1.1 3.3 -0.7
v 1.2 3.3 -0.7
v 1.1 3.3 -0.8
v 1.2 3.3 -0.8
v 1.3 3.4 0.9
v 1.4 3.4 0.9
v 1.3 3.4 0.8
v 1.4 3.4 0.8
v 1.3 3.4 0
v 1.4 3.4 0
v 1.3 3.4 -0.1
v 1.4 3.4 -0.1
v -1.1 3.5 -1
v -1 3.5 -1
v 1 3.5 -1
v 1.1 3.5 -1
v -1.1 3.5 -1.1
v -1 3.5 -1.1
v 1 3.5 -1.1
v 1.1 3.5 -1.1
v 1.3 3.6 0.7
v 1.4 3.6 0.7
v 1.3 3.6 0.5
v 1.4 3.6 0.5
v 1.3 3.6 0.3
v 1.4 3.6 0.3
v 1.3 3.6 0.1
v 1.4 3.6 0.1
v -1.1 3.6 -0.9
v -1 3.6 -0.9
v 1 3.6 -0.9
v 1.1 3.6 -0.9
v -1.1 3.6 -1
v -1 3.6 -1
v 1 3.6 -1
v 1.1 3.6 -1
v -1.1 3.6 -1.1
v -1 3.6 -1.1
v 1 3.6 -1.1
v 1.1 3.6 -1.1
v -1.1 3.6 -1.2
v -1 3.6 -1.2
v 1 3.6 -1.2
v 1.1 3.6 -1.2
v 1.1 3.8 -0.7
v 1.2 3.8 -0.7
v 1.1 3.8 -0.8
v 1.2 3.8 -0.8
v -0.9 4.1 -0.6
v -0.8 4.1 -0.6
v 0.8 4.1 -0.6
v 0.9 4.1 -0.6
v -0.9 4.1 -0.8
v -0.8 4.1 -0.8
v 0.8 4.1 -0.8
v 0.9 4.1 -0.8
v -0.9 4.1 -1.3
v -0.8 4.1 -1.3
v 0.8 4.1 -1.3
v 0.9 4.1 -1.3
v -0.8 4.2 -0.6
v -0.7 4.2 -0.6
v 0.7 4.2 -0.6
v 0.8 4.2 -0.6
v -0.8 4.2 -0.8
v -0.7 4.2 -0.8
v 0.7 4.2 -0.8
v 0.8 4.2 -0.8
v -0.8 4.2 -1.3
v -0.7 4.2 -1.3
v 0.7 4.2 -1.3
v 0.8 4.2 -1.3
v -0.7 4.3 -0.6
v -0.6 4.3 -0.6
v 0.6 4.3 -0.6
v 0.7 4.3 -0.6
v -0.7 4.3 -0.8
v -0.6 4.3 -0.8
v 0.6 4.3 -0.8
v 0.7 4.3 -0.8
v -0.7 4.3 -1.3
v -0.6 4.3 -1.3
v 0.6 4.3 -1.3
v 0.7 4.3 -1.3
v -0.6 4.4 -0.6
v -0.5 4.4 -0.6
v 0.5 4.4 -0.6
v 0.6 4.4 -0.6
v -0.6 4.4 -0.8
v -0.5 4.4 -0.8
v 0.5 4.4 -0.8
v 0.6 4.4 -0.8
v -0.6 4.4 -1.3
v -0.5 4.4 -1.3
v 0.5 4.4 -1.3
v 0.6 4.4 -1.3
v -0.5 4.5 -0.6
v 0.5 4.5 -0.6
v -0.5 4.5 -0.8
v 0.5 4.5 -0.8
v -0.5 4.5 -1.3
v 0.5 4.5 -1.3
v -0.3 1.5 -0.6
v 0.3 1.5 -0.6
v -0.3 1.5 -0.8
v 0.3 1.5 -0.8
v -0.3 1.5 -1.3
v 0.3 1.5 -1.3
v -0.4 1.7 -0.6
v -0.3 1.7 -0.6
v 0.3 1.7 -0.6
v 0.4 1.7 -0.6
v -0.4 1.7 -0.8
v -0.3 1.7 -0.8
v 0.3 1.7 -0.8
v 0.4 1.7 -0.8
v -0.4 1.7 -1.3
v -0.3 1.7 -1.3
v 0.3 1.7 -1.3
v 0.4 1.7 -1.3
v -0.5 2 -0.6
v -0.4 2 -0.6
v 0.4 2 -0.6
v 0.5 2 -0.6
v -0.5 2 -0.8
v -0.4 2 -0.8
v 0.4 2 -0.8
v 0.5 2 -0.8
v -0.5 2 -1.3
v -0.4 2 -1.3
v 0.4 2 -1.3
v 0.5 2 -1.3
v -0.6 2.3 -0.6
v -0.5 2.3 -0.6
v 0.5 2.3 -0.6
v 0.6 2.3 -0.6
v -0.6 2.3 -0.8
v -0.5 2.3 -0.8
v 0.5 2.3 -0.8
v 0.6 2.3 -0.8
v -0.6 2.3 -1.3
v -0.5 2.3 -1.3
v 0.5 2.3 -1.3
v 0.6 2.3 -1.3
v -0.8 2.5 -0.9
v -0.7 2.5 -0.9
v 0.7 2.5 -0.9
v 0.8 2.5 -0.9
v -0.8 2.5 -1
v -0.7 2.5 -1
v 0.7 2.5 -1
v 0.8 2.5 -1
v -0.8 2.5 -1.1
v -0.7 2.5 -1.1
v 0.7 2.5 -1.1
v 0.8 2.5 -1.1
v -0.8 2.5 -1.2
v -0.7 2.5 -1.2
v 0.7 2.5 -1.2
v 0.8 2.5 -1.2
v -0.7 2.6 -0.6
v -0.6 2.6 -0.6
v 0.6 2.6 -0.6
v 0.7 2.6 -0.6
v -0.7 2.6 -0.8
v -0.6 2.6 -0.8
v 0.6 2.6 -0.8
v 0.7 2.6 -0.8
v -0.7 2.6 -1.3
v -0.6 2.6 -1.3
v 0.6 2.6 -1.3
v 0.7 2.6 -1.3
v -0.8 2.9 -0.6
v -0.7 2.9 -0.6
v 0.7 2.9 -0.6
v 0.8 2.9 -0.6
v -0.8 2.9 -0.8
v -0.7 2.9 -0.8
v 0.7 2.9 -0.8
v 0.8 2.9 -0.8
v -0.8 2.9 -1.3
v -0.7 2.9 -1.3
v 0.7 2.9 -1.3
v 0.8 2.9 -1.3
v -0.9 3.2 -0.6
v -0.8 3.2 -0.6
v 0.8 3.2 -0.6
v 0.9 3.2 -0.6
v -0.9 3.2 -0.8
v -0.8 3.2 -0.8
v 0.8 3.2 -0.8
v 0.9 3.2 -0.8
v -0.9 3.2 -1.3
v -0.8 3.2 -1.3
v 0.8 3.2 -1.3
v 0.9 3.2 -1.3
v 1.3 3.3 0.6
v 1.4 3.3 0.6
v 1.3 3.3 0.5
v 1.4 3.3 0.5
v 1.3 3.3 0.3
v 1.4 3.3 0.3
v 1.3 3.3 0.2
v 1.4 3.3 0.2
v 1.3 3.4 0.7
v 1.4 3.4 0.7
v 1.3 3.4 0.6
v 1.4 3.4 0.6
v 1.3 3.4 0.2
v 1.4 3.4 0.2
v 1.3 3.4 0.1
v 1.4 3.4 0.1
v 1.1 3.6 -0.7
v 1.2 3.6 -0.7
v 1.1 3.6 -0.8
v 1.2 3.6 -0.8
v 1.3 3.7 0.9
v 1.4 3.7 0.9
v 1.3 3.7 0.8
v 1.4 3.7 0.8
v 1.3 3.7 0
v 1.4 3.7 0
v 1.3 3.7 -0.1
v 1.4 3.7 -0.1
v -1.1 3.7 -0.9
v -1 3.7 -0.9
v 1 3.7 -0.9
v 1.1 3.7 -0.9
v -1.1 3.7 -1
v -1 3.7 -1
v 1 3.7 -1
v 1.1 3.7 -1
v -1.1 3.7 -1.1
v -1 3.7 -1.1
v 1 3.7 -1.1
v 1.1 3.7 -1.1
v -1.1 3.7 -1.2
v -1 3.7 -1.2
v 1 3.7 -1.2
v 1.1 3.7 -1.2
v -1.1 3.8 -1
v -1 3.8 -1
v 1 3.8 -1
v 1.1 3.8 -1
v -1.1 3.8 -1.1
v -1 3.8 -1.1
v 1 3.8 -1.1
v 1.1 3.8 -1.1
v 1.3 3.9 0.8
v 1.4 3.9 0.8
v 1.3 3.9 0.6
v 1.4 3.9 0.6
v 1.3 3.9 0.2
v 1.4 3.9 0.2
v 1.3 3.9 0
v 1.4 3.9 0
v 1.3 4 0.6
v 1.4 4 0.6
v 1.3 4 0.2
v 1.4 4 0.2
v 1.1 4.1 -0.7
v 1.2 4.1 -0.7
v -1 4.1 -0.8
v -0.9 4.1 -0.8
v 0.9 4.1 -0.8
v 1 4.1 -0.8
v 1.1 4.1 -0.8
v 1.2 4.1 -0.8
v -1 4.1 -1.3
v -0.9 4.1 -1.3
v 0.9 4.1 -1.3
v 1 4.1 -1.3
v 1.1 4.2 1.5
v 1.3 4.2 1.5
v 1.1 4.2 1.4
v 1.3 4.2 1.4
v -1.1 4.2 -0.6
v -1 4.2 -0.6
v 1 4.2 -0.6
v 1.1 4.2 -0.6
v 1.3 4.2 -0.6
v 1.1 4.2 -0.7
v 1.3 4.2 -0.7
v -1.1 4.2 -0.8
v -1 4.2 -0.8
v -0.9 4.2 -0.8
v -0.8 4.2 -0.8
v 0.8 4.2 -0.8
v 0.9 4.2 -0.8
v 1 4.2 -0.8
v 1.1 4.2 -0.8
v -0.9 4.2 -1
v -0.8 4.2 -1
v 0.8 4.2 -1
v 0.9 4.2 -1
v -0.9 4.2 -1.1
v -0.8 4.2 -1.1
v 0.8 4.2 -1.1
v 0.9 4.2 -1.1
v -1.1 4.2 -1.3
v -1 4.2 -1.3
v -0.9 4.2 -1.3
v -0.8 4.2 -1.3
v 0.8 4.2 -1.3
v 0.9 4.2 -1.3
v 1 4.2 -1.3
v 1.1 4.2 -1.3
v -1.1 4.2 -1.5
v -1 4.2 -1.5
v 1 4.2 -1.5
v 1.1 4.2 -1.5
v 1.1 4.3 1.4
v 1.3 4.3 1.4
v 1.1 4.3 1.3
v 1.3 4.3 1.3
v 1.1 4.3 -0.5
v 1.3 4.3 -0.5
v -1 4.3 -0.6
v -0.9 4.3 -0.6
v 0.9 4.3 -0.6
v 1 4.3 -0.6
v 1.1 4.3 -0.6
v 1.3 4.3 -0.6
v -1 4.3 -0.8
v -0.9 4.3 -0.8
v -0.8 4.3 -0.8
v -0.7 4.3 -0.8
v 0.7 4.3 -0.8
v 0.8 4.3 -0.8
v 0.9 4.3 -0.8
v 1 4.3 -0.8
v -0.8 4.3 -0.9
v -0.7 4.3 -0.9
v 0.7 4.3 -0.9
v 0.8 4.3 -0.9
v -0.9 4.3 -1
v -0.8 4.3 -1
v 0.8 4.3 -1
v 0.9 4.3 -1
v -0.9 4.3 -1.1
v -0.8 4.3 -1.1
v 0.8 4.3 -1.1
v 0.9 4.3 -1.1
v -0.8 4.3 -1.2
v -0.7 4.3 -1.2
v 0.7 4.3 -1.2
v 0.8 4.3 -1.2
v -1 4.3 -1.3
v -0.9 4.3 -1.3
v -0.8 4.3 -1.3
v -0.7 4.3 -1.3
v 0.7 4.3 -1.3
v 0.8 4.3 -1.3
v 0.9 4.3 -1.3
v 1 4.3 -1.3
v -1 4.3 -1.5
v -0.9 4.3 -1.5
v 0.9 4.3 -1.5
v 1 4.3 -1.5
v 1.1 4.4 1.3
v 1.3 4.4 1.3
v 1.1 4.4 1.2
v 1.3 4.4 1.2
v 1.1 4.4 -0.4
v 1.3 4.4 -0.4
v 1.1 4.4 -0.5
v 1.3 4.4 -0.5
v -0.9 4.4 -0.6
v -0.8 4.4 -0.6
v 0.8 4.4 -0.6
v 0.9 4.4 -0.6
v -0.9 4.4 -0.8
v -0.8 4.4 -0.8
v -0.7 4.4 -0.8
v -0.6 4.4 -0.8
v 0.6 4.4 -0.8
v 0.7 4.4 -0.8
v 0.8 4.4 -0.8
v 0.9 4.4 -0.8
v -0.8 4.4 -0.9
v -0.7 4.4 -0.9
v 0.7 4.4 -0.9
v 0.8 4.4 -0.9
v -0.7 4.4 -1
v -0.6 4.4 -1
v 0.6 4.4 -1
v 0.7 4.4 -1
v -0.7 4.4 -1.1
v -0.6 4.4 -1.1
v 0.6 4.4 -1.1
v 0.7 4.4 -1.1
v -0.8 4.4 -1.2
v -0.7 4.4 -1.2
v 0.7 4.4 -1.2
v 0.8 4.4 -1.2
v -0.9 4.4 -1.3
v -0.8 4.4 -1.3
v -0.7 4.4 -1.3
v -0.6 4.4 -1.3
v 0.6 4.4 -1.3
v 0.7 4.4 -1.3
v 0.8 4.4 -1.3
v 0.9 4.4 -1.3
v -0.9 4.4 -1.5
v -0.8 4.4 -1.5
v 0.8 4.4 -1.5
v 0.9 4.4 -1.5
v 1.1 4.5 1.2
v 1.3 4.5 1.2
v 1.1 4.5 1.1
v 1.3 4.5 1.1
v 1.1 4.5 -0.3
v 1.3 4.5 -0.3
v 1.1 4.5 -0.4
v 1.3 4.5 -0.4
v -0.8 4.5 -0.6
v -0.7 4.5 -0.6
v 0.7 4.5 -0.6
v 0.8 4.5 -0.6
v -0.8 4.5 -0.8
v -0.7 4.5 -0.8
v -0.6 4.5 -0.8
v -0.5 4.5 -0.8
v 0.5 4.5 -0.8
v 0.6 4.5 -0.8
v 0.7 4.5 -0.8
v 0.8 4.5 -0.8
v -0.7 4.5 -1
v -0.6 4.5 -1
v 0.6 4.5 -1
v 0.7 4.5 -1
v -0.7 4.5 -1.1
v -0.6 4.5 -1.1
v 0.6 4.5 -1.1
v 0.7 4.5 -1.1
v -0.8 4.5 -1.3
v -0.7 4.5 -1.3
v -0.6 4.5 -1.3
v -0.5 4.5 -1.3
v 0.5 4.5 -1.3
v 0.6 4.5 -1.3
v 0.7 4.5 -1.3
v 0.8 4.5 -1.3
v -0.8 4.5 -1.5
v -0.7 4.5 -1.5
v 0.7 4.5 -1.5
v 0.8 4.5 -1.5
v 1.1 4.6 1.1
v 1.3 4.6 1.1
v 1.1 4.6 1
v 1.3 4.6 1
v 1.1 4.6 -0.2
v 1.3 4.6 -0.2
v 1.1 4.6 -0.3
v 1.3 4.6 -0.3
v -0.7 4.6 -0.6
v -0.6 4.6 -0.6
v 0.6 4.6 -0.6
v 0.7 4.6 -0.6
v -0.7 4.6 -0.8
v -0.6 4.6 -0.8
v -0.5 4.6 -0.8
v 0.5 4.6 -0.8
v 0.6 4.6 -0.8
v 0.7 4.6 -0.8
v -0.1 4.6 -0.9
v 0.1 4.6 -0.9
v -0.2 4.6 -1
v -0.1 4.6 -1
v 0.1 4.6 -1
v 0.2 4.6 -1
v -0.2 4.6 -1.1
v -0.1 4.6 -1.1
v 0.1 4.6 -1.1
v 0.2 4.6 -1.1
v -0.1 4.6 -1.2
v 0.1 4.6 -1.2
v -0.7 4.6 -1.3
v -0.6 4.6 -1.3
v -0.5 4.6 -1.3
v 0.5 4.6 -1.3
v 0.6 4.6 -1.3
v 0.7 4.6 -1.3
v -0.7 4.6 -1.5
v -0.6 4.6 -1.5
v 0.6 4.6 -1.5
v 0.7 4.6 -1.5
v 1.1 4.7 1
v 1.3 4.7 1
v 1.1 4.7 -0.2
v 1.3 4.7 -0.2
v -0.6 4.7 -0.6
v 0.6 4.7 -0.6
v -0.6 4.7 -0.8
v 0.6 4.7 -0.8
v -0.1 4.7 -0.9
v 0.1 4.7 -0.9
v -0.2 4.7 -1
v -0.1 4.7 -1
v 0.1 4.7 -1
v 0.2 4.7 -1
v -0.2 4.7 -1.1
v -0.1 4.7 -1.1
v 0.1 4.7 -1.1
v 0.2 4.7 -1.1
v -0.1 4.7 -1.2
v 0.1 4.7 -1.2
v -0.6 4.7 -1.3
v 0.6 4.7 -1.3
v -0.6 4.7 -1.5
v 0.6 4.7 -1.5

# faces
f 8/3/1 6/3/1 5/3/1
f 9/3/1 6/3/1 8/3/1
f 11/3/1 8/3/1 7/3/1
f 11/3/1 10/3/1 9/3/1
f 11/3/1 9/3/1 8/3/1
f 12/3/1 10/3/1 11/3/1
f 13/3/1 10/3/1 12/3/1
f 14/3/1 10/3/1 13/3/1
f 15/3/1 13/3/1 12/3/1
f 16/3/1 13/3/1 15/3/1
f 17/1/1 2/1/1 1/1/1
f 18/1/1 2/1/1 17/1/1
f 19/1/1 4/1/1 3/1/1
f 20/1/1 4/1/1 19/1/1
f 25/1/1 22/1/1 21/1/1
f 26/1/1 22/1/1 25/1/1
f 27/1/1 24/1/1 23/1/1
f 28/1/1 24/1/1 27/1/1
f 29/2/1 27/2/1 26/2/1
f 30/2/1 27/2/1 29/2/1
f 31/2/1 29/2/1 26/2/1
f 32/2/1 29/2/1 31/2/1
f 33/2/1 27/2/1 30/2/1
f 34/2/1 27/2/1 33/2/1
f 35/2/1 31/2/1 26/2/1
f 38/2/1 27/2/1 34/2/1
f 39/2/1 36/2/1 35/2/1
f 40/2/1 38/2/1 37/2/1
f 41/2/1 39/2/1 35/2/1
f 41/2/1 40/2/1 39/2/1
f 41/2/1 35/2/1 26/2/1
f 42/2/1 38/2/1 40/2/1
f 42/2/1 40/2/1 41/2/1
f 42/2/1 27/2/1 38/2/1
f 47/1/1 44/1/1 43/1/1
f 48/1/1 44/1/1 47/1/1
f 49/1/1 46/1/1 45/1/1
f 50/1/1 46/1/1 49/1/1
f 55/1/1 52/1/1 51/1/1
f 56/1/1 52/1/1 55/1/1
f 57/1/1 54/1/1 53/1/1
f 58/1/1 54/1/1 57/1/1
f 59/2/1 57/2/1 56/2/1
f 60/2/1 57/2/1 59/2/1
f 63/2/1 62/2/1 61/2/1
f 64/2/1 62/2/1 63/2/1
f 65/2/1 62/2/1 64/2/1
f 66/2/1 62/2/1 65/2/1
f 69/3/1 65/3/1 64/3/1
f 70/3/1 65/3/1 69/3/1
f 73/1/1 68/1/1 67/1/1
f 74/1/1 68/1/1 73/1/1
f 75/1/1 72/1/1 71/1/1
f 76/1/1 72/1/1 75/1/1
f 84/3/1 80/3/1 79/3/1
f 85/3/1 80/3/1 84/3/1
f 87/3/1 84/3/1 83/3/1
f 87/3/1 86/3/1 85/3/1
f 87/3/1 85/3/1 84/3/1
f 88/3/1 86/3/1 87/3/1
f 89/3/1 86/3/1 88/3/1
f 90/3/1 86/3/1 89/3/1
f 91/1/1 78/1/1 77/1/1
f 92/1/1 78/1/1 91/1/1
f 93/3/1 89/3/1 88/3/1
f 94/3/1 89/3/1 93/3/1
f 95/1/1 82/1/1 81/1/1
f 96/1/1 82/1/1 95/1/1
f 97/2/1 94/2/1 93/2/1
f 97/2/1 93/2/1 92/2/1
f 97/2/1 95/2/1 94/2/1
f 98/2/1 95/2/1 97/2/1
f 103/2/1 100/2/1 99/2/1
f 104/2/1 100/2/1 103/2/1
f 105/2/1 100/2/1 104/2/1
f 106/2/1 102/2/1 101/2/1
f 107/2/1 102/2/1 106/2/1
f 108/2/1 102/2/1 107/2/1
f 111/3/1 105/3/1 104/3/1
f 111/3/1 106/3/1 105/3/1
f 111/3/1 107/3/1 106/3/1
f 112/3/1 107/3/1 111/3/1
f 115/1/1 110/1/1 109/1/1
f 116/1/1 110/1/1 115/1/1
f 117/1/1 114/1/1 113/1/1
f 118/1/1 114/1/1 117/1/1
f 123/1/1 120/1/1 119/1/1
f 124/1/1 120/1/1 123/1/1
f 127/1/1 122/1/1 121/1/1
f 128/1/1 122/1/1 127/1/1
f 129/2/1 125/2/1 124/2/1
f 130/2/1 125/2/1 129/2/1
f 131/2/1 127/2/1 126/2/1
f 132/2/1 127/2/1 131/2/1
f 133/2/1 129/2/1 124/2/1
f 136/2/1 127/2/1 132/2/1
f 137/2/1 134/2/1 133/2/1
f 137/2/1 133/2/1 124/2/1
f 138/2/1 134/2/1 137/2/1
f 139/2/1 136/2/1 135/2/1
f 140/2/1 127/2/1 136/2/1
f 140/2/1 136/2/1 139/2/1
f 145/2/1 142/2/1 141/2/1
f 146/2/1 142/2/1 145/2/1
f 149/2/1 144/2/1 143/2/1
f 150/2/1 144/2/1 149/2/1
f 153/3/1 148/3/1 147/3/1
f 154/3/1 148/3/1 153/3/1
f 157/1/1 152/1/1 151/1/1
f 158/1/1 152/1/1 157/1/1
f 159/1/1 156/1/1 155/1/1
f 160/1/1 156/1/1 159/1/1
f 165/1/1 162/1/1 161/1/1
f 166/1/1 162/1/1 165/1/1
f 167/1/1 164/1/1 163/1/1
f 168/1/1 164/1/1 167/1/1
f 169/2/1 167/2/1 166/2/1
f 170/2/1 167/2/1 169/2/1
f 175/2/1 172/2/1 171/2/1
f 176/2/1 172/2/1 175/2/1
f 177/2/1 174/2/1 173/2/1
f 178/2/1 174/2/1 177/2/1
f 183/1/1 180/1/1 179/1/1
f 184/1/1 180/1/1 183/1/1
f 185/1/1 182/1/1 181/1/1
f 186/1/1 182/1/1 185/1/1
f 191/1/1 188/1/1 187/1/1
f 192/1/1 188/1/1 191/1/1
f 193/1/1 190/1/1 189/1/1
f 194/1/1 190/1/1 193/1/1
f 195/2/1 193/2/1 192/2/1
f 196/2/1 193/2/1 195/2/1
f 199/2/1 198/2/1 197/2/1
f 200/2/1 198/2/1 199/2/1
f 205/1/1 202/1/1 201/1/1
f 206/1/1 202/1/1 205/1/1
f 207/1/1 204/1/1 203/1/1
f 208/1/1 204/1/1 207/1/1
f 211/2/1 210/2/1 209/2/1
f 212/2/1 210/2/1 211/2/1
f 215/2/1 214/2/1 213/2/1
f 216/2/1 214/2/1 215/2/1
f 219/3/1 218/3/1 217/3/1
f 220/3/1 218/3/1 219/3/1
f 225/3/1 222/3/1 221/3/1
f 226/3/1 222/3/1 225/3/1
f 227/3/1 224/3/1 223/3/1
f 228/3/1 224/3/1 227/3/1
f 232/1/1 230/1/1 229/1/1
f 233/2/1 231/2/1 230/2/1
f 233/1/1 230/1/1 232/1/1
f 234/2/1 231/2/1 233/2/1
f 238/1/1 236/1/1 235/1/1
f 239/2/1 237/2/1 236/2/1
f 239/1/1 236/1/1 238/1/1
f 240/2/1 237/2/1 239/2/1
f 244/1/1 242/1/1 241/1/1
f 245/2/1 243/2/1 242/2/1
f 245/1/1 242/1/1 244/1/1
f 246/2/1 243/2/1 245/2/1
f 250/1/1 248/1/1 247/1/1
f 251/2/1 249/2/1 248/2/1
f 251/1/1 248/1/1 250/1/1
f 252/2/1 249/2/1 251/2/1
f 256/1/1 254/1/1 253/1/1
f 257/2/1 255/2/1 254/2/1
f 257/1/1 254/1/1 256/1/1
f 258/2/1 255/2/1 257/2/1
f 262/1/1 260/1/1 259/1/1
f 263/2/1 261/2/1 260/2/1
f 263/1/1 260/1/1 262/1/1
f 264/2/1 261/2/1 263/2/1
f 268/1/1 266/1/1 265/1/1
f 269/2/1 267/2/1 266/2/1
f 269/1/1 266/1/1 268/1/1
f 270/2/1 267/2/1 269/2/1
f 274/1/1 272/1/1 271/1/1
f 275/2/1 273/2/1 272/2/1
f 275/1/1 272/1/1 274/1/1
f 276/2/1 273/2/1 275/2/1
f 280/1/1 278/1/1 277/1/1
f 281/2/1 279/2/1 278/2/1
f 281/1/1 278/1/1 280/1/1
f 282/2/1 279/2/1 281/2/1
f 286/1/1 284/1/1 283/1/1
f 287/2/1 285/2/1 284/2/1
f 287/1/1 284/1/1 286/1/1
f 288/2/1 285/2/1 287/2/1
f 292/1/1 290/1/1 289/1/1
f 293/2/1 291/2/1 290/2/1
f 293/1/1 290/1/1 292/1/1
f 294/2/1 291/2/1 293/2/1
f 298/1/1 296/1/1 295/1/1
f 299/1/1 296/1/1 298/1/1
f 301/1/1 298/1/1 297/1/1
f 301/1/1 300/1/1 299/1/1
f 301/1/1 299/1/1 298/1/1
f 302/1/1 300/1/1 301/1/1
f 304/1/1 301/1/1 297/1/1
f 305/1/1 301/1/1 304/1/1
f 306/4/1 302/4/1 301/4/1
f 306/1/1 301/1/1 305/1/1
f 307/1/1 300/1/1 302/1/1
f 307/4/1 302/4/1 306/4/1
f 308/1/1 300/1/1 307/1/1
f 309/1/1 300/1/1 308/1/1
f 312/1/1 305/1/1 304/1/1
f 312/1/1 304/1/1 303/1/1
f 313/1/1 305/1/1 312/1/1
f 314/4/1 306/4/1 305/4/1
f 314/1/1 305/1/1 313/1/1
f 314/4/1 307/4/1 306/4/1
f 314/4/1 308/4/1 307/4/1
f 315/1/1 310/1/1 309/1/1
f 315/4/1 308/4/1 314/4/1
f 315/1/1 309/1/1 308/1/1
f 316/1/1 310/1/1 315/1/1
f 317/1/1 310/1/1 316/1/1
f 320/1/1 313/1/1 312/1/1
f 320/1/1 312/1/1 311/1/1
f 321/1/1 313/1/1 320/1/1
f 322/4/1 314/4/1 313/4/1
f 322/1/1 313/1/1 321/1/1
f 322/4/1 315/4/1 314/4/1
f 322/4/1 316/4/1 315/4/1
f 323/1/1 318/1/1 317/1/1
f 323/4/1 316/4/1 322/4/1
f 323/1/1 317/1/1 316/1/1
f 324/1/1 318/1/1 323/1/1
f 325/1/1 318/1/1 324/1/1
f 328/1/1 321/1/1 320/1/1
f 328/1/1 320/1/1 319/1/1
f 329/1/1 321/1/1 328/1/1
f 330/4/1 322/4/1 321/4/1
f 330/1/1 321/1/1 329/1/1
f 330/4/1 323/4/1 322/4/1
f 330/4/1 324/4/1 323/4/1
f 331/1/1 326/1/1 325/1/1
f 331/4/1 324/4/1 330/4/1
f 331/1/1 325/1/1 324/1/1
f 332/1/1 326/1/1 331/1/1
f 333/1/1 326/1/1 332/1/1
f 336/1/1 329/1/1 328/1/1
f 336/1/1 328/1/1 327/1/1
f 337/1/1 329/1/1 336/1/1
f 338/4/1 330/4/1 329/4/1
f 338/1/1 329/1/1 337/1/1
f 338/4/1 331/4/1 330/4/1
f 338/4/1 332/4/1 331/4/1
f 339/1/1 334/1/1 333/1/1
f 339/4/1 332/4/1 338/4/1
f 339/1/1 333/1/1 332/1/1
f 340/1/1 334/1/1 339/1/1
f 341/1/1 334/1/1 340/1/1
f 344/1/1 337/1/1 336/1/1
f 344/1/1 336/1/1 335/1/1
f 345/1/1 337/1/1 344/1/1
f 346/4/1 338/4/1 337/4/1
f 346/1/1 337/1/1 345/1/1
f 346/4/1 339/4/1 338/4/1
f 346/4/1 340/4/1 339/4/1
f 347/1/1 342/1/1 341/1/1
f 347/4/1 340/4/1 346/4/1
f 347/1/1 341/1/1 340/1/1
f 348/1/1 342/1/1 347/1/1
f 349/1/1 342/1/1 348/1/1
f 350/1/1 345/1/1 344/1/1
f 350/4/1 346/4/1 345/4/1
f 350/1/1 344/1/1 343/1/1
f 350/4/1 348/4/1 347/4/1
f 350/4/1 347/4/1 346/4/1
f 351/4/1 348/4/1 350/4/1
f 352/4/1 348/4/1 351/4/1
f 353/1/1 349/1/1 348/1/1
f 353/4/1 348/4/1 352/4/1
f 354/1/1 350/1/1 343/1/1
f 354/1/1 351/1/1 350/1/1
f 355/1/1 351/1/1 354/1/1
f 356/4/1 352/4/1 351/4/1
f 356/1/1 351/1/1 355/1/1
f 357/4/1 352/4/1 356/4/1
f 358/4/1 352/4/1 357/4/1
f 359/1/1 353/1/1 352/1/1
f 359/4/1 352/4/1 358/4/1
f 360/1/1 349/1/1 353/1/1
f 360/1/1 353/1/1 359/1/1
f 361/1/1 356/1/1 355/1/1
f 361/1/1 357/1/1 356/1/1
f 362/1/1 357/1/1 361/1/1
f 363/4/1 358/4/1 357/4/1
f 363/1/1 357/1/1 362/1/1
f 364/4/1 358/4/1 363/4/1
f 365/4/1 358/4/1 364/4/1
f 366/1/1 359/1/1 358/1/1
f 366/4/1 358/4/1 365/4/1
f 366/1/1 360/1/1 359/1/1
f 367/1/1 360/1/1 366/1/1
f 368/1/1 360/1/1 367/1/1
f 369/1/1 364/1/1 363/1/1
f 369/1/1 363/1/1 362/1/1
f 370/1/1 364/1/1 369/1/1
f 371/4/1 365/4/1 364/4/1
f 371/1/1 364/1/1 370/1/1
f 372/4/1 365/4/1 371/4/1
f 373/4/1 365/4/1 372/4/1
f 374/1/1 367/1/1 366/1/1
f 374/4/1 365/4/1 373/4/1
f 374/1/1 366/1/1 365/1/1
f 375/1/1 367/1/1 374/1/1
f 376/1/1 367/1/1 375/1/1
f 377/1/1 372/1/1 371/1/1
f 377/1/1 371/1/1 370/1/1
f 378/1/1 372/1/1 377/1/1
f 379/4/1 373/4/1 372/4/1
f 379/1/1 372/1/1 378/1/1
f 380/1/1 375/1/1 374/1/1
f 380/4/1 373/4/1 379/4/1
f 380/1/1 374/1/1 373/1/1
f 381/1/1 375/1/1 380/1/1
f 382/1/1 375/1/1 381/1/1
f 383/1/1 379/1/1 378/1/1
f 383/1/1 381/1/1 380/1/1
f 383/1/1 380/1/1 379/1/1
f 384/1/1 381/1/1 383/1/1
f 385/1/1 381/1/1 384/1/1
f 386/1/1 381/1/1 385/1/1
f 387/1/1 385/1/1 384/1/1
f 388/1/1 385/1/1 387/1/1
f 389/1/2 390/1/2 392/1/2
f 390/2/2 391/2/2 393/2/2
f 392/1/2 390/1/2 393/1/2
f 393/2/2 391/2/2 394/2/2
f 395/1/2 396/1/2 398/1/2
f 396/2/2 397/2/2 399/2/2
f 398/1/2 396/1/2 399/1/2
f 399/2/2 397/2/2 400/2/2
f 401/1/2 402/1/2 404/1/2
f 402/2/2 403/2/2 405/2/2
f 404/1/2 402/1/2 405/1/2
f 405/2/2 403/2/2 406/2/2
f 407/1/2 408/1/2 410/1/2
f 408/2/2 409/2/2 411/2/2
f 410/1/2 408/1/2 411/1/2
f 411/2/2 409/2/2 412/2/2
f 413/1/2 414/1/2 416/1/2
f 414/2/2 415/2/2 417/2/2
f 416/1/2 414/1/2 417/1/2
f 417/2/2 415/2/2 418/2/2
f 419/1/2 420/1/2 422/1/2
f 420/2/2 421/2/2 423/2/2
f 422/1/2 420/1/2 423/1/2
f 423/2/2 421/2/2 424/2/2
f 425/1/2 426/1/2 428/1/2
f 426/2/2 427/2/2 429/2/2
f 428/1/2 426/1/2 429/1/2
f 429/2/2 427/2/2 430/2/2
f 431/1/2 432/1/2 434/1/2
f 432/2/2 433/2/2 435/2/2
f 434/1/2 432/1/2 435/1/2
f 435/2/2 433/2/2 436/2/2
f 437/1/2 438/1/2 440/1/2
f 438/2/2 439/2/2 441/2/2
f 440/1/2 438/1/2 441/1/2
f 441/2/2 439/2/2 442/2/2
f 443/1/2 444/1/2 446/1/2
f 444/2/2 445/2/2 447/2/2
f 446/1/2 444/1/2 447/1/2
f 447/2/2 445/2/2 448/2/2
f 449/1/2 450/1/2 452/1/2
f 450/2/2 451/2/2 453/2/2
f 452/1/2 450/1/2 453/1/2
f 453/2/2 451/2/2 454/2/2
f 455/3/2 456/3/2 459/3/2
f 459/3/2 456/3/2 460/3/2
f 457/3/2 458/3/2 461/3/2
f 461/3/2 458/3/2 462/3/2
f 463/3/2 464/3/2 465/3/2
f 465/3/2 464/3/2 466/3/2
f 467/2/2 468/2/2 469/2/2
f 469/2/2 468/2/2 470/2/2
f 471/1/2 472/1/2 475/1/2
f 475/1/2 472/1/2 476/1/2
f 473/1/2 474/1/2 477/1/2
f 477/1/2 474/1/2 478/1/2
f 479/2/2 480/2/2 481/2/2
f 481/2/2 480/2/2 482/2/2
f 483/1/2 484/1/2 487/1/2
f 487/1/2 484/1/2 488/1/2
f 485/1/2 486/1/2 489/1/2
f 489/1/2 486/1/2 490/1/2
f 488/2/2 489/2/2 491/2/2
f 491/2/2 489/2/2 492/2/2
f 493/2/2 494/2/2 495/2/2
f 495/2/2 494/2/2 496/2/2
f 497/1/2 498/1/2 501/1/2
f 501/1/2 498/1/2 502/1/2
f 499/1/2 500/1/2 503/1/2
f 503/1/2 500/1/2 504/1/2
f 502/2/2 503/2/2 505/2/2
f 505/2/2 503/2/2 506/2/2
f 507/2/2 508/2/2 511/2/2
f 511/2/2 508/2/2 512/2/2
f 509/2/2 510/2/2 513/2/2
f 513/2/2 510/2/2 514/2/2
f 515/1/2 516/1/2 519/1/2
f 519/1/2 516/1/2 520/1/2
f 517/1/2 518/1/2 521/1/2
f 521/1/2 518/1/2 522/1/2
f 523/1/2 524/1/2 527/1/2
f 527/1/2 524/1/2 528/1/2
f 525/1/2 526/1/2 531/1/2
f 531/1/2 526/1/2 532/1/2
f 528/2/2 529/2/2 533/2/2
f 533/2/2 529/2/2 534/2/2
f 530/2/2 531/2/2 535/2/2
f 535/2/2 531/2/2 536/2/2
f 528/2/2 533/2/2 537/2/2
f 536/2/2 531/2/2 540/2/2
f 537/2/2 538/2/2 541/2/2
f 528/2/2 537/2/2 541/2/2
f 541/2/2 538/2/2 542/2/2
f 539/2/2 540/2/2 543/2/2
f 540/2/2 531/2/2 544/2/2
f 543/2/2 540/2/2 544/2/2
f 545/2/2 546/2/2 549/2/2
f 549/2/2 546/2/2 550/2/2
f 547/2/2 548/2/2 553/2/2
f 553/2/2 548/2/2 554/2/2
f 551/3/2 552/3/2 557/3/2
f 557/3/2 552/3/2 558/3/2
f 555/1/2 556/1/2 561/1/2
f 561/1/2 556/1/2 562/1/2
f 559/1/2 560/1/2 563/1/2
f 563/1/2 560/1/2 564/1/2
f 567/3/2 568/3/2 572/3/2
f 572/3/2 568/3/2 573/3/2
f 571/3/2 572/3/2 575/3/2
f 573/3/2 574/3/2 575/3/2
f 572/3/2 573/3/2 575/3/2
f 575/3/2 574/3/2 576/3/2
f 576/3/2 574/3/2 577/3/2
f 577/3/2 574/3/2 578/3/2
f 565/1/2 566/1/2 579/1/2
f 579/1/2 566/1/2 580/1/2
f 576/3/2 577/3/2 581/3/2
f 581/3/2 577/3/2 582/3/2
f 569/1/2 570/1/2 583/1/2
f 583/1/2 570/1/2 584/1/2
f 581/2/2 582/2/2 585/2/2
f 580/2/2 581/2/2 585/2/2
f 582/2/2 583/2/2 585/2/2
f 585/2/2 583/2/2 586/2/2
f 587/2/2 588/2/2 591/2/2
f 591/2/2 588/2/2 592/2/2
f 592/2/2 588/2/2 593/2/2
f 589/2/2 590/2/2 594/2/2
f 594/2/2 590/2/2 595/2/2
f 595/2/2 590/2/2 596/2/2
f 592/3/2 593/3/2 599/3/2
f 593/3/2 594/3/2 599/3/2
f 594/3/2 595/3/2 599/3/2
f 599/3/2 595/3/2 600/3/2
f 597/1/2 598/1/2 603/1/2
f 603/1/2 598/1/2 604/1/2
f 601/1/2 602/1/2 605/1/2
f 605/1/2 602/1/2 606/1/2
f 607/1/2 608/1/2 611/1/2
f 611/1/2 608/1/2 612/1/2
f 609/1/2 610/1/2 613/1/2
f 613/1/2 610/1/2 614/1/2
f 612/2/2 613/2/2 615/2/2
f 615/2/2 613/2/2 616/2/2
f 617/2/2 618/2/2 619/2/2
f 619/2/2 618/2/2 620/2/2
f 620/2/2 618/2/2 621/2/2
f 621/2/2 618/2/2 622/2/2
f 620/3/2 621/3/2 625/3/2
f 625/3/2 621/3/2 626/3/2
f 623/1/2 624/1/2 629/1/2
f 629/1/2 624/1/2 630/1/2
f 627/1/2 628/1/2 631/1/2
f 631/1/2 628/1/2 632/1/2
f 633/1/2 634/1/2 637/1/2
f 637/1/2 634/1/2 638/1/2
f 635/1/2 636/1/2 639/1/2
f 639/1/2 636/1/2 640/1/2
f 638/2/2 639/2/2 641/2/2
f 641/2/2 639/2/2 642/2/2
f 638/2/2 641/2/2 643/2/2
f 643/2/2 641/2/2 644/2/2
f 642/2/2 639/2/2 645/2/2
f 645/2/2 639/2/2 646/2/2
f 638/2/2 643/2/2 647/2/2
f 646/2/2 639/2/2 650/2/2
f 647/2/2 648/2/2 651/2/2
f 649/2/2 650/2/2 652/2/2
f 647/2/2 651/2/2 653/2/2
f 651/2/2 652/2/2 653/2/2
f 638/2/2 647/2/2 653/2/2
f 652/2/2 650/2/2 654/2/2
f 653/2/2 652/2/2 654/2/2
f 650/2/2 639/2/2 654/2/2
f 655/1/2 656/1/2 659/1/2
f 659/1/2 656/1/2 660/1/2
f 657/1/2 658/1/2 661/1/2
f 661/1/2 658/1/2 662/1/2
f 663/1/2 664/1/2 667/1/2
f 667/1/2 664/1/2 668/1/2
f 669/3/2 670/3/2 674/3/2
f 674/3/2 670/3/2 675/3/2
f 673/3/2 674/3/2 677/3/2
f 675/3/2 676/3/2 677/3/2
f 674/3/2 675/3/2 677/3/2
f 677/3/2 676/3/2 678/3/2
f 678/3/2 676/3/2 679/3/2
f 679/3/2 676/3/2 680/3/2
f 671/1/2 672/1/2 681/1/2
f 681/1/2 672/1/2 682/1/2
f 678/3/2 679/3/2 683/3/2
f 683/3/2 679/3/2 684/3/2
f 685/1/2 686/1/2 687/1/2
f 687/1/2 686/1/2 688/1/2
f 665/1/2 666/1/2 689/1/2
f 689/1/2 666/1/2 690/1/2
f 691/3/2 692/3/2 693/3/2
f 693/3/2 692/3/2 694/3/2
f 695/3/2 696/3/2 697/3/2
f 697/3/2 696/3/2 698/3/2
f 699/1/2 700/1/2 702/1/2
f 702/1/2 700/1/2 703/1/2
f 701/1/2 702/1/2 705/1/2
f 703/1/2 704/1/2 705/1/2
f 702/1/2 703/1/2 705/1/2
f 705/1/2 704/1/2 706/1/2
f 701/1/2 705/1/2 708/1/2
f 708/1/2 705/1/2 709/1/2
f 705/2/2 706/2/2 710/2/2
f 709/1/2 705/1/2 710/1/2
f 706/1/2 704/1/2 711/1/2
f 710/2/2 706/2/2 711/2/2
f 711/1/2 704/1/2 712/1/2
f 712/1/2 704/1/2 713/1/2
f 708/1/2 709/1/2 716/1/2
f 707/1/2 708/1/2 716/1/2
f 716/1/2 709/1/2 717/1/2
f 709/2/2 710/2/2 718/2/2
f 717/1/2 709/1/2 718/1/2
f 710/2/2 711/2/2 718/2/2
f 711/2/2 712/2/2 718/2/2
f 713/1/2 714/1/2 719/1/2
f 718/2/2 712/2/2 719/2/2
f 712/1/2 713/1/2 719/1/2
f 719/1/2 714/1/2 720/1/2
f 720/1/2 714/1/2 721/1/2
f 716/1/2 717/1/2 724/1/2
f 715/1/2 716/1/2 724/1/2
f 724/1/2 717/1/2 725/1/2
f 717/2/2 718/2/2 726/2/2
f 725/1/2 717/1/2 726/1/2
f 718/2/2 719/2/2 726/2/2
f 719/2/2 720/2/2 726/2/2
f 721/1/2 722/1/2 727/1/2
f 726/2/2 720/2/2 727/2/2
f 720/1/2 721/1/2 727/1/2
f 727/1/2 722/1/2 728/1/2
f 728/1/2 722/1/2 729/1/2
f 724/1/2 725/1/2 732/1/2
f 723/1/2 724/1/2 732/1/2
f 732/1/2 725/1/2 733/1/2
f 725/2/2 726/2/2 734/2/2
f 733/1/2 725/1/2 734/1/2
f 726/2/2 727/2/2 734/2/2
f 727/2/2 728/2/2 734/2/2
f 729/1/2 730/1/2 735/1/2
f 734/2/2 728/2/2 735/2/2
f 728/1/2 729/1/2 735/1/2
f 735/1/2 730/1/2 736/1/2
f 736/1/2 730/1/2 737/1/2
f 732/1/2 733/1/2 740/1/2
f 731/1/2 732/1/2 740/1/2
f 740/1/2 733/1/2 741/1/2
f 733/2/2 734/2/2 742/2/2
f 741/1/2 733/1/2 742/1/2
f 734/2/2 735/2/2 742/2/2
f 735/2/2 736/2/2 742/2/2
f 742/2/2 736/2/2 743/2/2
f 743/2/2 736/2/2 744/2/2
f 737/1/2 738/1/2 745/1/2
f 744/2/2 736/2/2 745/2/2
f 736/1/2 737/1/2 745/1/2
f 745/1/2 738/1/2 746/1/2
f 746/1/2 738/1/2 747/1/2
f 742/2/2 743/2/2 749/2/2
f 741/2/2 742/2/2 749/2/2
f 749/2/2 743/2/2 750/2/2
f 745/2/2 746/2/2 751/2/2
f 744/2/2 745/2/2 751/2/2
f 751/2/2 746/2/2 752/2/2
f 740/1/2 741/1/2 754/1/2
f 739/1/2 740/1/2 754/1/2
f 754/1/2 741/1/2 755/1/2
f 741/2/2 749/2/2 756/2/2
f 755/1/2 741/1/2 756/1/2
f 756/2/2 749/2/2 757/2/2
f 757/2/2 749/2/2 758/2/2
f 752/2/2 746/2/2 759/2/2
f 759/2/2 746/2/2 760/2/2
f 747/1/2 748/1/2 761/1/2
f 760/2/2 746/2/2 761/2/2
f 746/1/2 747/1/2 761/1/2
f 761/1/2 748/1/2 762/1/2
f 762/1/2 748/1/2 763/1/2
f 755/2/2 756/2/2 769/2/2
f 756/2/2 757/2/2 769/2/2
f 769/2/2 757/2/2 770/2/2
f 765/2/2 766/2/2 772/2/2
f 767/2/2 768/2/2 773/2/2
f 760/2/2 761/2/2 775/2/2
f 761/2/2 762/2/2 775/2/2
f 775/2/2 762/2/2 776/2/2
f 771/2/2 772/2/2 777/2/2
f 772/2/2 766/2/2 778/2/2
f 777/2/2 772/2/2 778/2/2
f 773/2/2 774/2/2 779/2/2
f 767/2/2 773/2/2 779/2/2
f 779/2/2 774/2/2 780/2/2
f 755/2/2 769/2/2 781/2/2
f 776/2/2 762/2/2 784/2/2
f 781/2/2 782/2/2 785/2/2
f 783/2/2 784/2/2 788/2/2
f 785/2/2 786/2/2 789/2/2
f 787/2/2 788/2/2 790/2/2
f 754/1/2 755/1/2 791/1/2
f 789/2/2 790/2/2 791/2/2
f 753/1/2 754/1/2 791/1/2
f 755/2/2 781/2/2 791/2/2
f 785/2/2 789/2/2 791/2/2
f 781/2/2 785/2/2 791/2/2
f 791/2/2 790/2/2 792/2/2
f 790/2/2 788/2/2 793/2/2
f 792/2/2 790/2/2 793/2/2
f 788/2/2 784/2/2 793/2/2
f 784/2/2 762/2/2 793/2/2
f 763/1/2 764/1/2 794/1/2
f 793/2/2 762/2/2 794/2/2
f 762/1/2 763/1/2 794/1/2
f 791/1/2 792/1/2 795/1/2
f 753/1/2 791/1/2 795/1/2
f 795/1/2 792/1/2 796/1/2
f 792/2/2 793/2/2 797/2/2
f 796/1/2 792/1/2 797/1/2
f 797/2/2 793/2/2 798/2/2
f 798/2/2 793/2/2 799/2/2
f 793/1/2 794/1/2 800/1/2
f 799/2/2 793/2/2 800/2/2
f 794/1/2 764/1/2 801/1/2
f 800/1/2 794/1/2 801/1/2
f 801/1/2 764/1/2 802/1/2
f 796/1/2 797/1/2 803/1/2
f 797/1/2 798/1/2 803/1/2
f 803/1/2 798/1/2 804/1/2
f 798/2/2 799/2/2 805/2/2
f 804/1/2 798/1/2 805/1/2
f 805/2/2 799/2/2 806/2/2
f 806/2/2 799/2/2 807/2/2
f 799/1/2 800/1/2 808/1/2
f 807/2/2 799/2/2 808/2/2
f 800/1/2 801/1/2 808/1/2
f 808/1/2 801/1/2 809/1/2
f 809/1/2 801/1/2 810/1/2
f 805/1/2 806/1/2 811/1/2
f 804/1/2 805/1/2 811/1/2
f 811/1/2 806/1/2 812/1/2
f 806/2/2 807/2/2 813/2/2
f 812/1/2 806/1/2 813/1/2
f 813/2/2 807/2/2 814/2/2
f 814/2/2 807/2/2 815/2/2
f 808/1/2 809/1/2 816/1/2
f 815/2/2 807/2/2 816/2/2
f 807/1/2 808/1/2 816/1/2
f 816/1/2 809/1/2 817/1/2
f 817/1/2 809/1/2 818/1/2
f 813/1/2 814/1/2 819/1/2
f 812/1/2 813/1/2 819/1/2
f 819/1/2 814/1/2 820/1/2
f 814/2/2 815/2/2 821/2/2
f 820/1/2 814/1/2 821/1/2
f 816/1/2 817/1/2 822/1/2
f 821/2/2 815/2/2 822/2/2
f 815/1/2 816/1/2 822/1/2
f 822/1/2 817/1/2 823/1/2
f 823/1/2 817/1/2 824/1/2
f 820/1/2 821/1/2 825/1/2
f 822/1/2 823/1/2 825/1/2
f 821/1/2 822/1/2 825/1/2
f 825/1/2 823/1/2 826/1/2
f 826/1/2 823/1/2 827/1/2
f 827/1/2 823/1/2 828/1/2
f 826/1/2 827/1/2 829/1/2
f 829/1/2 827/1/2 830/1/2
f 831/3/2 832/3/2 834/3/2
f 834/3/2 832/3/2 835/3/2
f 833/3/2 834/3/2 838/3/2
f 835/3/2 836/3/2 838/3/2
f 834/3/2 835/3/2 838/3/2
f 838/3/2 836/3/2 839/3/2
f 837/3/2 838/3/2 841/3/2
f 839/3/2 840/3/2 841/3/2
f 838/3/2 839/3/2 841/3/2
f 841/3/2 840/3/2 842/3/2
f 842/3/2 840/3/2 843/3/2
f 843/3/2 840/3/2 844/3/2
f 837/3/2 841/3/2 846/3/2
f 846/3/2 841/3/2 847/3/2
f 847/3/2 841/3/2 848/3/2
f 844/3/2 840/3/2 849/3/2
f 849/3/2 840/3/2 850/3/2
f 850/3/2 840/3/2 851/3/2
f 845/3/2 846/3/2 853/3/2
f 846/3/2 847/3/2 853/3/2
f 842/3/2 843/3/2 854/3/2
f 854/3/2 843/3/2 855/3/2
f 851/3/2 852/3/2 856/3/2
f 850/3/2 851/3/2 856/3/2
f 845/3/2 853/3/2 857/3/2
f 855/3/2 856/3/2 857/3/2
f 854/3/2 855/3/2 857/3/2
f 853/3/2 854/3/2 857/3/2
f 857/3/2 856/3/2 858/3/2
f 856/3/2 852/3/2 859/3/2
f 858/3/2 856/3/2 859/3/2
f 859/3/2 852/3/2 860/3/2
f 858/3/2 859/3/2 861/3/2
f 861/3/2 859/3/2 862/3/2
f 862/3/2 859/3/2 863/3/2
f 863/3/2 859/3/2 864/3/2
f 862/3/2 863/3/2 865/3/2
f 865/3/2 863/3/2 866/3/2
f 869/1/3 868/1/3 867/1/3
f 870/1/3 868/1/3 869/1/3
f 875/1/3 872/1/3 871/1/3
f 876/1/3 872/1/3 875/1/3
f 877/1/3 874/1/3 873/1/3
f 878/1/3 874/1/3 877/1/3
f 883/1/3 880/1/3 879/1/3
f 884/1/3 880/1/3 883/1/3
f 885/1/3 882/1/3 881/1/3
f 886/1/3 882/1/3 885/1/3
f 891/1/3 888/1/3 887/1/3
f 892/1/3 888/1/3 891/1/3
f 893/1/3 890/1/3 889/1/3
f 894/1/3 890/1/3 893/1/3
f 899/1/3 896/1/3 895/1/3
f 900/1/3 896/1/3 899/1/3
f 901/1/3 898/1/3 897/1/3
f 902/1/3 898/1/3 901/1/3
f 907/1/3 904/1/3 903/1/3
f 908/1/3 904/1/3 907/1/3
f 909/1/3 906/1/3 905/1/3
f 910/1/3 906/1/3 909/1/3
f 913/1/3 912/1/3 911/1/3
f 914/1/3 912/1/3 913/1/3
f 917/3/3 916/3/3 915/3/3
f 918/3/3 916/3/3 917/3/3
f 921/1/3 920/1/3 919/1/3
f 922/1/3 920/1/3 921/1/3
f 927/3/3 924/3/3 923/3/3
f 928/3/3 924/3/3 927/3/3
f 929/3/3 926/3/3 925/3/3
f 930/3/3 926/3/3 929/3/3
f 933/3/3 932/3/3 931/3/3
f 934/3/3 932/3/3 933/3/3
f 939/3/3 936/3/3 935/3/3
f 940/3/3 936/3/3 939/3/3
f 941/3/3 938/3/3 937/3/3
f 942/3/3 938/3/3 941/3/3
f 945/3/3 944/3/3 943/3/3
f 946/3/3 944/3/3 945/3/3
f 949/3/3 948/3/3 947/3/3
f 950/3/3 948/3/3 949/3/3
f 953/3/3 952/3/3 951/3/3
f 954/3/3 952/3/3 953/3/3
f 958/1/3 956/1/3 955/1/3
f 959/1/3 956/1/3 958/1/3
f 962/1/3 958/1/3 957/1/3
f 962/1/3 960/1/3 959/1/3
f 962/1/3 959/1/3 958/1/3
f 963/1/3 960/1/3 962/1/3
f 964/1/3 960/1/3 963/1/3
f 965/1/3 960/1/3 964/1/3
f 968/1/3 962/1/3 961/1/3
f 968/1/3 963/1/3 962/1/3
f 969/1/3 963/1/3 968/1/3
f 970/1/3 963/1/3 969/1/3
f 971/1/3 965/1/3 964/1/3
f 971/1/3 966/1/3 965/1/3
f 972/1/3 966/1/3 971/1/3
f 973/1/3 966/1/3 972/1/3
f 976/1/3 969/1/3 968/1/3
f 976/1/3 968/1/3 967/1/3
f 977/1/3 969/1/3 976/1/3
f 978/1/3 969/1/3 977/1/3
f 979/1/3 974/1/3 973/1/3
f 979/1/3 973/1/3 972/1/3
f 980/1/3 974/1/3 979/1/3
f 981/1/3 974/1/3 980/1/3
f 984/1/3 977/1/3 976/1/3
f 984/1/3 976/1/3 975/1/3
f 985/1/3 977/1/3 984/1/3
f 986/1/3 977/1/3 985/1/3
f 987/1/3 982/1/3 981/1/3
f 987/1/3 981/1/3 980/1/3
f 988/1/3 982/1/3 987/1/3
f 989/1/3 982/1/3 988/1/3
f 992/1/3 985/1/3 984/1/3
f 992/1/3 984/1/3 983/1/3
f 993/1/3 985/1/3 992/1/3
f 994/1/3 985/1/3 993/1/3
f 995/1/3 990/1/3 989/1/3
f 995/1/3 989/1/3 988/1/3
f 996/1/3 990/1/3 995/1/3
f 998/1/3 993/1/3 992/1/3
f 998/1/3 992/1/3 991/1/3
f 999/1/3 993/1/3 998/1/3
f 1000/1/3 993/1/3 999/1/3
f 1001/1/3 998/1/3 997/1/3
f 1001/1/3 999/1/3 998/1/3
f 1002/1/3 999/1/3 1001/1/3
f 1003/1/3 1001/1/3 997/1/3
f 1005/1/3 1003/1/3 997/1/3
f 1005/1/3 1004/1/3 1003/1/3
f 1006/1/3 1004/1/3 1005/1/3
f 1007/1/3 1004/1/3 1006/1/3
f 1009/1/3 1007/1/3 1006/1/3
f 1009/1/3 1008/1/3 1007/1/3
f 1010/1/3 1008/1/3 1009/1/3
f 1011/1/3 1008/1/3 1010/1/3
f 1014/1/3 990/1/3 996/1/3
f 1015/1/3 1012/1/3 1011/1/3
f 1015/1/3 1011/1/3 1010/1/3
f 1016/1/3 1012/1/3 1015/1/3
f 1017/1/3 1012/1/3 1016/1/3
f 1020/1/3 1014/1/3 1013/1/3
f 1021/1/3 990/1/3 1014/1/3
f 1021/1/3 1014/1/3 1020/1/3
f 1022/1/3 990/1/3 1021/1/3
f 1023/1/3 1018/1/3 1017/1/3
f 1023/1/3 1017/1/3 1016/1/3
f 1024/1/3 1018/1/3 1023/1/3
f 1025/1/3 1018/1/3 1024/1/3
f 1028/1/3 1020/1/3 1019/1/3
f 1028/1/3 1021/1/3 1020/1/3
f 1029/1/3 1021/1/3 1028/1/3
f 1030/1/3 1021/1/3 1029/1/3
f 1031/1/3 1026/1/3 1025/1/3
f 1031/1/3 1025/1/3 1024/1/3
f 1032/1/3 1026/1/3 1031/1/3
f 1033/1/3 1026/1/3 1032/1/3
f 1036/1/3 1029/1/3 1028/1/3
f 1036/1/3 1028/1/3 1027/1/3
f 1037/1/3 1029/1/3 1036/1/3
f 1038/1/3 1029/1/3 1037/1/3
f 1039/1/3 1034/1/3 1033/1/3
f 1039/1/3 1033/1/3 1032/1/3
f 1040/1/3 1034/1/3 1039/1/3
f 1041/1/3 1034/1/3 1040/1/3
f 1042/1/3 1037/1/3 1036/1/3
f 1042/1/3 1036/1/3 1035/1/3
f 1043/1/3 1037/1/3 1042/1/3
f 1044/1/3 1037/1/3 1043/1/3
f 1045/1/3 1041/1/3 1040/1/3
f 1045/1/3 1043/1/3 1042/1/3
f 1045/1/3 1042/1/3 1041/1/3
f 1046/1/3 1043/1/3 1045/1/3
f 1047/1/3 1043/1/3 1046/1/3
f 1048/1/3 1043/1/3 1047/1/3
f 1049/1/3 1047/1/3 1046/1/3
f 1050/1/3 1047/1/3 1049/1/3
f 1053/3/3 1052/3/3 1051/3/3
f 1054/3/3 1052/3/3 1053/3/3
f 1059/3/3 1056/3/3 1055/3/3
f 1060/3/3 1056/3/3 1059/3/3
f 1061/3/3 1058/3/3 1057/3/3
f 1062/3/3 1058/3/3 1061/3/3
f 1065/3/3 1064/3/3 1063/3/3
f 1066/3/3 1064/3/3 1065/3/3
f 1071/3/3 1068/3/3 1067/3/3
f 1072/3/3 1068/3/3 1071/3/3
f 1073/3/3 1070/3/3 1069/3/3
f 1074/3/3 1070/3/3 1073/3/3
f 1077/3/3 1076/3/3 1075/3/3
f 1078/3/3 1076/3/3 1077/3/3
f 1083/3/3 1080/3/3 1079/3/3
f 1084/3/3 1080/3/3 1083/3/3
f 1085/3/3 1082/3/3 1081/3/3
f 1086/3/3 1082/3/3 1085/3/3
f 1093/3/3 1088/3/3 1087/3/3
f 1094/3/3 1088/3/3 1093/3/3
f 1095/3/3 1090/3/3 1089/3/3
f 1096/3/3 1090/3/3 1095/3/3
f 1097/3/3 1092/3/3 1091/3/3
f 1098/3/3 1092/3/3 1097/3/3
f 1101/3/3 1100/3/3 1099/3/3
f 1102/3/3 1100/3/3 1101/3/3
f 1105/3/3 1104/3/3 1103/3/3
f 1106/3/3 1104/3/3 1105/3/3
f 1109/3/3 1108/3/3 1107/3/3
f 1110/3/3 1108/3/3 1109/3/3
f 1117/3/3 1112/3/3 1111/3/3
f 1118/3/3 1112/3/3 1117/3/3
f 1119/3/3 1114/3/3 1113/3/3
f 1120/3/3 1114/3/3 1119/3/3
f 1121/3/3 1116/3/3 1115/3/3
f 1122/3/3 1116/3/3 1121/3/3
f 1125/3/3 1124/3/3 1123/3/3
f 1126/3/3 1124/3/3 1125/3/3
f 1131/3/3 1128/3/3 1127/3/3
f 1132/3/3 1128/3/3 1131/3/3
f 1133/3/3 1130/3/3 1129/3/3
f 1134/3/3 1130/3/3 1133/3/3
f 1138/1/3 1136/1/3 1135/1/3
f 1139/1/3 1136/1/3 1138/1/3
f 1140/1/3 1136/1/3 1139/1/3
f 1143/1/3 1138/1/3 1137/1/3
f 1144/1/3 1138/1/3 1143/1/3
f 1145/1/3 1140/1/3 1139/1/3
f 1145/1/3 1141/1/3 1140/1/3
f 1146/1/3 1141/1/3 1145/1/3
f 1147/1/3 1141/1/3 1146/1/3
f 1150/1/3 1143/1/3 1142/1/3
f 1151/1/3 1143/1/3 1150/1/3
f 1152/4/3 1145/4/3 1144/4/3
f 1153/4/3 1145/4/3 1152/4/3
f 1154/1/3 1148/1/3 1147/1/3
f 1154/1/3 1147/1/3 1146/1/3
f 1155/1/3 1148/1/3 1154/1/3
f 1156/1/3 1148/1/3 1155/1/3
f 1159/1/3 1150/1/3 1149/1/3
f 1160/1/3 1150/1/3 1159/1/3
f 1161/4/3 1153/4/3 1152/4/3
f 1161/4/3 1152/4/3 1151/4/3
f 1161/4/3 1154/4/3 1153/4/3
f 1162/4/3 1154/4/3 1161/4/3
f 1163/1/3 1157/1/3 1156/1/3
f 1163/1/3 1156/1/3 1155/1/3
f 1164/1/3 1157/1/3 1163/1/3
f 1165/1/3 1157/1/3 1164/1/3
f 1168/1/3 1159/1/3 1158/1/3
f 1169/1/3 1159/1/3 1168/1/3
f 1170/4/3 1162/4/3 1161/4/3
f 1170/4/3 1161/4/3 1160/4/3
f 1170/4/3 1163/4/3 1162/4/3
f 1171/4/3 1163/4/3 1170/4/3
f 1172/1/3 1166/1/3 1165/1/3
f 1172/1/3 1165/1/3 1164/1/3
f 1173/1/3 1166/1/3 1172/1/3
f 1174/1/3 1166/1/3 1173/1/3
f 1177/1/3 1168/1/3 1167/1/3
f 1178/1/3 1168/1/3 1177/1/3
f 1179/4/3 1171/4/3 1170/4/3
f 1179/4/3 1170/4/3 1169/4/3
f 1179/4/3 1172/4/3 1171/4/3
f 1180/4/3 1172/4/3 1179/4/3
f 1181/1/3 1175/1/3 1174/1/3
f 1181/1/3 1174/1/3 1173/1/3
f 1182/1/3 1175/1/3 1181/1/3
f 1184/1/3 1177/1/3 1176/1/3
f 1185/1/3 1177/1/3 1184/1/3
f 1186/1/3 1177/1/3 1185/1/3
f 1187/4/3 1181/4/3 1180/4/3
f 1187/4/3 1180/4/3 1179/4/3
f 1187/4/3 1179/4/3 1178/4/3
f 1188/1/3 1185/1/3 1184/1/3
f 1188/1/3 1184/1/3 1183/1/3
f 1189/1/3 1185/1/3 1188/1/3
f 1190/4/3 1187/4/3 1186/4/3
f 1191/1/3 1188/1/3 1183/1/3
f 1192/4/3 1190/4/3 1189/4/3
f 1193/4/3 1187/4/3 1190/4/3
f 1193/4/3 1190/4/3 1192/4/3
f 1194/1/3 1191/1/3 1183/1/3
f 1194/1/3 1192/1/3 1191/1/3
f 1195/1/3 1192/1/3 1194/1/3
f 1196/1/3 1192/1/3 1195/1/3
f 1197/4/3 1187/4/3 1193/4/3
f 1198/4/3 1181/4/3 1187/4/3
f 1198/4/3 1187/4/3 1197/4/3
f 1199/1/3 1196/1/3 1195/1/3
f 1199/1/3 1197/1/3 1196/1/3
f 1200/1/3 1197/1/3 1199/1/3
f 1201/4/3 1181/4/3 1198/4/3
f 1202/4/3 1181/4/3 1201/4/3
f 1203/4/3 1181/4/3 1202/4/3
f 1204/4/3 1181/4/3 1203/4/3
f 1205/1/3 1175/1/3 1182/1/3
f 1206/1/3 1201/1/3 1200/1/3
f 1207/1/3 1201/1/3 1206/1/3
f 1208/4/3 1203/4/3 1202/4/3
f 1209/4/3 1203/4/3 1208/4/3
f 1210/4/3 1203/4/3 1209/4/3
f 1211/4/3 1203/4/3 1210/4/3
f 1212/1/3 1205/1/3 1204/1/3
f 1213/1/3 1175/1/3 1205/1/3
f 1213/1/3 1205/1/3 1212/1/3
f 1214/1/3 1175/1/3 1213/1/3
f 1215/1/3 1208/1/3 1207/1/3
f 1216/1/3 1208/1/3 1215/1/3
f 1217/4/3 1210/4/3 1209/4/3
f 1218/4/3 1210/4/3 1217/4/3
f 1219/4/3 1210/4/3 1218/4/3
f 1220/4/3 1210/4/3 1219/4/3
f 1221/1/3 1212/1/3 1211/1/3
f 1221/1/3 1213/1/3 1212/1/3
f 1222/1/3 1213/1/3 1221/1/3
f 1223/1/3 1213/1/3 1222/1/3
f 1224/1/3 1217/1/3 1216/1/3
f 1225/1/3 1217/1/3 1224/1/3
f 1226/4/3 1219/4/3 1218/4/3
f 1227/4/3 1219/4/3 1226/4/3
f 1228/4/3 1219/4/3 1227/4/3
f 1229/4/3 1219/4/3 1228/4/3
f 1230/1/3 1222/1/3 1221/1/3
f 1230/1/3 1221/1/3 1220/1/3
f 1231/1/3 1222/1/3 1230/1/3
f 1232/1/3 1222/1/3 1231/1/3
f 1233/1/3 1226/1/3 1225/1/3
f 1234/1/3 1226/1/3 1233/1/3
f 1235/4/3 1228/4/3 1227/4/3
f 1236/4/3 1228/4/3 1235/4/3
f 1237/1/3 1231/1/3 1230/1/3
f 1237/1/3 1230/1/3 1229/1/3
f 1238/1/3 1231/1/3 1237/1/3
f 1239/1/3 1231/1/3 1238/1/3
f 1240/1/3 1235/1/3 1234/1/3
f 1241/1/3 1235/1/3 1240/1/3
f 1242/1/3 1238/1/3 1237/1/3
f 1242/1/3 1237/1/3 1236/1/3
f 1243/1/3 1238/1/3 1242/1/3
f 1244/1/3 1238/1/3 1243/1/3
f 1245/1/3 1242/1/3 1241/1/3
f 1245/1/3 1243/1/3 1242/1/3
f 1246/1/3 1243/1/3 1245/1/3
f 1247/3/4 1248/3/4 1249/3/4
f 1249/3/4 1248/3/4 1250/3/4
f 1251/3/4 1252/3/4 1253/3/4
f 1253/3/4 1252/3/4 1254/3/4
f 1255/3/4 1256/3/4 1257/3/4
f 1257/3/4 1256/3/4 1258/3/4
f 1259/3/4 1260/3/4 1263/3/4
f 1263/3/4 1260/3/4 1264/3/4
f 1261/3/4 1262/3/4 1265/3/4
f 1265/3/4 1262/3/4 1266/3/4
f 1267/3/4 1268/3/4 1269/3/4
f 1269/3/4 1268/3/4 1270/3/4
f 1271/1/4 1272/1/4 1273/1/4
f 1273/1/4 1272/1/4 1274/1/4
f 1275/3/4 1276/3/4 1279/3/4
f 1279/3/4 1276/3/4 1280/3/4
f 1277/3/4 1278/3/4 1281/3/4
f 1281/3/4 1278/3/4 1282/3/4
f 1283/1/4 1284/1/4 1285/1/4
f 1285/1/4 1284/1/4 1286/1/4
f 1287/3/4 1288/3/4 1289/3/4
f 1289/3/4 1288/3/4 1290/3/4
f 1291/1/4 1292/1/4 1295/1/4
f 1295/1/4 1292/1/4 1296/1/4
f 1293/1/4 1294/1/4 1297/1/4
f 1297/1/4 1294/1/4 1298/1/4
f 1299/1/4 1300/1/4 1303/1/4
f 1303/1/4 1300/1/4 1304/1/4
f 1301/1/4 1302/1/4 1305/1/4
f 1305/1/4 1302/1/4 1306/1/4
f 1307/1/4 1308/1/4 1311/1/4
f 1311/1/4 1308/1/4 1312/1/4
f 1309/1/4 1310/1/4 1313/1/4
f 1313/1/4 1310/1/4 1314/1/4
f 1315/1/4 1316/1/4 1319/1/4
f 1319/1/4 1316/1/4 1320/1/4
f 1317/1/4 1318/1/4 1321/1/4
f 1321/1/4 1318/1/4 1322/1/4
f 1323/1/4 1324/1/4 1327/1/4
f 1327/1/4 1324/1/4 1328/1/4
f 1325/1/4 1326/1/4 1329/1/4
f 1329/1/4 1326/1/4 1330/1/4
f 1331/1/4 1332/1/4 1337/1/4
f 1333/1/4 1334/1/4 1338/1/4
f 1338/1/4 1334/1/4 1339/1/4
f 1335/1/4 1336/1/4 1340/1/4
f 1338/1/4 1339/1/4 1341/1/4
f 1339/1/4 1340/1/4 1341/1/4
f 1331/1/4 1337/1/4 1341/1/4
f 1337/1/4 1338/1/4 1341/1/4
f 1340/1/4 1336/1/4 1342/1/4
f 1341/1/4 1340/1/4 1342/1/4
f 1343/1/4 1344/1/4 1346/1/4
f 1346/1/4 1344/1/4 1347/1/4
f 1347/1/4 1344/1/4 1348/1/4
f 1345/1/4 1346/1/4 1351/1/4
f 1351/1/4 1346/1/4 1352/1/4
f 1347/1/4 1348/1/4 1353/1/4
f 1348/1/4 1349/1/4 1353/1/4
f 1353/1/4 1349/1/4 1354/1/4
f 1354/1/4 1349/1/4 1355/1/4
f 1350/1/4 1351/1/4 1358/1/4
f 1358/1/4 1351/1/4 1359/1/4
f 1355/1/4 1356/1/4 1360/1/4
f 1354/1/4 1355/1/4 1360/1/4
f 1360/1/4 1356/1/4 1361/1/4
f 1361/1/4 1356/1/4 1362/1/4
f 1357/1/4 1358/1/4 1365/1/4
f 1365/1/4 1358/1/4 1366/1/4
f 1362/1/4 1363/1/4 1367/1/4
f 1361/1/4 1362/1/4 1367/1/4
f 1367/1/4 1363/1/4 1368/1/4
f 1368/1/4 1363/1/4 1369/1/4
f 1364/1/4 1365/1/4 1372/1/4
f 1372/1/4 1365/1/4 1373/1/4
f 1369/1/4 1370/1/4 1374/1/4
f 1368/1/4 1369/1/4 1374/1/4
f 1374/1/4 1370/1/4 1375/1/4
f 1375/1/4 1370/1/4 1376/1/4
f 1371/1/4 1372/1/4 1379/1/4
f 1379/1/4 1372/1/4 1380/1/4
f 1376/1/4 1377/1/4 1381/1/4
f 1375/1/4 1376/1/4 1381/1/4
f 1381/1/4 1377/1/4 1382/1/4
f 1378/1/4 1379/1/4 1384/1/4
f 1384/1/4 1379/1/4 1385/1/4
f 1385/1/4 1379/1/4 1386/1/4
f 1383/1/4 1384/1/4 1387/1/4
f 1384/1/4 1385/1/4 1387/1/4
f 1387/1/4 1385/1/4 1388/1/4
f 1383/1/4 1387/1/4 1389/1/4
f 1383/1/4 1389/1/4 1391/1/4
f 1389/1/4 1390/1/4 1391/1/4
f 1391/1/4 1390/1/4 1392/1/4
f 1392/1/4 1390/1/4 1393/1/4
f 1392/1/4 1393/1/4 1395/1/4
f 1393/1/4 1394/1/4 1395/1/4
f 1395/1/4 1394/1/4 1396/1/4
f 1382/1/4 1377/1/4 1399/1/4
f 1396/1/4 1397/1/4 1400/1/4
f 1400/1/4 1397/1/4 1401/1/4
f 1398/1/4 1399/1/4 1404/1/4
f 1399/1/4 1377/1/4 1405/1/4
f 1404/1/4 1399/1/4 1405/1/4
f 1405/1/4 1377/1/4 1406/1/4
f 1401/1/4 1402/1/4 1407/1/4
f 1407/1/4 1402/1/4 1408/1/4
f 1403/1/4 1404/1/4 1411/1/4
f 1404/1/4 1405/1/4 1411/1/4
f 1411/1/4 1405/1/4 1412/1/4
f 1412/1/4 1405/1/4 1413/1/4
f 1408/1/4 1409/1/4 1414/1/4
f 1414/1/4 1409/1/4 1415/1/4
f 1411/1/4 1412/1/4 1418/1/4
f 1410/1/4 1411/1/4 1418/1/4
f 1418/1/4 1412/1/4 1419/1/4
f 1419/1/4 1412/1/4 1420/1/4
f 1415/1/4 1416/1/4 1421/1/4
f 1421/1/4 1416/1/4 1422/1/4
f 1418/1/4 1419/1/4 1425/1/4
f 1417/1/4 1418/1/4 1425/1/4
f 1425/1/4 1419/1/4 1426/1/4
f 1426/1/4 1419/1/4 1427/1/4
f 1422/1/4 1423/1/4 1428/1/4
f 1428/1/4 1423/1/4 1429/1/4
f 1425/1/4 1426/1/4 1430/1/4
f 1424/1/4 1425/1/4 1430/1/4
f 1430/1/4 1426/1/4 1431/1/4
f 1431/1/4 1426/1/4 1432/1/4
f 1429/1/4 1430/1/4 1433/1/4
f 1430/1/4 1431/1/4 1433/1/4
f 1433/1/4 1431/1/4 1434/1/4
f 1434/1/4 1431/1/4 1435/1/4
f 1435/1/4 1431/1/4 1436/1/4
f 1436/1/4 1431/1/4 1437/1/4
f 1437/1/4 1431/1/4 1438/1/4
f 1434/3/4 1435/3/4 1439/3/4
f 1439/3/4 1435/3/4 1440/3/4
f 1436/3/4 1437/3/4 1441/3/4
f 1441/3/4 1437/3/4 1442/3/4
f 1443/3/4 1444/3/4 1447/3/4
f 1447/3/4 1444/3/4 1448/3/4
f 1445/3/4 1446/3/4 1449/3/4
f 1449/3/4 1446/3/4 1450/3/4
f 1451/3/4 1452/3/4 1457/3/4
f 1457/3/4 1452/3/4 1458/3/4
f 1453/3/4 1454/3/4 1459/3/4
f 1459/3/4 1454/3/4 1460/3/4
f 1455/3/4 1456/3/4 1461/3/4
f 1461/3/4 1456/3/4 1462/3/4
f 1463/3/4 1464/3/4 1465/3/4
f 1465/3/4 1464/3/4 1466/3/4
f 1467/3/4 1468/3/4 1469/3/4
f 1469/3/4 1468/3/4 1470/3/4
f 1471/3/4 1472/3/4 1473/3/4
f 1473/3/4 1472/3/4 1474/3/4
f 1475/3/4 1476/3/4 1481/3/4
f 1481/3/4 1476/3/4 1482/3/4
f 1477/3/4 1478/3/4 1483/3/4
f 1483/3/4 1478/3/4 1484/3/4
f 1479/3/4 1480/3/4 1485/3/4
f 1485/3/4 1480/3/4 1486/3/4
f 1487/3/4 1488/3/4 1489/3/4
f 1489/3/4 1488/3/4 1490/3/4
f 1491/3/4 1492/3/4 1495/3/4
f 1495/3/4 1492/3/4 1496/3/4
f 1493/3/4 1494/3/4 1497/3/4
f 1497/3/4 1494/3/4 1498/3/4
f 1499/3/4 1500/3/4 1501/3/4
f 1501/3/4 1500/3/4 1502/3/4
f 1503/3/4 1504/3/4 1507/3/4
f 1507/3/4 1504/3/4 1508/3/4
f 1505/3/4 1506/3/4 1509/3/4
f 1509/3/4 1506/3/4 1510/3/4
f 1511/3/4 1512/3/4 1513/3/4
f 1513/3/4 1512/3/4 1514/3/4
f 1515/3/4 1516/3/4 1519/3/4
f 1519/3/4 1516/3/4 1520/3/4
f 1517/3/4 1518/3/4 1521/3/4
f 1521/3/4 1518/3/4 1522/3/4
f 1523/3/4 1524/3/4 1525/3/4
f 1525/3/4 1524/3/4 1526/3/4
f 1527/1/4 1528/1/4 1530/1/4
f 1530/1/4 1528/1/4 1531/1/4
f 1529/1/4 1530/1/4 1534/1/4
f 1531/1/4 1532/1/4 1534/1/4
f 1530/1/4 1531/1/4 1534/1/4
f 1534/1/4 1532/1/4 1535/1/4
f 1535/1/4 1532/1/4 1536/1/4
f 1536/1/4 1532/1/4 1537/1/4
f 1533/1/4 1534/1/4 1540/1/4
f 1534/1/4 1535/1/4 1540/1/4
f 1540/1/4 1535/1/4 1541/1/4
f 1535/4/4 1536/4/4 1542/4/4
f 1541/1/4 1535/1/4 1542/1/4
f 1537/1/4 1538/1/4 1543/1/4
f 1542/4/4 1536/4/4 1543/4/4
f 1536/1/4 1537/1/4 1543/1/4
f 1543/1/4 1538/1/4 1544/1/4
f 1544/1/4 1538/1/4 1545/1/4
f 1539/1/4 1540/1/4 1548/1/4
f 1540/1/4 1541/1/4 1548/1/4
f 1548/1/4 1541/1/4 1549/1/4
f 1541/4/4 1542/4/4 1550/4/4
f 1549/1/4 1541/1/4 1550/1/4
f 1542/4/4 1543/4/4 1550/4/4
f 1543/4/4 1544/4/4 1550/4/4
f 1545/1/4 1546/1/4 1551/1/4
f 1550/4/4 1544/4/4 1551/4/4
f 1544/1/4 1545/1/4 1551/1/4
f 1551/1/4 1546/1/4 1552/1/4
f 1552/1/4 1546/1/4 1553/1/4
f 1548/1/4 1549/1/4 1556/1/4
f 1547/1/4 1548/1/4 1556/1/4
f 1556/1/4 1549/1/4 1557/1/4
f 1549/4/4 1550/4/4 1558/4/4
f 1557/1/4 1549/1/4 1558/1/4
f 1550/4/4 1551/4/4 1558/4/4
f 1551/4/4 1552/4/4 1558/4/4
f 1553/1/4 1554/1/4 1559/1/4
f 1558/4/4 1552/4/4 1559/4/4
f 1552/1/4 1553/1/4 1559/1/4
f 1559/1/4 1554/1/4 1560/1/4
f 1560/1/4 1554/1/4 1561/1/4
f 1556/1/4 1557/1/4 1564/1/4
f 1555/1/4 1556/1/4 1564/1/4
f 1564/1/4 1557/1/4 1565/1/4
f 1557/4/4 1558/4/4 1566/4/4
f 1565/1/4 1557/1/4 1566/1/4
f 1558/4/4 1559/4/4 1566/4/4
f 1559/4/4 1560/4/4 1566/4/4
f 1561/1/4 1562/1/4 1567/1/4
f 1566/4/4 1560/4/4 1567/4/4
f 1560/1/4 1561/1/4 1567/1/4
f 1567/1/4 1562/1/4 1568/1/4
f 1564/1/4 1565/1/4 1570/1/4
f 1563/1/4 1564/1/4 1570/1/4
f 1570/1/4 1565/1/4 1571/1/4
f 1565/4/4 1566/4/4 1572/4/4
f 1571/1/4 1565/1/4 1572/1/4
f 1567/4/4 1568/4/4 1572/4/4
f 1566/4/4 1567/4/4 1572/4/4
f 1570/1/4 1571/1/4 1573/1/4
f 1569/1/4 1570/1/4 1573/1/4
f 1571/4/4 1572/4/4 1574/4/4
f 1573/1/4 1571/1/4 1574/1/4
f 1569/1/4 1573/1/4 1575/1/4
f 1573/4/4 1574/4/4 1575/4/4
f 1574/4/4 1572/4/4 1576/4/4
f 1575/4/4 1574/4/4 1576/4/4
f 1569/1/4 1575/1/4 1577/1/4
f 1575/1/4 1576/1/4 1577/1/4
f 1577/1/4 1576/1/4 1578/1/4
f 1576/4/4 1572/4/4 1579/4/4
f 1578/1/4 1576/1/4 1579/1/4
f 1572/4/4 1568/4/4 1580/4/4
f 1579/4/4 1572/4/4 1580/4/4
f 1578/1/4 1579/1/4 1581/1/4
f 1579/1/4 1580/1/4 1581/1/4
f 1581/1/4 1580/1/4 1582/1/4
f 1580/4/4 1568/4/4 1583/4/4
f 1582/1/4 1580/1/4 1583/1/4
f 1583/4/4 1568/4/4 1584/4/4
f 1584/4/4 1568/4/4 1585/4/4
f 1568/1/4 1562/1/4 1586/1/4
f 1585/4/4 1568/4/4 1586/4/4
f 1582/1/4 1583/1/4 1587/1/4
f 1583/1/4 1584/1/4 1587/1/4
f 1587/1/4 1584/1/4 1588/1/4
f 1584/4/4 1585/4/4 1589/4/4
f 1588/1/4 1584/1/4 1589/1/4
f 1589/4/4 1585/4/4 1590/4/4
f 1590/4/4 1585/4/4 1591/4/4
f 1585/1/4 1586/1/4 1592/1/4
f 1591/4/4 1585/4/4 1592/4/4
f 1586/1/4 1562/1/4 1593/1/4
f 1592/1/4 1586/1/4 1593/1/4
f 1593/1/4 1562/1/4 1594/1/4
f 1588/1/4 1589/1/4 1595/1/4
f 1589/1/4 1590/1/4 1595/1/4
f 1595/1/4 1590/1/4 1596/1/4
f 1590/4/4 1591/4/4 1597/4/4
f 1596/1/4 1590/1/4 1597/1/4
f 1597/4/4 1591/4/4 1598/4/4
f 1598/4/4 1591/4/4 1599/4/4
f 1591/1/4 1592/1/4 1600/1/4
f 1599/4/4 1591/4/4 1600/4/4
f 1592/1/4 1593/1/4 1600/1/4
f 1600/1/4 1593/1/4 1601/1/4
f 1601/1/4 1593/1/4 1602/1/4
f 1597/1/4 1598/1/4 1603/1/4
f 1596/1/4 1597/1/4 1603/1/4
f 1603/1/4 1598/1/4 1604/1/4
f 1598/4/4 1599/4/4 1605/4/4
f 1604/1/4 1598/1/4 1605/1/4
f 1605/4/4 1599/4/4 1606/4/4
f 1606/4/4 1599/4/4 1607/4/4
f 1600/1/4 1601/1/4 1608/1/4
f 1607/4/4 1599/4/4 1608/4/4
f 1599/1/4 1600/1/4 1608/1/4
f 1608/1/4 1601/1/4 1609/1/4
f 1609/1/4 1601/1/4 1610/1/4
f 1605/1/4 1606/1/4 1611/1/4
f 1604/1/4 1605/1/4 1611/1/4
f 1611/1/4 1606/1/4 1612/1/4
f 1606/4/4 1607/4/4 1613/4/4
f 1612/1/4 1606/1/4 1613/1/4
f 1608/1/4 1609/1/4 1614/1/4
f 1613/4/4 1607/4/4 1614/4/4
f 1607/1/4 1608/1/4 1614/1/4
f 1614/1/4 1609/1/4 1615/1/4
f 1615/1/4 1609/1/4 1616/1/4
f 1612/1/4 1613/1/4 1617/1/4
f 1614/1/4 1615/1/4 1617/1/4
f 1613/1/4 1614/1/4 1617/1/4
f 1617/1/4 1615/1/4 1618/1/4
f 1618/1/4 1615/1/4 1619/1/4
f 1619/1/4 1615/1/4 1620/1/4
f 1618/1/4 1619/1/4 1621/1/4
f 1621/1/4 1619/1/4 1622/1/4
f 1625/1/5 1624/1/5 1623/1/5
f 1626/1/5 1624/1/5 1625/1/5
f 1629/1/5 1628/1/5 1627/1/5
f 1630/1/5 1628/1/5 1629/1/5
f 1633/1/5 1632/1/5 1631/1/5
f 1634/1/5 1632/1/5 1633/1/5
f 1637/1/5 1636/1/5 1635/1/5
f 1638/1/5 1636/1/5 1637/1/5
f 1641/1/5 1640/1/5 1639/1/5
f 1642/1/5 1640/1/5 1641/1/5
f 1647/1/5 1644/1/5 1643/1/5
f 1648/1/5 1644/1/5 1647/1/5
f 1651/1/5 1646/1/5 1645/1/5
f 1652/1/5 1646/1/5 1651/1/5
f 1655/2/5 1650/2/5 1649/2/5
f 1656/2/5 1650/2/5 1655/2/5
f 1659/1/5 1654/1/5 1653/1/5
f 1660/1/5 1654/1/5 1659/1/5
f 1661/1/5 1658/1/5 1657/1/5
f 1662/1/5 1658/1/5 1661/1/5
f 1667/2/5 1664/2/5 1663/2/5
f 1668/2/5 1664/2/5 1667/2/5
f 1669/2/5 1666/2/5 1665/2/5
f 1670/2/5 1666/2/5 1669/2/5
f 1673/1/5 1672/1/5 1671/1/5
f 1674/1/5 1672/1/5 1673/1/5
f 1677/1/5 1676/1/5 1675/1/5
f 1678/1/5 1676/1/5 1677/1/5
f 1683/1/5 1680/1/5 1679/1/5
f 1684/1/5 1680/1/5 1683/1/5
f 1687/1/5 1682/1/5 1681/1/5
f 1688/1/5 1682/1/5 1687/1/5
f 1690/2/5 1685/2/5 1684/2/5
f 1691/2/5 1685/2/5 1690/2/5
f 1692/2/5 1687/2/5 1686/2/5
f 1693/2/5 1687/2/5 1692/2/5
f 1695/1/5 1690/1/5 1689/1/5
f 1696/1/5 1690/1/5 1695/1/5
f 1697/1/5 1694/1/5 1693/1/5
f 1698/1/5 1694/1/5 1697/1/5
f 1701/1/5 1700/1/5 1699/1/5
f 1702/1/5 1700/1/5 1701/1/5
f 1705/1/5 1704/1/5 1703/1/5
f 1706/1/5 1704/1/5 1705/1/5
f 1711/1/5 1708/1/5 1707/1/5
f 1712/1/5 1708/1/5 1711/1/5
f 1715/1/5 1710/1/5 1709/1/5
f 1716/1/5 1710/1/5 1715/1/5
f 1718/2/5 1713/2/5 1712/2/5
f 1719/2/5 1713/2/5 1718/2/5
f 1720/2/5 1715/2/5 1714/2/5
f 1721/2/5 1715/2/5 1720/2/5
f 1723/1/5 1718/1/5 1717/1/5
f 1724/1/5 1718/1/5 1723/1/5
f 1725/1/5 1722/1/5 1721/1/5
f 1726/1/5 1722/1/5 1725/1/5
f 1729/1/5 1728/1/5 1727/1/5
f 1730/1/5 1728/1/5 1729/1/5
f 1733/1/5 1732/1/5 1731/1/5
f 1734/1/5 1732/1/5 1733/1/5
f 1739/1/5 1736/1/5 1735/1/5
f 1740/1/5 1736/1/5 1739/1/5
f 1743/1/5 1738/1/5 1737/1/5
f 1744/1/5 1738/1/5 1743/1/5
f 1746/2/5 1741/2/5 1740/2/5
f 1747/2/5 1743/2/5 1742/2/5
f 1749/3/5 1746/3/5 1745/3/5
f 1750/2/5 1741/2/5 1746/2/5
f 1750/3/5 1746/3/5 1749/3/5
f 1751/3/5 1748/3/5 1747/3/5
f 1751/2/5 1747/2/5 1742/2/5
f 1752/3/5 1748/3/5 1751/3/5
f 1754/2/5 1741/2/5 1750/2/5
f 1755/2/5 1741/2/5 1754/2/5
f 1756/2/5 1751/2/5 1742/2/5
f 1757/2/5 1751/2/5 1756/2/5
f 1759/1/5 1754/1/5 1753/1/5
f 1760/1/5 1754/1/5 1759/1/5
f 1761/1/5 1758/1/5 1757/1/5
f 1762/1/5 1758/1/5 1761/1/5
f 1767/3/5 1764/3/5 1763/3/5
f 1768/3/5 1764/3/5 1767/3/5
f 1769/3/5 1766/3/5 1765/3/5
f 1770/3/5 1766/3/5 1769/3/5
f 1775/3/5 1772/3/5 1771/3/5
f 1776/3/5 1772/3/5 1775/3/5
f 1777/3/5 1774/3/5 1773/3/5
f 1778/3/5 1774/3/5 1777/3/5
f 1781/1/5 1780/1/5 1779/1/5
f 1782/1/5 1780/1/5 1781/1/5
f 1785/1/5 1784/1/5 1783/1/5
f 1786/1/5 1784/1/5 1785/1/5
f 1791/1/5 1788/1/5 1787/1/5
f 1792/1/5 1788/1/5 1791/1/5
f 1795/1/5 1790/1/5 1789/1/5
f 1796/1/5 1790/1/5 1795/1/5
f 1797/2/5 1793/2/5 1792/2/5
f 1798/2/5 1793/2/5 1797/2/5
f 1799/2/5 1795/2/5 1794/2/5
f 1800/2/5 1795/2/5 1799/2/5
f 1806/2/5 1802/2/5 1801/2/5
f 1807/2/5 1802/2/5 1806/2/5
f 1808/2/5 1804/2/5 1803/2/5
f 1809/2/5 1804/2/5 1808/2/5
f 1811/1/5 1806/1/5 1805/1/5
f 1812/1/5 1806/1/5 1811/1/5
f 1813/1/5 1810/1/5 1809/1/5
f 1814/1/5 1810/1/5 1813/1/5
f 1817/1/5 1816/1/5 1815/1/5
f 1818/1/5 1816/1/5 1817/1/5
f 1821/3/5 1820/3/5 1819/3/5
f 1822/3/5 1820/3/5 1821/3/5
f 1829/1/5 1824/1/5 1823/1/5
f 1830/1/5 1824/1/5 1829/1/5
f 1831/1/5 1826/1/5 1825/1/5
f 1832/1/5 1826/1/5 1831/1/5
f 1835/1/5 1828/1/5 1827/1/5
f 1836/1/5 1828/1/5 1835/1/5
f 1838/2/5 1833/2/5 1832/2/5
f 1839/2/5 1833/2/5 1838/2/5
f 1840/2/5 1835/2/5 1834/2/5
f 1841/2/5 1835/2/5 1840/2/5
f 1843/1/5 1838/1/5 1837/1/5
f 1844/1/5 1838/1/5 1843/1/5
f 1845/1/5 1842/1/5 1841/1/5
f 1846/1/5 1842/1/5 1845/1/5
f 1849/3/5 1848/3/5 1847/3/5
f 1850/3/5 1848/3/5 1849/3/5
f 1853/3/5 1852/3/5 1851/3/5
f 1854/3/5 1852/3/5 1853/3/5
f 1857/1/5 1856/1/5 1855/1/5
f 1858/1/5 1856/1/5 1857/1/5
f 1861/3/5 1860/3/5 1859/3/5
f 1862/3/5 1860/3/5 1861/3/5
f 1865/3/5 1864/3/5 1863/3/5
f 1866/3/5 1864/3/5 1865/3/5
f 1872/1/5 1870/1/5 1869/1/5
f 1872/1/5 1871/1/5 1870/1/5
f 1873/1/5 1871/1/5 1872/1/5
f 1874/1/5 1868/1/5 1867/1/5
f 1875/1/5 1868/1/5 1874/1/5
f 1878/1/5 1872/1/5 1869/1/5
f 1879/1/5 1872/1/5 1878/1/5
f 1881/2/5 1876/2/5 1875/2/5
f 1882/2/5 1876/2/5 1881/2/5
f 1883/2/5 1878/2/5 1877/2/5
f 1884/2/5 1878/2/5 1883/2/5
f 1886/1/5 1881/1/5 1880/1/5
f 1887/1/5 1881/1/5 1886/1/5
f 1888/1/5 1885/1/5 1884/1/5
f 1889/1/5 1885/1/5 1888/1/5
f 1892/3/5 1891/3/5 1890/3/5
f 1893/3/5 1891/3/5 1892/3/5
f 1896/3/5 1895/3/5 1894/3/5
f 1897/3/5 1895/3/5 1896/3/5
f 1900/3/5 1899/3/5 1898/3/5
f 1901/3/5 1899/3/5 1900/3/5
f 1906/3/5 1903/3/5 1902/3/5
f 1907/3/5 1903/3/5 1906/3/5
f 1908/3/5 1905/3/5 1904/3/5
f 1909/3/5 1905/3/5 1908/3/5
f 1912/3/5 1911/3/5 1910/3/5
f 1913/3/5 1911/3/5 1912/3/5
f 1916/3/5 1915/3/5 1914/3/5
f 1917/3/5 1915/3/5 1916/3/5
f 1922/3/5 1919/3/5 1918/3/5
f 1923/3/5 1919/3/5 1922/3/5
f 1924/3/5 1921/3/5 1920/3/5
f 1925/3/5 1921/3/5 1924/3/5
f 1930/3/5 1927/3/5 1926/3/5
f 1931/3/5 1927/3/5 1930/3/5
f 1932/3/5 1929/3/5 1928/3/5
f 1933/3/5 1929/3/5 1932/3/5
f 1936/3/5 1935/3/5 1934/3/5
f 1937/3/5 1935/3/5 1936/3/5
f 1942/1/5 1939/1/5 1938/1/5
f 1943/1/5 1939/1/5 1942/1/5
f 1944/1/5 1941/1/5 1940/1/5
f 1945/1/5 1941/1/5 1944/1/5
f 1946/2/5 1943/2/5 1942/2/5
f 1947/2/5 1943/2/5 1946/2/5
f 1948/2/5 1945/2/5 1944/2/5
f 1949/2/5 1945/2/5 1948/2/5
f 1954/1/5 1951/1/5 1950/1/5
f 1955/1/5 1951/1/5 1954/1/5
f 1956/1/5 1953/1/5 1952/1/5
f 1957/1/5 1953/1/5 1956/1/5
f 1958/2/5 1955/2/5 1954/2/5
f 1959/2/5 1955/2/5 1958/2/5
f 1960/2/5 1957/2/5 1956/2/5
f 1961/2/5 1957/2/5 1960/2/5
f 1966/1/5 1963/1/5 1962/1/5
f 1967/1/5 1963/1/5 1966/1/5
f 1968/1/5 1965/1/5 1964/1/5
f 1969/1/5 1965/1/5 1968/1/5
f 1970/2/5 1967/2/5 1966/2/5
f 1971/2/5 1967/2/5 1970/2/5
f 1972/2/5 1969/2/5 1968/2/5
f 1973/2/5 1969/2/5 1972/2/5
f 1978/1/5 1975/1/5 1974/1/5
f 1979/1/5 1975/1/5 1978/1/5
f 1980/1/5 1977/1/5 1976/1/5
f 1981/1/5 1977/1/5 1980/1/5
f 1982/2/5 1979/2/5 1978/2/5
f 1983/2/5 1979/2/5 1982/2/5
f 1984/2/5 1981/2/5 1980/2/5
f 1985/2/5 1981/2/5 1984/2/5
f 1988/1/5 1987/1/5 1986/1/5
f 1989/1/5 1987/1/5 1988/1/5
f 1990/2/5 1989/2/5 1988/2/5
f 1991/2/5 1989/2/5 1990/2/5
f 1992/1/6 1993/1/6 1994/1/6
f 1994/1/6 1993/1/6 1995/1/6
f 1994/2/6 1995/2/6 1996/2/6
f 1996/2/6 1995/2/6 1997/2/6
f 1998/1/6 1999/1/6 2002/1/6
f 2002/1/6 1999/1/6 2003/1/6
f 2000/1/6 2001/1/6 2004/1/6
f 2004/1/6 2001/1/6 2005/1/6
f 2002/2/6 2003/2/6 2006/2/6
f 2006/2/6 2003/2/6 2007/2/6
f 2004/2/6 2005/2/6 2008/2/6
f 2008/2/6 2005/2/6 2009/2/6
f 2010/1/6 2011/1/6 2014/1/6
f 2014/1/6 2011/1/6 2015/1/6
f 2012/1/6 2013/1/6 2016/1/6
f 2016/1/6 2013/1/6 2017/1/6
f 2014/2/6 2015/2/6 2018/2/6
f 2018/2/6 2015/2/6 2019/2/6
f 2016/2/6 2017/2/6 2020/2/6
f 2020/2/6 2017/2/6 2021/2/6
f 2022/1/6 2023/1/6 2026/1/6
f 2026/1/6 2023/1/6 2027/1/6
f 2024/1/6 2025/1/6 2028/1/6
f 2028/1/6 2025/1/6 2029/1/6
f 2026/2/6 2027/2/6 2030/2/6
f 2030/2/6 2027/2/6 2031/2/6
f 2028/2/6 2029/2/6 2032/2/6
f 2032/2/6 2029/2/6 2033/2/6
f 2034/3/6 2035/3/6 2038/3/6
f 2038/3/6 2035/3/6 2039/3/6
f 2036/3/6 2037/3/6 2040/3/6
f 2040/3/6 2037/3/6 2041/3/6
f 2042/3/6 2043/3/6 2046/3/6
f 2046/3/6 2043/3/6 2047/3/6
f 2044/3/6 2045/3/6 2048/3/6
f 2048/3/6 2045/3/6 2049/3/6
f 2050/1/6 2051/1/6 2054/1/6
f 2054/1/6 2051/1/6 2055/1/6
f 2052/1/6 2053/1/6 2056/1/6
f 2056/1/6 2053/1/6 2057/1/6
f 2054/2/6 2055/2/6 2058/2/6
f 2058/2/6 2055/2/6 2059/2/6
f 2056/2/6 2057/2/6 2060/2/6
f 2060/2/6 2057/2/6 2061/2/6
f 2062/1/6 2063/1/6 2066/1/6
f 2066/1/6 2063/1/6 2067/1/6
f 2064/1/6 2065/1/6 2068/1/6
f 2068/1/6 2065/1/6 2069/1/6
f 2066/2/6 2067/2/6 2070/2/6
f 2070/2/6 2067/2/6 2071/2/6
f 2068/2/6 2069/2/6 2072/2/6
f 2072/2/6 2069/2/6 2073/2/6
f 2074/1/6 2075/1/6 2078/1/6
f 2078/1/6 2075/1/6 2079/1/6
f 2076/1/6 2077/1/6 2080/1/6
f 2080/1/6 2077/1/6 2081/1/6
f 2078/2/6 2079/2/6 2082/2/6
f 2082/2/6 2079/2/6 2083/2/6
f 2080/2/6 2081/2/6 2084/2/6
f 2084/2/6 2081/2/6 2085/2/6
f 2086/3/6 2087/3/6 2088/3/6
f 2088/3/6 2087/3/6 2089/3/6
f 2090/3/6 2091/3/6 2092/3/6
f 2092/3/6 2091/3/6 2093/3/6
f 2094/3/6 2095/3/6 2096/3/6
f 2096/3/6 2095/3/6 2097/3/6
f 2098/3/6 2099/3/6 2100/3/6
f 2100/3/6 2099/3/6 2101/3/6
f 2102/3/6 2103/3/6 2104/3/6
f 2104/3/6 2103/3/6 2105/3/6
f 2106/3/6 2107/3/6 2108/3/6
f 2108/3/6 2107/3/6 2109/3/6
f 2110/3/6 2111/3/6 2112/3/6
f 2112/3/6 2111/3/6 2113/3/6
f 2114/3/6 2115/3/6 2118/3/6
f 2118/3/6 2115/3/6 2119/3/6
f 2116/3/6 2117/3/6 2120/3/6
f 2120/3/6 2117/3/6 2121/3/6
f 2122/3/6 2123/3/6 2126/3/6
f 2126/3/6 2123/3/6 2127/3/6
f 2124/3/6 2125/3/6 2128/3/6
f 2128/3/6 2125/3/6 2129/3/6
f 2130/3/6 2131/3/6 2134/3/6
f 2134/3/6 2131/3/6 2135/3/6
f 2132/3/6 2133/3/6 2136/3/6
f 2136/3/6 2133/3/6 2137/3/6
f 2138/3/6 2139/3/6 2140/3/6
f 2140/3/6 2139/3/6 2141/3/6
f 2142/3/6 2143/3/6 2144/3/6
f 2144/3/6 2143/3/6 2145/3/6
f 2146/3/6 2147/3/6 2148/3/6
f 2148/3/6 2147/3/6 2149/3/6
f 2150/3/6 2151/3/6 2156/3/6
f 2156/3/6 2151/3/6 2157/3/6
f 2152/2/6 2153/2/6 2158/2/6
f 2158/2/6 2153/2/6 2159/2/6
f 2154/2/6 2155/2/6 2160/2/6
f 2160/2/6 2155/2/6 2161/2/6
f 2162/1/6 2163/1/6 2164/1/6
f 2164/1/6 2163/1/6 2165/1/6
f 2168/1/6 2169/1/6 2171/1/6
f 2169/1/6 2170/1/6 2171/1/6
f 2171/1/6 2170/1/6 2172/1/6
f 2166/1/6 2167/1/6 2173/1/6
f 2173/1/6 2167/1/6 2174/1/6
f 2168/1/6 2171/1/6 2179/1/6
f 2179/1/6 2171/1/6 2180/1/6
f 2175/2/6 2176/2/6 2181/2/6
f 2181/2/6 2176/2/6 2182/2/6
f 2177/2/6 2178/2/6 2183/2/6
f 2183/2/6 2178/2/6 2184/2/6
f 2185/2/6 2186/2/6 2191/2/6
f 2191/2/6 2186/2/6 2192/2/6
f 2187/2/6 2188/2/6 2193/2/6
f 2193/2/6 2188/2/6 2194/2/6
f 2189/1/6 2190/1/6 2197/1/6
f 2197/1/6 2190/1/6 2198/1/6
f 2195/1/6 2196/1/6 2199/1/6
f 2199/1/6 2196/1/6 2200/1/6
f 2201/1/6 2202/1/6 2203/1/6
f 2203/1/6 2202/1/6 2204/1/6
f 2205/1/6 2206/1/6 2211/1/6
f 2211/1/6 2206/1/6 2212/1/6
f 2207/1/6 2208/1/6 2213/1/6
f 2213/1/6 2208/1/6 2214/1/6
f 2209/1/6 2210/1/6 2219/1/6
f 2219/1/6 2210/1/6 2220/1/6
f 2215/2/6 2216/2/6 2221/2/6
f 2221/2/6 2216/2/6 2222/2/6
f 2217/2/6 2218/2/6 2223/2/6
f 2223/2/6 2218/2/6 2224/2/6
f 2225/3/6 2226/3/6 2229/3/6
f 2229/3/6 2226/3/6 2230/3/6
f 2227/3/6 2228/3/6 2231/3/6
f 2231/3/6 2228/3/6 2232/3/6
f 2233/2/6 2234/2/6 2239/2/6
f 2239/2/6 2234/2/6 2240/2/6
f 2235/2/6 2236/2/6 2241/2/6
f 2241/2/6 2236/2/6 2242/2/6
f 2237/1/6 2238/1/6 2245/1/6
f 2245/1/6 2238/1/6 2246/1/6
f 2243/1/6 2244/1/6 2247/1/6
f 2247/1/6 2244/1/6 2248/1/6
f 2249/1/6 2250/1/6 2251/1/6
f 2251/1/6 2250/1/6 2252/1/6
f 2253/1/6 2254/1/6 2255/1/6
f 2255/1/6 2254/1/6 2256/1/6
f 2257/1/6 2258/1/6 2261/1/6
f 2261/1/6 2258/1/6 2262/1/6
f 2259/1/6 2260/1/6 2267/1/6
f 2267/1/6 2260/1/6 2268/1/6
f 2263/2/6 2264/2/6 2270/2/6
f 2265/2/6 2266/2/6 2271/2/6
f 2269/3/6 2270/3/6 2273/3/6
f 2270/2/6 2264/2/6 2273/2/6
f 2273/2/6 2264/2/6 2274/2/6
f 2265/2/6 2271/2/6 2275/2/6
f 2271/3/6 2272/3/6 2276/3/6
f 2275/2/6 2271/2/6 2276/2/6
f 2269/3/6 2273/3/6 2277/3/6
f 2276/3/6 2272/3/6 2280/3/6
f 2269/3/6 2277/3/6 2281/3/6
f 2277/2/6 2278/2/6 2282/2/6
f 2281/3/6 2277/3/6 2282/3/6
f 2279/2/6 2280/2/6 2283/2/6
f 2280/3/6 2272/3/6 2283/3/6
f 2283/3/6 2272/3/6 2284/3/6
f 2282/2/6 2278/2/6 2287/2/6
f 2287/2/6 2278/2/6 2288/2/6
f 2279/2/6 2283/2/6 2289/2/6
f 2289/2/6 2283/2/6 2290/2/6
f 2285/1/6 2286/1/6 2293/1/6
f 2293/1/6 2286/1/6 2294/1/6
f 2291/1/6 2292/1/6 2295/1/6
f 2295/1/6 2292/1/6 2296/1/6
f 2297/1/6 2298/1/6 2299/1/6
f 2299/1/6 2298/1/6 2300/1/6
f 2301/1/6 2302/1/6 2303/1/6
f 2303/1/6 2302/1/6 2304/1/6
f 2305/1/6 2306/1/6 2309/1/6
f 2309/1/6 2306/1/6 2310/1/6
f 2307/1/6 2308/1/6 2315/1/6
f 2315/1/6 2308/1/6 2316/1/6
f 2311/2/6 2312/2/6 2318/2/6
f 2313/2/6 2314/2/6 2319/2/6
f 2317/3/6 2318/3/6 2321/3/6
f 2318/2/6 2312/2/6 2322/2/6
f 2321/3/6 2318/3/6 2322/3/6
f 2319/3/6 2320/3/6 2323/3/6
f 2313/2/6 2319/2/6 2323/2/6
f 2323/3/6 2320/3/6 2324/3/6
f 2322/2/6 2312/2/6 2327/2/6
f 2327/2/6 2312/2/6 2328/2/6
f 2313/2/6 2323/2/6 2329/2/6
f 2329/2/6 2323/2/6 2330/2/6
f 2325/1/6 2326/1/6 2333/1/6
f 2333/1/6 2326/1/6 2334/1/6
f 2331/1/6 2332/1/6 2335/1/6
f 2335/1/6 2332/1/6 2336/1/6
f 2337/1/6 2338/1/6 2339/1/6
f 2339/1/6 2338/1/6 2340/1/6
f 2341/1/6 2342/1/6 2343/1/6
f 2343/1/6 2342/1/6 2344/1/6
f 2345/1/6 2346/1/6 2349/1/6
f 2349/1/6 2346/1/6 2350/1/6
f 2347/1/6 2348/1/6 2353/1/6
f 2353/1/6 2348/1/6 2354/1/6
f 2351/2/6 2352/2/6 2355/2/6
f 2355/2/6 2352/2/6 2356/2/6
f 2351/2/6 2355/2/6 2357/2/6
f 2357/2/6 2355/2/6 2358/2/6
f 2356/2/6 2352/2/6 2359/2/6
f 2359/2/6 2352/2/6 2360/2/6
f 2351/2/6 2357/2/6 2361/2/6
f 2360/2/6 2352/2/6 2364/2/6
f 2361/2/6 2362/2/6 2365/2/6
f 2363/2/6 2364/2/6 2366/2/6
f 2361/2/6 2365/2/6 2369/2/6
f 2351/2/6 2361/2/6 2369/2/6
f 2365/2/6 2366/2/6 2369/2/6
f 2366/2/6 2364/2/6 2370/2/6
f 2369/2/6 2366/2/6 2370/2/6
f 2364/2/6 2352/2/6 2370/2/6
f 2367/1/6 2368/1/6 2373/1/6
f 2373/1/6 2368/1/6 2374/1/6
f 2371/1/6 2372/1/6 2375/1/6
f 2375/1/6 2372/1/6 2376/1/6
f 2377/1/6 2378/1/6 2379/1/6
f 2379/1/6 2378/1/6 2380/1/6
f 2381/1/6 2382/1/6 2383/1/6
f 2383/1/6 2382/1/6 2384/1/6
f 2385/3/6 2386/3/6 2388/3/6
f 2388/3/6 2386/3/6 2389/3/6
f 2387/3/6 2388/3/6 2391/3/6
f 2389/3/6 2390/3/6 2391/3/6
f 2388/3/6 2389/3/6 2391/3/6
f 2391/3/6 2390/3/6 2392/3/6
f 2392/3/6 2390/3/6 2393/3/6
f 2393/3/6 2390/3/6 2394/3/6
f 2392/3/6 2393/3/6 2395/3/6
f 2395/3/6 2393/3/6 2396/3/6
f 2397/1/6 2398/1/6 2399/1/6
f 2399/1/6 2398/1/6 2400/1/6
