# MagicaVoxel @ Ephtracy

# group
o 

# material
mtllib Tower-1.mtl
usemtl palette

# normals
vn -1 0 0
vn 1 0 0
vn 0 0 1
vn 0 0 -1
vn 0 -1 0
vn 0 1 0

# texcoords
vt 0.943359 0.5
vt 0.970703 0.5
vt 0.974609 0.5
vt 0.978516 0.5
vt 0.982422 0.5
vt 0.986328 0.5
vt 0.990234 0.5

# verts
v -2 0 2
v -2 0 0.8
v -2 0 0.7
v -2 0 -0.7
v -2 0 -0.8
v -2 0 -2
v -2 0.3 2
v -2 0.3 0.8
v -2 0.3 0.7
v -2 0.3 -0.7
v -2 0.3 -0.8
v -2 0.3 -2
v -1.9 0.3 1.9
v -1.9 0.3 0.8
v -1.9 0.3 0.7
v -1.9 0.3 -0.7
v -1.9 0.3 -0.8
v -1.9 0.3 -1.9
v -1.9 0.4 1.9
v -1.9 0.4 -1.9
v -1.9 0.8 1.9
v -1.9 0.8 -1.9
v -1.9 0.9 1.9
v -1.9 0.9 -1.9
v -1.8 0 0.8
v -1.8 0 0.7
v -1.8 0 -0.7
v -1.8 0 -0.8
v -1.8 0.3 0.8
v -1.8 0.3 0.7
v -1.8 0.3 -0.7
v -1.8 0.3 -0.8
v -1.8 0.9 1.8
v -1.8 0.9 -1.8
v -1.8 1 1.8
v -1.8 1 -1.8
v -1.8 1.2 1.8
v -1.8 1.2 -1.8
v -1.8 1.3 1.8
v -1.8 1.3 -1.8
v -1.7 0.4 1.7
v -1.7 0.4 0.2
v -1.7 0.4 0.0999999
v -1.7 0.4 -0.1
v -1.7 0.4 -0.2
v -1.7 0.4 -1.7
v -1.7 0.5 1.1
v -1.7 0.5 0.9
v -1.7 0.5 0.3
v -1.7 0.5 0.2
v -1.7 0.5 0.0999999
v -1.7 0.5 -0.1
v -1.7 0.5 -0.2
v -1.7 0.5 -0.3
v -1.7 0.5 -0.9
v -1.7 0.5 -1.1
v -1.7 0.7 1.1
v -1.7 0.7 0.9
v -1.7 0.7 0.3
v -1.7 0.7 0.2
v -1.7 0.7 0.0999999
v -1.7 0.7 -0.1
v -1.7 0.7 -0.2
v -1.7 0.7 -0.3
v -1.7 0.7 -0.9
v -1.7 0.7 -1.1
v -1.7 0.8 1.7
v -1.7 0.8 0.2
v -1.7 0.8 0.0999999
v -1.7 0.8 -0.1
v -1.7 0.8 -0.2
v -1.7 0.8 -1.7
v -1.7 1 1.7
v -1.7 1 -1.7
v -1.7 1.2 1.7
v -1.7 1.2 -1.7
v -1.7 1.3 1.7
v -1.7 1.3 1.3
v -1.7 1.3 -1.3
v -1.7 1.3 -1.7
v -1.7 1.4 1.7
v -1.7 1.4 1.3
v -1.7 1.4 -1.3
v -1.7 1.4 -1.7
v -1.7 1.5 1.6
v -1.7 1.5 1.4
v -1.7 1.5 -1.4
v -1.7 1.5 -1.6
v -1.7 1.6 1.7
v -1.7 1.6 1.6
v -1.7 1.6 1.4
v -1.7 1.6 1.3
v -1.7 1.6 -1.3
v -1.7 1.6 -1.4
v -1.7 1.6 -1.6
v -1.7 1.6 -1.7
v -1.7 1.8 1.7
v -1.7 1.8 1.3
v -1.7 1.8 -1.3
v -1.7 1.8 -1.7
v -1.6 1.4 1.6
v -1.6 1.4 1.4
v -1.6 1.4 -1.4
v -1.6 1.4 -1.6
v -1.6 1.5 1.7
v -1.6 1.5 1.6
v -1.6 1.5 1.4
v -1.6 1.5 1.3
v -1.6 1.5 -1.3
v -1.6 1.5 -1.4
v -1.6 1.5 -1.6
v -1.6 1.5 -1.7
v -1.6 1.6 1.7
v -1.6 1.6 1.6
v -1.6 1.6 1.4
v -1.6 1.6 1.3
v -1.6 1.6 -1.3
v -1.6 1.6 -1.4
v -1.6 1.6 -1.6
v -1.6 1.6 -1.7
v -1.4 1.6 1.6
v -1.4 1.6 1.4
v -1.4 1.6 -1.4
v -1.4 1.6 -1.6
v -1.4 1.8 1.6
v -1.4 1.8 1.4
v -1.4 1.8 -1.4
v -1.4 1.8 -1.6
v -0.7 0 2
v -0.7 0 1.8
v -0.7 0 -1.8
v -0.7 0 -2
v -0.7 0.3 2
v -0.7 0.3 1.9
v -0.7 0.3 1.8
v -0.7 0.3 -1.8
v -0.7 0.3 -1.9
v -0.7 0.3 -2
v 0.8 0 2
v 0.8 0 1.8
v 0.8 0 -1.8
v 0.8 0 -2
v 0.8 0.3 2
v 0.8 0.3 1.9
v 0.8 0.3 1.8
v 0.8 0.3 -1.8
v 0.8 0.3 -1.9
v 0.8 0.3 -2
v 1.3 1.3 1.7
v 1.3 1.3 1.3
v 1.3 1.3 -1.3
v 1.3 1.3 -1.7
v 1.3 1.4 1.7
v 1.3 1.4 1.3
v 1.3 1.4 -1.3
v 1.3 1.4 -1.7
v 1.3 1.5 1.6
v 1.3 1.5 1.4
v 1.3 1.5 -1.4
v 1.3 1.5 -1.6
v 1.3 1.6 1.7
v 1.3 1.6 1.6
v 1.3 1.6 1.4
v 1.3 1.6 1.3
v 1.3 1.6 -1.3
v 1.3 1.6 -1.4
v 1.3 1.6 -1.6
v 1.3 1.6 -1.7
v 1.3 1.8 1.7
v 1.3 1.8 1.3
v 1.3 1.8 -1.3
v 1.3 1.8 -1.7
v 1.4 1.4 1.6
v 1.4 1.4 1.4
v 1.4 1.4 -1.4
v 1.4 1.4 -1.6
v 1.4 1.5 1.7
v 1.4 1.5 1.6
v 1.4 1.5 1.4
v 1.4 1.5 1.3
v 1.4 1.5 -1.3
v 1.4 1.5 -1.4
v 1.4 1.5 -1.6
v 1.4 1.5 -1.7
v 1.4 1.6 1.7
v 1.4 1.6 1.6
v 1.4 1.6 1.4
v 1.4 1.6 1.3
v 1.4 1.6 -1.3
v 1.4 1.6 -1.4
v 1.4 1.6 -1.6
v 1.4 1.6 -1.7
v 1.6 1.6 1.6
v 1.6 1.6 1.4
v 1.6 1.6 -1.4
v 1.6 1.6 -1.6
v 1.6 1.8 1.6
v 1.6 1.8 1.4
v 1.6 1.8 -1.4
v 1.6 1.8 -1.6
v -1.6 1.6 1.6
v -1.6 1.6 1.4
v -1.6 1.6 -1.4
v -1.6 1.6 -1.6
v -1.6 1.8 1.6
v -1.6 1.8 1.4
v -1.6 1.8 -1.4
v -1.6 1.8 -1.6
v -1.4 1.4 1.6
v -1.4 1.4 1.4
v -1.4 1.4 -1.4
v -1.4 1.4 -1.6
v -1.4 1.5 1.7
v -1.4 1.5 1.6
v -1.4 1.5 1.4
v -1.4 1.5 1.3
v -1.4 1.5 -1.3
v -1.4 1.5 -1.4
v -1.4 1.5 -1.6
v -1.4 1.5 -1.7
v -1.4 1.6 1.7
v -1.4 1.6 1.6
v -1.4 1.6 1.4
v -1.4 1.6 1.3
v -1.4 1.6 -1.3
v -1.4 1.6 -1.4
v -1.4 1.6 -1.6
v -1.4 1.6 -1.7
v -1.3 1.3 1.7
v -1.3 1.3 1.3
v -1.3 1.3 -1.3
v -1.3 1.3 -1.7
v -1.3 1.4 1.7
v -1.3 1.4 1.3
v -1.3 1.4 -1.3
v -1.3 1.4 -1.7
v -1.3 1.5 1.6
v -1.3 1.5 1.4
v -1.3 1.5 -1.4
v -1.3 1.5 -1.6
v -1.3 1.6 1.7
v -1.3 1.6 1.6
v -1.3 1.6 1.4
v -1.3 1.6 1.3
v -1.3 1.6 -1.3
v -1.3 1.6 -1.4
v -1.3 1.6 -1.6
v -1.3 1.6 -1.7
v -1.3 1.8 1.7
v -1.3 1.8 1.3
v -1.3 1.8 -1.3
v -1.3 1.8 -1.7
v -0.8 0 2
v -0.8 0 1.8
v -0.8 0 -1.8
v -0.8 0 -2
v -0.8 0.3 2
v -0.8 0.3 1.9
v -0.8 0.3 1.8
v -0.8 0.3 -1.8
v -0.8 0.3 -1.9
v -0.8 0.3 -2
v 0.7 0 2
v 0.7 0 1.8
v 0.7 0 -1.8
v 0.7 0 -2
v 0.7 0.3 2
v 0.7 0.3 1.9
v 0.7 0.3 1.8
v 0.7 0.3 -1.8
v 0.7 0.3 -1.9
v 0.7 0.3 -2
v 1.4 1.6 1.6
v 1.4 1.6 1.4
v 1.4 1.6 -1.4
v 1.4 1.6 -1.6
v 1.4 1.8 1.6
v 1.4 1.8 1.4
v 1.4 1.8 -1.4
v 1.4 1.8 -1.6
v 1.6 1.4 1.6
v 1.6 1.4 1.4
v 1.6 1.4 -1.4
v 1.6 1.4 -1.6
v 1.6 1.5 1.7
v 1.6 1.5 1.6
v 1.6 1.5 1.4
v 1.6 1.5 1.3
v 1.6 1.5 -1.3
v 1.6 1.5 -1.4
v 1.6 1.5 -1.6
v 1.6 1.5 -1.7
v 1.6 1.6 1.7
v 1.6 1.6 1.6
v 1.6 1.6 1.4
v 1.6 1.6 1.3
v 1.6 1.6 -1.3
v 1.6 1.6 -1.4
v 1.6 1.6 -1.6
v 1.6 1.6 -1.7
v 1.7 0.4 1.7
v 1.7 0.4 0.2
v 1.7 0.4 0.0999999
v 1.7 0.4 -0.1
v 1.7 0.4 -0.2
v 1.7 0.4 -1.7
v 1.7 0.5 1.1
v 1.7 0.5 0.9
v 1.7 0.5 0.3
v 1.7 0.5 0.2
v 1.7 0.5 0.0999999
v 1.7 0.5 -0.1
v 1.7 0.5 -0.2
v 1.7 0.5 -0.3
v 1.7 0.5 -0.9
v 1.7 0.5 -1.1
v 1.7 0.7 1.1
v 1.7 0.7 0.9
v 1.7 0.7 0.3
v 1.7 0.7 0.2
v 1.7 0.7 0.0999999
v 1.7 0.7 -0.1
v 1.7 0.7 -0.2
v 1.7 0.7 -0.3
v 1.7 0.7 -0.9
v 1.7 0.7 -1.1
v 1.7 0.8 1.7
v 1.7 0.8 0.2
v 1.7 0.8 0.0999999
v 1.7 0.8 -0.1
v 1.7 0.8 -0.2
v 1.7 0.8 -1.7
v 1.7 1 1.7
v 1.7 1 -1.7
v 1.7 1.2 1.7
v 1.7 1.2 -1.7
v 1.7 1.3 1.7
v 1.7 1.3 1.3
v 1.7 1.3 -1.3
v 1.7 1.3 -1.7
v 1.7 1.4 1.7
v 1.7 1.4 1.3
v 1.7 1.4 -1.3
v 1.7 1.4 -1.7
v 1.7 1.5 1.6
v 1.7 1.5 1.4
v 1.7 1.5 -1.4
v 1.7 1.5 -1.6
v 1.7 1.6 1.7
v 1.7 1.6 1.6
v 1.7 1.6 1.4
v 1.7 1.6 1.3
v 1.7 1.6 -1.3
v 1.7 1.6 -1.4
v 1.7 1.6 -1.6
v 1.7 1.6 -1.7
v 1.7 1.8 1.7
v 1.7 1.8 1.3
v 1.7 1.8 -1.3
v 1.7 1.8 -1.7
v 1.8 0 0.8
v 1.8 0 0.7
v 1.8 0 -0.7
v 1.8 0 -0.8
v 1.8 0.3 0.8
v 1.8 0.3 0.7
v 1.8 0.3 -0.7
v 1.8 0.3 -0.8
v 1.8 0.9 1.8
v 1.8 0.9 -1.8
v 1.8 1 1.8
v 1.8 1 -1.8
v 1.8 1.2 1.8
v 1.8 1.2 -1.8
v 1.8 1.3 1.8
v 1.8 1.3 -1.8
v 1.9 0.3 1.9
v 1.9 0.3 0.8
v 1.9 0.3 0.7
v 1.9 0.3 -0.7
v 1.9 0.3 -0.8
v 1.9 0.3 -1.9
v 1.9 0.4 1.9
v 1.9 0.4 -1.9
v 1.9 0.8 1.9
v 1.9 0.8 -1.9
v 1.9 0.9 1.9
v 1.9 0.9 -1.9
v 2 0 2
v 2 0 0.8
v 2 0 0.7
v 2 0 -0.7
v 2 0 -0.8
v 2 0 -2
v 2 0.3 2
v 2 0.3 0.8
v 2 0.3 0.7
v 2 0.3 -0.7
v 2 0.3 -0.8
v 2 0.3 -2
v -2 0 2
v -2 0.3 2
v -0.8 0 2
v -0.8 0.3 2
v -0.7 0 2
v -0.7 0.3 2
v 0.7 0 2
v 0.7 0.3 2
v 0.8 0 2
v 0.8 0.3 2
v 2 0 2
v 2 0.3 2
v -1.9 0.3 1.9
v -1.9 0.4 1.9
v -1.9 0.8 1.9
v -1.9 0.9 1.9
v -0.8 0.3 1.9
v -0.7 0.3 1.9
v 0.7 0.3 1.9
v 0.8 0.3 1.9
v 1.9 0.3 1.9
v 1.9 0.4 1.9
v 1.9 0.8 1.9
v 1.9 0.9 1.9
v -1.8 0.9 1.8
v -1.8 1 1.8
v -1.8 1.2 1.8
v -1.8 1.3 1.8
v -0.8 0 1.8
v -0.8 0.3 1.8
v -0.7 0 1.8
v -0.7 0.3 1.8
v 0.7 0 1.8
v 0.7 0.3 1.8
v 0.8 0 1.8
v 0.8 0.3 1.8
v 1.8 0.9 1.8
v 1.8 1 1.8
v 1.8 1.2 1.8
v 1.8 1.3 1.8
v -1.7 0.4 1.7
v -1.7 0.8 1.7
v -1.7 1 1.7
v -1.7 1.2 1.7
v -1.7 1.3 1.7
v -1.7 1.4 1.7
v -1.7 1.6 1.7
v -1.7 1.8 1.7
v -1.6 1.5 1.7
v -1.6 1.6 1.7
v -1.4 1.5 1.7
v -1.4 1.6 1.7
v -1.3 1.3 1.7
v -1.3 1.4 1.7
v -1.3 1.6 1.7
v -1.3 1.8 1.7
v -1.1 0.5 1.7
v -1.1 0.7 1.7
v -0.9 0.5 1.7
v -0.9 0.7 1.7
v -0.3 0.5 1.7
v -0.3 0.7 1.7
v -0.2 0.4 1.7
v -0.2 0.5 1.7
v -0.2 0.7 1.7
v -0.2 0.8 1.7
v -0.0999999 0.4 1.7
v -0.0999999 0.5 1.7
v -0.0999999 0.7 1.7
v -0.0999999 0.8 1.7
v 0.1 0.4 1.7
v 0.1 0.5 1.7
v 0.1 0.7 1.7
v 0.1 0.8 1.7
v 0.2 0.4 1.7
v 0.2 0.5 1.7
v 0.2 0.7 1.7
v 0.2 0.8 1.7
v 0.3 0.5 1.7
v 0.3 0.7 1.7
v 0.9 0.5 1.7
v 0.9 0.7 1.7
v 1.1 0.5 1.7
v 1.1 0.7 1.7
v 1.3 1.3 1.7
v 1.3 1.4 1.7
v 1.3 1.6 1.7
v 1.3 1.8 1.7
v 1.4 1.5 1.7
v 1.4 1.6 1.7
v 1.6 1.5 1.7
v 1.6 1.6 1.7
v 1.7 0.4 1.7
v 1.7 0.8 1.7
v 1.7 1 1.7
v 1.7 1.2 1.7
v 1.7 1.3 1.7
v 1.7 1.4 1.7
v 1.7 1.6 1.7
v 1.7 1.8 1.7
v -1.7 1.5 1.6
v -1.7 1.6 1.6
v -1.6 1.4 1.6
v -1.6 1.5 1.6
v -1.6 1.6 1.6
v -1.4 1.4 1.6
v -1.4 1.5 1.6
v -1.4 1.6 1.6
v -1.3 1.5 1.6
v -1.3 1.6 1.6
v 1.3 1.5 1.6
v 1.3 1.6 1.6
v 1.4 1.4 1.6
v 1.4 1.5 1.6
v 1.4 1.6 1.6
v 1.6 1.4 1.6
v 1.6 1.5 1.6
v 1.6 1.6 1.6
v 1.7 1.5 1.6
v 1.7 1.6 1.6
v -1.6 1.6 1.4
v -1.6 1.8 1.4
v -1.4 1.6 1.4
v -1.4 1.8 1.4
v 1.4 1.6 1.4
v 1.4 1.8 1.4
v 1.6 1.6 1.4
v 1.6 1.8 1.4
v -2 0 0.7
v -2 0.3 0.7
v -1.9 0.3 0.7
v -1.8 0 0.7
v -1.8 0.3 0.7
v 1.8 0 0.7
v 1.8 0.3 0.7
v 1.9 0.3 0.7
v 2 0 0.7
v 2 0.3 0.7
v -2 0 -0.8
v -2 0.3 -0.8
v -1.9 0.3 -0.8
v -1.8 0 -0.8
v -1.8 0.3 -0.8
v 1.8 0 -0.8
v 1.8 0.3 -0.8
v 1.9 0.3 -0.8
v 2 0 -0.8
v 2 0.3 -0.8
v -1.7 1.3 -1.3
v -1.7 1.4 -1.3
v -1.7 1.6 -1.3
v -1.7 1.8 -1.3
v -1.6 1.5 -1.3
v -1.6 1.6 -1.3
v -1.4 1.5 -1.3
v -1.4 1.6 -1.3
v -1.3 1.3 -1.3
v -1.3 1.4 -1.3
v -1.3 1.6 -1.3
v -1.3 1.8 -1.3
v 1.3 1.3 -1.3
v 1.3 1.4 -1.3
v 1.3 1.6 -1.3
v 1.3 1.8 -1.3
v 1.4 1.5 -1.3
v 1.4 1.6 -1.3
v 1.6 1.5 -1.3
v 1.6 1.6 -1.3
v 1.7 1.3 -1.3
v 1.7 1.4 -1.3
v 1.7 1.6 -1.3
v 1.7 1.8 -1.3
v -1.7 1.5 -1.4
v -1.7 1.6 -1.4
v -1.6 1.4 -1.4
v -1.6 1.5 -1.4
v -1.6 1.6 -1.4
v -1.4 1.4 -1.4
v -1.4 1.5 -1.4
v -1.4 1.6 -1.4
v -1.3 1.5 -1.4
v -1.3 1.6 -1.4
v 1.3 1.5 -1.4
v 1.3 1.6 -1.4
v 1.4 1.4 -1.4
v 1.4 1.5 -1.4
v 1.4 1.6 -1.4
v 1.6 1.4 -1.4
v 1.6 1.5 -1.4
v 1.6 1.6 -1.4
v 1.7 1.5 -1.4
v 1.7 1.6 -1.4
v -1.6 1.6 -1.6
v -1.6 1.8 -1.6
v -1.4 1.6 -1.6
v -1.4 1.8 -1.6
v 1.4 1.6 -1.6
v 1.4 1.8 -1.6
v 1.6 1.6 -1.6
v 1.6 1.8 -1.6
v -1.6 1.6 1.6
v -1.6 1.8 1.6
v -1.4 1.6 1.6
v -1.4 1.8 1.6
v 1.4 1.6 1.6
v 1.4 1.8 1.6
v 1.6 1.6 1.6
v 1.6 1.8 1.6
v -1.7 1.5 1.4
v -1.7 1.6 1.4
v -1.6 1.4 1.4
v -1.6 1.5 1.4
v -1.6 1.6 1.4
v -1.4 1.4 1.4
v -1.4 1.5 1.4
v -1.4 1.6 1.4
v -1.3 1.5 1.4
v -1.3 1.6 1.4
v 1.3 1.5 1.4
v 1.3 1.6 1.4
v 1.4 1.4 1.4
v 1.4 1.5 1.4
v 1.4 1.6 1.4
v 1.6 1.4 1.4
v 1.6 1.5 1.4
v 1.6 1.6 1.4
v 1.7 1.5 1.4
v 1.7 1.6 1.4
v -1.7 1.3 1.3
v -1.7 1.4 1.3
v -1.7 1.6 1.3
v -1.7 1.8 1.3
v -1.6 1.5 1.3
v -1.6 1.6 1.3
v -1.4 1.5 1.3
v -1.4 1.6 1.3
v -1.3 1.3 1.3
v -1.3 1.4 1.3
v -1.3 1.6 1.3
v -1.3 1.8 1.3
v 1.3 1.3 1.3
v 1.3 1.4 1.3
v 1.3 1.6 1.3
v 1.3 1.8 1.3
v 1.4 1.5 1.3
v 1.4 1.6 1.3
v 1.6 1.5 1.3
v 1.6 1.6 1.3
v 1.7 1.3 1.3
v 1.7 1.4 1.3
v 1.7 1.6 1.3
v 1.7 1.8 1.3
v -2 0 0.8
v -2 0.3 0.8
v -1.9 0.3 0.8
v -1.8 0 0.8
v -1.8 0.3 0.8
v 1.8 0 0.8
v 1.8 0.3 0.8
v 1.9 0.3 0.8
v 2 0 0.8
v 2 0.3 0.8
v -2 0 -0.7
v -2 0.3 -0.7
v -1.9 0.3 -0.7
v -1.8 0 -0.7
v -1.8 0.3 -0.7
v 1.8 0 -0.7
v 1.8 0.3 -0.7
v 1.9 0.3 -0.7
v 2 0 -0.7
v 2 0.3 -0.7
v -1.6 1.6 -1.4
v -1.6 1.8 -1.4
v -1.4 1.6 -1.4
v -1.4 1.8 -1.4
v 1.4 1.6 -1.4
v 1.4 1.8 -1.4
v 1.6 1.6 -1.4
v 1.6 1.8 -1.4
v -1.7 1.5 -1.6
v -1.7 1.6 -1.6
v -1.6 1.4 -1.6
v -1.6 1.5 -1.6
v -1.6 1.6 -1.6
v -1.4 1.4 -1.6
v -1.4 1.5 -1.6
v -1.4 1.6 -1.6
v -1.3 1.5 -1.6
v -1.3 1.6 -1.6
v 1.3 1.5 -1.6
v 1.3 1.6 -1.6
v 1.4 1.4 -1.6
v 1.4 1.5 -1.6
v 1.4 1.6 -1.6
v 1.6 1.4 -1.6
v 1.6 1.5 -1.6
v 1.6 1.6 -1.6
v 1.7 1.5 -1.6
v 1.7 1.6 -1.6
v -1.7 0.4 -1.7
v -1.7 0.8 -1.7
v -1.7 1 -1.7
v -1.7 1.2 -1.7
v -1.7 1.3 -1.7
v -1.7 1.4 -1.7
v -1.7 1.6 -1.7
v -1.7 1.8 -1.7
v -1.6 1.5 -1.7
v -1.6 1.6 -1.7
v -1.4 1.5 -1.7
v -1.4 1.6 -1.7
v -1.3 1.3 -1.7
v -1.3 1.4 -1.7
v -1.3 1.6 -1.7
v -1.3 1.8 -1.7
v -1.1 0.5 -1.7
v -1.1 0.7 -1.7
v -0.9 0.5 -1.7
v -0.9 0.7 -1.7
v -0.3 0.5 -1.7
v -0.3 0.7 -1.7
v -0.2 0.4 -1.7
v -0.2 0.5 -1.7
v -0.2 0.7 -1.7
v -0.2 0.8 -1.7
v -0.0999999 0.4 -1.7
v -0.0999999 0.5 -1.7
v -0.0999999 0.7 -1.7
v -0.0999999 0.8 -1.7
v 0.1 0.4 -1.7
v 0.1 0.5 -1.7
v 0.1 0.7 -1.7
v 0.1 0.8 -1.7
v 0.2 0.4 -1.7
v 0.2 0.5 -1.7
v 0.2 0.7 -1.7
v 0.2 0.8 -1.7
v 0.3 0.5 -1.7
v 0.3 0.7 -1.7
v 0.9 0.5 -1.7
v 0.9 0.7 -1.7
v 1.1 0.5 -1.7
v 1.1 0.7 -1.7
v 1.3 1.3 -1.7
v 1.3 1.4 -1.7
v 1.3 1.6 -1.7
v 1.3 1.8 -1.7
v 1.4 1.5 -1.7
v 1.4 1.6 -1.7
v 1.6 1.5 -1.7
v 1.6 1.6 -1.7
v 1.7 0.4 -1.7
v 1.7 0.8 -1.7
v 1.7 1 -1.7
v 1.7 1.2 -1.7
v 1.7 1.3 -1.7
v 1.7 1.4 -1.7
v 1.7 1.6 -1.7
v 1.7 1.8 -1.7
v -1.8 0.9 -1.8
v -1.8 1 -1.8
v -1.8 1.2 -1.8
v -1.8 1.3 -1.8
v -0.8 0 -1.8
v -0.8 0.3 -1.8
v -0.7 0 -1.8
v -0.7 0.3 -1.8
v 0.7 0 -1.8
v 0.7 0.3 -1.8
v 0.8 0 -1.8
v 0.8 0.3 -1.8
v 1.8 0.9 -1.8
v 1.8 1 -1.8
v 1.8 1.2 -1.8
v 1.8 1.3 -1.8
v -1.9 0.3 -1.9
v -1.9 0.4 -1.9
v -1.9 0.8 -1.9
v -1.9 0.9 -1.9
v -0.8 0.3 -1.9
v -0.7 0.3 -1.9
v 0.7 0.3 -1.9
v 0.8 0.3 -1.9
v 1.9 0.3 -1.9
v 1.9 0.4 -1.9
v 1.9 0.8 -1.9
v 1.9 0.9 -1.9
v -2 0 -2
v -2 0.3 -2
v -0.8 0 -2
v -0.8 0.3 -2
v -0.7 0 -2
v -0.7 0.3 -2
v 0.7 0 -2
v 0.7 0.3 -2
v 0.8 0 -2
v 0.8 0.3 -2
v 2 0 -2
v 2 0.3 -2
v -2 0 2
v -0.8 0 2
v -0.7 0 2
v 0.7 0 2
v 0.8 0 2
v 2 0 2
v -0.8 0 1.8
v -0.7 0 1.8
v 0.7 0 1.8
v 0.8 0 1.8
v -1.5 0 1.5
v -0.8 0 1.5
v -0.7 0 1.5
v 0.7 0 1.5
v 0.8 0 1.5
v 1.5 0 1.5
v -2 0 0.8
v -1.8 0 0.8
v -1.5 0 0.8
v 1.5 0 0.8
v 1.8 0 0.8
v 2 0 0.8
v -2 0 0.7
v -1.8 0 0.7
v -1.5 0 0.7
v 1.5 0 0.7
v 1.8 0 0.7
v 2 0 0.7
v -2 0 -0.7
v -1.8 0 -0.7
v -1.5 0 -0.7
v 1.5 0 -0.7
v 1.8 0 -0.7
v 2 0 -0.7
v -2 0 -0.8
v -1.8 0 -0.8
v -1.5 0 -0.8
v 1.5 0 -0.8
v 1.8 0 -0.8
v 2 0 -0.8
v -1.5 0 -1.5
v -0.8 0 -1.5
v -0.7 0 -1.5
v 0.7 0 -1.5
v 0.8 0 -1.5
v 1.5 0 -1.5
v -0.8 0 -1.8
v -0.7 0 -1.8
v 0.7 0 -1.8
v 0.8 0 -1.8
v -2 0 -2
v -0.8 0 -2
v -0.7 0 -2
v 0.7 0 -2
v 0.8 0 -2
v 2 0 -2
v -0.8 0.3 1.9
v -0.7 0.3 1.9
v 0.7 0.3 1.9
v 0.8 0.3 1.9
v -0.8 0.3 1.8
v -0.7 0.3 1.8
v 0.7 0.3 1.8
v 0.8 0.3 1.8
v -1.9 0.3 0.8
v -1.8 0.3 0.8
v 1.8 0.3 0.8
v 1.9 0.3 0.8
v -1.9 0.3 0.7
v -1.8 0.3 0.7
v 1.8 0.3 0.7
v 1.9 0.3 0.7
v -1.9 0.3 -0.7
v -1.8 0.3 -0.7
v 1.8 0.3 -0.7
v 1.9 0.3 -0.7
v -1.9 0.3 -0.8
v -1.8 0.3 -0.8
v 1.8 0.3 -0.8
v 1.9 0.3 -0.8
v -0.8 0.3 -1.8
v -0.7 0.3 -1.8
v 0.7 0.3 -1.8
v 0.8 0.3 -1.8
v -0.8 0.3 -1.9
v -0.7 0.3 -1.9
v 0.7 0.3 -1.9
v 0.8 0.3 -1.9
v -1.9 0.8 1.9
v 1.9 0.8 1.9
v -1.7 0.8 1.7
v -0.2 0.8 1.7
v -0.0999999 0.8 1.7
v 0.1 0.8 1.7
v 0.2 0.8 1.7
v 1.7 0.8 1.7
v -1.7 0.8 0.2
v 1.7 0.8 0.2
v -1.7 0.8 0.0999999
v 1.7 0.8 0.0999999
v -1.7 0.8 -0.1
v 1.7 0.8 -0.1
v -1.7 0.8 -0.2
v 1.7 0.8 -0.2
v -1.7 0.8 -1.7
v -0.2 0.8 -1.7
v -0.0999999 0.8 -1.7
v 0.1 0.8 -1.7
v 0.2 0.8 -1.7
v 1.7 0.8 -1.7
v -1.9 0.8 -1.9
v 1.9 0.8 -1.9
v -1.8 1.2 1.8
v 1.8 1.2 1.8
v -1.7 1.2 1.7
v 1.7 1.2 1.7
v -1.7 1.2 -1.7
v 1.7 1.2 -1.7
v -1.8 1.2 -1.8
v 1.8 1.2 -1.8
v -1.6 1.5 1.7
v -1.4 1.5 1.7
v 1.4 1.5 1.7
v 1.6 1.5 1.7
v -1.7 1.5 1.6
v -1.6 1.5 1.6
v -1.4 1.5 1.6
v -1.3 1.5 1.6
v 1.3 1.5 1.6
v 1.4 1.5 1.6
v 1.6 1.5 1.6
v 1.7 1.5 1.6
v -1.7 1.5 1.4
v -1.6 1.5 1.4
v -1.4 1.5 1.4
v -1.3 1.5 1.4
v 1.3 1.5 1.4
v 1.4 1.5 1.4
v 1.6 1.5 1.4
v 1.7 1.5 1.4
v -1.6 1.5 1.3
v -1.4 1.5 1.3
v 1.4 1.5 1.3
v 1.6 1.5 1.3
v -1.6 1.5 -1.3
v -1.4 1.5 -1.3
v 1.4 1.5 -1.3
v 1.6 1.5 -1.3
v -1.7 1.5 -1.4
v -1.6 1.5 -1.4
v -1.4 1.5 -1.4
v -1.3 1.5 -1.4
v 1.3 1.5 -1.4
v 1.4 1.5 -1.4
v 1.6 1.5 -1.4
v 1.7 1.5 -1.4
v -1.7 1.5 -1.6
v -1.6 1.5 -1.6
v -1.4 1.5 -1.6
v -1.3 1.5 -1.6
v 1.3 1.5 -1.6
v 1.4 1.5 -1.6
v 1.6 1.5 -1.6
v 1.7 1.5 -1.6
v -1.6 1.5 -1.7
v -1.4 1.5 -1.7
v 1.4 1.5 -1.7
v 1.6 1.5 -1.7
v -1.7 1.6 1.7
v -1.6 1.6 1.7
v -1.4 1.6 1.7
v -1.3 1.6 1.7
v 1.3 1.6 1.7
v 1.4 1.6 1.7
v 1.6 1.6 1.7
v 1.7 1.6 1.7
v -1.7 1.6 1.6
v -1.6 1.6 1.6
v -1.4 1.6 1.6
v -1.3 1.6 1.6
v 1.3 1.6 1.6
v 1.4 1.6 1.6
v 1.6 1.6 1.6
v 1.7 1.6 1.6
v -1.7 1.6 1.4
v -1.6 1.6 1.4
v -1.4 1.6 1.4
v -1.3 1.6 1.4
v 1.3 1.6 1.4
v 1.4 1.6 1.4
v 1.6 1.6 1.4
v 1.7 1.6 1.4
v -1.7 1.6 1.3
v -1.6 1.6 1.3
v -1.4 1.6 1.3
v -1.3 1.6 1.3
v 1.3 1.6 1.3
v 1.4 1.6 1.3
v 1.6 1.6 1.3
v 1.7 1.6 1.3
v -1.7 1.6 -1.3
v -1.6 1.6 -1.3
v -1.4 1.6 -1.3
v -1.3 1.6 -1.3
v 1.3 1.6 -1.3
v 1.4 1.6 -1.3
v 1.6 1.6 -1.3
v 1.7 1.6 -1.3
v -1.7 1.6 -1.4
v -1.6 1.6 -1.4
v -1.4 1.6 -1.4
v -1.3 1.6 -1.4
v 1.3 1.6 -1.4
v 1.4 1.6 -1.4
v 1.6 1.6 -1.4
v 1.7 1.6 -1.4
v -1.7 1.6 -1.6
v -1.6 1.6 -1.6
v -1.4 1.6 -1.6
v -1.3 1.6 -1.6
v 1.3 1.6 -1.6
v 1.4 1.6 -1.6
v 1.6 1.6 -1.6
v 1.7 1.6 -1.6
v -1.7 1.6 -1.7
v -1.6 1.6 -1.7
v -1.4 1.6 -1.7
v -1.3 1.6 -1.7
v 1.3 1.6 -1.7
v 1.4 1.6 -1.7
v 1.6 1.6 -1.7
v 1.7 1.6 -1.7
v -2 0.3 2
v -0.8 0.3 2
v -0.7 0.3 2
v 0.7 0.3 2
v 0.8 0.3 2
v 2 0.3 2
v -1.9 0.3 1.9
v -0.8 0.3 1.9
v -0.7 0.3 1.9
v 0.7 0.3 1.9
v 0.8 0.3 1.9
v 1.9 0.3 1.9
v -2 0.3 0.8
v -1.9 0.3 0.8
v 1.9 0.3 0.8
v 2 0.3 0.8
v -2 0.3 0.7
v -1.9 0.3 0.7
v 1.9 0.3 0.7
v 2 0.3 0.7
v -2 0.3 -0.7
v -1.9 0.3 -0.7
v 1.9 0.3 -0.7
v 2 0.3 -0.7
v -2 0.3 -0.8
v -1.9 0.3 -0.8
v 1.9 0.3 -0.8
v 2 0.3 -0.8
v -1.9 0.3 -1.9
v -0.8 0.3 -1.9
v -0.7 0.3 -1.9
v 0.7 0.3 -1.9
v 0.8 0.3 -1.9
v 1.9 0.3 -1.9
v -2 0.3 -2
v -0.8 0.3 -2
v -0.7 0.3 -2
v 0.7 0.3 -2
v 0.8 0.3 -2
v 2 0.3 -2
v -1.9 0.4 1.9
v 1.9 0.4 1.9
v -1.7 0.4 1.7
v -0.2 0.4 1.7
v -0.0999999 0.4 1.7
v 0.1 0.4 1.7
v 0.2 0.4 1.7
v 1.7 0.4 1.7
v -1.7 0.4 0.2
v 1.7 0.4 0.2
v -1.7 0.4 0.0999999
v 1.7 0.4 0.0999999
v -1.7 0.4 -0.1
v 1.7 0.4 -0.1
v -1.7 0.4 -0.2
v 1.7 0.4 -0.2
v -1.7 0.4 -1.7
v -0.2 0.4 -1.7
v -0.0999999 0.4 -1.7
v 0.1 0.4 -1.7
v 0.2 0.4 -1.7
v 1.7 0.4 -1.7
v -1.9 0.4 -1.9
v 1.9 0.4 -1.9
v -1.9 0.9 1.9
v 1.9 0.9 1.9
v -1.8 0.9 1.8
v 1.8 0.9 1.8
v -1.8 0.9 -1.8
v 1.8 0.9 -1.8
v -1.9 0.9 -1.9
v 1.9 0.9 -1.9
v -1.8 1 1.8
v 1.8 1 1.8
v -1.7 1 1.7
v 1.7 1 1.7
v -1.7 1 -1.7
v 1.7 1 -1.7
v -1.8 1 -1.8
v 1.8 1 -1.8
v -1.8 1.3 1.8
v 1.8 1.3 1.8
v -1.7 1.3 1.7
v -1.3 1.3 1.7
v 1.3 1.3 1.7
v 1.7 1.3 1.7
v -1.7 1.3 1.3
v -1.3 1.3 1.3
v 1.3 1.3 1.3
v 1.7 1.3 1.3
v -1.7 1.3 -1.3
v -1.3 1.3 -1.3
v 1.3 1.3 -1.3
v 1.7 1.3 -1.3
v -1.7 1.3 -1.7
v -1.3 1.3 -1.7
v 1.3 1.3 -1.7
v 1.7 1.3 -1.7
v -1.8 1.3 -1.8
v 1.8 1.3 -1.8
v -1.7 1.4 1.7
v -1.3 1.4 1.7
v 1.3 1.4 1.7
v 1.7 1.4 1.7
v -1.6 1.4 1.6
v -1.4 1.4 1.6
v 1.4 1.4 1.6
v 1.6 1.4 1.6
v -1.6 1.4 1.4
v -1.4 1.4 1.4
v 1.4 1.4 1.4
v 1.6 1.4 1.4
v -1.7 1.4 1.3
v -1.3 1.4 1.3
v 1.3 1.4 1.3
v 1.7 1.4 1.3
v -1.7 1.4 -1.3
v -1.3 1.4 -1.3
v 1.3 1.4 -1.3
v 1.7 1.4 -1.3
v -1.6 1.4 -1.4
v -1.4 1.4 -1.4
v 1.4 1.4 -1.4
v 1.6 1.4 -1.4
v -1.6 1.4 -1.6
v -1.4 1.4 -1.6
v 1.4 1.4 -1.6
v 1.6 1.4 -1.6
v -1.7 1.4 -1.7
v -1.3 1.4 -1.7
v 1.3 1.4 -1.7
v 1.7 1.4 -1.7
v -1.6 1.6 1.6
v -1.4 1.6 1.6
v 1.4 1.6 1.6
v 1.6 1.6 1.6
v -1.6 1.6 1.4
v -1.4 1.6 1.4
v 1.4 1.6 1.4
v 1.6 1.6 1.4
v -1.6 1.6 -1.4
v -1.4 1.6 -1.4
v 1.4 1.6 -1.4
v 1.6 1.6 -1.4
v -1.6 1.6 -1.6
v -1.4 1.6 -1.6
v 1.4 1.6 -1.6
v 1.6 1.6 -1.6
v -1.7 1.8 1.7
v -1.3 1.8 1.7
v 1.3 1.8 1.7
v 1.7 1.8 1.7
v -1.6 1.8 1.6
v -1.4 1.8 1.6
v 1.4 1.8 1.6
v 1.6 1.8 1.6
v -1.6 1.8 1.4
v -1.4 1.8 1.4
v 1.4 1.8 1.4
v 1.6 1.8 1.4
v -1.7 1.8 1.3
v -1.3 1.8 1.3
v 1.3 1.8 1.3
v 1.7 1.8 1.3
v -1.7 1.8 -1.3
v -1.3 1.8 -1.3
v 1.3 1.8 -1.3
v 1.7 1.8 -1.3
v -1.6 1.8 -1.4
v -1.4 1.8 -1.4
v 1.4 1.8 -1.4
v 1.6 1.8 -1.4
v -1.6 1.8 -1.6
v -1.4 1.8 -1.6
v 1.4 1.8 -1.6
v 1.6 1.8 -1.6
v -1.7 1.8 -1.7
v -1.3 1.8 -1.7
v 1.3 1.8 -1.7
v 1.7 1.8 -1.7

# faces
f 7/2/1 2/2/1 1/2/1
f 8/2/1 2/2/1 7/2/1
f 9/2/1 4/2/1 3/2/1
f 10/2/1 4/2/1 9/2/1
f 11/2/1 6/2/1 5/2/1
f 12/2/1 6/2/1 11/2/1
f 19/6/1 14/6/1 13/6/1
f 19/6/1 18/6/1 17/6/1
f 19/6/1 17/6/1 16/6/1
f 19/6/1 16/6/1 15/6/1
f 19/6/1 15/6/1 14/6/1
f 20/6/1 18/6/1 19/6/1
f 23/6/1 22/6/1 21/6/1
f 24/6/1 22/6/1 23/6/1
f 29/5/1 26/5/1 25/5/1
f 30/5/1 26/5/1 29/5/1
f 31/5/1 28/5/1 27/5/1
f 32/5/1 28/5/1 31/5/1
f 35/2/1 34/2/1 33/2/1
f 36/2/1 34/2/1 35/2/1
f 39/2/1 38/2/1 37/2/1
f 40/2/1 38/2/1 39/2/1
f 47/3/1 42/3/1 41/3/1
f 48/3/1 42/3/1 47/3/1
f 49/3/1 42/3/1 48/3/1
f 50/4/1 43/4/1 42/4/1
f 50/3/1 42/3/1 49/3/1
f 51/1/1 44/1/1 43/1/1
f 51/4/1 43/4/1 50/4/1
f 52/4/1 45/4/1 44/4/1
f 52/1/1 44/1/1 51/1/1
f 53/3/1 46/3/1 45/3/1
f 53/4/1 45/4/1 52/4/1
f 54/3/1 46/3/1 53/3/1
f 55/3/1 46/3/1 54/3/1
f 56/3/1 46/3/1 55/3/1
f 57/3/1 47/3/1 41/3/1
f 57/4/1 48/4/1 47/4/1
f 58/3/1 49/3/1 48/3/1
f 58/4/1 48/4/1 57/4/1
f 59/4/1 50/4/1 49/4/1
f 59/3/1 49/3/1 58/3/1
f 60/1/1 52/1/1 51/1/1
f 60/4/1 50/4/1 59/4/1
f 60/1/1 51/1/1 50/1/1
f 60/1/1 53/1/1 52/1/1
f 61/1/1 53/1/1 60/1/1
f 62/1/1 53/1/1 61/1/1
f 63/4/1 54/4/1 53/4/1
f 63/1/1 53/1/1 62/1/1
f 64/3/1 55/3/1 54/3/1
f 64/4/1 54/4/1 63/4/1
f 65/4/1 56/4/1 55/4/1
f 65/3/1 55/3/1 64/3/1
f 66/3/1 46/3/1 56/3/1
f 66/4/1 56/4/1 65/4/1
f 67/3/1 59/3/1 58/3/1
f 67/3/1 57/3/1 41/3/1
f 67/3/1 58/3/1 57/3/1
f 67/3/1 60/3/1 59/3/1
f 68/4/1 61/4/1 60/4/1
f 68/3/1 60/3/1 67/3/1
f 69/1/1 62/1/1 61/1/1
f 69/4/1 61/4/1 68/4/1
f 70/4/1 63/4/1 62/4/1
f 70/1/1 62/1/1 69/1/1
f 71/3/1 66/3/1 65/3/1
f 71/4/1 63/4/1 70/4/1
f 71/3/1 65/3/1 64/3/1
f 71/3/1 64/3/1 63/3/1
f 72/3/1 46/3/1 66/3/1
f 72/3/1 66/3/1 71/3/1
f 75/5/1 74/5/1 73/5/1
f 76/5/1 74/5/1 75/5/1
f 81/7/1 78/7/1 77/7/1
f 82/7/1 78/7/1 81/7/1
f 83/7/1 80/7/1 79/7/1
f 84/7/1 80/7/1 83/7/1
f 90/7/1 86/7/1 85/7/1
f 91/7/1 86/7/1 90/7/1
f 94/7/1 88/7/1 87/7/1
f 95/7/1 88/7/1 94/7/1
f 97/7/1 92/7/1 91/7/1
f 97/7/1 90/7/1 89/7/1
f 97/7/1 91/7/1 90/7/1
f 98/7/1 92/7/1 97/7/1
f 99/7/1 96/7/1 95/7/1
f 99/7/1 95/7/1 94/7/1
f 99/7/1 94/7/1 93/7/1
f 100/7/1 96/7/1 99/7/1
f 106/7/1 102/7/1 101/7/1
f 107/7/1 102/7/1 106/7/1
f 110/7/1 104/7/1 103/7/1
f 111/7/1 104/7/1 110/7/1
f 113/7/1 106/7/1 105/7/1
f 114/7/1 106/7/1 113/7/1
f 115/7/1 108/7/1 107/7/1
f 116/7/1 108/7/1 115/7/1
f 117/7/1 110/7/1 109/7/1
f 118/7/1 110/7/1 117/7/1
f 119/7/1 112/7/1 111/7/1
f 120/7/1 112/7/1 119/7/1
f 125/7/1 122/7/1 121/7/1
f 126/7/1 122/7/1 125/7/1
f 127/7/1 124/7/1 123/7/1
f 128/7/1 124/7/1 127/7/1
f 133/2/1 130/2/1 129/2/1
f 134/2/1 130/2/1 133/2/1
f 135/2/1 130/2/1 134/2/1
f 136/2/1 132/2/1 131/2/1
f 137/2/1 132/2/1 136/2/1
f 138/2/1 132/2/1 137/2/1
f 143/2/1 140/2/1 139/2/1
f 144/2/1 140/2/1 143/2/1
f 145/2/1 140/2/1 144/2/1
f 146/2/1 142/2/1 141/2/1
f 147/2/1 142/2/1 146/2/1
f 148/2/1 142/2/1 147/2/1
f 153/7/1 150/7/1 149/7/1
f 154/7/1 150/7/1 153/7/1
f 155/7/1 152/7/1 151/7/1
f 156/7/1 152/7/1 155/7/1
f 162/7/1 158/7/1 157/7/1
f 163/7/1 158/7/1 162/7/1
f 166/7/1 160/7/1 159/7/1
f 167/7/1 160/7/1 166/7/1
f 169/7/1 164/7/1 163/7/1
f 169/7/1 162/7/1 161/7/1
f 169/7/1 163/7/1 162/7/1
f 170/7/1 164/7/1 169/7/1
f 171/7/1 168/7/1 167/7/1
f 171/7/1 167/7/1 166/7/1
f 171/7/1 166/7/1 165/7/1
f 172/7/1 168/7/1 171/7/1
f 178/7/1 174/7/1 173/7/1
f 179/7/1 174/7/1 178/7/1
f 182/7/1 176/7/1 175/7/1
f 183/7/1 176/7/1 182/7/1
f 185/7/1 178/7/1 177/7/1
f 186/7/1 178/7/1 185/7/1
f 187/7/1 180/7/1 179/7/1
f 188/7/1 180/7/1 187/7/1
f 189/7/1 182/7/1 181/7/1
f 190/7/1 182/7/1 189/7/1
f 191/7/1 184/7/1 183/7/1
f 192/7/1 184/7/1 191/7/1
f 197/7/1 194/7/1 193/7/1
f 198/7/1 194/7/1 197/7/1
f 199/7/1 196/7/1 195/7/1
f 200/7/1 196/7/1 199/7/1
f 201/7/2 202/7/2 205/7/2
f 205/7/2 202/7/2 206/7/2
f 203/7/2 204/7/2 207/7/2
f 207/7/2 204/7/2 208/7/2
f 209/7/2 210/7/2 214/7/2
f 214/7/2 210/7/2 215/7/2
f 211/7/2 212/7/2 218/7/2
f 218/7/2 212/7/2 219/7/2
f 213/7/2 214/7/2 221/7/2
f 221/7/2 214/7/2 222/7/2
f 215/7/2 216/7/2 223/7/2
f 223/7/2 216/7/2 224/7/2
f 217/7/2 218/7/2 225/7/2
f 225/7/2 218/7/2 226/7/2
f 219/7/2 220/7/2 227/7/2
f 227/7/2 220/7/2 228/7/2
f 229/7/2 230/7/2 233/7/2
f 233/7/2 230/7/2 234/7/2
f 231/7/2 232/7/2 235/7/2
f 235/7/2 232/7/2 236/7/2
f 237/7/2 238/7/2 242/7/2
f 242/7/2 238/7/2 243/7/2
f 239/7/2 240/7/2 246/7/2
f 246/7/2 240/7/2 247/7/2
f 243/7/2 244/7/2 249/7/2
f 241/7/2 242/7/2 249/7/2
f 242/7/2 243/7/2 249/7/2
f 249/7/2 244/7/2 250/7/2
f 247/7/2 248/7/2 251/7/2
f 246/7/2 247/7/2 251/7/2
f 245/7/2 246/7/2 251/7/2
f 251/7/2 248/7/2 252/7/2
f 253/2/2 254/2/2 257/2/2
f 257/2/2 254/2/2 258/2/2
f 258/2/2 254/2/2 259/2/2
f 255/2/2 256/2/2 260/2/2
f 260/2/2 256/2/2 261/2/2
f 261/2/2 256/2/2 262/2/2
f 263/2/2 264/2/2 267/2/2
f 267/2/2 264/2/2 268/2/2
f 268/2/2 264/2/2 269/2/2
f 265/2/2 266/2/2 270/2/2
f 270/2/2 266/2/2 271/2/2
f 271/2/2 266/2/2 272/2/2
f 273/7/2 274/7/2 277/7/2
f 277/7/2 274/7/2 278/7/2
f 275/7/2 276/7/2 279/7/2
f 279/7/2 276/7/2 280/7/2
f 281/7/2 282/7/2 286/7/2
f 286/7/2 282/7/2 287/7/2
f 283/7/2 284/7/2 290/7/2
f 290/7/2 284/7/2 291/7/2
f 285/7/2 286/7/2 293/7/2
f 293/7/2 286/7/2 294/7/2
f 287/7/2 288/7/2 295/7/2
f 295/7/2 288/7/2 296/7/2
f 289/7/2 290/7/2 297/7/2
f 297/7/2 290/7/2 298/7/2
f 291/7/2 292/7/2 299/7/2
f 299/7/2 292/7/2 300/7/2
f 301/3/2 302/3/2 307/3/2
f 307/3/2 302/3/2 308/3/2
f 308/3/2 302/3/2 309/3/2
f 302/4/2 303/4/2 310/4/2
f 309/3/2 302/3/2 310/3/2
f 303/1/2 304/1/2 311/1/2
f 310/4/2 303/4/2 311/4/2
f 304/4/2 305/4/2 312/4/2
f 311/1/2 304/1/2 312/1/2
f 305/3/2 306/3/2 313/3/2
f 312/4/2 305/4/2 313/4/2
f 313/3/2 306/3/2 314/3/2
f 314/3/2 306/3/2 315/3/2
f 315/3/2 306/3/2 316/3/2
f 301/3/2 307/3/2 317/3/2
f 307/4/2 308/4/2 317/4/2
f 308/3/2 309/3/2 318/3/2
f 317/4/2 308/4/2 318/4/2
f 309/4/2 310/4/2 319/4/2
f 318/3/2 309/3/2 319/3/2
f 311/1/2 312/1/2 320/1/2
f 319/4/2 310/4/2 320/4/2
f 310/1/2 311/1/2 320/1/2
f 312/1/2 313/1/2 320/1/2
f 320/1/2 313/1/2 321/1/2
f 321/1/2 313/1/2 322/1/2
f 313/4/2 314/4/2 323/4/2
f 322/1/2 313/1/2 323/1/2
f 314/3/2 315/3/2 324/3/2
f 323/4/2 314/4/2 324/4/2
f 315/4/2 316/4/2 325/4/2
f 324/3/2 315/3/2 325/3/2
f 316/3/2 306/3/2 326/3/2
f 325/4/2 316/4/2 326/4/2
f 318/3/2 319/3/2 327/3/2
f 301/3/2 317/3/2 327/3/2
f 317/3/2 318/3/2 327/3/2
f 319/3/2 320/3/2 327/3/2
f 320/4/2 321/4/2 328/4/2
f 327/3/2 320/3/2 328/3/2
f 321/1/2 322/1/2 329/1/2
f 328/4/2 321/4/2 329/4/2
f 322/4/2 323/4/2 330/4/2
f 329/1/2 322/1/2 330/1/2
f 325/3/2 326/3/2 331/3/2
f 330/4/2 323/4/2 331/4/2
f 324/3/2 325/3/2 331/3/2
f 323/3/2 324/3/2 331/3/2
f 326/3/2 306/3/2 332/3/2
f 331/3/2 326/3/2 332/3/2
f 333/5/2 334/5/2 335/5/2
f 335/5/2 334/5/2 336/5/2
f 337/7/2 338/7/2 341/7/2
f 341/7/2 338/7/2 342/7/2
f 339/7/2 340/7/2 343/7/2
f 343/7/2 340/7/2 344/7/2
f 345/7/2 346/7/2 350/7/2
f 350/7/2 346/7/2 351/7/2
f 347/7/2 348/7/2 354/7/2
f 354/7/2 348/7/2 355/7/2
f 351/7/2 352/7/2 357/7/2
f 349/7/2 350/7/2 357/7/2
f 350/7/2 351/7/2 357/7/2
f 357/7/2 352/7/2 358/7/2
f 355/7/2 356/7/2 359/7/2
f 354/7/2 355/7/2 359/7/2
f 353/7/2 354/7/2 359/7/2
f 359/7/2 356/7/2 360/7/2
f 361/5/2 362/5/2 365/5/2
f 365/5/2 362/5/2 366/5/2
f 363/5/2 364/5/2 367/5/2
f 367/5/2 364/5/2 368/5/2
f 369/2/2 370/2/2 371/2/2
f 371/2/2 370/2/2 372/2/2
f 373/2/2 374/2/2 375/2/2
f 375/2/2 374/2/2 376/2/2
f 377/6/2 378/6/2 383/6/2
f 381/6/2 382/6/2 383/6/2
f 380/6/2 381/6/2 383/6/2
f 379/6/2 380/6/2 383/6/2
f 378/6/2 379/6/2 383/6/2
f 383/6/2 382/6/2 384/6/2
f 385/6/2 386/6/2 387/6/2
f 387/6/2 386/6/2 388/6/2
f 389/2/2 390/2/2 395/2/2
f 395/2/2 390/2/2 396/2/2
f 391/2/2 392/2/2 397/2/2
f 397/2/2 392/2/2 398/2/2
f 393/2/2 394/2/2 399/2/2
f 399/2/2 394/2/2 400/2/2
f 403/2/3 402/2/3 401/2/3
f 404/2/3 402/2/3 403/2/3
f 407/2/3 406/2/3 405/2/3
f 408/2/3 406/2/3 407/2/3
f 411/2/3 410/2/3 409/2/3
f 412/2/3 410/2/3 411/2/3
f 417/6/3 414/6/3 413/6/3
f 418/6/3 414/6/3 417/6/3
f 419/6/3 414/6/3 418/6/3
f 420/6/3 414/6/3 419/6/3
f 421/6/3 414/6/3 420/6/3
f 422/6/3 414/6/3 421/6/3
f 423/6/3 416/6/3 415/6/3
f 424/6/3 416/6/3 423/6/3
f 431/5/3 430/5/3 429/5/3
f 432/5/3 430/5/3 431/5/3
f 435/5/3 434/5/3 433/5/3
f 436/5/3 434/5/3 435/5/3
f 437/2/3 426/2/3 425/2/3
f 438/2/3 426/2/3 437/2/3
f 439/2/3 428/2/3 427/2/3
f 440/2/3 428/2/3 439/2/3
f 450/7/3 448/7/3 447/7/3
f 451/7/3 450/7/3 449/7/3
f 452/7/3 448/7/3 450/7/3
f 452/7/3 450/7/3 451/7/3
f 453/7/3 446/7/3 445/7/3
f 454/7/3 446/7/3 453/7/3
f 455/7/3 448/7/3 452/7/3
f 456/7/3 448/7/3 455/7/3
f 457/3/3 442/3/3 441/3/3
f 458/3/3 442/3/3 457/3/3
f 459/3/3 457/3/3 441/3/3
f 459/4/3 458/4/3 457/4/3
f 460/3/3 442/3/3 458/3/3
f 460/4/3 458/4/3 459/4/3
f 461/3/3 459/3/3 441/3/3
f 461/3/3 460/3/3 459/3/3
f 462/3/3 442/3/3 460/3/3
f 462/3/3 460/3/3 461/3/3
f 463/3/3 461/3/3 441/3/3
f 464/4/3 462/4/3 461/4/3
f 464/3/3 461/3/3 463/3/3
f 465/3/3 442/3/3 462/3/3
f 465/4/3 462/4/3 464/4/3
f 466/3/3 442/3/3 465/3/3
f 467/4/3 464/4/3 463/4/3
f 468/1/3 465/1/3 464/1/3
f 468/4/3 464/4/3 467/4/3
f 469/4/3 466/4/3 465/4/3
f 469/1/3 465/1/3 468/1/3
f 470/4/3 466/4/3 469/4/3
f 471/1/3 468/1/3 467/1/3
f 471/1/3 469/1/3 468/1/3
f 471/1/3 470/1/3 469/1/3
f 472/1/3 470/1/3 471/1/3
f 473/1/3 470/1/3 472/1/3
f 474/1/3 470/1/3 473/1/3
f 475/4/3 472/4/3 471/4/3
f 476/1/3 473/1/3 472/1/3
f 476/4/3 472/4/3 475/4/3
f 477/4/3 474/4/3 473/4/3
f 477/1/3 473/1/3 476/1/3
f 478/4/3 474/4/3 477/4/3
f 479/3/3 476/3/3 475/3/3
f 479/4/3 477/4/3 476/4/3
f 480/3/3 478/3/3 477/3/3
f 480/4/3 477/4/3 479/4/3
f 481/3/3 479/3/3 475/3/3
f 481/3/3 480/3/3 479/3/3
f 482/3/3 478/3/3 480/3/3
f 482/3/3 480/3/3 481/3/3
f 483/3/3 481/3/3 475/3/3
f 483/4/3 482/4/3 481/4/3
f 484/3/3 478/3/3 482/3/3
f 484/4/3 482/4/3 483/4/3
f 490/7/3 488/7/3 487/7/3
f 491/7/3 490/7/3 489/7/3
f 492/7/3 488/7/3 490/7/3
f 492/7/3 490/7/3 491/7/3
f 493/3/3 484/3/3 483/3/3
f 493/3/3 483/3/3 475/3/3
f 494/3/3 478/3/3 484/3/3
f 494/3/3 484/3/3 493/3/3
f 495/5/3 444/5/3 443/5/3
f 496/5/3 444/5/3 495/5/3
f 497/7/3 486/7/3 485/7/3
f 498/7/3 486/7/3 497/7/3
f 499/7/3 488/7/3 492/7/3
f 500/7/3 488/7/3 499/7/3
f 504/7/3 502/7/3 501/7/3
f 505/7/3 502/7/3 504/7/3
f 506/7/3 504/7/3 503/7/3
f 507/7/3 504/7/3 506/7/3
f 509/7/3 508/7/3 507/7/3
f 510/7/3 508/7/3 509/7/3
f 514/7/3 512/7/3 511/7/3
f 515/7/3 512/7/3 514/7/3
f 516/7/3 514/7/3 513/7/3
f 517/7/3 514/7/3 516/7/3
f 519/7/3 518/7/3 517/7/3
f 520/7/3 518/7/3 519/7/3
f 523/7/3 522/7/3 521/7/3
f 524/7/3 522/7/3 523/7/3
f 527/7/3 526/7/3 525/7/3
f 528/7/3 526/7/3 527/7/3
f 531/2/3 530/2/3 529/2/3
f 532/2/3 531/2/3 529/2/3
f 533/2/3 531/2/3 532/2/3
f 536/2/3 535/2/3 534/2/3
f 537/2/3 536/2/3 534/2/3
f 538/2/3 536/2/3 537/2/3
f 541/2/3 540/2/3 539/2/3
f 542/2/3 541/2/3 539/2/3
f 543/2/3 541/2/3 542/2/3
f 546/2/3 545/2/3 544/2/3
f 547/2/3 546/2/3 544/2/3
f 548/2/3 546/2/3 547/2/3
f 554/7/3 552/7/3 551/7/3
f 555/7/3 554/7/3 553/7/3
f 556/7/3 552/7/3 554/7/3
f 556/7/3 554/7/3 555/7/3
f 557/7/3 550/7/3 549/7/3
f 558/7/3 550/7/3 557/7/3
f 559/7/3 552/7/3 556/7/3
f 560/7/3 552/7/3 559/7/3
f 566/7/3 564/7/3 563/7/3
f 567/7/3 566/7/3 565/7/3
f 568/7/3 564/7/3 566/7/3
f 568/7/3 566/7/3 567/7/3
f 569/7/3 562/7/3 561/7/3
f 570/7/3 562/7/3 569/7/3
f 571/7/3 564/7/3 568/7/3
f 572/7/3 564/7/3 571/7/3
f 576/7/3 574/7/3 573/7/3
f 577/7/3 574/7/3 576/7/3
f 578/7/3 576/7/3 575/7/3
f 579/7/3 576/7/3 578/7/3
f 581/7/3 580/7/3 579/7/3
f 582/7/3 580/7/3 581/7/3
f 586/7/3 584/7/3 583/7/3
f 587/7/3 584/7/3 586/7/3
f 588/7/3 586/7/3 585/7/3
f 589/7/3 586/7/3 588/7/3
f 591/7/3 590/7/3 589/7/3
f 592/7/3 590/7/3 591/7/3
f 595/7/3 594/7/3 593/7/3
f 596/7/3 594/7/3 595/7/3
f 599/7/3 598/7/3 597/7/3
f 600/7/3 598/7/3 599/7/3
f 601/7/4 602/7/4 603/7/4
f 603/7/4 602/7/4 604/7/4
f 605/7/4 606/7/4 607/7/4
f 607/7/4 606/7/4 608/7/4
f 609/7/4 610/7/4 612/7/4
f 612/7/4 610/7/4 613/7/4
f 611/7/4 612/7/4 614/7/4
f 614/7/4 612/7/4 615/7/4
f 615/7/4 616/7/4 617/7/4
f 617/7/4 616/7/4 618/7/4
f 619/7/4 620/7/4 622/7/4
f 622/7/4 620/7/4 623/7/4
f 621/7/4 622/7/4 624/7/4
f 624/7/4 622/7/4 625/7/4
f 625/7/4 626/7/4 627/7/4
f 627/7/4 626/7/4 628/7/4
f 631/7/4 632/7/4 634/7/4
f 633/7/4 634/7/4 635/7/4
f 634/7/4 632/7/4 636/7/4
f 635/7/4 634/7/4 636/7/4
f 629/7/4 630/7/4 637/7/4
f 637/7/4 630/7/4 638/7/4
f 636/7/4 632/7/4 639/7/4
f 639/7/4 632/7/4 640/7/4
f 643/7/4 644/7/4 646/7/4
f 645/7/4 646/7/4 647/7/4
f 646/7/4 644/7/4 648/7/4
f 647/7/4 646/7/4 648/7/4
f 641/7/4 642/7/4 649/7/4
f 649/7/4 642/7/4 650/7/4
f 648/7/4 644/7/4 651/7/4
f 651/7/4 644/7/4 652/7/4
f 653/2/4 654/2/4 655/2/4
f 653/2/4 655/2/4 656/2/4
f 656/2/4 655/2/4 657/2/4
f 658/2/4 659/2/4 660/2/4
f 658/2/4 660/2/4 661/2/4
f 661/2/4 660/2/4 662/2/4
f 663/2/4 664/2/4 665/2/4
f 663/2/4 665/2/4 666/2/4
f 666/2/4 665/2/4 667/2/4
f 668/2/4 669/2/4 670/2/4
f 668/2/4 670/2/4 671/2/4
f 671/2/4 670/2/4 672/2/4
f 673/7/4 674/7/4 675/7/4
f 675/7/4 674/7/4 676/7/4
f 677/7/4 678/7/4 679/7/4
f 679/7/4 678/7/4 680/7/4
f 681/7/4 682/7/4 684/7/4
f 684/7/4 682/7/4 685/7/4
f 683/7/4 684/7/4 686/7/4
f 686/7/4 684/7/4 687/7/4
f 687/7/4 688/7/4 689/7/4
f 689/7/4 688/7/4 690/7/4
f 691/7/4 692/7/4 694/7/4
f 694/7/4 692/7/4 695/7/4
f 693/7/4 694/7/4 696/7/4
f 696/7/4 694/7/4 697/7/4
f 697/7/4 698/7/4 699/7/4
f 699/7/4 698/7/4 700/7/4
f 707/7/4 708/7/4 710/7/4
f 709/7/4 710/7/4 711/7/4
f 710/7/4 708/7/4 712/7/4
f 711/7/4 710/7/4 712/7/4
f 705/7/4 706/7/4 713/7/4
f 713/7/4 706/7/4 714/7/4
f 712/7/4 708/7/4 715/7/4
f 715/7/4 708/7/4 716/7/4
f 701/3/4 702/3/4 717/3/4
f 717/3/4 702/3/4 718/3/4
f 701/3/4 717/3/4 719/3/4
f 717/4/4 718/4/4 719/4/4
f 718/3/4 702/3/4 720/3/4
f 719/4/4 718/4/4 720/4/4
f 701/3/4 719/3/4 721/3/4
f 719/3/4 720/3/4 721/3/4
f 720/3/4 702/3/4 722/3/4
f 721/3/4 720/3/4 722/3/4
f 701/3/4 721/3/4 723/3/4
f 721/4/4 722/4/4 724/4/4
f 723/3/4 721/3/4 724/3/4
f 722/3/4 702/3/4 725/3/4
f 724/4/4 722/4/4 725/4/4
f 725/3/4 702/3/4 726/3/4
f 723/4/4 724/4/4 727/4/4
f 724/1/4 725/1/4 728/1/4
f 727/4/4 724/4/4 728/4/4
f 725/4/4 726/4/4 729/4/4
f 728/1/4 725/1/4 729/1/4
f 729/4/4 726/4/4 730/4/4
f 727/1/4 728/1/4 731/1/4
f 728/1/4 729/1/4 731/1/4
f 729/1/4 730/1/4 731/1/4
f 731/1/4 730/1/4 732/1/4
f 732/1/4 730/1/4 733/1/4
f 733/1/4 730/1/4 734/1/4
f 731/4/4 732/4/4 735/4/4
f 732/1/4 733/1/4 736/1/4
f 735/4/4 732/4/4 736/4/4
f 733/4/4 734/4/4 737/4/4
f 736/1/4 733/1/4 737/1/4
f 737/4/4 734/4/4 738/4/4
f 735/3/4 736/3/4 739/3/4
f 736/4/4 737/4/4 739/4/4
f 737/3/4 738/3/4 740/3/4
f 739/4/4 737/4/4 740/4/4
f 735/3/4 739/3/4 741/3/4
f 739/3/4 740/3/4 741/3/4
f 740/3/4 738/3/4 742/3/4
f 741/3/4 740/3/4 742/3/4
f 735/3/4 741/3/4 743/3/4
f 741/4/4 742/4/4 743/4/4
f 742/3/4 738/3/4 744/3/4
f 743/4/4 742/4/4 744/4/4
f 747/7/4 748/7/4 750/7/4
f 749/7/4 750/7/4 751/7/4
f 750/7/4 748/7/4 752/7/4
f 751/7/4 750/7/4 752/7/4
f 743/3/4 744/3/4 753/3/4
f 735/3/4 743/3/4 753/3/4
f 744/3/4 738/3/4 754/3/4
f 753/3/4 744/3/4 754/3/4
f 703/5/4 704/5/4 755/5/4
f 755/5/4 704/5/4 756/5/4
f 745/7/4 746/7/4 757/7/4
f 757/7/4 746/7/4 758/7/4
f 752/7/4 748/7/4 759/7/4
f 759/7/4 748/7/4 760/7/4
f 765/5/4 766/5/4 767/5/4
f 767/5/4 766/5/4 768/5/4
f 769/5/4 770/5/4 771/5/4
f 771/5/4 770/5/4 772/5/4
f 761/2/4 762/2/4 773/2/4
f 773/2/4 762/2/4 774/2/4
f 763/2/4 764/2/4 775/2/4
f 775/2/4 764/2/4 776/2/4
f 777/6/4 778/6/4 781/6/4
f 781/6/4 778/6/4 782/6/4
f 782/6/4 778/6/4 783/6/4
f 783/6/4 778/6/4 784/6/4
f 784/6/4 778/6/4 785/6/4
f 785/6/4 778/6/4 786/6/4
f 779/6/4 780/6/4 787/6/4
f 787/6/4 780/6/4 788/6/4
f 789/2/4 790/2/4 791/2/4
f 791/2/4 790/2/4 792/2/4
f 793/2/4 794/2/4 795/2/4
f 795/2/4 794/2/4 796/2/4
f 797/2/4 798/2/4 799/2/4
f 799/2/4 798/2/4 800/2/4
f 807/2/5 802/2/5 801/2/5
f 808/2/5 804/2/5 803/2/5
f 809/2/5 804/2/5 808/2/5
f 810/2/5 806/2/5 805/2/5
f 811/2/5 807/2/5 801/2/5
f 812/5/5 808/5/5 807/5/5
f 812/2/5 807/2/5 811/2/5
f 813/2/5 809/2/5 808/2/5
f 813/5/5 808/5/5 812/5/5
f 814/5/5 810/5/5 809/5/5
f 814/2/5 809/2/5 813/2/5
f 815/2/5 806/2/5 810/2/5
f 815/5/5 810/5/5 814/5/5
f 816/2/5 806/2/5 815/2/5
f 817/2/5 811/2/5 801/2/5
f 818/2/5 811/2/5 817/2/5
f 819/5/5 812/5/5 811/5/5
f 819/2/5 811/2/5 818/2/5
f 819/5/5 813/5/5 812/5/5
f 819/5/5 814/5/5 813/5/5
f 819/5/5 816/5/5 815/5/5
f 819/5/5 815/5/5 814/5/5
f 820/2/5 806/2/5 816/2/5
f 820/5/5 816/5/5 819/5/5
f 821/2/5 806/2/5 820/2/5
f 822/2/5 806/2/5 821/2/5
f 824/5/5 819/5/5 818/5/5
f 824/5/5 821/5/5 820/5/5
f 824/5/5 820/5/5 819/5/5
f 825/5/5 821/5/5 824/5/5
f 826/5/5 821/5/5 825/5/5
f 827/5/5 821/5/5 826/5/5
f 829/2/5 824/2/5 823/2/5
f 829/2/5 825/2/5 824/2/5
f 830/2/5 825/2/5 829/2/5
f 831/5/5 826/5/5 825/5/5
f 831/2/5 825/2/5 830/2/5
f 832/2/5 828/2/5 827/2/5
f 832/5/5 826/5/5 831/5/5
f 832/2/5 827/2/5 826/2/5
f 833/2/5 828/2/5 832/2/5
f 834/2/5 828/2/5 833/2/5
f 836/5/5 831/5/5 830/5/5
f 836/5/5 833/5/5 832/5/5
f 836/5/5 832/5/5 831/5/5
f 837/5/5 833/5/5 836/5/5
f 838/5/5 833/5/5 837/5/5
f 839/5/5 833/5/5 838/5/5
f 841/2/5 836/2/5 835/2/5
f 841/2/5 837/2/5 836/2/5
f 841/5/5 838/5/5 837/5/5
f 842/5/5 838/5/5 841/5/5
f 843/5/5 838/5/5 842/5/5
f 844/5/5 838/5/5 843/5/5
f 845/5/5 838/5/5 844/5/5
f 846/2/5 840/2/5 839/2/5
f 846/5/5 838/5/5 845/5/5
f 846/2/5 839/2/5 838/2/5
f 847/2/5 842/2/5 841/2/5
f 847/5/5 843/5/5 842/5/5
f 848/2/5 844/2/5 843/2/5
f 848/5/5 843/5/5 847/5/5
f 849/5/5 845/5/5 844/5/5
f 849/2/5 844/2/5 848/2/5
f 850/2/5 846/2/5 845/2/5
f 850/5/5 845/5/5 849/5/5
f 851/2/5 847/2/5 841/2/5
f 851/2/5 841/2/5 835/2/5
f 852/2/5 847/2/5 851/2/5
f 853/2/5 849/2/5 848/2/5
f 854/2/5 849/2/5 853/2/5
f 855/2/5 846/2/5 850/2/5
f 856/2/5 840/2/5 846/2/5
f 856/2/5 846/2/5 855/2/5
f 861/6/5 858/6/5 857/6/5
f 862/6/5 858/6/5 861/6/5
f 863/6/5 860/6/5 859/6/5
f 864/6/5 860/6/5 863/6/5
f 869/6/5 866/6/5 865/6/5
f 870/6/5 866/6/5 869/6/5
f 871/6/5 868/6/5 867/6/5
f 872/6/5 868/6/5 871/6/5
f 877/6/5 874/6/5 873/6/5
f 878/6/5 874/6/5 877/6/5
f 879/6/5 876/6/5 875/6/5
f 880/6/5 876/6/5 879/6/5
f 885/6/5 882/6/5 881/6/5
f 886/6/5 882/6/5 885/6/5
f 887/6/5 884/6/5 883/6/5
f 888/6/5 884/6/5 887/6/5
f 891/6/5 890/6/5 889/6/5
f 892/6/5 890/6/5 891/6/5
f 893/6/5 890/6/5 892/6/5
f 894/6/5 890/6/5 893/6/5
f 895/6/5 890/6/5 894/6/5
f 896/6/5 890/6/5 895/6/5
f 897/6/5 891/6/5 889/6/5
f 898/6/5 890/6/5 896/6/5
f 899/6/5 897/6/5 889/6/5
f 900/6/5 890/6/5 898/6/5
f 901/6/5 899/6/5 889/6/5
f 902/6/5 890/6/5 900/6/5
f 903/6/5 901/6/5 889/6/5
f 904/6/5 890/6/5 902/6/5
f 905/6/5 903/6/5 889/6/5
f 910/6/5 890/6/5 904/6/5
f 911/6/5 909/6/5 908/6/5
f 911/6/5 910/6/5 909/6/5
f 911/6/5 905/6/5 889/6/5
f 911/6/5 906/6/5 905/6/5
f 911/6/5 908/6/5 907/6/5
f 911/6/5 907/6/5 906/6/5
f 912/6/5 890/6/5 910/6/5
f 912/6/5 910/6/5 911/6/5
f 915/2/5 914/2/5 913/2/5
f 916/2/5 914/2/5 915/2/5
f 917/2/5 915/2/5 913/2/5
f 918/2/5 914/2/5 916/2/5
f 919/2/5 917/2/5 913/2/5
f 919/2/5 918/2/5 917/2/5
f 920/2/5 914/2/5 918/2/5
f 920/2/5 918/2/5 919/2/5
f 926/7/5 922/7/5 921/7/5
f 927/7/5 922/7/5 926/7/5
f 930/7/5 924/7/5 923/7/5
f 931/7/5 924/7/5 930/7/5
f 933/7/5 926/7/5 925/7/5
f 934/7/5 926/7/5 933/7/5
f 935/7/5 928/7/5 927/7/5
f 936/7/5 928/7/5 935/7/5
f 937/7/5 930/7/5 929/7/5
f 938/7/5 930/7/5 937/7/5
f 939/7/5 932/7/5 931/7/5
f 940/7/5 932/7/5 939/7/5
f 941/7/5 935/7/5 934/7/5
f 942/7/5 935/7/5 941/7/5
f 943/7/5 939/7/5 938/7/5
f 944/7/5 939/7/5 943/7/5
f 950/7/5 946/7/5 945/7/5
f 951/7/5 946/7/5 950/7/5
f 954/7/5 948/7/5 947/7/5
f 955/7/5 948/7/5 954/7/5
f 957/7/5 950/7/5 949/7/5
f 958/7/5 950/7/5 957/7/5
f 959/7/5 952/7/5 951/7/5
f 960/7/5 952/7/5 959/7/5
f 961/7/5 954/7/5 953/7/5
f 962/7/5 954/7/5 961/7/5
f 963/7/5 956/7/5 955/7/5
f 964/7/5 956/7/5 963/7/5
f 965/7/5 959/7/5 958/7/5
f 966/7/5 959/7/5 965/7/5
f 967/7/5 963/7/5 962/7/5
f 968/7/5 963/7/5 967/7/5
f 977/7/5 970/7/5 969/7/5
f 978/7/5 970/7/5 977/7/5
f 979/7/5 972/7/5 971/7/5
f 980/7/5 972/7/5 979/7/5
f 981/7/5 974/7/5 973/7/5
f 982/7/5 974/7/5 981/7/5
f 983/7/5 976/7/5 975/7/5
f 984/7/5 976/7/5 983/7/5
f 993/7/5 986/7/5 985/7/5
f 994/7/5 986/7/5 993/7/5
f 995/7/5 988/7/5 987/7/5
f 996/7/5 988/7/5 995/7/5
f 997/7/5 990/7/5 989/7/5
f 998/7/5 990/7/5 997/7/5
f 999/7/5 992/7/5 991/7/5
f 1000/7/5 992/7/5 999/7/5
f 1009/7/5 1002/7/5 1001/7/5
f 1010/7/5 1002/7/5 1009/7/5
f 1011/7/5 1004/7/5 1003/7/5
f 1012/7/5 1004/7/5 1011/7/5
f 1013/7/5 1006/7/5 1005/7/5
f 1014/7/5 1006/7/5 1013/7/5
f 1015/7/5 1008/7/5 1007/7/5
f 1016/7/5 1008/7/5 1015/7/5
f 1025/7/5 1018/7/5 1017/7/5
f 1026/7/5 1018/7/5 1025/7/5
f 1027/7/5 1020/7/5 1019/7/5
f 1028/7/5 1020/7/5 1027/7/5
f 1029/7/5 1022/7/5 1021/7/5
f 1030/7/5 1022/7/5 1029/7/5
f 1031/7/5 1024/7/5 1023/7/5
f 1032/7/5 1024/7/5 1031/7/5
f 1033/2/6 1034/2/6 1039/2/6
f 1039/2/6 1034/2/6 1040/2/6
f 1035/2/6 1036/2/6 1041/2/6
f 1041/2/6 1036/2/6 1042/2/6
f 1037/2/6 1038/2/6 1043/2/6
f 1043/2/6 1038/2/6 1044/2/6
f 1033/2/6 1039/2/6 1045/2/6
f 1045/2/6 1039/2/6 1046/2/6
f 1044/2/6 1038/2/6 1047/2/6
f 1047/2/6 1038/2/6 1048/2/6
f 1049/2/6 1050/2/6 1053/2/6
f 1053/2/6 1050/2/6 1054/2/6
f 1051/2/6 1052/2/6 1055/2/6
f 1055/2/6 1052/2/6 1056/2/6
f 1057/2/6 1058/2/6 1061/2/6
f 1059/2/6 1060/2/6 1066/2/6
f 1057/2/6 1061/2/6 1067/2/6
f 1061/2/6 1062/2/6 1067/2/6
f 1067/2/6 1062/2/6 1068/2/6
f 1063/2/6 1064/2/6 1069/2/6
f 1069/2/6 1064/2/6 1070/2/6
f 1065/2/6 1066/2/6 1071/2/6
f 1066/2/6 1060/2/6 1072/2/6
f 1071/2/6 1066/2/6 1072/2/6
f 1073/6/6 1074/6/6 1075/6/6
f 1075/6/6 1074/6/6 1076/6/6
f 1076/6/6 1074/6/6 1077/6/6
f 1077/6/6 1074/6/6 1078/6/6
f 1078/6/6 1074/6/6 1079/6/6
f 1079/6/6 1074/6/6 1080/6/6
f 1073/6/6 1075/6/6 1081/6/6
f 1080/6/6 1074/6/6 1082/6/6
f 1073/6/6 1081/6/6 1083/6/6
f 1082/6/6 1074/6/6 1084/6/6
f 1073/6/6 1083/6/6 1085/6/6
f 1084/6/6 1074/6/6 1086/6/6
f 1073/6/6 1085/6/6 1087/6/6
f 1086/6/6 1074/6/6 1088/6/6
f 1073/6/6 1087/6/6 1089/6/6
f 1088/6/6 1074/6/6 1094/6/6
f 1092/6/6 1093/6/6 1095/6/6
f 1093/6/6 1094/6/6 1095/6/6
f 1073/6/6 1089/6/6 1095/6/6
f 1089/6/6 1090/6/6 1095/6/6
f 1091/6/6 1092/6/6 1095/6/6
f 1090/6/6 1091/6/6 1095/6/6
f 1094/6/6 1074/6/6 1096/6/6
f 1095/6/6 1094/6/6 1096/6/6
f 1097/6/6 1098/6/6 1099/6/6
f 1099/6/6 1098/6/6 1100/6/6
f 1097/6/6 1099/6/6 1101/6/6
f 1100/6/6 1098/6/6 1102/6/6
f 1097/6/6 1101/6/6 1103/6/6
f 1101/6/6 1102/6/6 1103/6/6
f 1102/6/6 1098/6/6 1104/6/6
f 1103/6/6 1102/6/6 1104/6/6
f 1105/2/6 1106/2/6 1107/2/6
f 1107/2/6 1106/2/6 1108/2/6
f 1105/2/6 1107/2/6 1109/2/6
f 1108/2/6 1106/2/6 1110/2/6
f 1105/2/6 1109/2/6 1111/2/6
f 1109/2/6 1110/2/6 1111/2/6
f 1110/2/6 1106/2/6 1112/2/6
f 1111/2/6 1110/2/6 1112/2/6
f 1113/2/6 1114/2/6 1115/2/6
f 1115/2/6 1114/2/6 1116/2/6
f 1116/2/6 1114/2/6 1117/2/6
f 1117/2/6 1114/2/6 1118/2/6
f 1113/2/6 1115/2/6 1119/2/6
f 1116/2/6 1117/2/6 1120/2/6
f 1120/2/6 1117/2/6 1121/2/6
f 1118/2/6 1114/2/6 1122/2/6
f 1120/2/6 1121/2/6 1123/2/6
f 1121/2/6 1122/2/6 1123/2/6
f 1113/2/6 1119/2/6 1123/2/6
f 1119/2/6 1120/2/6 1123/2/6
f 1123/2/6 1122/2/6 1124/2/6
f 1124/2/6 1122/2/6 1125/2/6
f 1122/2/6 1114/2/6 1126/2/6
f 1125/2/6 1122/2/6 1126/2/6
f 1113/2/6 1123/2/6 1127/2/6
f 1124/2/6 1125/2/6 1128/2/6
f 1128/2/6 1125/2/6 1129/2/6
f 1126/2/6 1114/2/6 1130/2/6
f 1113/2/6 1127/2/6 1131/2/6
f 1129/2/6 1130/2/6 1131/2/6
f 1128/2/6 1129/2/6 1131/2/6
f 1127/2/6 1128/2/6 1131/2/6
f 1130/2/6 1114/2/6 1132/2/6
f 1131/2/6 1130/2/6 1132/2/6
f 1133/7/6 1134/7/6 1137/7/6
f 1137/7/6 1134/7/6 1138/7/6
f 1135/7/6 1136/7/6 1139/7/6
f 1139/7/6 1136/7/6 1140/7/6
f 1133/7/6 1137/7/6 1141/7/6
f 1138/7/6 1134/7/6 1142/7/6
f 1135/7/6 1139/7/6 1143/7/6
f 1140/7/6 1136/7/6 1144/7/6
f 1133/7/6 1141/7/6 1145/7/6
f 1141/7/6 1142/7/6 1145/7/6
f 1142/7/6 1134/7/6 1146/7/6
f 1145/7/6 1142/7/6 1146/7/6
f 1143/7/6 1144/7/6 1147/7/6
f 1135/7/6 1143/7/6 1147/7/6
f 1144/7/6 1136/7/6 1148/7/6
f 1147/7/6 1144/7/6 1148/7/6
f 1149/7/6 1150/7/6 1153/7/6
f 1153/7/6 1150/7/6 1154/7/6
f 1151/7/6 1152/7/6 1155/7/6
f 1155/7/6 1152/7/6 1156/7/6
f 1149/7/6 1153/7/6 1157/7/6
f 1154/7/6 1150/7/6 1158/7/6
f 1151/7/6 1155/7/6 1159/7/6
f 1156/7/6 1152/7/6 1160/7/6
f 1149/7/6 1157/7/6 1161/7/6
f 1157/7/6 1158/7/6 1161/7/6
f 1158/7/6 1150/7/6 1162/7/6
f 1161/7/6 1158/7/6 1162/7/6
f 1159/7/6 1160/7/6 1163/7/6
f 1151/7/6 1159/7/6 1163/7/6
f 1160/7/6 1152/7/6 1164/7/6
f 1163/7/6 1160/7/6 1164/7/6
f 1165/7/6 1166/7/6 1169/7/6
f 1169/7/6 1166/7/6 1170/7/6
f 1167/7/6 1168/7/6 1171/7/6
f 1171/7/6 1168/7/6 1172/7/6
f 1173/7/6 1174/7/6 1177/7/6
f 1177/7/6 1174/7/6 1178/7/6
f 1175/7/6 1176/7/6 1179/7/6
f 1179/7/6 1176/7/6 1180/7/6
f 1181/7/6 1182/7/6 1185/7/6
f 1185/7/6 1182/7/6 1186/7/6
f 1183/7/6 1184/7/6 1187/7/6
f 1187/7/6 1184/7/6 1188/7/6
f 1181/7/6 1185/7/6 1189/7/6
f 1186/7/6 1182/7/6 1190/7/6
f 1183/7/6 1187/7/6 1191/7/6
f 1188/7/6 1184/7/6 1192/7/6
f 1181/7/6 1189/7/6 1193/7/6
f 1189/7/6 1190/7/6 1193/7/6
f 1190/7/6 1182/7/6 1194/7/6
f 1193/7/6 1190/7/6 1194/7/6
f 1191/7/6 1192/7/6 1195/7/6
f 1183/7/6 1191/7/6 1195/7/6
f 1192/7/6 1184/7/6 1196/7/6
f 1195/7/6 1192/7/6 1196/7/6
f 1197/7/6 1198/7/6 1201/7/6
f 1201/7/6 1198/7/6 1202/7/6
f 1199/7/6 1200/7/6 1203/7/6
f 1203/7/6 1200/7/6 1204/7/6
f 1197/7/6 1201/7/6 1205/7/6
f 1202/7/6 1198/7/6 1206/7/6
f 1199/7/6 1203/7/6 1207/7/6
f 1204/7/6 1200/7/6 1208/7/6
f 1197/7/6 1205/7/6 1209/7/6
f 1205/7/6 1206/7/6 1209/7/6
f 1206/7/6 1198/7/6 1210/7/6
f 1209/7/6 1206/7/6 1210/7/6
f 1207/7/6 1208/7/6 1211/7/6
f 1199/7/6 1207/7/6 1211/7/6
f 1208/7/6 1200/7/6 1212/7/6
f 1211/7/6 1208/7/6 1212/7/6
