# MagicaVoxel @ Ephtracy

# group
o 

# material
mtllib osiris-dragon.mtl
usemtl palette

# normals
vn -1 0 0
vn 1 0 0
vn 0 0 1
vn 0 0 -1
vn 0 -1 0
vn 0 1 0

# texcoords
vt 0.279297 0.5
vt 0.373047 0.5
vt 0.396484 0.5
vt 0.564453 0.5

# verts
v -2 0 2
v -2 0 -2
v -2 0.1 2
v -2 0.1 -2
v -2 3.4 -0.8
v -2 3.4 -1
v -2 3.7 -0.8
v -2 3.7 -1
v -1.9 3.1 -0.8
v -1.9 3.1 -1
v -1.9 3.4 -0.8
v -1.9 3.4 -1
v -1.7 2.9 -0.8
v -1.7 2.9 -1
v -1.7 3.1 -0.8
v -1.7 3.1 -1
v -1.5 2.9 -0.8
v -1.5 2.9 -1
v -1.5 3.1 -0.8
v -1.5 3.1 -1
v -1.4 0.1 1.2
v -1.4 0.1 -1.2
v -1.4 0.3 1.2
v -1.4 0.3 0.8
v -1.4 0.4 0.8
v -1.4 0.4 -1.2
v -1.3 2.9 -0.8
v -1.3 2.9 -1
v -1.3 3 -0.8
v -1.3 3 -1
v -0.9 0.6 0.2
v -0.9 0.6 0.0999999
v -0.9 0.8 0.2
v -0.9 0.8 0.0999999
v -0.9 1.1 0.6
v -0.9 1.1 0.5
v -0.9 1.1 0.3
v -0.9 1.1 0.0999999
v -0.9 1.5 0.0999999
v -0.9 1.5 -2.38419e-07
v -0.9 1.6 0.3
v -0.9 1.6 -2.38419e-07
v -0.9 1.9 0.5
v -0.9 1.9 0.3
v -0.9 2.3 0.7
v -0.9 2.3 0.6
v -0.9 2.7 0.7
v -0.9 2.7 0.6
v -0.9 2.7 0.3
v -0.9 2.7 -0.6
v -0.9 2.9 0.6
v -0.9 2.9 0.4
v -0.9 2.9 -0.8
v -0.9 2.9 -1
v -0.9 3.1 0.4
v -0.9 3.1 -0.6
v -0.9 3.1 -0.8
v -0.9 3.1 -1
v -0.8 0.4 0.3
v -0.8 0.4 0.2
v -0.8 0.4 0.0999999
v -0.8 0.4 -1.2
v -0.8 0.5 0.3
v -0.8 0.5 0.2
v -0.8 0.6 0.0999999
v -0.8 0.8 0.7
v -0.8 0.8 0.2
v -0.8 0.8 0.0999999
v -0.8 0.8 -0.6
v -0.8 0.8 -1.2
v -0.8 1 0.7
v -0.8 1 0.6
v -0.8 1.1 0.6
v -0.8 1.1 0.5
v -0.8 1.1 0.3
v -0.8 1.1 0.0999999
v -0.8 1.1 -0.4
v -0.8 1.1 -0.6
v -0.8 1.3 -2.38419e-07
v -0.8 1.3 -0.4
v -0.8 1.5 0.0999999
v -0.8 1.5 -2.38419e-07
v -0.8 1.6 0.3
v -0.8 1.6 -2.38419e-07
v -0.8 1.9 0.5
v -0.8 1.9 0.3
v -0.8 2.5 -2.38419e-07
v -0.8 2.5 -0.6
v -0.8 2.7 0.3
v -0.8 2.7 -0.6
v -0.8 2.9 0.6
v -0.8 2.9 0.4
v -0.8 3.1 0.6
v -0.8 3.1 0.4
v -0.8 3.1 -0.6
v -0.8 3.1 -0.8
v -0.8 3.2 0.4
v -0.8 3.2 0.3
v -0.8 3.4 0.8
v -0.8 3.4 0.7
v -0.8 3.4 0.3
v -0.8 3.4 -0.8
v -0.8 3.5 0.8
v -0.8 3.5 0.7
v -0.7 2.4 1.1
v -0.7 2.4 0.7
v -0.7 2.5 1.2
v -0.7 2.5 1.1
v -0.7 2.6 1.2
v -0.7 2.6 1.1
v -0.7 2.6 0.7
v -0.7 3.1 0.6
v -0.7 3.1 0.4
v -0.7 3.2 0.6
v -0.7 3.2 0.4
v -0.7 3.4 0.7
v -0.7 3.4 0.3
v -0.7 3.4 -0.8
v -0.7 3.5 1.2
v -0.7 3.5 1.1
v -0.7 3.5 0.8
v -0.7 3.5 0.7
v -0.7 3.5 -0.8
v -0.7 3.6 1.2
v -0.7 3.6 1.1
v -0.7 3.6 0.8
v -0.7 3.7 1.3
v -0.7 3.7 1.2
v -0.7 3.7 0.8
v -0.7 3.9 1.1
v -0.7 3.9 0.6
v -0.7 4 1.3
v -0.7 4 1.2
v -0.7 4 1.1
v -0.7 4 0.6
v -0.7 4 -0.8
v -0.6 3.1 -1
v -0.6 3.1 -1.1
v -0.6 3.4 0.9
v -0.6 3.4 0.8
v -0.6 3.5 0.9
v -0.6 3.5 0.8
v -0.6 3.5 -0.8
v -0.6 3.5 -1
v -0.6 3.5 -1.1
v -0.6 3.6 -0.9
v -0.6 3.6 -1
v -0.6 3.9 -0.8
v -0.6 3.9 -0.9
v -0.5 2.2 -2.38419e-07
v -0.5 2.2 -0.1
v -0.5 2.3 -0.1
v -0.5 2.3 -0.7
v -0.5 2.5 1.2
v -0.5 2.5 1.1
v -0.5 2.5 -2.38419e-07
v -0.5 2.5 -0.6
v -0.5 2.5 -0.7
v -0.5 2.6 1.2
v -0.5 2.6 1.1
v -0.5 2.7 0.7
v -0.5 2.7 0.6
v -0.5 3 0.7
v -0.5 3 0.6
v -0.2 3.2 0.6
v -0.2 3.2 0.3
v -0.2 3.2 -0.6
v -0.2 3.2 -0.8
v -0.2 3.3 -0.6
v -0.2 3.3 -0.8
v -0.2 3.4 0.6
v -0.2 3.4 0.3
v 2.38419e-07 0.4 0.8
v 2.38419e-07 0.4 0.6
v 2.38419e-07 0.5 0.8
v 2.38419e-07 0.5 0.6
v 2.38419e-07 0.7 0.4
v 2.38419e-07 0.7 0.3
v 2.38419e-07 0.8 0.4
v 2.38419e-07 0.8 0.3
v 0.3 3.4 1
v 0.3 3.4 0.9
v 0.3 3.5 1
v 0.3 3.5 0.9
v 0.3 3.5 -1
v 0.3 3.5 -1.1
v 0.3 3.6 -1
v 0.3 3.6 -1.1
v 0.4 2.4 1.1
v 0.4 2.4 0.8
v 0.4 2.5 1.2
v 0.4 2.5 1.1
v 0.4 2.6 1.2
v 0.4 2.6 1.1
v 0.4 2.6 0.8
v 0.4 3.3 0.9
v 0.4 3.3 0.6
v 0.4 3.4 0.9
v 0.4 3.4 0.6
v 0.5 2.7 -0.6
v 0.5 2.7 -0.7
v 0.5 2.8 -0.6
v 0.5 2.8 -0.7
v 0.6 2.9 -1.1
v 0.6 2.9 -1.2
v 0.6 3.5 -1.1
v 0.6 3.6 -1
v 0.6 3.6 -1.1
v 0.6 3.7 -1
v 0.6 3.7 -1.2
v 0.7 2.5 1.2
v 0.7 2.5 1.1
v 0.7 2.6 1.2
v 0.7 2.6 1.1
v 0.7 2.9 -1
v 0.7 2.9 -1.1
v 0.7 3.5 -1
v 0.7 3.5 -1.1
v 0.9 2.9 -1
v 0.9 2.9 -1.2
v 0.9 3 -1
v 0.9 3 -1.2
v 1.1 2.9 -1
v 1.1 2.9 -1.2
v 1.1 3 -1
v 1.1 3 -1.2
v 1.3 2.9 -1
v 1.3 2.9 -1.2
v 1.3 3 -1
v 1.3 3 -1.2
v 1.6 2.9 -1
v 1.6 2.9 -1.1
v 1.6 3 -1
v 1.6 3 -1.1
v -1.6 2.9 -0.8
v -1.6 2.9 -1
v -1.6 3.1 -0.8
v -1.6 3.1 -1
v -1.4 2.9 -0.8
v -1.4 2.9 -1
v -1.4 3 -0.8
v -1.4 3 -1
v -1.1 2.9 -0.8
v -1.1 2.9 -1
v -1.1 3.1 -0.8
v -1.1 3.1 -1
v -0.9 3.5 -0.8
v -0.9 3.5 -0.9
v -0.9 3.7 -0.8
v -0.9 3.7 -0.9
v -0.8 2.9 -0.8
v -0.8 2.9 -1
v -0.8 3.1 -0.8
v -0.8 3.1 -1
v -0.8 3.5 -0.9
v -0.8 3.5 -1
v -0.8 3.7 -0.9
v -0.8 3.7 -1
v -0.7 0.9 0.7
v -0.7 0.9 0.6
v -0.7 1 0.7
v -0.7 1 0.6
v -0.7 2.3 0.7
v -0.7 2.3 0.6
v -0.7 2.4 0.7
v -0.7 2.4 0.6
v -0.6 2.5 1.2
v -0.6 2.5 1.1
v -0.6 2.6 1.2
v -0.6 2.6 1.1
v -0.6 3.1 -0.6
v -0.6 3.1 -0.8
v -0.6 3.3 -0.6
v -0.6 3.3 -0.8
v -0.5 2.4 1
v -0.5 2.4 0.9
v -0.5 2.6 1
v -0.5 2.6 0.9
v -0.5 3.1 -0.8
v -0.5 3.1 -1.1
v -0.5 3.2 -0.8
v -0.5 3.2 -1.1
v -0.4 2.3 -0.3
v -0.4 2.3 -0.7
v -0.4 2.5 1.2
v -0.4 2.5 1.1
v -0.4 2.5 1
v -0.4 2.5 -0.6
v -0.4 2.5 -0.7
v -0.4 2.6 1.2
v -0.4 2.6 1.1
v -0.4 2.6 1
v -0.4 2.6 -0.3
v -0.4 2.6 -0.6
v -0.3 2.4 1.1
v -0.3 2.4 1
v -0.3 2.5 1.1
v -0.3 2.5 1
v -0.3 2.5 0.9
v -0.3 2.5 0.8
v -0.3 2.6 0.9
v -0.3 2.6 0.8
v -0.2 2.4 0.9
v -0.2 2.4 0.8
v -0.2 2.5 0.9
v -0.2 2.5 0.8
v -0.0999999 1.9 0.3
v -0.0999999 1.9 -2.38419e-07
v -0.0999999 2.2 -2.38419e-07
v -0.0999999 2.2 -0.1
v -0.0999999 2.3 0.3
v -0.0999999 2.3 -0.1
v 2.38419e-07 2.3 -0.1
v 2.38419e-07 2.3 -0.3
v 2.38419e-07 2.6 -0.3
v 2.38419e-07 2.6 -0.6
v 2.38419e-07 2.7 -0.1
v 2.38419e-07 2.7 -0.6
v 0.1 0.8 0.7
v 0.1 0.8 0.4
v 0.1 0.9 0.7
v 0.1 0.9 0.6
v 0.1 0.9 0.4
v 0.4 2.9 0.7
v 0.4 2.9 0.6
v 0.4 3 0.7
v 0.4 3 0.6
v 0.4 3.1 0.3
v 0.4 3.1 -0.6
v 0.4 3.2 -0.6
v 0.4 3.2 -1.1
v 0.4 3.4 1
v 0.4 3.4 0.9
v 0.4 3.5 1
v 0.4 3.5 0.9
v 0.4 3.5 -0.9
v 0.4 3.5 -1.1
v 0.4 3.6 -0.9
v 0.4 3.8 0.3
v 0.4 3.8 -0.5
v 0.4 3.9 0.4
v 0.4 3.9 -0.5
v 0.4 3.9 -0.8
v 0.4 3.9 -0.9
v 0.4 4 0.4
v 0.4 4 -0.8
v 0.5 2.5 1.2
v 0.5 2.5 1.1
v 0.5 2.6 1.2
v 0.5 2.6 1.1
v 0.5 2.8 0.7
v 0.5 2.8 0.6
v 0.5 2.9 0.7
v 0.5 2.9 0.6
v 0.5 2.9 0.0999999
v 0.5 2.9 -0.6
v 0.5 3.1 0.0999999
v 0.5 3.1 -0.6
v 0.5 3.2 0.6
v 0.5 3.2 0.3
v 0.5 3.3 0.9
v 0.5 3.3 0.6
v 0.5 3.5 1.2
v 0.5 3.5 0.9
v 0.5 3.6 1.2
v 0.5 3.6 0.9
v 0.5 3.6 0.8
v 0.5 3.7 1.3
v 0.5 3.7 1.2
v 0.5 3.7 0.8
v 0.5 3.8 0.3
v 0.5 3.8 -0.5
v 0.5 3.9 1
v 0.5 3.9 0.5
v 0.5 3.9 0.4
v 0.5 3.9 -0.5
v 0.5 4 1.3
v 0.5 4 1.2
v 0.5 4 1
v 0.5 4 0.5
v 0.5 4 0.4
v 0.6 2.8 0.3
v 0.6 2.8 -0.6
v 0.6 2.9 0.0999999
v 0.6 2.9 -0.6
v 0.6 3.1 0.6
v 0.6 3.1 0.3
v 0.6 3.1 0.0999999
v 0.6 3.2 0.6
v 0.6 3.2 0.3
v 0.7 1.6 0.0999999
v 0.7 1.6 -2.38419e-07
v 0.7 1.9 0.0999999
v 0.7 1.9 -2.38419e-07
v 0.7 2.3 0.0999999
v 0.7 2.3 -0.1
v 0.7 2.7 -0.1
v 0.7 2.7 -0.7
v 0.7 2.8 0.0999999
v 0.7 2.8 -0.7
v 0.7 3.5 -0.9
v 0.7 3.5 -1
v 0.7 3.6 -0.9
v 0.7 3.6 -1
v 0.8 1.5 0.6
v 0.8 1.5 -2.38419e-07
v 0.8 1.6 0.0999999
v 0.8 1.6 -2.38419e-07
v 0.8 1.9 0.3
v 0.8 1.9 0.0999999
v 0.8 2.3 0.3
v 0.8 2.3 0.0999999
v 0.8 2.4 1.1
v 0.8 2.4 0.6
v 0.8 2.5 1.2
v 0.8 2.5 1.1
v 0.8 2.6 1.2
v 0.8 2.6 1.1
v 0.8 2.6 0.7
v 0.8 2.8 0.7
v 0.8 2.8 0.6
v 0.8 2.8 0.3
v 0.8 2.8 0.0999999
v 0.8 2.9 -1
v 0.8 2.9 -1.2
v 0.8 3 -1
v 0.8 3 -1.2
v 0.8 3.1 0.6
v 0.8 3.1 0.3
v 0.9 1 0.6
v 0.9 1 -0.6
v 0.9 1.1 -0.4
v 0.9 1.1 -0.6
v 0.9 1.3 -2.38419e-07
v 0.9 1.3 -0.4
v 0.9 1.5 0.6
v 0.9 1.5 -2.38419e-07
v 1 0.2 1
v 1 0.2 0.7
v 1 0.3 1
v 1 0.3 0.8
v 1 0.4 0.8
v 1 0.4 0.7
v 1 0.5 0.0999999
v 1 0.5 -0.6
v 1 0.6 0.2
v 1 0.6 0.0999999
v 1 0.6 -0.6
v 1 0.6 -0.8
v 1 0.7 0.4
v 1 0.7 0.3
v 1 0.7 -0.8
v 1 0.7 -1.2
v 1 0.8 0.3
v 1 0.8 0.2
v 1 0.8 -0.6
v 1 0.8 -1.2
v 1 0.9 0.6
v 1 0.9 0.4
v 1 1 0.6
v 1 1 -0.6
v 1 2.9 -1
v 1 2.9 -1.2
v 1 3 -1
v 1 3 -1.2
v 1.1 0.3 0.7
v 1.1 0.3 -1.2
v 1.1 0.4 0.8
v 1.1 0.4 0.7
v 1.1 0.4 0.6
v 1.1 0.4 0.3
v 1.1 0.4 0.2
v 1.1 0.4 0.0999999
v 1.1 0.5 0.8
v 1.1 0.5 0.6
v 1.1 0.5 0.3
v 1.1 0.5 0.2
v 1.1 0.5 0.0999999
v 1.1 0.5 -0.6
v 1.1 0.6 -0.6
v 1.1 0.6 -0.8
v 1.1 0.7 -0.8
v 1.1 0.7 -1.2
v 1.2 2.9 -1
v 1.2 2.9 -1.2
v 1.2 3 -1
v 1.2 3 -1.2
v 1.4 0.1 1.2
v 1.4 0.1 1.1
v 1.4 0.3 1.2
v 1.4 0.3 1.1
v 1.4 2.9 -1
v 1.4 2.9 -1.1
v 1.4 3 -1
v 1.4 3 -1.1
v 1.5 0.1 1.1
v 1.5 0.1 -1.2
v 1.5 0.2 1
v 1.5 0.2 0.7
v 1.5 0.3 1.1
v 1.5 0.3 1
v 1.5 0.3 0.7
v 1.5 0.3 -1.2
v 1.7 2.9 -1
v 1.7 2.9 -1.2
v 1.7 3.1 -1
v 1.7 3.1 -1.2
v 1.9 3.1 -1
v 1.9 3.1 -1.2
v 1.9 3.4 -1
v 1.9 3.4 -1.2
v 2 0 2
v 2 0 -2
v 2 0.1 2
v 2 0.1 -2
v 2 3.4 -1
v 2 3.4 -1.2
v 2 3.7 -1
v 2 3.7 -1.2
v -2 0 2
v -2 0.1 2
v 2 0 2
v 2 0.1 2
v -0.7 3.7 1.3
v -0.7 4 1.3
v 0.5 3.7 1.3
v 0.5 4 1.3
v -1.4 0.1 1.2
v -1.4 0.3 1.2
v -0.7 2.5 1.2
v -0.7 2.6 1.2
v -0.7 3.5 1.2
v -0.7 3.6 1.2
v -0.6 2.5 1.2
v -0.6 2.6 1.2
v -0.5 2.5 1.2
v -0.5 2.6 1.2
v -0.4 2.5 1.2
v -0.4 2.6 1.2
v 0.4 2.5 1.2
v 0.4 2.6 1.2
v 0.5 2.5 1.2
v 0.5 2.6 1.2
v 0.5 3.5 1.2
v 0.5 3.6 1.2
v 0.7 2.5 1.2
v 0.7 2.6 1.2
v 0.8 2.5 1.2
v 0.8 2.6 1.2
v 1.4 0.1 1.2
v 1.4 0.3 1.2
v -0.7 2.4 1.1
v -0.7 2.5 1.1
v -0.6 2.5 1.1
v -0.6 2.6 1.1
v -0.5 2.5 1.1
v -0.5 2.6 1.1
v -0.4 2.5 1.1
v -0.3 2.4 1.1
v -0.3 2.5 1.1
v 0.4 2.4 1.1
v 0.4 2.5 1.1
v 0.5 2.5 1.1
v 0.5 2.6 1.1
v 0.7 2.5 1.1
v 0.7 2.6 1.1
v 0.8 2.4 1.1
v 0.8 2.5 1.1
v 1.4 0.1 1.1
v 1.4 0.3 1.1
v 1.5 0.1 1.1
v 1.5 0.3 1.1
v 0.3 3.4 1
v 0.3 3.5 1
v 0.4 3.4 1
v 0.4 3.5 1
v -0.6 3.4 0.9
v -0.6 3.5 0.9
v -0.5 2.4 0.9
v -0.5 2.6 0.9
v -0.3 2.5 0.9
v -0.3 2.6 0.9
v -0.2 2.4 0.9
v -0.2 2.5 0.9
v 0.3 3.4 0.9
v 0.3 3.5 0.9
v 0.4 3.3 0.9
v 0.4 3.4 0.9
v 0.4 3.5 0.9
v 0.5 3.3 0.9
v 0.5 3.5 0.9
v -1.4 0.3 0.8
v -1.4 0.4 0.8
v -0.8 3.4 0.8
v -0.8 3.5 0.8
v -0.7 3.5 0.8
v -0.7 3.6 0.8
v -0.7 3.7 0.8
v -0.6 3.4 0.8
v -0.6 3.5 0.8
v -0.3 2.5 0.8
v -0.3 2.6 0.8
v -0.2 2.4 0.8
v -0.2 2.5 0.8
v 2.38419e-07 0.4 0.8
v 2.38419e-07 0.5 0.8
v 0.4 2.4 0.8
v 0.4 2.6 0.8
v 0.5 3.6 0.8
v 0.5 3.7 0.8
v 1 0.3 0.8
v 1 0.4 0.8
v 1.1 0.4 0.8
v 1.1 0.5 0.8
v -0.9 2.3 0.7
v -0.9 2.7 0.7
v -0.8 0.8 0.7
v -0.8 1 0.7
v -0.7 0.9 0.7
v -0.7 1 0.7
v -0.7 2.3 0.7
v -0.7 2.4 0.7
v -0.7 2.6 0.7
v -0.5 2.7 0.7
v -0.5 3 0.7
v 0.1 0.8 0.7
v 0.1 0.9 0.7
v 0.4 2.9 0.7
v 0.4 3 0.7
v 0.5 2.8 0.7
v 0.5 2.9 0.7
v 0.8 2.6 0.7
v 0.8 2.8 0.7
v 1 0.2 0.7
v 1 0.4 0.7
v 1.1 0.3 0.7
v 1.1 0.4 0.7
v 1.5 0.2 0.7
v 1.5 0.3 0.7
v -0.9 1.1 0.6
v -0.9 2.3 0.6
v -0.9 2.7 0.6
v -0.9 2.9 0.6
v -0.8 1 0.6
v -0.8 1.1 0.6
v -0.8 2.9 0.6
v -0.8 3.1 0.6
v -0.7 0.9 0.6
v -0.7 1 0.6
v -0.7 2.3 0.6
v -0.7 2.4 0.6
v -0.7 3.1 0.6
v -0.7 3.2 0.6
v -0.5 2.7 0.6
v -0.5 3 0.6
v -0.2 3.2 0.6
v -0.2 3.4 0.6
v 0.1 0.9 0.6
v 0.4 2.9 0.6
v 0.4 3 0.6
v 0.4 3.3 0.6
v 0.4 3.4 0.6
v 0.5 2.8 0.6
v 0.5 2.9 0.6
v 0.5 3.2 0.6
v 0.5 3.3 0.6
v 0.6 3.1 0.6
v 0.6 3.2 0.6
v 0.8 1.5 0.6
v 0.8 2.4 0.6
v 0.8 2.8 0.6
v 0.8 3.1 0.6
v 0.9 1 0.6
v 0.9 1.5 0.6
v 1 0.9 0.6
v 1 1 0.6
v -0.9 2.9 0.4
v -0.9 3.1 0.4
v -0.8 2.9 0.4
v -0.8 3.1 0.4
v -0.8 3.2 0.4
v -0.7 3.1 0.4
v -0.7 3.2 0.4
v 2.38419e-07 0.7 0.4
v 2.38419e-07 0.8 0.4
v 0.1 0.8 0.4
v 0.1 0.9 0.4
v 1 0.7 0.4
v 1 0.9 0.4
v -0.9 1.1 0.3
v -0.9 1.6 0.3
v -0.8 0.4 0.3
v -0.8 0.5 0.3
v -0.8 1.1 0.3
v -0.8 1.6 0.3
v -0.8 3.2 0.3
v -0.8 3.4 0.3
v -0.7 3.4 0.3
v -0.2 3.2 0.3
v -0.2 3.4 0.3
v 1.1 0.4 0.3
v 1.1 0.5 0.3
v -0.9 0.6 0.2
v -0.9 0.8 0.2
v -0.8 0.8 0.2
v 1 0.6 0.2
v 1 0.8 0.2
v -0.8 0.4 0.0999999
v -0.8 0.6 0.0999999
v 1 0.5 0.0999999
v 1 0.6 0.0999999
v 1.1 0.4 0.0999999
v 1.1 0.5 0.0999999
v 1 0.5 -0.6
v 1 0.6 -0.6
v 1.1 0.5 -0.6
v 1.1 0.6 -0.6
v -2 3.4 -0.8
v -2 3.7 -0.8
v -1.9 3.1 -0.8
v -1.9 3.4 -0.8
v -1.7 2.9 -0.8
v -1.7 3.1 -0.8
v -1.6 2.9 -0.8
v -1.6 3.1 -0.8
v -1.5 2.9 -0.8
v -1.5 3.1 -0.8
v -1.4 2.9 -0.8
v -1.4 3 -0.8
v -1.3 2.9 -0.8
v -1.3 3 -0.8
v -1.1 2.9 -0.8
v -1.1 3.1 -0.8
v -0.9 2.9 -0.8
v -0.9 3.1 -0.8
v -0.9 3.5 -0.8
v -0.9 3.7 -0.8
v -0.8 2.9 -0.8
v -0.8 3.1 -0.8
v -0.8 3.4 -0.8
v -0.7 3.4 -0.8
v -0.7 3.5 -0.8
v -0.6 3.1 -0.8
v -0.6 3.3 -0.8
v -0.5 3.1 -0.8
v -0.5 3.2 -0.8
v -0.2 3.2 -0.8
v -0.2 3.3 -0.8
v 1 0.6 -0.8
v 1 0.7 -0.8
v 1.1 0.6 -0.8
v 1.1 0.7 -0.8
v -0.9 3.5 -0.9
v -0.9 3.7 -0.9
v -0.8 3.5 -0.9
v -0.8 3.7 -0.9
v 0.4 3.5 -0.9
v 0.4 3.6 -0.9
v 0.7 3.5 -0.9
v 0.7 3.6 -0.9
v 0.6 3.6 -1
v 0.6 3.7 -1
v 0.7 2.9 -1
v 0.7 3.5 -1
v 0.7 3.6 -1
v 0.8 2.9 -1
v 0.8 3 -1
v 0.9 2.9 -1
v 0.9 3 -1
v 1 2.9 -1
v 1 3 -1
v 1.1 2.9 -1
v 1.1 3 -1
v 1.2 2.9 -1
v 1.2 3 -1
v 1.3 2.9 -1
v 1.3 3 -1
v 1.4 2.9 -1
v 1.4 3 -1
v 1.6 2.9 -1
v 1.6 3 -1
v 1.7 2.9 -1
v 1.7 3.1 -1
v 1.9 3.1 -1
v 1.9 3.4 -1
v 2 3.4 -1
v 2 3.7 -1
v 0.6 2.9 -1.1
v 0.6 3.5 -1.1
v 0.7 2.9 -1.1
v 0.7 3.5 -1.1
v 1.4 2.9 -1.1
v 1.4 3 -1.1
v 1.6 2.9 -1.1
v 1.6 3 -1.1
v -0.5 2.4 1
v -0.5 2.6 1
v -0.4 2.5 1
v -0.4 2.6 1
v -0.3 2.4 1
v -0.3 2.5 1
v 1 0.2 1
v 1 0.3 1
v 1.5 0.2 1
v 1.5 0.3 1
v -0.8 3.4 0.7
v -0.8 3.5 0.7
v -0.7 3.4 0.7
v -0.7 3.5 0.7
v 2.38419e-07 0.4 0.6
v 2.38419e-07 0.5 0.6
v 1.1 0.4 0.6
v 1.1 0.5 0.6
v -0.9 1.1 0.5
v -0.9 1.9 0.5
v -0.8 1.1 0.5
v -0.8 1.9 0.5
v 0.4 3.9 0.4
v 0.4 4 0.4
v 0.5 3.9 0.4
v 0.5 4 0.4
v -0.9 1.9 0.3
v -0.9 2.7 0.3
v -0.8 1.9 0.3
v -0.8 2.7 0.3
v -0.0999999 1.9 0.3
v -0.0999999 2.3 0.3
v 2.38419e-07 0.7 0.3
v 2.38419e-07 0.8 0.3
v 0.4 3.1 0.3
v 0.4 3.8 0.3
v 0.5 3.2 0.3
v 0.5 3.8 0.3
v 0.6 2.8 0.3
v 0.6 3.1 0.3
v 0.6 3.2 0.3
v 0.8 1.9 0.3
v 0.8 2.3 0.3
v 0.8 2.8 0.3
v 0.8 3.1 0.3
v 1 0.7 0.3
v 1 0.8 0.3
v -0.8 0.4 0.2
v -0.8 0.5 0.2
v 1.1 0.4 0.2
v 1.1 0.5 0.2
v -0.9 0.6 0.0999999
v -0.9 0.8 0.0999999
v -0.9 1.1 0.0999999
v -0.9 1.5 0.0999999
v -0.8 0.6 0.0999999
v -0.8 0.8 0.0999999
v -0.8 1.1 0.0999999
v -0.8 1.5 0.0999999
v 0.5 2.9 0.0999999
v 0.5 3.1 0.0999999
v 0.6 2.9 0.0999999
v 0.6 3.1 0.0999999
v 0.7 1.6 0.0999999
v 0.7 1.9 0.0999999
v 0.7 2.3 0.0999999
v 0.7 2.8 0.0999999
v 0.8 1.6 0.0999999
v 0.8 1.9 0.0999999
v 0.8 2.3 0.0999999
v 0.8 2.8 0.0999999
v -0.9 1.5 -2.38419e-07
v -0.9 1.6 -2.38419e-07
v -0.8 1.3 -2.38419e-07
v -0.8 1.5 -2.38419e-07
v -0.8 1.6 -2.38419e-07
v -0.8 2.5 -2.38419e-07
v -0.5 2.2 -2.38419e-07
v -0.5 2.5 -2.38419e-07
v -0.0999999 1.9 -2.38419e-07
v -0.0999999 2.2 -2.38419e-07
v 0.7 1.6 -2.38419e-07
v 0.7 1.9 -2.38419e-07
v 0.8 1.5 -2.38419e-07
v 0.8 1.6 -2.38419e-07
v 0.9 1.3 -2.38419e-07
v 0.9 1.5 -2.38419e-07
v -0.5 2.2 -0.1
v -0.5 2.3 -0.1
v -0.0999999 2.2 -0.1
v -0.0999999 2.3 -0.1
v 2.38419e-07 2.3 -0.1
v 2.38419e-07 2.7 -0.1
v 0.7 2.3 -0.1
v 0.7 2.7 -0.1
v -0.4 2.3 -0.3
v -0.4 2.6 -0.3
v 2.38419e-07 2.3 -0.3
v 2.38419e-07 2.6 -0.3
v -0.8 1.1 -0.4
v -0.8 1.3 -0.4
v 0.9 1.1 -0.4
v 0.9 1.3 -0.4
v 0.4 3.8 -0.5
v 0.4 3.9 -0.5
v 0.5 3.8 -0.5
v 0.5 3.9 -0.5
v -0.9 2.7 -0.6
v -0.9 3.1 -0.6
v -0.8 0.8 -0.6
v -0.8 1.1 -0.6
v -0.8 2.5 -0.6
v -0.8 2.7 -0.6
v -0.8 3.1 -0.6
v -0.6 3.1 -0.6
v -0.6 3.3 -0.6
v -0.5 2.5 -0.6
v -0.4 2.5 -0.6
v -0.4 2.6 -0.6
v -0.2 3.2 -0.6
v -0.2 3.3 -0.6
v 2.38419e-07 2.6 -0.6
v 2.38419e-07 2.7 -0.6
v 0.4 3.1 -0.6
v 0.4 3.2 -0.6
v 0.5 2.7 -0.6
v 0.5 2.8 -0.6
v 0.5 2.9 -0.6
v 0.5 3.1 -0.6
v 0.6 2.8 -0.6
v 0.6 2.9 -0.6
v 0.9 1 -0.6
v 0.9 1.1 -0.6
v 1 0.8 -0.6
v 1 1 -0.6
v -0.5 2.3 -0.7
v -0.5 2.5 -0.7
v -0.4 2.3 -0.7
v -0.4 2.5 -0.7
v 0.5 2.7 -0.7
v 0.5 2.8 -0.7
v 0.7 2.7 -0.7
v 0.7 2.8 -0.7
v -0.7 3.5 -0.8
v -0.7 4 -0.8
v -0.6 3.5 -0.8
v -0.6 3.9 -0.8
v 0.4 3.9 -0.8
v 0.4 4 -0.8
v -0.6 3.6 -0.9
v -0.6 3.9 -0.9
v 0.4 3.6 -0.9
v 0.4 3.9 -0.9
v -2 3.4 -1
v -2 3.7 -1
v -1.9 3.1 -1
v -1.9 3.4 -1
v -1.7 2.9 -1
v -1.7 3.1 -1
v -1.6 2.9 -1
v -1.6 3.1 -1
v -1.5 2.9 -1
v -1.5 3.1 -1
v -1.4 2.9 -1
v -1.4 3 -1
v -1.3 2.9 -1
v -1.3 3 -1
v -1.1 2.9 -1
v -1.1 3.1 -1
v -0.9 2.9 -1
v -0.9 3.1 -1
v -0.8 2.9 -1
v -0.8 3.1 -1
v -0.8 3.5 -1
v -0.8 3.7 -1
v -0.6 3.1 -1
v -0.6 3.5 -1
v -0.6 3.6 -1
v 0.3 3.5 -1
v 0.3 3.6 -1
v -0.6 3.1 -1.1
v -0.6 3.5 -1.1
v -0.5 3.1 -1.1
v -0.5 3.2 -1.1
v 0.3 3.5 -1.1
v 0.3 3.6 -1.1
v 0.4 3.2 -1.1
v 0.4 3.5 -1.1
v 0.6 3.5 -1.1
v 0.6 3.6 -1.1
v -1.4 0.1 -1.2
v -1.4 0.4 -1.2
v -0.8 0.4 -1.2
v -0.8 0.8 -1.2
v 0.6 2.9 -1.2
v 0.6 3.7 -1.2
v 0.8 2.9 -1.2
v 0.8 3 -1.2
v 0.9 2.9 -1.2
v 0.9 3 -1.2
v 1 0.7 -1.2
v 1 0.8 -1.2
v 1 2.9 -1.2
v 1 3 -1.2
v 1.1 0.3 -1.2
v 1.1 0.7 -1.2
v 1.1 2.9 -1.2
v 1.1 3 -1.2
v 1.2 2.9 -1.2
v 1.2 3 -1.2
v 1.3 2.9 -1.2
v 1.3 3 -1.2
v 1.5 0.1 -1.2
v 1.5 0.3 -1.2
v 1.7 2.9 -1.2
v 1.7 3.1 -1.2
v 1.9 3.1 -1.2
v 1.9 3.4 -1.2
v 2 3.4 -1.2
v 2 3.7 -1.2
v -2 0 -2
v -2 0.1 -2
v 2 0 -2
v 2 0.1 -2
v -2 0 2
v 2 0 2
v -2 0 -2
v 2 0 -2
v 1 0.4 0.8
v 1.1 0.4 0.8
v 1 0.4 0.7
v 1.1 0.4 0.7
v -0.9 0.6 0.2
v 1 0.6 0.2
v -0.9 0.6 0.0999999
v -0.8 0.6 0.0999999
v 1 0.6 0.0999999
v 2.38419e-07 0.7 0.4
v 1 0.7 0.4
v 2.38419e-07 0.7 0.3
v 1 0.7 0.3
v -0.8 0.8 0.7
v 0.1 0.8 0.7
v 2.38419e-07 0.8 0.4
v 0.1 0.8 0.4
v 2.38419e-07 0.8 0.3
v 1 0.8 0.3
v -0.8 0.8 0.2
v 1 0.8 0.2
v 0.1 0.9 0.6
v 1 0.9 0.6
v 0.1 0.9 0.4
v 1 0.9 0.4
v -0.9 1.1 0.6
v -0.8 1.1 0.6
v -0.9 1.1 0.5
v -0.8 1.1 0.5
v -0.9 1.1 0.3
v -0.8 1.1 0.3
v -0.9 1.1 0.0999999
v -0.8 1.1 0.0999999
v -0.9 1.5 0.0999999
v -0.8 1.5 0.0999999
v -0.9 1.5 -2.38419e-07
v -0.8 1.5 -2.38419e-07
v -0.9 1.9 0.5
v -0.8 1.9 0.5
v -0.9 1.9 0.3
v -0.8 1.9 0.3
v -0.5 2.2 -2.38419e-07
v -0.0999999 2.2 -2.38419e-07
v -0.5 2.2 -0.1
v -0.0999999 2.2 -0.1
v -0.9 2.3 0.7
v -0.7 2.3 0.7
v -0.9 2.3 0.6
v -0.7 2.3 0.6
v -0.0999999 2.3 0.3
v 0.8 2.3 0.3
v 0.7 2.3 0.0999999
v 0.8 2.3 0.0999999
v -0.5 2.3 -0.1
v -0.0999999 2.3 -0.1
v 2.38419e-07 2.3 -0.1
v 0.7 2.3 -0.1
v -0.4 2.3 -0.3
v 2.38419e-07 2.3 -0.3
v -0.5 2.3 -0.7
v -0.4 2.3 -0.7
v -0.7 2.4 1.1
v -0.3 2.4 1.1
v 0.4 2.4 1.1
v 0.8 2.4 1.1
v -0.5 2.4 1
v -0.3 2.4 1
v -0.5 2.4 0.9
v -0.2 2.4 0.9
v -0.2 2.4 0.8
v 0.4 2.4 0.8
v -0.7 2.4 0.7
v -0.7 2.4 0.6
v 0.8 2.4 0.6
v -0.7 2.5 1.2
v -0.6 2.5 1.2
v -0.5 2.5 1.2
v -0.4 2.5 1.2
v 0.4 2.5 1.2
v 0.5 2.5 1.2
v 0.7 2.5 1.2
v 0.8 2.5 1.2
v -0.7 2.5 1.1
v -0.6 2.5 1.1
v -0.5 2.5 1.1
v -0.4 2.5 1.1
v 0.4 2.5 1.1
v 0.5 2.5 1.1
v 0.7 2.5 1.1
v 0.8 2.5 1.1
v -0.8 2.5 -2.38419e-07
v -0.5 2.5 -2.38419e-07
v -0.8 2.5 -0.6
v -0.5 2.5 -0.6
v -0.4 2.6 -0.3
v 2.38419e-07 2.6 -0.3
v -0.4 2.6 -0.6
v 2.38419e-07 2.6 -0.6
v -0.9 2.7 0.3
v -0.8 2.7 0.3
v 2.38419e-07 2.7 -0.1
v 0.7 2.7 -0.1
v -0.9 2.7 -0.6
v -0.8 2.7 -0.6
v 2.38419e-07 2.7 -0.6
v 0.5 2.7 -0.6
v 0.5 2.7 -0.7
v 0.7 2.7 -0.7
v -1.7 2.9 -0.8
v -1.6 2.9 -0.8
v -1.5 2.9 -0.8
v -1.4 2.9 -0.8
v -1.3 2.9 -0.8
v -1.1 2.9 -0.8
v -0.9 2.9 -0.8
v -0.8 2.9 -0.8
v -1.7 2.9 -1
v -1.6 2.9 -1
v -1.5 2.9 -1
v -1.4 2.9 -1
v -1.3 2.9 -1
v -1.1 2.9 -1
v -0.9 2.9 -1
v -0.8 2.9 -1
v 0.7 2.9 -1
v 0.8 2.9 -1
v 0.9 2.9 -1
v 1 2.9 -1
v 1.1 2.9 -1
v 1.2 2.9 -1
v 1.3 2.9 -1
v 1.4 2.9 -1
v 1.6 2.9 -1
v 1.7 2.9 -1
v 0.6 2.9 -1.1
v 0.7 2.9 -1.1
v 1.4 2.9 -1.1
v 1.6 2.9 -1.1
v 0.6 2.9 -1.2
v 0.8 2.9 -1.2
v 0.9 2.9 -1.2
v 1 2.9 -1.2
v 1.1 2.9 -1.2
v 1.2 2.9 -1.2
v 1.3 2.9 -1.2
v 1.7 2.9 -1.2
v -1.4 3 -0.8
v -1.3 3 -0.8
v -1.4 3 -1
v -1.3 3 -1
v 0.8 3 -1
v 0.9 3 -1
v 1 3 -1
v 1.1 3 -1
v 1.2 3 -1
v 1.3 3 -1
v 1.4 3 -1
v 1.6 3 -1
v 1.4 3 -1.1
v 1.6 3 -1.1
v 0.8 3 -1.2
v 0.9 3 -1.2
v 1 3 -1.2
v 1.1 3 -1.2
v 1.2 3 -1.2
v 1.3 3 -1.2
v -0.8 3.1 -0.6
v -0.6 3.1 -0.6
v -1.9 3.1 -0.8
v -1.7 3.1 -0.8
v -1.6 3.1 -0.8
v -1.5 3.1 -0.8
v -1.1 3.1 -0.8
v -0.9 3.1 -0.8
v -0.8 3.1 -0.8
v -0.6 3.1 -0.8
v -0.5 3.1 -0.8
v -1.9 3.1 -1
v -1.7 3.1 -1
v -1.6 3.1 -1
v -1.5 3.1 -1
v -1.1 3.1 -1
v -0.9 3.1 -1
v -0.8 3.1 -1
v -0.6 3.1 -1
v 1.7 3.1 -1
v 1.9 3.1 -1
v -0.6 3.1 -1.1
v -0.5 3.1 -1.1
v 1.7 3.1 -1.2
v 1.9 3.1 -1.2
v -0.2 3.2 -0.6
v 0.4 3.2 -0.6
v -0.5 3.2 -0.8
v -0.2 3.2 -0.8
v -0.5 3.2 -1.1
v 0.4 3.2 -1.1
v 0.4 3.3 0.9
v 0.5 3.3 0.9
v 0.4 3.3 0.6
v 0.5 3.3 0.6
v -0.6 3.3 -0.6
v -0.2 3.3 -0.6
v -0.6 3.3 -0.8
v -0.2 3.3 -0.8
v 0.3 3.4 1
v 0.4 3.4 1
v -0.6 3.4 0.9
v 0.3 3.4 0.9
v 0.4 3.4 0.9
v -0.8 3.4 0.8
v -0.6 3.4 0.8
v -0.8 3.4 0.7
v -0.7 3.4 0.7
v -0.2 3.4 0.6
v 0.4 3.4 0.6
v -0.7 3.4 0.3
v -0.2 3.4 0.3
v -2 3.4 -0.8
v -1.9 3.4 -0.8
v -2 3.4 -1
v -1.9 3.4 -1
v 1.9 3.4 -1
v 2 3.4 -1
v 1.9 3.4 -1.2
v 2 3.4 -1.2
v -0.7 3.5 1.2
v 0.5 3.5 1.2
v -0.7 3.5 1.1
v -0.5 3.5 1.1
v -0.5 3.5 1
v 0.3 3.5 1
v 0.4 3.5 1
v -0.6 3.5 0.9
v 0.3 3.5 0.9
v 0.4 3.5 0.9
v 0.5 3.5 0.9
v -0.7 3.5 0.8
v -0.6 3.5 0.8
v 0.4 3.5 -0.9
v 0.7 3.5 -0.9
v 0.7 3.5 -1
v 0.4 3.5 -1.1
v 0.6 3.5 -1.1
v 0.7 3.5 -1.1
v -0.7 3.7 1.3
v 0.5 3.7 1.3
v -0.7 3.7 1.2
v 0.5 3.7 1.2
v -0.7 3.7 0.8
v 0.5 3.7 0.8
v 0.4 3.8 0.3
v 0.5 3.8 0.3
v 0.4 3.8 -0.5
v 0.5 3.8 -0.5
v -2 0.1 2
v 2 0.1 2
v -1.4 0.1 1.2
v 1.4 0.1 1.2
v 1.4 0.1 1.1
v 1.5 0.1 1.1
v -1.4 0.1 -1.2
v 1.5 0.1 -1.2
v -2 0.1 -2
v 2 0.1 -2
v 1 0.2 1
v 1.5 0.2 1
v 1 0.2 0.7
v 1.5 0.2 0.7
v -1.4 0.3 1.2
v 1.4 0.3 1.2
v 1.4 0.3 1.1
v 1.5 0.3 1.1
v 1 0.3 1
v 1.5 0.3 1
v -1.4 0.3 0.8
v 1 0.3 0.8
v 1.1 0.3 0.7
v 1.5 0.3 0.7
v 1.1 0.3 -1.2
v 1.5 0.3 -1.2
v -1.4 0.4 0.8
v 2.38419e-07 0.4 0.8
v 2.38419e-07 0.4 0.6
v 1.1 0.4 0.6
v -0.8 0.4 0.3
v 1.1 0.4 0.3
v -0.8 0.4 0.2
v 1.1 0.4 0.2
v -0.8 0.4 0.0999999
v 1.1 0.4 0.0999999
v -1.4 0.4 -1.2
v -0.8 0.4 -1.2
v 2.38419e-07 0.5 0.8
v 1.1 0.5 0.8
v 2.38419e-07 0.5 0.6
v 1.1 0.5 0.6
v -0.8 0.5 0.3
v 1.1 0.5 0.3
v -0.8 0.5 0.2
v 1.1 0.5 0.2
v 1 0.5 0.0999999
v 1.1 0.5 0.0999999
v 1 0.5 -0.6
v 1.1 0.5 -0.6
v 1 0.6 -0.6
v 1.1 0.6 -0.6
v 1 0.6 -0.8
v 1.1 0.6 -0.8
v 1 0.7 -0.8
v 1.1 0.7 -0.8
v 1 0.7 -1.2
v 1.1 0.7 -1.2
v -0.9 0.8 0.2
v -0.8 0.8 0.2
v -0.9 0.8 0.0999999
v -0.8 0.8 0.0999999
v -0.8 0.8 -0.6
v 1 0.8 -0.6
v -0.8 0.8 -1.2
v 1 0.8 -1.2
v -0.7 0.9 0.7
v 0.1 0.9 0.7
v -0.7 0.9 0.6
v 0.1 0.9 0.6
v -0.8 1 0.7
v -0.7 1 0.7
v -0.8 1 0.6
v -0.7 1 0.6
v 0.9 1 0.6
v 1 1 0.6
v 0.9 1 -0.6
v 1 1 -0.6
v -0.8 1.1 -0.4
v 0.9 1.1 -0.4
v -0.8 1.1 -0.6
v 0.9 1.1 -0.6
v -0.8 1.3 -2.38419e-07
v 0.9 1.3 -2.38419e-07
v -0.8 1.3 -0.4
v 0.9 1.3 -0.4
v 0.8 1.5 0.6
v 0.9 1.5 0.6
v 0.8 1.5 -2.38419e-07
v 0.9 1.5 -2.38419e-07
v -0.9 1.6 0.3
v -0.8 1.6 0.3
v 0.7 1.6 0.0999999
v 0.8 1.6 0.0999999
v -0.9 1.6 -2.38419e-07
v -0.8 1.6 -2.38419e-07
v 0.7 1.6 -2.38419e-07
v 0.8 1.6 -2.38419e-07
v -0.0999999 1.9 0.3
v 0.8 1.9 0.3
v 0.7 1.9 0.0999999
v 0.8 1.9 0.0999999
v -0.0999999 1.9 -2.38419e-07
v 0.7 1.9 -2.38419e-07
v -0.4 2.5 1.1
v -0.3 2.5 1.1
v -0.4 2.5 1
v -0.3 2.5 1
v -0.3 2.5 0.9
v -0.2 2.5 0.9
v -0.3 2.5 0.8
v -0.2 2.5 0.8
v -0.5 2.5 -0.6
v -0.4 2.5 -0.6
v -0.5 2.5 -0.7
v -0.4 2.5 -0.7
v -0.7 2.6 1.2
v -0.6 2.6 1.2
v -0.5 2.6 1.2
v -0.4 2.6 1.2
v 0.4 2.6 1.2
v 0.5 2.6 1.2
v 0.7 2.6 1.2
v 0.8 2.6 1.2
v -0.7 2.6 1.1
v -0.6 2.6 1.1
v -0.5 2.6 1.1
v -0.4 2.6 1.1
v 0.4 2.6 1.1
v 0.5 2.6 1.1
v 0.7 2.6 1.1
v 0.8 2.6 1.1
v -0.5 2.6 1
v -0.4 2.6 1
v -0.5 2.6 0.9
v -0.3 2.6 0.9
v -0.3 2.6 0.8
v 0.4 2.6 0.8
v -0.7 2.6 0.7
v 0.8 2.6 0.7
v -0.9 2.7 0.7
v -0.5 2.7 0.7
v -0.9 2.7 0.6
v -0.5 2.7 0.6
v 0.5 2.8 0.7
v 0.8 2.8 0.7
v 0.5 2.8 0.6
v 0.8 2.8 0.6
v 0.6 2.8 0.3
v 0.8 2.8 0.3
v 0.7 2.8 0.0999999
v 0.8 2.8 0.0999999
v 0.5 2.8 -0.6
v 0.6 2.8 -0.6
v 0.5 2.8 -0.7
v 0.7 2.8 -0.7
v 0.4 2.9 0.7
v 0.5 2.9 0.7
v -0.9 2.9 0.6
v -0.8 2.9 0.6
v 0.4 2.9 0.6
v 0.5 2.9 0.6
v -0.9 2.9 0.4
v -0.8 2.9 0.4
v 0.5 2.9 0.0999999
v 0.6 2.9 0.0999999
v 0.5 2.9 -0.6
v 0.6 2.9 -0.6
v -0.5 3 0.7
v 0.4 3 0.7
v -0.5 3 0.6
v 0.4 3 0.6
v -0.8 3.1 0.6
v -0.7 3.1 0.6
v 0.6 3.1 0.6
v 0.8 3.1 0.6
v -0.9 3.1 0.4
v -0.8 3.1 0.4
v -0.7 3.1 0.4
v 0.4 3.1 0.3
v 0.6 3.1 0.3
v 0.8 3.1 0.3
v 0.5 3.1 0.0999999
v 0.6 3.1 0.0999999
v -0.9 3.1 -0.6
v -0.8 3.1 -0.6
v 0.4 3.1 -0.6
v 0.5 3.1 -0.6
v -0.7 3.2 0.6
v -0.2 3.2 0.6
v 0.5 3.2 0.6
v 0.6 3.2 0.6
v -0.8 3.2 0.4
v -0.7 3.2 0.4
v -0.8 3.2 0.3
v -0.2 3.2 0.3
v 0.5 3.2 0.3
v 0.6 3.2 0.3
v -0.8 3.4 0.3
v -0.7 3.4 0.3
v -0.8 3.4 -0.8
v -0.7 3.4 -0.8
v -0.8 3.5 0.8
v -0.7 3.5 0.8
v -0.8 3.5 0.7
v -0.7 3.5 0.7
v -0.9 3.5 -0.8
v -0.7 3.5 -0.8
v -0.6 3.5 -0.8
v -0.9 3.5 -0.9
v -0.8 3.5 -0.9
v -0.8 3.5 -1
v -0.6 3.5 -1
v 0.3 3.5 -1
v -0.6 3.5 -1.1
v 0.3 3.5 -1.1
v -0.7 3.6 1.2
v 0.5 3.6 1.2
v -0.7 3.6 1.1
v -0.5 3.6 1.1
v -0.5 3.6 1
v 0.4 3.6 1
v 0.4 3.6 0.9
v 0.5 3.6 0.9
v -0.7 3.6 0.8
v 0.5 3.6 0.8
v -0.6 3.6 -0.9
v 0.4 3.6 -0.9
v 0.7 3.6 -0.9
v -0.6 3.6 -1
v 0.3 3.6 -1
v 0.6 3.6 -1
v 0.7 3.6 -1
v 0.3 3.6 -1.1
v 0.6 3.6 -1.1
v -2 3.7 -0.8
v -0.9 3.7 -0.8
v -0.9 3.7 -0.9
v -0.8 3.7 -0.9
v -2 3.7 -1
v -0.8 3.7 -1
v 0.6 3.7 -1
v 2 3.7 -1
v 0.6 3.7 -1.2
v 2 3.7 -1.2
v 0.4 3.9 0.4
v 0.5 3.9 0.4
v 0.4 3.9 -0.5
v 0.5 3.9 -0.5
v -0.6 3.9 -0.8
v 0.4 3.9 -0.8
v -0.6 3.9 -0.9
v 0.4 3.9 -0.9
v -0.7 4 1.3
v 0.5 4 1.3
v -0.7 4 1.2
v 0.5 4 1.2
v -0.7 4 1.1
v -0.6 4 1.1
v 0.4 4 1
v 0.5 4 1
v -0.7 4 0.6
v -0.6 4 0.6
v 0.4 4 0.5
v 0.5 4 0.5
v 0.4 4 0.4
v 0.5 4 0.4
v -0.7 4 -0.8
v 0.4 4 -0.8

# faces
f 3/2/1 2/2/1 1/2/1
f 4/2/1 2/2/1 3/2/1
f 7/3/1 6/3/1 5/3/1
f 8/3/1 6/3/1 7/3/1
f 11/3/1 10/3/1 9/3/1
f 12/3/1 10/3/1 11/3/1
f 15/3/1 14/3/1 13/3/1
f 16/3/1 14/3/1 15/3/1
f 19/3/1 18/3/1 17/3/1
f 20/3/1 18/3/1 19/3/1
f 23/3/1 22/3/1 21/3/1
f 24/3/1 22/3/1 23/3/1
f 25/3/1 22/3/1 24/3/1
f 26/3/1 22/3/1 25/3/1
f 29/3/1 28/3/1 27/3/1
f 30/3/1 28/3/1 29/3/1
f 33/3/1 32/3/1 31/3/1
f 34/3/1 32/3/1 33/3/1
f 39/3/1 38/3/1 37/3/1
f 41/3/1 39/3/1 37/3/1
f 41/3/1 40/3/1 39/3/1
f 42/3/1 40/3/1 41/3/1
f 43/3/1 36/3/1 35/3/1
f 46/3/1 43/3/1 35/3/1
f 46/3/1 44/3/1 43/3/1
f 47/3/1 46/3/1 45/3/1
f 48/3/1 44/3/1 46/3/1
f 48/3/1 46/3/1 47/3/1
f 49/3/1 44/3/1 48/3/1
f 51/3/1 49/3/1 48/3/1
f 51/3/1 50/3/1 49/3/1
f 52/3/1 50/3/1 51/3/1
f 55/3/1 50/3/1 52/3/1
f 56/3/1 50/3/1 55/3/1
f 57/3/1 54/3/1 53/3/1
f 58/3/1 54/3/1 57/3/1
f 63/3/1 60/3/1 59/3/1
f 64/3/1 60/3/1 63/3/1
f 65/3/1 62/3/1 61/3/1
f 68/3/1 62/3/1 65/3/1
f 69/3/1 62/3/1 68/3/1
f 70/3/1 62/3/1 69/3/1
f 71/3/1 67/3/1 66/3/1
f 71/3/1 68/3/1 67/3/1
f 71/3/1 69/3/1 68/3/1
f 72/3/1 69/3/1 71/3/1
f 73/3/1 69/3/1 72/3/1
f 74/3/1 69/3/1 73/3/1
f 75/3/1 69/3/1 74/3/1
f 76/3/1 69/3/1 75/3/1
f 77/3/1 69/3/1 76/3/1
f 78/3/1 69/3/1 77/3/1
f 79/3/1 77/3/1 76/3/1
f 80/3/1 77/3/1 79/3/1
f 81/3/1 79/3/1 76/3/1
f 82/3/1 79/3/1 81/3/1
f 83/3/1 75/3/1 74/3/1
f 85/3/1 83/3/1 74/3/1
f 85/3/1 84/3/1 83/3/1
f 86/3/1 84/3/1 85/3/1
f 87/3/1 84/3/1 86/3/1
f 89/3/1 87/3/1 86/3/1
f 89/3/1 88/3/1 87/3/1
f 90/3/1 88/3/1 89/3/1
f 93/3/1 92/3/1 91/3/1
f 94/3/1 92/3/1 93/3/1
f 97/3/1 95/3/1 94/3/1
f 97/3/1 96/3/1 95/3/1
f 98/3/1 96/3/1 97/3/1
f 101/3/1 96/3/1 98/3/1
f 102/3/1 96/3/1 101/3/1
f 103/3/1 100/3/1 99/3/1
f 104/3/1 100/3/1 103/3/1
f 108/3/1 106/3/1 105/3/1
f 109/1/1 108/1/1 107/1/1
f 110/3/1 106/3/1 108/3/1
f 110/1/1 108/1/1 109/1/1
f 111/3/1 106/3/1 110/3/1
f 114/3/1 113/3/1 112/3/1
f 115/3/1 113/3/1 114/3/1
f 122/3/1 117/3/1 116/3/1
f 122/3/1 118/3/1 117/3/1
f 123/3/1 118/3/1 122/3/1
f 124/1/1 120/1/1 119/1/1
f 125/3/1 121/3/1 120/3/1
f 125/1/1 120/1/1 124/1/1
f 125/3/1 122/3/1 121/3/1
f 125/3/1 123/3/1 122/3/1
f 126/3/1 123/3/1 125/3/1
f 129/3/1 123/3/1 126/3/1
f 130/3/1 129/3/1 128/3/1
f 131/3/1 123/3/1 129/3/1
f 131/3/1 129/3/1 130/3/1
f 132/1/1 128/1/1 127/1/1
f 133/3/1 130/3/1 128/3/1
f 133/1/1 128/1/1 132/1/1
f 134/4/1 131/4/1 130/4/1
f 134/3/1 130/3/1 133/3/1
f 135/3/1 123/3/1 131/3/1
f 135/4/1 131/4/1 134/4/1
f 136/3/1 123/3/1 135/3/1
f 141/3/1 140/3/1 139/3/1
f 142/3/1 140/3/1 141/3/1
f 144/3/1 138/3/1 137/3/1
f 145/3/1 138/3/1 144/3/1
f 146/3/1 144/3/1 143/3/1
f 147/3/1 144/3/1 146/3/1
f 148/3/1 146/3/1 143/3/1
f 149/3/1 146/3/1 148/3/1
f 152/3/1 151/3/1 150/3/1
f 156/3/1 152/3/1 150/3/1
f 156/3/1 153/3/1 152/3/1
f 157/3/1 153/3/1 156/3/1
f 158/3/1 153/3/1 157/3/1
f 159/1/1 155/1/1 154/1/1
f 160/1/1 155/1/1 159/1/1
f 163/3/1 162/3/1 161/3/1
f 164/3/1 162/3/1 163/3/1
f 169/3/1 168/3/1 167/3/1
f 170/3/1 168/3/1 169/3/1
f 171/3/1 166/3/1 165/3/1
f 172/3/1 166/3/1 171/3/1
f 175/3/1 174/3/1 173/3/1
f 176/3/1 174/3/1 175/3/1
f 179/3/1 178/3/1 177/3/1
f 180/3/1 178/3/1 179/3/1
f 183/3/1 182/3/1 181/3/1
f 184/3/1 182/3/1 183/3/1
f 187/3/1 186/3/1 185/3/1
f 188/3/1 186/3/1 187/3/1
f 192/3/1 190/3/1 189/3/1
f 193/1/1 192/1/1 191/1/1
f 194/3/1 190/3/1 192/3/1
f 194/1/1 192/1/1 193/1/1
f 195/3/1 190/3/1 194/3/1
f 198/3/1 197/3/1 196/3/1
f 199/3/1 197/3/1 198/3/1
f 202/3/1 201/3/1 200/3/1
f 203/3/1 201/3/1 202/3/1
f 206/3/1 205/3/1 204/3/1
f 208/3/1 205/3/1 206/3/1
f 209/3/1 208/3/1 207/3/1
f 210/3/1 205/3/1 208/3/1
f 210/3/1 208/3/1 209/3/1
f 213/1/1 212/1/1 211/1/1
f 214/1/1 212/1/1 213/1/1
f 217/3/1 216/3/1 215/3/1
f 218/3/1 216/3/1 217/3/1
f 221/3/1 220/3/1 219/3/1
f 222/3/1 220/3/1 221/3/1
f 225/3/1 224/3/1 223/3/1
f 226/3/1 224/3/1 225/3/1
f 229/3/1 228/3/1 227/3/1
f 230/3/1 228/3/1 229/3/1
f 233/3/1 232/3/1 231/3/1
f 234/3/1 232/3/1 233/3/1
f 235/3/2 236/3/2 237/3/2
f 237/3/2 236/3/2 238/3/2
f 239/3/2 240/3/2 241/3/2
f 241/3/2 240/3/2 242/3/2
f 243/3/2 244/3/2 245/3/2
f 245/3/2 244/3/2 246/3/2
f 247/3/2 248/3/2 249/3/2
f 249/3/2 248/3/2 250/3/2
f 251/3/2 252/3/2 253/3/2
f 253/3/2 252/3/2 254/3/2
f 255/3/2 256/3/2 257/3/2
f 257/3/2 256/3/2 258/3/2
f 259/3/2 260/3/2 261/3/2
f 261/3/2 260/3/2 262/3/2
f 263/3/2 264/3/2 265/3/2
f 265/3/2 264/3/2 266/3/2
f 267/1/2 268/1/2 269/1/2
f 269/1/2 268/1/2 270/1/2
f 271/3/2 272/3/2 273/3/2
f 273/3/2 272/3/2 274/3/2
f 275/3/2 276/3/2 277/3/2
f 277/3/2 276/3/2 278/3/2
f 279/3/2 280/3/2 281/3/2
f 281/3/2 280/3/2 282/3/2
f 283/3/2 284/3/2 288/3/2
f 288/3/2 284/3/2 289/3/2
f 285/1/2 286/1/2 290/1/2
f 286/3/2 287/3/2 291/3/2
f 290/1/2 286/1/2 291/1/2
f 291/3/2 287/3/2 292/3/2
f 283/3/2 288/3/2 293/3/2
f 293/3/2 288/3/2 294/3/2
f 295/3/2 296/3/2 297/3/2
f 297/3/2 296/3/2 298/3/2
f 299/3/2 300/3/2 301/3/2
f 301/3/2 300/3/2 302/3/2
f 303/3/2 304/3/2 305/3/2
f 305/3/2 304/3/2 306/3/2
f 307/3/2 308/3/2 309/3/2
f 307/3/2 309/3/2 311/3/2
f 309/3/2 310/3/2 311/3/2
f 311/3/2 310/3/2 312/3/2
f 313/3/2 314/3/2 315/3/2
f 313/3/2 315/3/2 317/3/2
f 315/3/2 316/3/2 317/3/2
f 317/3/2 316/3/2 318/3/2
f 319/3/2 320/3/2 321/3/2
f 321/3/2 320/3/2 322/3/2
f 322/3/2 320/3/2 323/3/2
f 324/3/2 325/3/2 326/3/2
f 326/3/2 325/3/2 327/3/2
f 328/3/2 329/3/2 330/3/2
f 332/3/2 333/3/2 334/3/2
f 334/3/2 333/3/2 335/3/2
f 330/3/2 331/3/2 336/3/2
f 336/3/2 331/3/2 337/3/2
f 330/3/2 336/3/2 338/3/2
f 328/3/2 330/3/2 339/3/2
f 330/3/2 338/3/2 339/3/2
f 339/3/2 338/3/2 340/3/2
f 340/3/2 338/3/2 342/3/2
f 342/3/2 338/3/2 343/3/2
f 343/3/2 338/3/2 344/3/2
f 341/3/2 342/3/2 345/3/2
f 342/3/2 343/3/2 345/3/2
f 345/3/2 343/3/2 346/3/2
f 347/1/2 348/1/2 349/1/2
f 349/1/2 348/1/2 350/1/2
f 351/3/2 352/3/2 353/3/2
f 353/3/2 352/3/2 354/3/2
f 355/3/2 356/3/2 357/3/2
f 357/3/2 356/3/2 358/3/2
f 359/3/2 360/3/2 362/3/2
f 361/3/2 362/3/2 364/3/2
f 363/1/2 364/1/2 365/1/2
f 364/3/2 362/3/2 366/3/2
f 365/1/2 364/1/2 366/1/2
f 366/3/2 362/3/2 367/3/2
f 367/3/2 362/3/2 370/3/2
f 362/3/2 360/3/2 371/3/2
f 369/3/2 370/3/2 371/3/2
f 370/3/2 362/3/2 371/3/2
f 369/3/2 371/3/2 373/3/2
f 371/3/2 372/3/2 373/3/2
f 373/3/2 372/3/2 374/3/2
f 374/3/2 372/3/2 375/3/2
f 375/3/2 372/3/2 376/3/2
f 368/1/2 369/1/2 377/1/2
f 369/3/2 373/3/2 378/3/2
f 377/1/2 369/1/2 378/1/2
f 373/4/2 374/4/2 379/4/2
f 378/3/2 373/3/2 379/3/2
f 374/3/2 375/3/2 380/3/2
f 379/4/2 374/4/2 380/4/2
f 380/3/2 375/3/2 381/3/2
f 382/3/2 383/3/2 384/3/2
f 384/3/2 383/3/2 385/3/2
f 382/3/2 384/3/2 387/3/2
f 387/3/2 384/3/2 388/3/2
f 386/3/2 387/3/2 389/3/2
f 389/3/2 387/3/2 390/3/2
f 391/3/2 392/3/2 393/3/2
f 393/3/2 392/3/2 394/3/2
f 395/3/2 396/3/2 397/3/2
f 395/3/2 397/3/2 399/3/2
f 397/3/2 398/3/2 399/3/2
f 399/3/2 398/3/2 400/3/2
f 401/3/2 402/3/2 403/3/2
f 403/3/2 402/3/2 404/3/2
f 405/3/2 406/3/2 407/3/2
f 407/3/2 406/3/2 408/3/2
f 405/3/2 407/3/2 409/3/2
f 409/3/2 407/3/2 410/3/2
f 405/3/2 409/3/2 411/3/2
f 405/3/2 411/3/2 414/3/2
f 411/3/2 412/3/2 414/3/2
f 413/3/2 414/3/2 416/3/2
f 415/1/2 416/1/2 417/1/2
f 416/3/2 414/3/2 418/3/2
f 417/1/2 416/1/2 418/1/2
f 418/3/2 414/3/2 419/3/2
f 419/3/2 414/3/2 420/3/2
f 414/3/2 412/3/2 421/3/2
f 420/3/2 414/3/2 421/3/2
f 421/3/2 412/3/2 422/3/2
f 422/3/2 412/3/2 423/3/2
f 424/3/2 425/3/2 426/3/2
f 426/3/2 425/3/2 427/3/2
f 421/3/2 422/3/2 428/3/2
f 428/3/2 422/3/2 429/3/2
f 430/3/2 431/3/2 432/3/2
f 432/3/2 431/3/2 433/3/2
f 430/3/2 432/3/2 434/3/2
f 434/3/2 432/3/2 435/3/2
f 430/3/2 434/3/2 436/3/2
f 436/3/2 434/3/2 437/3/2
f 438/3/2 439/3/2 440/3/2
f 440/3/2 439/3/2 441/3/2
f 441/3/2 439/3/2 442/3/2
f 442/3/2 439/3/2 443/3/2
f 444/3/2 445/3/2 447/3/2
f 447/3/2 445/3/2 448/3/2
f 446/3/2 447/3/2 452/3/2
f 447/3/2 448/3/2 452/3/2
f 448/3/2 449/3/2 452/3/2
f 450/3/2 451/3/2 454/3/2
f 452/3/2 453/3/2 455/3/2
f 446/3/2 452/3/2 455/3/2
f 455/3/2 453/3/2 456/3/2
f 456/3/2 453/3/2 457/3/2
f 450/3/2 454/3/2 459/3/2
f 454/3/2 455/3/2 459/3/2
f 455/3/2 456/3/2 459/3/2
f 458/3/2 459/3/2 460/3/2
f 459/3/2 456/3/2 461/3/2
f 460/3/2 459/3/2 461/3/2
f 462/3/2 463/3/2 464/3/2
f 464/3/2 463/3/2 465/3/2
f 466/3/2 467/3/2 469/3/2
f 469/3/2 467/3/2 470/3/2
f 470/3/2 467/3/2 471/3/2
f 471/3/2 467/3/2 472/3/2
f 472/3/2 467/3/2 473/3/2
f 468/3/2 469/3/2 474/3/2
f 469/3/2 470/3/2 474/3/2
f 474/3/2 470/3/2 475/3/2
f 471/3/2 472/3/2 476/3/2
f 476/3/2 472/3/2 477/3/2
f 473/3/2 467/3/2 478/3/2
f 478/3/2 467/3/2 479/3/2
f 479/3/2 467/3/2 480/3/2
f 480/3/2 467/3/2 481/3/2
f 481/3/2 467/3/2 482/3/2
f 482/3/2 467/3/2 483/3/2
f 484/3/2 485/3/2 486/3/2
f 486/3/2 485/3/2 487/3/2
f 488/3/2 489/3/2 490/3/2
f 490/3/2 489/3/2 491/3/2
f 492/3/2 493/3/2 494/3/2
f 494/3/2 493/3/2 495/3/2
f 496/3/2 497/3/2 498/3/2
f 498/3/2 497/3/2 499/3/2
f 496/3/2 498/3/2 500/3/2
f 500/3/2 498/3/2 501/3/2
f 499/3/2 497/3/2 502/3/2
f 502/3/2 497/3/2 503/3/2
f 504/3/2 505/3/2 506/3/2
f 506/3/2 505/3/2 507/3/2
f 508/3/2 509/3/2 510/3/2
f 510/3/2 509/3/2 511/3/2
f 512/2/2 513/2/2 514/2/2
f 514/2/2 513/2/2 515/2/2
f 516/3/2 517/3/2 518/3/2
f 518/3/2 517/3/2 519/3/2
f 522/2/3 521/2/3 520/2/3
f 523/2/3 521/2/3 522/2/3
f 526/1/3 525/1/3 524/1/3
f 527/1/3 525/1/3 526/1/3
f 534/1/3 531/1/3 530/1/3
f 535/1/3 531/1/3 534/1/3
f 538/1/3 537/1/3 536/1/3
f 539/1/3 537/1/3 538/1/3
f 542/1/3 541/1/3 540/1/3
f 543/1/3 541/1/3 542/1/3
f 544/1/3 533/1/3 532/1/3
f 545/1/3 533/1/3 544/1/3
f 548/1/3 547/1/3 546/1/3
f 549/1/3 547/1/3 548/1/3
f 550/3/3 529/3/3 528/3/3
f 551/3/3 529/3/3 550/3/3
f 554/3/3 553/3/3 552/3/3
f 556/3/3 554/3/3 552/3/3
f 556/3/3 555/3/3 554/3/3
f 557/3/3 555/3/3 556/3/3
f 558/3/3 556/3/3 552/3/3
f 559/3/3 558/3/3 552/3/3
f 560/3/3 558/3/3 559/3/3
f 563/3/3 562/3/3 561/3/3
f 565/3/3 563/3/3 561/3/3
f 565/3/3 564/3/3 563/3/3
f 566/3/3 564/3/3 565/3/3
f 567/3/3 565/3/3 561/3/3
f 568/3/3 565/3/3 567/3/3
f 571/3/3 570/3/3 569/3/3
f 572/3/3 570/3/3 571/3/3
f 575/3/3 574/3/3 573/3/3
f 576/3/3 574/3/3 575/3/3
f 581/3/3 580/3/3 579/3/3
f 582/3/3 580/3/3 581/3/3
f 583/3/3 581/3/3 579/3/3
f 584/3/3 581/3/3 583/3/3
f 585/3/3 578/3/3 577/3/3
f 586/3/3 578/3/3 585/3/3
f 590/3/3 588/3/3 587/3/3
f 590/3/3 589/3/3 588/3/3
f 591/3/3 589/3/3 590/3/3
f 596/3/3 595/3/3 594/3/3
f 599/3/3 596/3/3 594/3/3
f 600/3/3 596/3/3 599/3/3
f 604/3/3 602/3/3 601/3/3
f 605/3/3 593/3/3 592/3/3
f 607/3/3 604/3/3 603/3/3
f 608/3/3 602/3/3 604/3/3
f 608/3/3 604/3/3 607/3/3
f 609/3/3 598/3/3 597/3/3
f 610/3/3 598/3/3 609/3/3
f 611/3/3 606/3/3 605/3/3
f 611/3/3 605/3/3 592/3/3
f 612/3/3 606/3/3 611/3/3
f 613/3/3 606/3/3 612/3/3
f 614/3/3 606/3/3 613/3/3
f 619/3/3 618/3/3 617/3/3
f 620/3/3 618/3/3 619/3/3
f 621/3/3 616/3/3 615/3/3
f 622/3/3 616/3/3 621/3/3
f 623/3/3 616/3/3 622/3/3
f 624/3/3 616/3/3 623/3/3
f 626/3/3 619/3/3 617/3/3
f 627/3/3 619/3/3 626/3/3
f 628/3/3 625/3/3 624/3/3
f 629/3/3 625/3/3 628/3/3
f 630/3/3 628/3/3 624/3/3
f 631/3/3 628/3/3 630/3/3
f 632/3/3 624/3/3 623/3/3
f 632/3/3 630/3/3 624/3/3
f 633/3/3 630/3/3 632/3/3
f 636/3/3 635/3/3 634/3/3
f 637/3/3 635/3/3 636/3/3
f 638/3/3 636/3/3 634/3/3
f 639/3/3 636/3/3 638/3/3
f 645/3/3 641/3/3 640/3/3
f 646/3/3 643/3/3 642/3/3
f 649/3/3 645/3/3 644/3/3
f 650/3/3 641/3/3 645/3/3
f 650/3/3 645/3/3 649/3/3
f 652/3/3 647/3/3 646/3/3
f 654/3/3 646/3/3 642/3/3
f 654/3/3 653/3/3 652/3/3
f 654/3/3 652/3/3 646/3/3
f 655/3/3 653/3/3 654/3/3
f 656/3/3 653/3/3 655/3/3
f 658/3/3 651/3/3 650/3/3
f 658/3/3 649/3/3 648/3/3
f 658/3/3 650/3/3 649/3/3
f 660/3/3 657/3/3 656/3/3
f 660/3/3 656/3/3 655/3/3
f 661/3/3 657/3/3 660/3/3
f 662/3/3 657/3/3 661/3/3
f 664/3/3 660/3/3 659/3/3
f 664/3/3 661/3/3 660/3/3
f 665/3/3 661/3/3 664/3/3
f 666/3/3 661/3/3 665/3/3
f 667/3/3 664/3/3 663/3/3
f 667/3/3 665/3/3 664/3/3
f 668/3/3 665/3/3 667/3/3
f 669/3/3 651/3/3 658/3/3
f 670/3/3 651/3/3 669/3/3
f 671/3/3 667/3/3 663/3/3
f 672/3/3 667/3/3 671/3/3
f 673/3/3 669/3/3 658/3/3
f 674/3/3 669/3/3 673/3/3
f 675/3/3 673/3/3 658/3/3
f 676/3/3 673/3/3 675/3/3
f 679/3/3 678/3/3 677/3/3
f 680/3/3 678/3/3 679/3/3
f 682/3/3 681/3/3 680/3/3
f 683/3/3 681/3/3 682/3/3
f 686/3/3 685/3/3 684/3/3
f 688/3/3 686/3/3 684/3/3
f 688/3/3 687/3/3 686/3/3
f 689/3/3 687/3/3 688/3/3
f 694/3/3 691/3/3 690/3/3
f 695/3/3 691/3/3 694/3/3
f 698/3/3 697/3/3 696/3/3
f 699/3/3 698/3/3 696/3/3
f 700/3/3 698/3/3 699/3/3
f 701/3/3 693/3/3 692/3/3
f 702/3/3 693/3/3 701/3/3
f 705/3/3 704/3/3 703/3/3
f 706/3/3 705/3/3 703/3/3
f 707/3/3 705/3/3 706/3/3
f 710/3/3 709/3/3 708/3/3
f 711/3/3 709/3/3 710/3/3
f 712/3/3 710/3/3 708/3/3
f 713/3/3 710/3/3 712/3/3
f 716/3/3 715/3/3 714/3/3
f 717/3/3 715/3/3 716/3/3
f 721/3/3 719/3/3 718/3/3
f 723/3/3 721/3/3 720/3/3
f 724/3/3 723/3/3 722/3/3
f 725/3/3 721/3/3 723/3/3
f 725/3/3 723/3/3 724/3/3
f 727/3/3 721/3/3 725/3/3
f 728/3/3 727/3/3 726/3/3
f 729/3/3 727/3/3 728/3/3
f 731/3/3 727/3/3 729/3/3
f 732/3/3 731/3/3 730/3/3
f 733/3/3 721/3/3 727/3/3
f 733/3/3 731/3/3 732/3/3
f 733/3/3 727/3/3 731/3/3
f 735/3/3 721/3/3 733/3/3
f 736/3/3 719/3/3 721/3/3
f 736/3/3 721/3/3 735/3/3
f 737/3/3 719/3/3 736/3/3
f 738/3/3 735/3/3 734/3/3
f 738/3/3 736/3/3 735/3/3
f 739/3/3 736/3/3 738/3/3
f 740/3/3 736/3/3 739/3/3
f 741/3/3 736/3/3 740/3/3
f 742/3/3 736/3/3 741/3/3
f 745/3/3 744/3/3 743/3/3
f 746/3/3 744/3/3 745/3/3
f 747/3/3 744/3/3 746/3/3
f 748/3/3 744/3/3 747/3/3
f 751/3/3 750/3/3 749/3/3
f 752/3/3 750/3/3 751/3/3
f 755/3/3 754/3/3 753/3/3
f 756/3/3 754/3/3 755/3/3
f 759/3/3 758/3/3 757/3/3
f 760/3/3 758/3/3 759/3/3
f 765/3/3 762/3/3 761/3/3
f 766/3/3 764/3/3 763/3/3
f 766/3/3 765/3/3 764/3/3
f 767/3/3 765/3/3 766/3/3
f 769/3/3 765/3/3 767/3/3
f 770/3/3 769/3/3 768/3/3
f 771/3/3 765/3/3 769/3/3
f 771/3/3 769/3/3 770/3/3
f 773/3/3 765/3/3 771/3/3
f 774/3/3 773/3/3 772/3/3
f 775/3/3 765/3/3 773/3/3
f 775/3/3 773/3/3 774/3/3
f 777/3/3 765/3/3 775/3/3
f 778/3/3 777/3/3 776/3/3
f 779/3/3 765/3/3 777/3/3
f 779/3/3 777/3/3 778/3/3
f 781/3/3 765/3/3 779/3/3
f 782/3/3 781/3/3 780/3/3
f 783/3/3 765/3/3 781/3/3
f 783/3/3 781/3/3 782/3/3
f 784/3/3 765/3/3 783/3/3
f 785/3/3 765/3/3 784/3/3
f 786/3/3 765/3/3 785/3/3
f 787/3/3 762/3/3 765/3/3
f 787/3/3 765/3/3 786/3/3
f 790/3/3 789/3/3 788/3/3
f 791/3/3 789/3/3 790/3/3
f 794/3/3 793/3/3 792/3/3
f 795/3/3 793/3/3 794/3/3
f 796/3/4 797/3/4 798/3/4
f 798/3/4 797/3/4 799/3/4
f 796/3/4 798/3/4 800/3/4
f 800/3/4 798/3/4 801/3/4
f 802/3/4 803/3/4 804/3/4
f 804/3/4 803/3/4 805/3/4
f 806/3/4 807/3/4 808/3/4
f 808/3/4 807/3/4 809/3/4
f 810/3/4 811/3/4 812/3/4
f 812/3/4 811/3/4 813/3/4
f 814/3/4 815/3/4 816/3/4
f 816/3/4 815/3/4 817/3/4
f 818/3/4 819/3/4 820/3/4
f 820/3/4 819/3/4 821/3/4
f 822/3/4 823/3/4 824/3/4
f 824/3/4 823/3/4 825/3/4
f 830/3/4 831/3/4 832/3/4
f 832/3/4 831/3/4 833/3/4
f 830/3/4 832/3/4 835/3/4
f 835/3/4 832/3/4 836/3/4
f 826/3/4 827/3/4 837/3/4
f 837/3/4 827/3/4 838/3/4
f 834/3/4 835/3/4 839/3/4
f 839/3/4 835/3/4 840/3/4
f 828/3/4 829/3/4 841/3/4
f 841/3/4 829/3/4 842/3/4
f 843/3/4 844/3/4 845/3/4
f 845/3/4 844/3/4 846/3/4
f 847/3/4 848/3/4 851/3/4
f 851/3/4 848/3/4 852/3/4
f 849/3/4 850/3/4 853/3/4
f 853/3/4 850/3/4 854/3/4
f 855/3/4 856/3/4 857/3/4
f 857/3/4 856/3/4 858/3/4
f 859/3/4 860/3/4 863/3/4
f 863/3/4 860/3/4 864/3/4
f 861/3/4 862/3/4 865/3/4
f 865/3/4 862/3/4 866/3/4
f 867/3/4 868/3/4 870/3/4
f 870/3/4 868/3/4 871/3/4
f 869/3/4 870/3/4 873/3/4
f 871/3/4 872/3/4 873/3/4
f 870/3/4 871/3/4 873/3/4
f 873/3/4 872/3/4 874/3/4
f 869/3/4 873/3/4 875/3/4
f 875/3/4 873/3/4 876/3/4
f 869/3/4 875/3/4 877/3/4
f 877/3/4 875/3/4 878/3/4
f 869/3/4 877/3/4 879/3/4
f 879/3/4 877/3/4 880/3/4
f 869/3/4 879/3/4 881/3/4
f 881/3/4 879/3/4 882/3/4
f 883/3/4 884/3/4 885/3/4
f 885/3/4 884/3/4 886/3/4
f 887/3/4 888/3/4 889/3/4
f 889/3/4 888/3/4 890/3/4
f 891/3/4 892/3/4 893/3/4
f 893/3/4 892/3/4 894/3/4
f 895/3/4 896/3/4 897/3/4
f 897/3/4 896/3/4 898/3/4
f 899/3/4 900/3/4 901/3/4
f 901/3/4 900/3/4 902/3/4
f 903/3/4 904/3/4 908/3/4
f 908/3/4 904/3/4 909/3/4
f 907/3/4 908/3/4 910/3/4
f 908/3/4 909/3/4 910/3/4
f 907/3/4 910/3/4 912/3/4
f 910/3/4 911/3/4 912/3/4
f 912/3/4 911/3/4 913/3/4
f 913/3/4 911/3/4 914/3/4
f 914/3/4 911/3/4 915/3/4
f 915/3/4 911/3/4 916/3/4
f 914/3/4 915/3/4 917/3/4
f 917/3/4 915/3/4 918/3/4
f 918/3/4 915/3/4 919/3/4
f 919/3/4 915/3/4 920/3/4
f 918/3/4 919/3/4 921/3/4
f 921/3/4 919/3/4 922/3/4
f 922/3/4 919/3/4 923/3/4
f 923/3/4 919/3/4 924/3/4
f 922/3/4 923/3/4 925/3/4
f 925/3/4 923/3/4 926/3/4
f 905/3/4 906/3/4 927/3/4
f 927/3/4 906/3/4 928/3/4
f 905/3/4 927/3/4 929/3/4
f 929/3/4 927/3/4 930/3/4
f 931/3/4 932/3/4 933/3/4
f 933/3/4 932/3/4 934/3/4
f 935/3/4 936/3/4 937/3/4
f 937/3/4 936/3/4 938/3/4
f 939/3/4 940/3/4 941/3/4
f 941/3/4 940/3/4 942/3/4
f 942/3/4 940/3/4 943/3/4
f 943/3/4 940/3/4 944/3/4
f 945/3/4 946/3/4 947/3/4
f 947/3/4 946/3/4 948/3/4
f 949/3/4 950/3/4 952/3/4
f 951/3/4 952/3/4 954/3/4
f 953/3/4 954/3/4 955/3/4
f 954/3/4 952/3/4 956/3/4
f 955/3/4 954/3/4 956/3/4
f 956/3/4 952/3/4 958/3/4
f 957/3/4 958/3/4 959/3/4
f 959/3/4 958/3/4 960/3/4
f 960/3/4 958/3/4 962/3/4
f 961/3/4 962/3/4 963/3/4
f 958/3/4 952/3/4 964/3/4
f 963/3/4 962/3/4 964/3/4
f 962/3/4 958/3/4 964/3/4
f 964/3/4 952/3/4 966/3/4
f 965/3/4 966/3/4 967/3/4
f 966/3/4 952/3/4 968/3/4
f 967/3/4 966/3/4 968/3/4
f 952/3/4 950/3/4 969/3/4
f 968/3/4 952/3/4 969/3/4
f 969/3/4 950/3/4 970/3/4
f 968/3/4 969/3/4 971/3/4
f 971/3/4 969/3/4 972/3/4
f 972/3/4 973/3/4 974/3/4
f 974/3/4 973/3/4 975/3/4
f 976/3/4 977/3/4 978/3/4
f 978/3/4 977/3/4 979/3/4
f 979/3/4 977/3/4 980/3/4
f 979/3/4 980/3/4 982/3/4
f 980/3/4 981/3/4 982/3/4
f 982/3/4 981/3/4 983/3/4
f 983/3/4 981/3/4 984/3/4
f 984/3/4 981/3/4 985/3/4
f 986/3/4 987/3/4 988/3/4
f 990/3/4 991/3/4 992/3/4
f 992/3/4 991/3/4 993/3/4
f 993/3/4 991/3/4 995/3/4
f 988/3/4 989/3/4 996/3/4
f 996/3/4 989/3/4 997/3/4
f 994/3/4 995/3/4 998/3/4
f 995/3/4 991/3/4 999/3/4
f 998/3/4 995/3/4 999/3/4
f 986/3/4 988/3/4 1000/3/4
f 988/3/4 996/3/4 1000/3/4
f 1000/3/4 996/3/4 1001/3/4
f 999/3/4 991/3/4 1003/3/4
f 1002/3/4 1003/3/4 1004/3/4
f 1003/3/4 991/3/4 1005/3/4
f 1004/3/4 1003/3/4 1005/3/4
f 1005/3/4 991/3/4 1007/3/4
f 986/3/4 1000/3/4 1008/3/4
f 1008/3/4 1000/3/4 1009/3/4
f 1006/3/4 1007/3/4 1010/3/4
f 1007/3/4 991/3/4 1011/3/4
f 1010/3/4 1007/3/4 1011/3/4
f 1011/3/4 991/3/4 1012/3/4
f 1012/3/4 991/3/4 1013/3/4
f 1013/3/4 991/3/4 1014/3/4
f 1014/3/4 991/3/4 1015/3/4
f 1016/2/4 1017/2/4 1018/2/4
f 1018/2/4 1017/2/4 1019/2/4
f 1022/2/5 1021/2/5 1020/2/5
f 1023/2/5 1021/2/5 1022/2/5
f 1026/3/5 1025/3/5 1024/3/5
f 1027/3/5 1025/3/5 1026/3/5
f 1030/3/5 1029/3/5 1028/3/5
f 1031/3/5 1029/3/5 1030/3/5
f 1032/3/5 1029/3/5 1031/3/5
f 1035/3/5 1034/3/5 1033/3/5
f 1036/3/5 1034/3/5 1035/3/5
f 1039/3/5 1038/3/5 1037/3/5
f 1040/3/5 1038/3/5 1039/3/5
f 1041/3/5 1039/3/5 1037/3/5
f 1043/3/5 1041/3/5 1037/3/5
f 1043/3/5 1042/3/5 1041/3/5
f 1044/3/5 1042/3/5 1043/3/5
f 1047/3/5 1046/3/5 1045/3/5
f 1048/3/5 1046/3/5 1047/3/5
f 1051/3/5 1050/3/5 1049/3/5
f 1052/3/5 1050/3/5 1051/3/5
f 1055/3/5 1054/3/5 1053/3/5
f 1056/3/5 1054/3/5 1055/3/5
f 1059/3/5 1058/3/5 1057/3/5
f 1060/3/5 1058/3/5 1059/3/5
f 1063/3/5 1062/3/5 1061/3/5
f 1064/3/5 1062/3/5 1063/3/5
f 1067/3/5 1066/3/5 1065/3/5
f 1068/3/5 1066/3/5 1067/3/5
f 1071/3/5 1070/3/5 1069/3/5
f 1072/3/5 1070/3/5 1071/3/5
f 1075/3/5 1074/3/5 1073/3/5
f 1076/3/5 1074/3/5 1075/3/5
f 1078/3/5 1075/3/5 1073/3/5
f 1079/3/5 1075/3/5 1078/3/5
f 1080/3/5 1075/3/5 1079/3/5
f 1081/3/5 1078/3/5 1077/3/5
f 1081/3/5 1079/3/5 1078/3/5
f 1082/3/5 1079/3/5 1081/3/5
f 1083/3/5 1081/3/5 1077/3/5
f 1084/3/5 1081/3/5 1083/3/5
f 1089/3/5 1086/3/5 1085/3/5
f 1090/3/5 1086/3/5 1089/3/5
f 1091/3/5 1089/3/5 1085/3/5
f 1093/3/5 1092/3/5 1091/3/5
f 1094/3/5 1088/3/5 1087/3/5
f 1095/3/5 1093/3/5 1091/3/5
f 1095/3/5 1094/3/5 1093/3/5
f 1095/3/5 1091/3/5 1085/3/5
f 1096/3/5 1094/3/5 1095/3/5
f 1097/3/5 1088/3/5 1094/3/5
f 1097/3/5 1094/3/5 1096/3/5
f 1106/1/5 1099/1/5 1098/1/5
f 1107/1/5 1099/1/5 1106/1/5
f 1108/1/5 1101/1/5 1100/1/5
f 1109/1/5 1101/1/5 1108/1/5
f 1110/1/5 1103/1/5 1102/1/5
f 1111/1/5 1103/1/5 1110/1/5
f 1112/1/5 1105/1/5 1104/1/5
f 1113/1/5 1105/1/5 1112/1/5
f 1116/3/5 1115/3/5 1114/3/5
f 1117/3/5 1115/3/5 1116/3/5
f 1120/3/5 1119/3/5 1118/3/5
f 1121/3/5 1119/3/5 1120/3/5
f 1126/3/5 1123/3/5 1122/3/5
f 1127/3/5 1123/3/5 1126/3/5
f 1128/3/5 1125/3/5 1124/3/5
f 1129/3/5 1125/3/5 1128/3/5
f 1130/3/5 1125/3/5 1129/3/5
f 1131/3/5 1125/3/5 1130/3/5
f 1140/3/5 1133/3/5 1132/3/5
f 1141/3/5 1133/3/5 1140/3/5
f 1142/3/5 1135/3/5 1134/3/5
f 1143/3/5 1135/3/5 1142/3/5
f 1144/3/5 1137/3/5 1136/3/5
f 1145/3/5 1137/3/5 1144/3/5
f 1146/3/5 1139/3/5 1138/3/5
f 1147/3/5 1139/3/5 1146/3/5
f 1159/3/5 1149/3/5 1148/3/5
f 1160/3/5 1155/3/5 1154/3/5
f 1161/3/5 1157/3/5 1156/3/5
f 1162/3/5 1159/3/5 1158/3/5
f 1163/3/5 1149/3/5 1159/3/5
f 1163/3/5 1159/3/5 1162/3/5
f 1164/3/5 1151/3/5 1150/3/5
f 1165/3/5 1151/3/5 1164/3/5
f 1166/3/5 1153/3/5 1152/3/5
f 1167/3/5 1153/3/5 1166/3/5
f 1168/3/5 1160/3/5 1154/3/5
f 1168/3/5 1161/3/5 1160/3/5
f 1169/3/5 1157/3/5 1161/3/5
f 1169/3/5 1161/3/5 1168/3/5
f 1172/3/5 1171/3/5 1170/3/5
f 1173/3/5 1171/3/5 1172/3/5
f 1182/3/5 1181/3/5 1180/3/5
f 1183/3/5 1181/3/5 1182/3/5
f 1184/3/5 1175/3/5 1174/3/5
f 1185/3/5 1175/3/5 1184/3/5
f 1186/3/5 1177/3/5 1176/3/5
f 1187/3/5 1177/3/5 1186/3/5
f 1188/3/5 1179/3/5 1178/3/5
f 1189/3/5 1179/3/5 1188/3/5
f 1198/3/5 1191/3/5 1190/3/5
f 1199/3/5 1191/3/5 1198/3/5
f 1201/3/5 1193/3/5 1192/3/5
f 1202/3/5 1193/3/5 1201/3/5
f 1203/3/5 1195/3/5 1194/3/5
f 1204/3/5 1195/3/5 1203/3/5
f 1205/3/5 1197/3/5 1196/3/5
f 1206/3/5 1197/3/5 1205/3/5
f 1207/3/5 1200/3/5 1199/3/5
f 1207/3/5 1199/3/5 1198/3/5
f 1208/3/5 1200/3/5 1207/3/5
f 1211/3/5 1200/3/5 1208/3/5
f 1212/3/5 1200/3/5 1211/3/5
f 1213/3/5 1210/3/5 1209/3/5
f 1214/3/5 1210/3/5 1213/3/5
f 1218/3/5 1216/3/5 1215/3/5
f 1219/3/5 1218/3/5 1217/3/5
f 1220/3/5 1216/3/5 1218/3/5
f 1220/3/5 1218/3/5 1219/3/5
f 1223/3/5 1222/3/5 1221/3/5
f 1224/3/5 1222/3/5 1223/3/5
f 1227/3/5 1226/3/5 1225/3/5
f 1228/3/5 1226/3/5 1227/3/5
f 1232/3/5 1230/3/5 1229/3/5
f 1233/3/5 1230/3/5 1232/3/5
f 1235/3/5 1232/3/5 1231/3/5
f 1235/3/5 1233/3/5 1232/3/5
f 1236/3/5 1235/3/5 1234/3/5
f 1237/3/5 1235/3/5 1236/3/5
f 1238/3/5 1233/3/5 1235/3/5
f 1238/3/5 1235/3/5 1237/3/5
f 1239/3/5 1233/3/5 1238/3/5
f 1240/3/5 1238/3/5 1237/3/5
f 1241/3/5 1238/3/5 1240/3/5
f 1244/3/5 1243/3/5 1242/3/5
f 1245/3/5 1243/3/5 1244/3/5
f 1248/3/5 1247/3/5 1246/3/5
f 1249/3/5 1247/3/5 1248/3/5
f 1252/1/5 1251/1/5 1250/1/5
f 1253/1/5 1251/1/5 1252/1/5
f 1254/3/5 1253/3/5 1252/3/5
f 1254/1/5 1251/1/5 1253/1/5
f 1255/1/5 1251/1/5 1254/1/5
f 1256/1/5 1251/1/5 1255/1/5
f 1257/3/5 1254/3/5 1252/3/5
f 1257/3/5 1255/3/5 1254/3/5
f 1258/3/5 1255/3/5 1257/3/5
f 1259/1/5 1251/1/5 1256/1/5
f 1260/1/5 1251/1/5 1259/1/5
f 1261/3/5 1257/3/5 1252/3/5
f 1262/3/5 1257/3/5 1261/3/5
f 1265/3/5 1264/3/5 1263/3/5
f 1266/3/5 1265/3/5 1263/3/5
f 1267/3/5 1265/3/5 1266/3/5
f 1268/3/5 1265/3/5 1267/3/5
f 1271/1/5 1270/1/5 1269/1/5
f 1272/1/5 1270/1/5 1271/1/5
f 1273/3/5 1272/3/5 1271/3/5
f 1274/3/5 1272/3/5 1273/3/5
f 1277/3/5 1276/3/5 1275/3/5
f 1278/3/5 1276/3/5 1277/3/5
f 1279/2/6 1280/2/6 1281/2/6
f 1281/2/6 1280/2/6 1282/2/6
f 1282/2/6 1280/2/6 1283/2/6
f 1283/2/6 1280/2/6 1284/2/6
f 1279/2/6 1281/2/6 1285/2/6
f 1284/2/6 1280/2/6 1286/2/6
f 1279/2/6 1285/2/6 1287/2/6
f 1285/2/6 1286/2/6 1287/2/6
f 1286/2/6 1280/2/6 1288/2/6
f 1287/2/6 1286/2/6 1288/2/6
f 1289/3/6 1290/3/6 1291/3/6
f 1291/3/6 1290/3/6 1292/3/6
f 1293/3/6 1294/3/6 1295/3/6
f 1293/3/6 1295/3/6 1297/3/6
f 1295/3/6 1296/3/6 1297/3/6
f 1297/3/6 1296/3/6 1298/3/6
f 1293/3/6 1297/3/6 1299/3/6
f 1299/3/6 1297/3/6 1300/3/6
f 1301/3/6 1302/3/6 1303/3/6
f 1303/3/6 1302/3/6 1304/3/6
f 1305/3/6 1306/3/6 1307/3/6
f 1305/3/6 1307/3/6 1309/3/6
f 1307/3/6 1308/3/6 1309/3/6
f 1309/3/6 1308/3/6 1310/3/6
f 1305/3/6 1309/3/6 1311/3/6
f 1305/3/6 1311/3/6 1313/3/6
f 1311/3/6 1312/3/6 1313/3/6
f 1313/3/6 1312/3/6 1314/3/6
f 1305/3/6 1313/3/6 1315/3/6
f 1315/3/6 1313/3/6 1316/3/6
f 1317/3/6 1318/3/6 1319/3/6
f 1319/3/6 1318/3/6 1320/3/6
f 1321/3/6 1322/3/6 1323/3/6
f 1323/3/6 1322/3/6 1324/3/6
f 1325/3/6 1326/3/6 1327/3/6
f 1327/3/6 1326/3/6 1328/3/6
f 1329/3/6 1330/3/6 1331/3/6
f 1331/3/6 1330/3/6 1332/3/6
f 1333/3/6 1334/3/6 1335/3/6
f 1335/3/6 1334/3/6 1336/3/6
f 1337/3/6 1338/3/6 1339/3/6
f 1339/3/6 1338/3/6 1340/3/6
f 1341/3/6 1342/3/6 1343/3/6
f 1343/3/6 1342/3/6 1344/3/6
f 1345/3/6 1346/3/6 1347/3/6
f 1347/3/6 1346/3/6 1348/3/6
f 1349/3/6 1350/3/6 1351/3/6
f 1351/3/6 1350/3/6 1352/3/6
f 1353/3/6 1354/3/6 1355/3/6
f 1355/3/6 1354/3/6 1356/3/6
f 1357/3/6 1358/3/6 1359/3/6
f 1359/3/6 1358/3/6 1360/3/6
f 1361/3/6 1362/3/6 1363/3/6
f 1363/3/6 1362/3/6 1364/3/6
f 1365/3/6 1366/3/6 1367/3/6
f 1367/3/6 1366/3/6 1368/3/6
f 1369/3/6 1370/3/6 1373/3/6
f 1373/3/6 1370/3/6 1374/3/6
f 1371/3/6 1372/3/6 1375/3/6
f 1375/3/6 1372/3/6 1376/3/6
f 1377/3/6 1378/3/6 1379/3/6
f 1379/3/6 1378/3/6 1380/3/6
f 1377/3/6 1379/3/6 1381/3/6
f 1381/3/6 1379/3/6 1382/3/6
f 1383/3/6 1384/3/6 1385/3/6
f 1385/3/6 1384/3/6 1386/3/6
f 1387/3/6 1388/3/6 1389/3/6
f 1389/3/6 1388/3/6 1390/3/6
f 1391/3/6 1392/3/6 1393/3/6
f 1393/3/6 1392/3/6 1394/3/6
f 1395/1/6 1396/1/6 1403/1/6
f 1403/1/6 1396/1/6 1404/1/6
f 1397/1/6 1398/1/6 1405/1/6
f 1405/1/6 1398/1/6 1406/1/6
f 1399/1/6 1400/1/6 1407/1/6
f 1407/1/6 1400/1/6 1408/1/6
f 1401/1/6 1402/1/6 1409/1/6
f 1409/1/6 1402/1/6 1410/1/6
f 1403/3/6 1404/3/6 1411/3/6
f 1405/3/6 1406/3/6 1411/3/6
f 1404/3/6 1405/3/6 1411/3/6
f 1411/3/6 1406/3/6 1412/3/6
f 1403/3/6 1411/3/6 1413/3/6
f 1413/3/6 1414/3/6 1415/3/6
f 1407/3/6 1408/3/6 1416/3/6
f 1409/3/6 1410/3/6 1416/3/6
f 1408/3/6 1409/3/6 1416/3/6
f 1413/3/6 1415/3/6 1417/3/6
f 1415/3/6 1416/3/6 1417/3/6
f 1403/3/6 1413/3/6 1417/3/6
f 1416/3/6 1410/3/6 1418/3/6
f 1417/3/6 1416/3/6 1418/3/6
f 1419/3/6 1420/3/6 1421/3/6
f 1421/3/6 1420/3/6 1422/3/6
f 1423/3/6 1424/3/6 1425/3/6
f 1425/3/6 1424/3/6 1426/3/6
f 1427/3/6 1428/3/6 1429/3/6
f 1429/3/6 1428/3/6 1430/3/6
f 1427/3/6 1429/3/6 1432/3/6
f 1431/3/6 1432/3/6 1433/3/6
f 1432/3/6 1429/3/6 1434/3/6
f 1433/3/6 1432/3/6 1434/3/6
f 1435/3/6 1436/3/6 1439/3/6
f 1439/3/6 1436/3/6 1440/3/6
f 1437/3/6 1438/3/6 1441/3/6
f 1441/3/6 1438/3/6 1442/3/6
f 1443/3/6 1444/3/6 1445/3/6
f 1445/3/6 1444/3/6 1446/3/6
f 1447/3/6 1448/3/6 1449/3/6
f 1449/3/6 1448/3/6 1450/3/6
f 1451/3/6 1452/3/6 1456/3/6
f 1456/3/6 1452/3/6 1457/3/6
f 1453/3/6 1454/3/6 1459/3/6
f 1459/3/6 1454/3/6 1460/3/6
f 1458/3/6 1459/3/6 1461/3/6
f 1461/3/6 1459/3/6 1462/3/6
f 1455/3/6 1456/3/6 1463/3/6
f 1463/3/6 1456/3/6 1464/3/6
f 1458/3/6 1461/3/6 1465/3/6
f 1465/3/6 1461/3/6 1466/3/6
f 1467/3/6 1468/3/6 1472/3/6
f 1471/3/6 1472/3/6 1473/3/6
f 1472/3/6 1468/3/6 1474/3/6
f 1473/3/6 1472/3/6 1474/3/6
f 1469/3/6 1470/3/6 1475/3/6
f 1475/3/6 1470/3/6 1476/3/6
f 1477/3/6 1478/3/6 1479/3/6
f 1479/3/6 1478/3/6 1480/3/6
f 1481/3/6 1482/3/6 1483/3/6
f 1483/3/6 1482/3/6 1484/3/6
f 1485/3/6 1486/3/6 1488/3/6
f 1486/3/6 1487/3/6 1488/3/6
f 1488/3/6 1487/3/6 1489/3/6
f 1489/3/6 1487/3/6 1490/3/6
f 1490/3/6 1487/3/6 1491/3/6
f 1491/3/6 1492/3/6 1493/3/6
f 1493/3/6 1492/3/6 1494/3/6
f 1495/1/6 1496/1/6 1497/1/6
f 1497/1/6 1496/1/6 1498/1/6
f 1497/3/6 1498/3/6 1499/3/6
f 1498/1/6 1496/1/6 1499/1/6
f 1499/1/6 1496/1/6 1500/1/6
f 1499/3/6 1500/3/6 1501/3/6
f 1500/1/6 1496/1/6 1501/1/6
f 1501/1/6 1496/1/6 1502/1/6
f 1497/3/6 1499/3/6 1503/3/6
f 1499/3/6 1501/3/6 1503/3/6
f 1501/3/6 1502/3/6 1503/3/6
f 1503/3/6 1502/3/6 1504/3/6
f 1505/3/6 1506/3/6 1508/3/6
f 1506/3/6 1507/3/6 1508/3/6
f 1508/3/6 1507/3/6 1509/3/6
f 1509/3/6 1507/3/6 1510/3/6
f 1510/3/6 1507/3/6 1511/3/6
f 1509/3/6 1510/3/6 1512/3/6
f 1512/3/6 1510/3/6 1513/3/6
f 1514/3/6 1515/3/6 1516/3/6
f 1514/3/6 1516/3/6 1518/3/6
f 1516/3/6 1517/3/6 1518/3/6
f 1518/3/6 1517/3/6 1519/3/6
f 1520/3/6 1521/3/6 1522/3/6
f 1522/3/6 1521/3/6 1523/3/6
f 1524/3/6 1525/3/6 1526/3/6
f 1526/3/6 1525/3/6 1527/3/6
f 1528/3/6 1529/3/6 1530/3/6
f 1530/3/6 1529/3/6 1531/3/6
f 1532/1/6 1533/1/6 1534/1/6
f 1534/1/6 1533/1/6 1535/1/6
f 1534/3/6 1535/3/6 1536/3/6
f 1536/3/6 1535/3/6 1537/3/6
f 1537/3/6 1535/3/6 1538/3/6
f 1538/3/6 1535/3/6 1539/3/6
f 1536/4/6 1537/4/6 1540/4/6
f 1537/3/6 1538/3/6 1541/3/6
f 1540/4/6 1537/4/6 1541/4/6
f 1538/4/6 1539/4/6 1542/4/6
f 1541/3/6 1538/3/6 1542/3/6
f 1540/3/6 1541/3/6 1542/3/6
f 1542/4/6 1539/4/6 1543/4/6
f 1540/3/6 1542/3/6 1544/3/6
f 1542/3/6 1543/3/6 1544/3/6
f 1544/3/6 1543/3/6 1545/3/6
f 1540/3/6 1544/3/6 1546/3/6
f 1546/3/6 1544/3/6 1547/3/6
